<svg width="175" height="33" viewBox="0 0 175 33" fill="none" xmlns="http://www.w3.org/2000/svg"><path d="M9.648 12.688L8.384 9.503H2.912l-1.264 3.184H.272L4.896 1.262h1.552l4.64 11.425h-1.44zM5.632 2.639L3.36 8.369h4.576L5.68 2.638h-.048zm9.126 10.049l-3.216-8.049h1.36l2.592 6.737h.032l2.48-6.736h1.328l-3.088 8.047h-1.488zm12.805-2.369c-.368 1.712-1.76 2.56-3.328 2.56-2.272 0-3.872-1.583-3.872-4.175 0-2.625 1.648-4.257 3.792-4.257 2.384 0 3.456 1.904 3.456 3.968v.529H21.66c.064 1.855 1.04 2.88 2.576 2.88 1.088 0 1.744-.528 2.08-1.505h1.248zm-3.408-4.8c-1.264 0-2.224.816-2.448 2.465h4.608c-.032-1.393-.72-2.465-2.16-2.465zm10.17-.992v1.216a3.238 3.238 0 00-.688-.064c-1.28 0-2.448 1.008-2.448 3.04v3.969h-1.328V4.639h1.28v1.904c.353-1.328 1.377-2.08 2.56-2.08.209 0 .432.016.624.064zm6.62 8.16a7.032 7.032 0 01-.143-1.36c-.352.944-1.456 1.537-2.8 1.537-1.408 0-2.608-.817-2.608-2.305 0-1.551 1.152-2.223 2.784-2.415l2.592-.337v-.464c0-1.28-.784-1.824-1.888-1.824-1.072 0-1.744.56-1.84 1.489h-1.28c.16-1.633 1.44-2.56 3.152-2.56 1.952 0 3.168.927 3.168 2.863v3.697c0 .592.032 1.152.192 1.68h-1.328zm-2.671-.832c1.248 0 2.496-.784 2.496-2.335V8.8l-2.192.24c-1.008.144-1.84.4-1.84 1.488 0 .752.528 1.327 1.536 1.327zm12.204.32v-1.184c-.368.784-1.264 1.553-2.672 1.553-2.064 0-3.568-1.553-3.568-4.065 0-2.415 1.504-4.031 3.568-4.031 1.408 0 2.336.831 2.72 1.6V4.639h1.296v7.44c0 2.56-1.664 3.648-3.808 3.648-1.936 0-3.248-.784-3.568-2.351h1.344c.272 1.008 1.12 1.328 2.208 1.328 1.584 0 2.48-.849 2.48-2.529zm.096-3.504v-.383c0-1.665-1.04-2.8-2.528-2.8-1.568 0-2.496 1.2-2.496 2.991 0 1.777.928 3.009 2.496 3.009 1.488 0 2.528-1.152 2.528-2.816zm10.708 1.649c-.368 1.711-1.76 2.56-3.328 2.56-2.272 0-3.872-1.585-3.872-4.177 0-2.623 1.648-4.255 3.792-4.255 2.384 0 3.456 1.903 3.456 3.967v.529h-5.952c.064 1.855 1.04 2.88 2.576 2.88 1.088 0 1.744-.528 2.08-1.505h1.248zm-3.408-4.8c-1.264 0-2.224.816-2.448 2.464h4.608c-.032-1.393-.72-2.465-2.16-2.465zm10.503 5.76v4.256h-1.328V4.64h1.28v1.472c.368-.817 1.328-1.665 2.72-1.665 2.048 0 3.584 1.665 3.584 4.224 0 2.545-1.536 4.209-3.584 4.209-1.328 0-2.272-.785-2.672-1.6zm-.064-2.736v.223c0 1.825.896 3.072 2.464 3.072 1.584 0 2.512-1.296 2.512-3.168 0-1.887-.928-3.183-2.512-3.183-1.568 0-2.464 1.231-2.464 3.055zm9.908-2.433c.384-1.023 1.344-1.663 2.576-1.663 1.808 0 2.88 1.135 2.88 3.055v5.184h-1.328V7.793c0-1.489-.656-2.256-1.92-2.256-1.232 0-2.208.784-2.208 2.72v4.431h-1.328V.912h1.328v5.2zm15.275 2.56c0 2.593-1.6 4.209-3.824 4.209-2.224 0-3.824-1.617-3.824-4.209 0-2.591 1.6-4.223 3.824-4.223 2.224 0 3.824 1.631 3.824 4.223zm-6.336 0c0 1.937.944 3.136 2.512 3.136s2.512-1.2 2.512-3.136c0-1.935-.944-3.151-2.512-3.151S87.16 6.736 87.16 8.671zm9.872-4.031v1.472c.384-.992 1.392-1.665 2.624-1.665 1.808 0 2.88 1.136 2.88 3.056v5.184h-1.328V7.793c0-1.489-.656-2.256-1.92-2.256-1.232 0-2.208.784-2.208 2.72v4.431h-1.328V4.64h1.28zm14.875 5.68c-.368 1.711-1.76 2.56-3.328 2.56-2.272 0-3.872-1.585-3.872-4.177 0-2.623 1.648-4.255 3.792-4.255 2.384 0 3.456 1.903 3.456 3.967v.529h-5.952c.064 1.855 1.04 2.88 2.576 2.88 1.088 0 1.744-.528 2.08-1.505h1.248zm-3.408-4.8c-1.264 0-2.224.816-2.448 2.464h4.608c-.032-1.393-.72-2.465-2.16-2.465zm8.487 4.784h1.28c.096 1.104 1.12 1.567 2.208 1.567 1.104 0 1.904-.511 1.904-1.376 0-.591-.384-.975-1.408-1.167l-1.424-.288c-1.296-.24-2.24-.768-2.24-2.176 0-1.36 1.216-2.417 2.992-2.417 1.856 0 2.992.8 3.152 2.32h-1.232c-.096-.816-.816-1.296-1.92-1.296-1.072 0-1.76.529-1.76 1.313 0 .688.48.976 1.408 1.152l1.6.303c1.312.256 2.08.896 2.08 2.192 0 1.409-1.328 2.449-3.136 2.449-1.92 0-3.36-.849-3.504-2.577zm15.562 2.383h-1.296v-1.455c-.384 1.008-1.344 1.648-2.56 1.648-1.824 0-2.848-1.105-2.848-3.057V4.64h1.344v4.929c0 1.488.624 2.271 1.888 2.271 1.216 0 2.128-.832 2.128-2.768V4.64h1.344v8.047zm4.173-1.407v4.256h-1.328V4.64h1.28v1.472c.368-.817 1.328-1.665 2.72-1.665 2.048 0 3.584 1.665 3.584 4.224 0 2.545-1.536 4.209-3.584 4.209-1.328 0-2.272-.785-2.672-1.6zm-.064-2.736v.223c0 1.825.896 3.072 2.464 3.072 1.584 0 2.512-1.296 2.512-3.168 0-1.887-.928-3.183-2.512-3.183-1.568 0-2.464 1.231-2.464 3.055zm9.908 2.736v4.256h-1.328V4.64h1.28v1.472c.368-.817 1.328-1.665 2.72-1.665 2.048 0 3.584 1.665 3.584 4.224 0 2.545-1.536 4.209-3.584 4.209-1.328 0-2.272-.785-2.672-1.6zm-.064-2.736v.223c0 1.825.896 3.072 2.464 3.072 1.584 0 2.512-1.296 2.512-3.168 0-1.887-.928-3.183-2.512-3.183-1.568 0-2.464 1.231-2.464 3.055zm15.651.127c0 2.593-1.6 4.209-3.824 4.209-2.224 0-3.824-1.617-3.824-4.209 0-2.591 1.6-4.223 3.824-4.223 2.224 0 3.824 1.631 3.824 4.223zm-6.336 0c0 1.937.944 3.136 2.512 3.136s2.512-1.2 2.512-3.136c0-1.935-.944-3.151-2.512-3.151s-2.512 1.216-2.512 3.152zm13.056-4.143v1.216a3.238 3.238 0 00-.688-.064c-1.28 0-2.448 1.008-2.448 3.04v3.967h-1.328V4.64h1.28v1.904c.352-1.329 1.376-2.08 2.56-2.08.208 0 .432.015.624.063zm5.796 6.976v1.088a4.908 4.908 0 01-1.408.223c-1.472 0-2.224-.704-2.224-2.191V5.646h-1.184V4.64h1.184V2.591h1.312V4.64h2.112v1.008h-2.128v4.912c0 .849.432 1.136 1.168 1.136.304 0 .656-.031 1.168-.191zM6.816 24.64l1.824 6.607h.032l1.856-6.607h1.28l-2.432 8.047H8l-1.856-6.511h-.048l-1.824 6.512H2.88L.448 24.639H1.76l1.872 6.608h.048l1.792-6.607h1.344zm11.677 8.047a7.032 7.032 0 01-.144-1.36c-.352.945-1.456 1.537-2.8 1.537-1.408 0-2.608-.816-2.608-2.304 0-1.552 1.152-2.224 2.784-2.416l2.592-.336v-.465c0-1.28-.784-1.823-1.888-1.823-1.072 0-1.744.56-1.84 1.488h-1.28c.16-1.633 1.44-2.56 3.152-2.56 1.952 0 3.168.927 3.168 2.863v3.697c0 .591.032 1.152.192 1.68h-1.328zm-2.672-.831c1.248 0 2.496-.785 2.496-2.337v-.72l-2.192.24c-1.008.144-1.84.4-1.84 1.488 0 .752.528 1.328 1.536 1.328zm6.476-8.897v-1.616H23.8v1.616h-1.504zm.096 9.729v-8.049h1.328v8.049h-1.328zm7.916-1.185v1.089a4.908 4.908 0 01-1.408.224c-1.472 0-2.224-.705-2.224-2.193v-4.976h-1.184V24.64h1.184V22.59h1.312v2.049H30.1v1.008h-2.128v4.912c0 .848.432 1.136 1.168 1.136.304 0 .656-.033 1.168-.193zm9.375 0v1.089a4.908 4.908 0 01-1.408.224c-1.472 0-2.224-.705-2.224-2.193v-4.976h-1.184V24.64h1.184V22.59h1.312v2.049h2.112v1.008h-2.128v4.912c0 .848.432 1.136 1.168 1.136.304 0 .656-.033 1.168-.193zm2.066-8.544v-1.616h1.504v1.616H41.75zm.096 9.729v-8.049h1.328v8.049h-1.328zm10.444-6.513c.496-1.088 1.52-1.727 2.704-1.727 1.856 0 2.768 1.168 2.768 3.055v5.184h-1.344v-4.895c0-1.505-.544-2.257-1.744-2.257s-2.112.864-2.112 2.72v4.433h-1.344V27.79c0-1.503-.528-2.256-1.744-2.256s-2.128.864-2.128 2.72v4.433h-1.328v-8.049h1.28v1.473c.384-1.024 1.376-1.664 2.544-1.664 1.36 0 2.096.655 2.448 1.727zm14.836 4.145c-.368 1.712-1.76 2.56-3.328 2.56-2.272 0-3.872-1.585-3.872-4.177 0-2.623 1.648-4.255 3.792-4.255 2.384 0 3.456 1.904 3.456 3.968v.527h-5.952c.064 1.856 1.04 2.88 2.576 2.88 1.088 0 1.744-.527 2.08-1.503h1.248zm-3.408-4.8c-1.264 0-2.224.816-2.448 2.463h4.608c-.032-1.392-.72-2.463-2.16-2.463z" fill="#000"/></svg>