<svg width="186" height="71" viewBox="0 0 186 71" fill="none" xmlns="http://www.w3.org/2000/svg"><path d="M40.584 1.143v43.968h15.264v4.8H40.584v19.776H34.92V49.912H.84v-4.895L33.768 1.144h6.816zM34.92 7.768L6.984 45.11H34.92V7.768zM83.826-.01c12.384 0 21.792 7.105 21.792 18.72 0 7.969-4.512 13.537-11.616 16.224 7.584 1.344 14.784 7.968 14.784 16.128 0 11.616-9.696 19.776-24.96 19.776-15.168 0-24.864-8.16-24.864-19.776 0-8.16 7.2-14.784 14.784-16.128-7.104-2.688-11.712-8.256-11.712-16.224 0-11.615 9.504-18.72 21.792-18.72zm0 32.065c8.832 0 16.32-4.32 16.32-13.536 0-9.12-7.488-13.44-16.32-13.44-8.736 0-16.224 4.32-16.224 13.44 0 9.215 7.488 13.536 16.224 13.536zm0 33.695c11.712 0 18.912-5.664 18.912-14.4 0-8.64-7.2-14.111-18.912-14.111-11.616 0-18.816 5.471-18.816 14.111 0 8.736 7.2 14.4 18.816 14.4zm34.529-3.216h3.84c.288 3.313 3.36 4.705 6.624 4.705 3.312 0 5.712-1.536 5.712-4.128 0-1.776-1.152-2.928-4.224-3.505l-4.272-.864c-3.888-.72-6.72-2.303-6.72-6.528 0-4.08 3.648-7.248 8.976-7.248 5.568 0 8.976 2.4 9.456 6.96h-3.696c-.288-2.447-2.448-3.888-5.76-3.888-3.216 0-5.28 1.584-5.28 3.936 0 2.064 1.44 2.928 4.224 3.456l4.8.913c3.936.767 6.24 2.688 6.24 6.575 0 4.225-3.984 7.344-9.408 7.344-5.76 0-10.08-2.544-10.512-7.728zm43.758.049c-1.104 5.135-5.28 7.68-9.984 7.68-6.816 0-11.616-4.752-11.616-12.528 0-7.872 4.944-12.768 11.376-12.768 7.152 0 10.368 5.711 10.368 11.903v1.584h-17.856c.192 5.569 3.12 8.64 7.728 8.64 3.264 0 5.232-1.584 6.24-4.511h3.744zm-10.224-14.4c-3.792 0-6.672 2.448-7.344 7.392h13.824c-.096-4.176-2.16-7.392-6.48-7.392zm12.509 9.456c0-7.729 4.656-12.672 11.376-12.672 5.376 0 8.928 3.071 9.696 8.207h-3.792c-.672-3.215-2.64-4.991-5.904-4.991-4.752 0-7.44 3.791-7.44 9.456 0 5.663 2.688 9.407 7.44 9.407 3.264 0 5.232-1.775 5.904-4.991h3.792c-.768 5.184-4.32 8.207-9.696 8.207-6.72 0-11.376-4.895-11.376-12.624z" fill="#000"/></svg>