<svg width="344" height="53" viewBox="0 0 344 53" fill="none" xmlns="http://www.w3.org/2000/svg"><path d="M329.122 39.352l-6.793-20.753h-.237l-6.616 20.753h-2.954l-8.093-24.35c-.295-.943-.768-1.12-3.662-1.12v-2.535h12.523v2.535c-3.367.118-3.721.177-3.721.767 0 .236.118.59.236.884l5.139 16.626h.237l6.557-20.812h2.895l6.734 20.87h.236l5.376-16.684c.118-.295.236-.648.236-.884 0-.59-.354-.649-3.721-.767v-2.535h10.279v2.535c-2.895 0-3.308.177-3.604 1.12l-8.093 24.35h-2.954zM299.613 33.397c-2.008 4.01-6.262 6.25-10.633 6.25-6.735 0-12.819-5.307-12.819-14.15 0-8.608 6.084-14.74 12.76-14.74 7.207 0 10.574 5.248 10.574 11.792v1.887h-18.313v.176c0 7.606 4.194 11.497 8.92 11.497 3.072 0 5.081-1.18 7.325-4.245l2.186 1.533zm-10.929-19.75c-3.485 0-6.557 2.83-7.325 8.194h13.174c-.059-5.01-1.654-8.195-5.849-8.195zM267.86 36.522v2.535h-14.532v-2.535c3.544 0 3.839-.118 3.839-1.12V17.597c0-1.239-.295-1.415-1.358-1.887l-2.718-1.238v-1.297l8.33-2.417h.827v7.84c1.772-3.006 5.435-7.84 8.802-7.84 2.599 0 3.899 1.768 3.899 3.537 0 2.063-1.418 3.184-3.19 3.184-1.654 0-2.363-1.71-3.722-1.71-1.654.118-4.194 3.066-5.789 5.424v14.09c0 1.12.295 1.239 5.612 1.239zM240.655 13.823c-4.195 0-7.739 4.481-7.739 11.084 0 7.37 3.899 11.202 8.152 11.202 3.308 0 5.494-1.592 7.443-4.893l2.304 1.415c-2.067 4.185-5.73 7.016-10.692 7.016-6.439 0-12.347-4.894-12.347-13.737 0-8.608 6.558-15.152 13.587-15.152 5.081 0 8.684 2.889 8.684 5.6 0 1.828-1.299 2.771-2.658 2.771-3.426 0-2.186-5.306-6.734-5.306zM207.098 36.522v2.535h-14.532v-2.535c3.544 0 3.84-.118 3.84-1.12V17.597c0-1.239-.296-1.415-1.359-1.887l-2.717-1.238v-1.297l8.329-2.417h.827v7.84c1.772-3.006 5.435-7.84 8.802-7.84 2.599 0 3.899 1.768 3.899 3.537 0 2.063-1.418 3.184-3.19 3.184-1.654 0-2.363-1.71-3.722-1.71-1.654.118-4.194 3.066-5.789 5.424v14.09c0 1.12.295 1.239 5.612 1.239zM190.349 38.408l-8.329 1.239h-.827v-4.953c-1.773 2.3-5.022 4.953-8.862 4.953-5.139 0-8.152-3.833-8.152-9.846V16.418c0-1.239-.236-1.651-1.359-1.887l-2.835-.53v-2.064l8.447-.59h.828v18.1c0 4.304 1.89 6.485 5.198 6.485 2.718 0 5.021-1.592 6.735-3.478V16.417c0-1.238-.237-1.65-1.359-1.886l-2.836-.53v-2.064l8.448-.59h.827v22.64c0 1.238.295 1.415 1.359 1.886l2.717 1.238v1.297zM132.071 25.202c0-8.726 5.849-14.444 12.879-14.444 7.029 0 12.878 5.718 12.878 14.444s-5.849 14.445-12.878 14.445c-7.03 0-12.879-5.72-12.879-14.445zm20.322 0c0-7.134-2.599-11.497-7.443-11.497-4.845 0-7.444 4.363-7.444 11.497 0 7.134 2.599 11.497 7.444 11.497 4.844 0 7.443-4.363 7.443-11.497zM117.567 40.177c-2.717 6.721-5.907 11.968-11.106 11.968-2.363 0-4.371-1.415-4.371-3.655 0-1.828 1.477-2.83 2.835-2.83 2.304 0 2.895 2.712 4.136 2.712 1.772 0 3.839-3.36 6.202-9.315l-9.983-24.055c-.355-.943-.768-1.12-3.663-1.12v-2.535h12.76v2.535c-3.367.118-3.721.177-3.721.767 0 .236.118.59.236.884l6.675 17.098h.177l6.735-17.098c.118-.295.236-.648.236-.884 0-.59-.354-.649-3.721-.767v-2.535h10.456v2.535c-2.895 0-3.249.177-3.604 1.12l-10.279 25.175zM77.158 40.177c-2.717 6.721-5.907 11.968-11.106 11.968-2.363 0-4.371-1.415-4.371-3.655 0-1.828 1.477-2.83 2.835-2.83 2.304 0 2.895 2.712 4.135 2.712 1.773 0 3.84-3.36 6.203-9.315l-9.983-24.055c-.355-.943-.768-1.12-3.663-1.12v-2.535h12.76v2.535c-3.367.118-3.722.177-3.722.767 0 .236.119.59.237.884l6.675 17.098h.177l6.735-17.098c.118-.295.236-.648.236-.884 0-.59-.354-.649-3.722-.767v-2.535h10.457v2.535c-2.895 0-3.25.177-3.604 1.12L77.158 40.178z" fill="#fff"/><path d="M57.574 39.647c-2.777 0-5.08-2.064-5.494-5.07-2.009 2.652-5.848 5.07-9.393 5.07-3.958 0-6.852-2.418-6.852-6.427 0-5.188 5.08-8.784 16.009-11.025V18.54c0-3.302-1.714-5.07-5.022-5.07-2.54 0-4.608 1.238-4.608 2.535 0 .766.532 1.12.532 2.358 0 1.65-1.24 2.83-2.954 2.83-1.595 0-3.071-1.238-3.071-3.243 0-4.068 5.67-7.192 11.342-7.192 5.258 0 8.861 1.827 8.861 7.605v14.74c0 2.122 1.3 3.006 2.422 3.006 1.123 0 1.831-.413 2.658-1.061l.887 1.828c-1.241 1.473-3.309 2.77-5.317 2.77zm-5.73-14.917c-7.326 1.651-10.988 3.656-10.988 7.488 0 2.417 1.536 3.891 3.78 3.891 2.718 0 5.022-1.297 7.208-3.537V24.73zM6.09 34.93V4.272c0-1.356-.71-1.533-5.318-1.533V.145h16.6c9.098 0 15.478 3.95 15.478 11.025s-6.38 11.025-15.478 11.025h-5.73V34.93c0 1.356.709 1.533 5.317 1.533h2.54v2.594H.772v-2.594c4.608 0 5.317-.177 5.317-1.533zm5.552-15.447h5.376c6.026 0 9.865-2.417 9.865-8.313 0-5.895-3.84-8.313-9.865-8.313h-5.376v16.626z" fill="#fff"/></svg>