<svg width="141" height="117" viewBox="0 0 141 117" fill="none" xmlns="http://www.w3.org/2000/svg"><g filter="url(#filter0_d_1313_2424305)"><path fill-rule="evenodd" clip-rule="evenodd" d="M44.484 61.586c-.93-1.176-2.06-3.581-4.073-6.501-1.14-1.652-3.968-4.762-4.81-6.341-.731-1.396-.653-2.022-.479-3.179.308-2.058 2.419-3.66 4.67-3.444 1.7.16 3.142 1.285 4.44 2.346.783.64 1.747 1.881 2.327 2.583.534.642.665.907 1.235 1.668.754 1.006.99 1.504.702.396-.233-1.625-.613-4.4-1.164-6.855-.42-1.862-.52-2.153-.92-3.582-.423-1.52-.64-2.586-1.036-4.198-.276-1.14-.77-3.47-.905-4.781-.186-1.793-.285-4.716.865-6.06.902-1.051 2.97-1.37 4.25-.72 1.678.849 2.632 3.287 3.068 4.26.783 1.75 1.268 3.772 1.69 6.426.538 3.379 1.528 8.068 1.56 9.054.08-1.209-.222-3.755-.012-4.915.19-1.052 1.075-2.274 2.182-2.605.937-.279 2.035-.38 3.002-.18 1.026.21 2.107.943 2.51 1.635 1.186 2.045 1.21 6.223 1.258 6 .282-1.232.233-4.028.931-5.19.459-.768 1.629-1.46 2.251-1.57.964-.171 2.147-.223 3.16-.027.815.16 1.92 1.13 2.218 1.596.714 1.127 1.12 4.316 1.242 5.433.05.462.242-1.284.96-2.412 1.33-2.093 6.04-2.5 6.22 2.094.082 2.144.065 2.045.065 3.487 0 1.695-.039 2.714-.13 3.94-.102 1.31-.384 4.272-.794 5.708-.282.986-1.216 3.205-2.136 4.535 0 0-3.52 4.096-3.903 5.941-.387 1.842-.26 1.855-.334 3.163-.076 1.304.396 3.021.396 3.021s-2.628.34-4.044.115c-1.281-.207-2.867-2.756-3.277-3.536-.563-1.075-1.766-.869-2.235-.076-.737 1.255-2.323 3.507-3.444 3.648-2.189.275-6.73.101-10.286.065 0 0 .606-3.313-.744-4.45-1-.849-2.72-2.57-3.75-3.474l-2.726-3.018z" fill="#fff"/><path clip-rule="evenodd" d="M44.484 61.586c-.93-1.176-2.06-3.581-4.073-6.501-1.14-1.652-3.968-4.762-4.81-6.341-.731-1.396-.653-2.022-.479-3.179.308-2.058 2.419-3.66 4.67-3.444 1.7.16 3.142 1.285 4.44 2.346.783.64 1.747 1.881 2.327 2.583.534.642.665.907 1.235 1.668.754 1.006.99 1.504.702.396-.233-1.625-.613-4.4-1.164-6.855-.42-1.862-.52-2.153-.92-3.582-.423-1.52-.64-2.586-1.036-4.198-.276-1.14-.77-3.47-.905-4.781-.186-1.793-.285-4.716.865-6.06.902-1.051 2.97-1.37 4.25-.72 1.678.849 2.632 3.287 3.068 4.26.783 1.75 1.268 3.772 1.69 6.426.538 3.379 1.528 8.068 1.56 9.054.08-1.209-.222-3.755-.012-4.915.19-1.052 1.075-2.274 2.182-2.605.937-.279 2.035-.38 3.002-.18 1.026.21 2.107.943 2.51 1.635 1.186 2.045 1.21 6.223 1.258 6 .282-1.232.233-4.028.931-5.19.459-.768 1.629-1.46 2.251-1.57.964-.171 2.147-.223 3.16-.027.815.16 1.92 1.13 2.218 1.596.714 1.127 1.12 4.316 1.242 5.433.05.462.242-1.284.96-2.412 1.33-2.093 6.04-2.5 6.22 2.094.082 2.144.065 2.045.065 3.487 0 1.695-.039 2.714-.13 3.94-.102 1.31-.384 4.272-.794 5.708-.282.986-1.216 3.205-2.136 4.535 0 0-3.52 4.096-3.903 5.941-.387 1.842-.26 1.855-.334 3.163-.076 1.304.396 3.021.396 3.021s-2.628.34-4.044.115c-1.281-.207-2.867-2.756-3.277-3.536-.563-1.075-1.766-.869-2.235-.076-.737 1.255-2.323 3.507-3.444 3.648-2.189.275-6.73.101-10.286.065 0 0 .606-3.313-.744-4.45-1-.849-2.72-2.57-3.75-3.474l-2.726-3.018z" stroke="#000" stroke-width="2.458" stroke-linecap="round" stroke-linejoin="round"/><path d="M71.472 62.748V51.413M64.865 62.786l-.052-11.38M58.325 51.509l.069 11.227" stroke="#000" stroke-width="2.458" stroke-linecap="round"/></g><defs><filter id="filter0_d_1313_2424305" x=".568" y=".018" width="142.432" height="145.709" filterUnits="userSpaceOnUse" color-interpolation-filters="sRGB"><feFlood flood-opacity="0" result="BackgroundImageFix"/><feColorMatrix in="SourceAlpha" values="0 0 0 0 0 0 0 0 0 0 0 0 0 0 0 0 0 0 127 0" result="hardAlpha"/><feOffset dx="12" dy="24"/><feGaussianBlur stdDeviation="22.5"/><feComposite in2="hardAlpha" operator="out"/><feColorMatrix values="0 0 0 0 0 0 0 0 0 0 0 0 0 0 0 0 0 0 0.5 0"/><feBlend in2="BackgroundImageFix" result="effect1_dropShadow_1313_2424305"/><feBlend in="SourceGraphic" in2="effect1_dropShadow_1313_2424305" result="shape"/></filter></defs></svg>