<svg width="341" height="31" viewBox="0 0 341 31" fill="none" xmlns="http://www.w3.org/2000/svg"><path d="M72.53.638h4.632l6.712 23.358h.081L91.25.638h4.258l7.14 23.358h.082L109.6.638h4.631l-8.44 29.726h-5.087L93.401 7.22h-.082l-7.502 23.145h-5.046L72.531.639zM171.552 24.673h-16.086l-2.399 5.692h-4.839L161.253.637h4.466l13.028 29.726h-4.798l-2.399-5.69h.002zm-1.695-3.991L163.53 5.774h-.082l-6.287 14.906h12.696zM183.438.638h14.928c6.161 0 10.215 3.567 10.215 9.342s-4.01 9.257-10.215 9.257h-10.463v11.128h-4.465V.637zm14.724 14.481c3.928 0 5.953-1.699 5.953-5.181 0-3.525-1.943-5.182-5.953-5.182h-10.256v10.363h10.256zM214.493.638h15.054c5.046 0 8.478 3.144 8.478 7.771 0 2.76-1.241 4.927-3.225 5.946v.084c2.606 1.06 4.301 3.653 4.301 7.007 0 5.859-3.557 8.918-10.421 8.918h-14.184V.639h-.003zm14.143 12.36c3.31 0 4.921-1.445 4.921-4.205 0-2.632-1.696-4.034-4.921-4.034h-9.678v8.238h9.678zm-.166 13.249c4.302 0 6.161-1.487 6.161-4.799 0-3.227-1.821-4.672-6.079-4.672h-9.594v9.47h9.512zM244.429 15.5c0-8.919 6.12-15.5 14.971-15.5 8.934 0 15.013 6.581 15.013 15.5S268.334 31 259.4 31c-8.849 0-14.971-6.581-14.971-15.5zm25.475 0c0-6.836-4.258-11.382-10.504-11.382-6.204 0-10.462 4.543-10.462 11.382 0 6.839 4.258 11.382 10.462 11.382 6.246 0 10.504-4.543 10.504-11.382zM279.579 15.5c0-8.919 6.122-15.5 14.971-15.5 8.934 0 15.013 6.581 15.013 15.5S303.484 31 294.55 31c-8.849 0-14.971-6.581-14.971-15.5zm25.475 0c0-6.836-4.258-11.382-10.504-11.382-6.204 0-10.462 4.543-10.462 11.382 0 6.836 4.258 11.382 10.462 11.382 6.205 0 10.504-4.543 10.504-11.382zM315.857.638h4.466v14.99h.082L334.258.639h6.246l-12.24 12.869L341 30.367h-5.542l-10.215-13.759h-.081l-4.839 5.266v8.493h-4.466V.638zM14.505.58H0v14.895h10.88V30.37h7.251l14.506-14.895V30.37h7.254l14.505-14.895h3.626V.58H50.77L36.265 15.475h-.003V.58h-7.251L14.506 15.475V.58zM137.056 18.445l7.544 11.92h-5.128l-7.197-11.637h-8.296v11.636h-4.465V.639h14.432c6.245 0 10.007 3.44 10.007 9.045 0 4.944-2.72 7.81-6.897 8.72v.042zm-3.443-3.838c3.888 0 5.872-1.7 5.872-4.969 0-3.27-1.902-4.885-5.956-4.885h-9.552v9.854h9.636z" fill="#fff"/></svg>