<svg width="970" height="250" viewBox="0 0 970 250" fill="none" xmlns="http://www.w3.org/2000/svg"><path d="M-6.565 0v97.656L91.09 0M91.091 195.313V97.657l-97.656 97.656H91.09zM91.091 195.313H-6.565v97.657m97.656-97.657v97.657H-6.565m97.656-97.657L-6.565 292.97M188.748 97.656V0L91.091 97.656h97.657zM188.748 97.656H91.091v97.657h97.657V97.657z" stroke="#202080" stroke-width=".781" stroke-linecap="square" stroke-linejoin="bevel"/><path d="M188.748 195.313H91.091v97.657h97.657v-97.657zM188.748 0v97.656L286.404 0M188.748 97.656v97.657l97.656-97.656v97.656M188.748 195.313v97.657m0 0l97.656-97.657v97.657h-97.656zM384.061 0v97.656h-97.657L384.061 0zm0 0h-97.657M384.061 97.656h-97.657v97.657l97.657-97.656zm0 0v97.657M286.404 195.313v97.657l97.657-97.657M481.717 97.656h-97.656L481.717 0h-97.656M384.061 97.656h97.656m0 0v97.657h-97.656l97.656-97.656zM384.061 195.313h97.656l-97.656 97.657h97.656M579.374 0v97.656h-97.657L579.374 0zm0 0h-97.657M579.374 195.313h-97.657m0 0V97.657h97.657l-97.657 97.656zM481.717 195.313h97.657m0 0v97.657m0-97.657l-97.657 97.657" stroke="#202080" stroke-width=".781" stroke-linecap="square" stroke-linejoin="bevel"/><path d="M579.374 0v97.656L677.031 0h-97.657zM677.031 195.313V97.657l-97.657 97.656h97.657zM677.031 195.313h-97.657v97.657m97.657-97.657v97.657h-97.657m97.657-97.657l-97.657 97.657M774.687 97.656V0L677.03 97.656h97.657z" stroke="#202080" stroke-width=".781" stroke-linecap="square" stroke-linejoin="bevel"/><path d="M774.687 97.656H677.03v97.657h97.657V97.656zM774.687 195.313H677.03v97.657h97.657v-97.657zM774.687 0v97.656L872.343 0" stroke="#202080" stroke-width=".781" stroke-linecap="square" stroke-linejoin="bevel"/><path d="M872.343 195.313V97.657l-97.656 97.656M774.687 195.313v97.657m0 0l97.656-97.657v97.657h-97.656zM970 0l-97.657 97.656H970M970 97.656h-97.657v97.657L970 97.657z" stroke="#202080" stroke-width=".781" stroke-linecap="square" stroke-linejoin="bevel"/><path d="M872.343 195.313v97.657L970 195.313" stroke="#202080" stroke-width=".781" stroke-linecap="square" stroke-linejoin="bevel"/></svg>