<svg width="222" height="91" viewBox="0 0 222 91" fill="none" xmlns="http://www.w3.org/2000/svg"><g filter="url(#filter0_d_1313_2448226)"><rect x="22.743" y="17.659" width="183" height="56" rx="4.666" fill="#6733FF" shape-rendering="crispEdges"/><path d="M148.582 48.944l.424.441h5.406v1.274h-7.202V41.35h7.039v1.274h-5.243l-.424.425v2.172h4.948v1.274h-4.948v2.45zM137.488 46.952v3.707h-1.372V41.35h3.642c2.401 0 3.724.996 3.724 2.81 0 1.387-.768 2.286-2.205 2.629v.343l2.564 3.527h-1.649l-2.662-3.707h-2.042zm2.238-4.344h-1.797l-.441.44v2.63h2.238c1.6 0 2.351-.555 2.351-1.519 0-.996-.751-1.551-2.351-1.551zM132.78 46.005c0 2.727-1.633 4.883-4.213 4.883-2.564 0-4.197-2.156-4.197-4.883 0-2.744 1.633-4.884 4.197-4.884 2.58 0 4.213 2.14 4.213 4.883zm-1.437 0c0-1.977-.931-3.594-2.776-3.594-1.846 0-2.76 1.617-2.76 3.593 0 1.977.914 3.577 2.76 3.577 1.845 0 2.776-1.6 2.776-3.577zM118.47 47.883h-1.829l-1.34-4.916h-.343v7.692h-1.339V41.35h2.564l1.241 4.785h.311l1.372-4.785h2.384v9.31h-1.339v-7.693h-.327l-1.355 4.916zM99.255 50.66H97.67l-4.149-7.203h-.424v7.202h-1.29V41.35h1.894l3.838 6.729h.425V41.35h1.29v9.31zM82.429 46.952v3.707h-1.372V41.35H84.7c2.4 0 3.724.996 3.724 2.81 0 1.387-.768 2.286-2.205 2.629v.343l2.564 3.527h-1.65l-2.662-3.707H82.43zm2.237-4.344H82.87l-.441.44v2.63h2.237c1.601 0 2.352-.555 2.352-1.519 0-.996-.751-1.551-2.352-1.551zM76.578 50.66l-1.029-2.728h-4.1l-1.028 2.727h-1.47l3.691-9.309h1.748l3.674 9.31h-1.486zm-4.312-3.92h2.45l.278-.278-1.274-3.348h-.44l-1.275 3.364.261.262zM60.487 48.944l.425.441h5.405v1.274h-7.202V41.35h7.04v1.274h-5.243l-.425.425v2.172h4.949v1.274h-4.949v2.45zM49.77 48.944l.424.441h4.916v1.274h-6.712V41.35h1.371v7.594zM170.907 51.863l-.869-.868 10.299-10.3h-6.08v-1.24h8.189v8.19h-1.24v-6.08l-10.299 10.298z" fill="#fff"/></g><defs><filter id="filter0_d_1313_2448226" x=".848" y=".143" width="226.791" height="99.791" filterUnits="userSpaceOnUse" color-interpolation-filters="sRGB"><feFlood flood-opacity="0" result="BackgroundImageFix"/><feColorMatrix in="SourceAlpha" values="0 0 0 0 0 0 0 0 0 0 0 0 0 0 0 0 0 0 127 0" result="hardAlpha"/><feOffset dy="4.379"/><feGaussianBlur stdDeviation="10.948"/><feComposite in2="hardAlpha" operator="out"/><feColorMatrix values="0 0 0 0 0.405825 0 0 0 0 0.2 0 0 0 0 1 0 0 0 0.4 0"/><feBlend in2="BackgroundImageFix" result="effect1_dropShadow_1313_2448226"/><feBlend in="SourceGraphic" in2="effect1_dropShadow_1313_2448226" result="shape"/></filter></defs></svg>