<svg width="184" height="167" viewBox="0 0 184 167" fill="none" xmlns="http://www.w3.org/2000/svg"><g filter="url(#filter0_d_1313_2437696)" clip-path="url(#clip0_1313_2437696)"><g filter="url(#filter1_dddd_1313_2437696)"><g filter="url(#filter2_dd_1313_2437696)"><path d="M138.444 17.023H45.661c-13.234 0-23.962 10.728-23.962 23.962v242.128c0 13.234 10.728 23.962 23.962 23.962h92.783c13.234 0 23.962-10.728 23.962-23.962V40.985c0-13.234-10.728-23.962-23.962-23.962z" fill="#352C40"/></g><path d="M21.763 45.146h2.443v2.23h-2.48l.037-2.23z" fill="url(#paint0_linear_1313_2437696)"/><path d="M131.199 17.023l2.229.03v2.18h-2.229v-2.21z" fill="url(#paint1_linear_1313_2437696)"/><path d="M159.898 47.375h2.508v-2.229h-2.508v2.229z" fill="url(#paint2_linear_1313_2437696)"/><path d="M138.444 18.904H45.66c-12.195 0-22.08 9.886-22.08 22.081v242.128c0 12.196 9.885 22.082 22.08 22.082h92.784c12.195 0 22.081-9.886 22.081-22.082V40.985c0-12.195-9.886-22.081-22.081-22.081z" fill="#000" stroke="#54485F" stroke-width=".139"/><path fill-rule="evenodd" clip-rule="evenodd" d="M26.296 31.118c-2.368 4.65-2.368 10.735-2.368 22.907v216.049c0 12.171 0 18.257 2.368 22.906a21.733 21.733 0 009.498 9.498c4.65 2.369 10.735 2.369 22.907 2.369h66.703c12.172 0 18.258 0 22.907-2.369a21.73 21.73 0 009.497-9.498c2.369-4.649 2.369-10.735 2.369-22.906V54.024c0-12.17 0-18.257-2.369-22.906a21.73 21.73 0 00-9.497-9.497c-4.649-2.369-10.735-2.369-22.907-2.369h-19.002c-.308 0-.546.265-.694.534a1.112 1.112 0 01-.976.578H79.094c-.42 0-.787-.233-.976-.578-.148-.27-.386-.534-.694-.534H58.7c-12.171 0-18.257 0-22.906 2.369a21.734 21.734 0 00-9.498 9.497z" fill="#000"/><path d="M24.067 54.025c0-6.088 0-10.646.296-14.263.295-3.615.885-6.279 2.058-8.58a21.592 21.592 0 019.436-9.437c2.302-1.173 4.965-1.763 8.58-2.058 3.618-.296 8.175-.296 14.263-.296h18.724c.112 0 .217.048.316.133.1.085.187.204.256.33.212.387.624.65 1.098.65h25.638a1.25 1.25 0 001.098-.65c.069-.126.156-.245.256-.33a.484.484 0 01.316-.133h19.002c6.088 0 10.646 0 14.263.296 3.616.295 6.279.885 8.581 2.058a21.59 21.59 0 019.436 9.437c1.173 2.301 1.763 4.965 2.058 8.58.296 3.617.296 8.175.296 14.263v216.049c0 6.088 0 10.646-.296 14.263-.295 3.615-.885 6.278-2.058 8.58a21.596 21.596 0 01-9.436 9.437c-2.302 1.172-4.965 1.762-8.581 2.058-3.617.295-8.175.295-14.263.295H58.7c-6.088 0-10.645 0-14.262-.295-3.616-.296-6.28-.886-8.58-2.058a21.598 21.598 0 01-9.437-9.437c-1.173-2.302-1.763-4.965-2.058-8.58-.296-3.617-.296-8.175-.296-14.263V54.024z" stroke="#fff" stroke-opacity=".16" stroke-width=".279"/><path d="M78.247 19.72c-.06-.11-.14-.226-.238-.329h27.808c-.098.103-.177.22-.238.329a.985.985 0 01-.863.507H79.111a.985.985 0 01-.864-.507z" fill="url(#paint3_linear_1313_2437696)" stroke="#000" stroke-width=".279"/><g filter="url(#filter3_ii_1313_2437696)"><path d="M163.242 109.527a.557.557 0 00-.557-.557h-.279v34.55h.279c.308 0 .557-.25.557-.558v-33.435z" fill="#6F6585"/><path d="M163.242 109.527a.557.557 0 00-.557-.557h-.279v34.55h.279c.308 0 .557-.25.557-.558v-33.435z" fill="url(#paint4_linear_1313_2437696)"/></g><g filter="url(#filter4_ii_1313_2437696)"><path d="M20.863 73.166c0-.23.187-.417.418-.417h.418v11.145h-.418a.418.418 0 01-.418-.418v-10.31z" fill="#6F6585"/><path d="M20.863 73.166c0-.23.187-.417.418-.417h.418v11.145h-.418a.418.418 0 01-.418-.418v-10.31z" fill="url(#paint5_linear_1313_2437696)"/></g><g filter="url(#filter5_ii_1313_2437696)"><path d="M21.142 94.064c0-.231.187-.418.418-.418h.139v22.29h-.14a.418.418 0 01-.417-.417V94.064z" fill="#6F6585"/><path d="M21.142 94.064c0-.231.187-.418.418-.418h.139v22.29h-.14a.418.418 0 01-.417-.417V94.064z" fill="url(#paint6_linear_1313_2437696)"/></g><g filter="url(#filter6_ii_1313_2437696)"><path d="M21.142 121.927c0-.231.187-.418.418-.418h.139v22.29h-.14a.418.418 0 01-.417-.418v-21.454z" fill="#6F6585"/><path d="M21.142 121.927c0-.231.187-.418.418-.418h.139v22.29h-.14a.418.418 0 01-.417-.418v-21.454z" fill="url(#paint7_linear_1313_2437696)"/></g><path d="M106.402 30.676a2.787 2.787 0 100 5.573 2.787 2.787 0 000-5.573z" fill="url(#paint8_linear_1313_2437696)"/><path d="M106.402 34.576a1.115 1.115 0 100-2.229 1.115 1.115 0 000 2.23z" fill="url(#paint9_radial_1313_2437696)"/><g filter="url(#filter7_f_1313_2437696)"><path d="M106.3 32.55a.767.767 0 00-.573.267.973.973 0 00-.238.645c0 .242.086.474.238.645a.767.767 0 00.573.267V32.55z" fill="url(#paint10_linear_1313_2437696)"/></g><g filter="url(#filter8_f_1313_2437696)"><path d="M106.2 33.36a.304.304 0 100-.607.304.304 0 000 .607z" fill="#50326D"/></g><g filter="url(#filter9_f_1313_2437696)"><path d="M106.504 34.374a.767.767 0 00.573-.267.972.972 0 00.237-.645.973.973 0 00-.237-.645.767.767 0 00-.573-.267v1.824z" fill="url(#paint11_linear_1313_2437696)"/></g><g filter="url(#filter10_f_1313_2437696)"><path d="M106.604 34.171a.304.304 0 100-.608.304.304 0 000 .608z" fill="url(#paint12_linear_1313_2437696)"/></g><mask id="a" maskUnits="userSpaceOnUse" x="28" y="23" width="128" height="278"><path d="M138.358 23.395H45.575c-9.695 0-17.554 7.859-17.554 17.554v242.127c0 9.695 7.86 17.554 17.554 17.554h92.783c9.694 0 17.553-7.859 17.553-17.554V40.949c0-9.695-7.859-17.554-17.553-17.554z" fill="#fff"/></mask><g mask="url(#a)"><mask id="b" maskUnits="userSpaceOnUse" x="27" y="23" width="129" height="280"><path d="M155.912 23.395H27.928v279.596h127.984V23.395z" fill="#fff"/></mask><g mask="url(#b)"><path d="M155.912 23.395H27.928v279.596h127.984V23.395z" fill="#F6F8FA"/><path d="M155.912 23.395H27.928v105.341h127.984V23.395z" fill="#4426BD"/><path d="M140.924 48.13h-3.155v3.153h2.366v3.154h1.577l3.155-3.154v3.154h1.578l3.155-3.154h.788V48.13h-1.577l-3.155 3.153V48.13h-1.578l-3.154 3.153V48.13zM36.754 51.92c0 .913-.625 1.518-1.571 1.518-1.023 0-1.677-.754-1.677-1.938 0-1.17.664-1.936 1.677-1.936.82 0 1.415.457 1.548 1.19h-.469c-.159-.5-.53-.764-1.08-.764-.733 0-1.202.59-1.202 1.51 0 .933.462 1.513 1.205 1.513.662 0 1.11-.423 1.11-1.049v-.09h-1.04v-.405h1.5v.451zm1.898 1.48c-.788 0-1.275-.544-1.275-1.43 0-.89.487-1.431 1.274-1.431s1.275.54 1.275 1.43c0 .887-.488 1.43-1.275 1.43zm0-.398c.523 0 .817-.38.817-1.033 0-.656-.294-1.033-.818-1.033-.523 0-.817.377-.817 1.033 0 .654.294 1.033.817 1.033zm3.102.398c-.787 0-1.275-.544-1.275-1.43 0-.89.488-1.431 1.275-1.431.787 0 1.274.54 1.274 1.43 0 .887-.487 1.43-1.274 1.43zm0-.398c.523 0 .818-.38.818-1.033 0-.656-.295-1.033-.818-1.033-.523 0-.818.377-.818 1.033 0 .654.295 1.033.818 1.033zm2.989.398c-.708 0-1.161-.562-1.161-1.43 0-.867.459-1.431 1.161-1.431.385 0 .71.182.867.484h.038V49.49h.441v3.861h-.42v-.441h-.041c-.175.308-.503.49-.885.49zm.103-2.464c-.503 0-.808.39-.808 1.033 0 .646.303 1.033.808 1.033.502 0 .812-.395.812-1.033 0-.633-.313-1.033-.812-1.033zm3.581 2.415v-2.764h.42v.436h.042c.125-.308.402-.485.771-.485.375 0 .636.198.764.485h.041c.15-.292.464-.485.846-.485.565 0 .88.324.88.903v1.91h-.441v-1.807c0-.408-.193-.608-.582-.608a.622.622 0 00-.641.638v1.777h-.441v-1.877c0-.328-.228-.538-.577-.538-.361 0-.64.313-.64.702v1.713h-.442zm5.705.049c-.788 0-1.275-.544-1.275-1.43 0-.89.487-1.431 1.275-1.431.787 0 1.274.54 1.274 1.43 0 .887-.487 1.43-1.274 1.43zm0-.398c.523 0 .817-.38.817-1.033 0-.656-.294-1.033-.817-1.033-.523 0-.818.377-.818 1.033 0 .654.295 1.033.818 1.033zm1.966.349v-2.764h.42v.41h.041c.083-.269.4-.459.767-.459.072 0 .164.006.22.013v.441a1.777 1.777 0 00-.282-.025c-.42 0-.725.282-.725.671v1.713h-.441zm2.051 0v-2.764h.42v.436h.041c.139-.305.408-.485.831-.485.62 0 .967.367.967 1.024v1.789h-.441v-1.682c0-.497-.21-.733-.651-.733-.441 0-.726.295-.726.78v1.635h-.441zm3.077 0v-2.764h.44v2.764h-.44zm.22-3.297a.309.309 0 01-.308-.308.308.308 0 01.615 0c0 .17-.138.308-.307.308zm1.062 3.297v-2.764h.42v.436h.04c.14-.305.409-.485.832-.485.62 0 .966.367.966 1.024v1.789h-.44v-1.682c0-.497-.211-.733-.652-.733-.441 0-.726.295-.726.78v1.635h-.44zm4.184-.43c.512 0 .82-.39.82-.993 0-.602-.31-.992-.82-.992-.513 0-.8.39-.8.992 0 .603.287.992.8.992zm.02 1.491c-.666 0-1.092-.3-1.159-.756h.467c.049.226.295.372.692.372.495 0 .79-.244.79-.651v-.544h-.041c-.175.305-.487.477-.867.477-.715 0-1.159-.554-1.159-1.382 0-.828.449-1.39 1.16-1.39.386 0 .727.19.886.488h.041v-.439h.42V53.4c0 .618-.476 1.012-1.23 1.012zm2.34-.12h-.33l.244-1.459h.49l-.403 1.459zm4.241-.941h-.461v-3.284H71.64v-.416h2.846v.416h-1.193v3.284zm1.808 0v-2.764h.44v2.764h-.44zm.22-3.297a.309.309 0 01-.307-.308c0-.169.138-.307.307-.307.17 0 .308.138.308.307 0 .17-.139.308-.308.308zm1.246 3.297v-2.395h-.459v-.369h.46v-.307c0-.552.276-.816.802-.816.107 0 .205.008.297.026v.359a1.21 1.21 0 00-.208-.013c-.318 0-.45.154-.45.456v.295h.632v.37h-.633v2.394h-.44zm1.903 0v-2.395h-.46v-.369h.46v-.307c0-.552.276-.816.802-.816.108 0 .205.008.297.026v.359a1.209 1.209 0 00-.207-.013c-.318 0-.451.154-.451.456v.295h.633v.37h-.633v2.394h-.441zm2.492-.338c.453 0 .79-.298.79-.693v-.254l-.744.05c-.42.028-.605.174-.605.45 0 .282.238.447.559.447zm-.083.387c-.535 0-.933-.318-.933-.823 0-.495.364-.78 1.008-.818l.797-.049v-.251c0-.341-.213-.528-.625-.528-.331 0-.562.125-.623.343h-.446c.058-.443.494-.736 1.084-.736.674 0 1.051.347 1.051.92v1.893h-.42v-.408h-.041c-.18.295-.482.457-.852.457zm2.128-.049v-2.764h.42v.436h.042c.138-.305.408-.485.83-.485.621 0 .967.367.967 1.024v1.789h-.44v-1.682c0-.497-.211-.733-.652-.733-.441 0-.726.295-.726.78v1.635h-.44zm3.2 1c-.059 0-.136-.005-.197-.015v-.377c.053.01.123.012.184.012.254 0 .392-.12.508-.453l.051-.164-1.023-2.767h.477l.759 2.274h.041l.756-2.274h.47l-1.08 2.933c-.236.641-.456.83-.946.83z" fill="#fff"/><path d="M82.242 67.04H33.178v9.939h49.064V67.04z" fill="#4426BD"/><path d="M48.085 67.04h-9.938a4.969 4.969 0 000 9.939h9.938a4.969 4.969 0 100-9.938z" fill="#fff"/><path d="M38.855 73.01h-.496v-2.346h-.854v-.429h2.205v.429h-.855v2.346zm1.86.042c-.632 0-1.012-.411-1.012-1.094 0-.679.386-1.094 1.011-1.094.627 0 1.012.413 1.012 1.094 0 .683-.383 1.094-1.012 1.094zm0-.4c.332 0 .52-.254.52-.694 0-.438-.19-.694-.52-.694-.334 0-.524.256-.524.694 0 .44.19.694.523.694zm2.253.392c-.533 0-.866-.419-.866-1.088 0-.665.335-1.084.866-1.084.288 0 .527.138.638.369h.033v-1.148h.477v2.917h-.462v-.333h-.033c-.119.23-.361.367-.653.367zm.148-1.767c-.325 0-.525.258-.525.681 0 .425.198.68.525.68.329 0 .529-.257.529-.68 0-.42-.202-.68-.53-.68zm2.32 1.392c.29 0 .504-.186.504-.43v-.168l-.474.031c-.268.017-.393.114-.393.285 0 .177.152.282.364.282zm-.14.375c-.405 0-.696-.246-.696-.63 0-.381.287-.6.798-.631l.542-.033v-.177c0-.205-.138-.32-.396-.32-.219 0-.369.076-.413.219h-.45c.038-.372.386-.608.886-.608.54 0 .844.263.844.71v1.436h-.459v-.289h-.033c-.117.204-.348.323-.623.323zm1.856.73a2.11 2.11 0 01-.189-.008v-.39a.932.932 0 00.131.007c.202 0 .316-.077.377-.271l.025-.093-.752-2.113h.523l.492 1.642h.033l.49-1.642h.504l-.76 2.171c-.178.523-.403.696-.874.696z" fill="#4426BD"/><path d="M77.273 67.04H59.335a4.969 4.969 0 000 9.939h17.938a4.969 4.969 0 100-9.938z" fill="#fff" fill-opacity=".16"/><path d="M59.307 70.235v1.773c0 .375.233.627.644.627.412 0 .644-.252.644-.627v-1.773h.497v1.82c0 .605-.439 1.024-1.14 1.024-.703 0-1.141-.42-1.141-1.025v-1.819h.496zm3.563.637c.533 0 .867.411.867 1.086 0 .671-.33 1.086-.861 1.086-.302 0-.535-.13-.642-.353H62.2v1.019h-.477v-2.804h.46v.348h.032a.713.713 0 01.654-.382zm-.15 1.767c.33 0 .527-.256.527-.681 0-.425-.198-.68-.525-.68-.325 0-.529.26-.53.68.001.421.203.68.528.68zm3.313-1.025h-.454c-.044-.204-.201-.35-.463-.35-.327 0-.521.252-.521.688 0 .442.196.7.521.7.248 0 .413-.117.463-.336h.454c-.052.44-.383.736-.915.736-.633 0-1.006-.408-1.006-1.1 0-.682.371-1.088 1.004-1.088.54 0 .867.308.917.75zm1.364 1.438c-.631 0-1.012-.411-1.012-1.094 0-.679.386-1.094 1.011-1.094.627 0 1.012.413 1.012 1.094 0 .683-.383 1.094-1.011 1.094zm0-.4c.332 0 .52-.254.52-.694 0-.438-.19-.694-.52-.694-.333 0-.523.256-.523.694 0 .44.19.694.523.694zm1.492.358v-2.104h.46v.34h.032c.09-.24.306-.382.584-.382.29 0 .493.146.581.383h.033c.104-.231.346-.383.638-.383.421 0 .675.263.675.7v1.446h-.475v-1.325c0-.271-.129-.406-.384-.406-.249 0-.412.181-.412.421v1.31h-.463v-1.36c0-.23-.147-.37-.381-.37-.237 0-.412.193-.412.451v1.279h-.476zm3.574 0v-2.104h.475v2.104h-.475zm.237-2.452a.287.287 0 010-.575c.157 0 .284.13.284.289 0 .16-.127.286-.284.286zm.83 2.452v-2.104h.46v.337h.033c.1-.235.311-.38.624-.38.47 0 .725.284.725.785v1.362h-.477v-1.248c0-.321-.134-.483-.424-.483-.285 0-.464.196-.464.506v1.225h-.477zm3.311-.42c.333 0 .533-.253.533-.655s-.202-.658-.533-.658c-.332 0-.52.256-.52.658s.188.656.52.656zm0 1.22c-.54 0-.894-.239-.932-.6h.479c.03.144.2.236.461.236.327 0 .517-.153.517-.417v-.398h-.032c-.121.225-.35.348-.642.348-.531 0-.862-.412-.862-1.044 0-.644.333-1.063.87-1.063.286 0 .536.142.651.37h.033v-.336h.46v2.111c0 .487-.39.793-1.003.793zM148.036 81.644H35.803a2.461 2.461 0 00-2.46 2.461v70.884a2.461 2.461 0 002.46 2.461h112.233a2.461 2.461 0 002.461-2.461V84.105a2.461 2.461 0 00-2.461-2.461z" fill="#fff"/><path d="M148.036 81.644H35.803a2.461 2.461 0 00-2.46 2.461v70.884a2.461 2.461 0 002.46 2.461h112.233a2.461 2.461 0 002.461-2.461V84.105a2.461 2.461 0 00-2.461-2.461z" stroke="#DFE2E5" stroke-width=".328"/><path d="M39.91 94.73h-.993v-5.549h.992v2.596h.035l2.215-2.596H43.3l-2.138 2.462 2.303 3.088H42.26l-1.804-2.423-.546.638v1.785zm7.564-4.076v4.077h-.923v-.708h-.02c-.215.496-.627.78-1.246.78-.884 0-1.446-.572-1.446-1.514v-2.635h.958v2.442c0 .585.285.9.823.9.554 0 .896-.392.896-.984v-2.358h.958zm.784 4.077v-4.077h.92v.712h.018c.139-.496.497-.78.977-.78.123 0 .231.022.3.038v.865a1.217 1.217 0 00-.388-.054c-.542 0-.87.35-.87.923v2.373h-.957zm4.357.08c-1.196 0-1.973-.796-1.973-2.119 0-1.315.785-2.122 1.973-2.122 1.189 0 1.973.804 1.973 2.123 0 1.322-.777 2.118-1.973 2.118zm0-.757c.608 0 1-.492 1-1.362 0-.865-.392-1.36-1-1.36-.604 0-1 .495-1 1.36 0 .87.393 1.362 1 1.362zm2.515-2.23c0-.747.65-1.254 1.635-1.254.992 0 1.623.534 1.646 1.307h-.892c-.039-.369-.312-.603-.754-.603-.423 0-.704.2-.704.5 0 .234.17.395.596.492l.677.15c.846.188 1.173.515 1.173 1.107 0 .77-.708 1.288-1.708 1.288-1.065 0-1.696-.507-1.773-1.296h.943c.073.397.346.597.83.597.466 0 .754-.193.754-.496 0-.247-.146-.385-.573-.481l-.677-.15c-.78-.173-1.173-.558-1.173-1.162zm5.477 2.25c.542 0 .976-.362.976-.855v-.311l-.942.058c-.461.03-.727.238-.727.561 0 .335.277.546.693.546zm-.289.722c-.788 0-1.361-.496-1.361-1.23 0-.724.557-1.158 1.55-1.22l1.076-.061v-.292c0-.427-.288-.673-.761-.673-.454 0-.742.219-.804.557h-.888c.042-.761.692-1.307 1.73-1.307 1.012 0 1.67.534 1.67 1.353v2.808h-.924v-.65h-.019c-.234.442-.746.715-1.269.715zm8.5-4.142l-1.105 4.077h-1.007l-.804-2.98h-.02l-.8 2.98h-.999l-1.104-4.077h.962l.688 3.13h.02l.795-3.13h.92l.796 3.13h.023l.688-3.13h.946zm1.895 3.42c.542 0 .977-.362.977-.855v-.311l-.942.058c-.462.03-.727.238-.727.561 0 .335.277.546.692.546zm-.288.722c-.789 0-1.362-.496-1.362-1.23 0-.724.558-1.158 1.55-1.22l1.077-.061v-.292c0-.427-.289-.673-.762-.673-.453 0-.742.219-.803.557h-.889c.043-.761.692-1.307 1.73-1.307 1.012 0 1.67.534 1.67 1.353v2.808h-.923v-.65h-.02c-.234.442-.745.715-1.268.715zm4.657-5.615h2.026c1.658 0 2.638 1.004 2.638 2.762 0 1.757-.976 2.788-2.638 2.788h-2.026v-5.55zm.992.839v3.872h.93c1.116 0 1.731-.68 1.731-1.945 0-1.243-.623-1.927-1.73-1.927h-.931zm6.168 4.791c-1.196 0-1.973-.796-1.973-2.119 0-1.315.785-2.122 1.973-2.122 1.189 0 1.973.804 1.973 2.123 0 1.322-.777 2.118-1.973 2.118zm0-.757c.608 0 1-.492 1-1.362 0-.865-.392-1.36-1-1.36-.603 0-1 .495-1 1.36 0 .87.393 1.362 1 1.362zm6.18-1.946h-.903c-.077-.435-.381-.761-.893-.761-.603 0-.992.507-.992 1.346 0 .853.392 1.346 1 1.346.485 0 .8-.277.888-.739h.904c-.077.912-.78 1.511-1.803 1.511-1.193 0-1.962-.796-1.962-2.119 0-1.303.77-2.122 1.954-2.122 1.077 0 1.742.68 1.807 1.538zm4.192-1.454v4.077h-.923v-.708h-.02c-.214.496-.626.78-1.245.78-.885 0-1.446-.572-1.446-1.514v-2.635h.957v2.442c0 .585.285.9.823.9.554 0 .896-.392.896-.984v-2.358h.958zm.785 4.077v-4.077h.919v.708h.019c.177-.473.608-.785 1.161-.785.577 0 .989.297 1.139.82h.023c.196-.504.68-.82 1.269-.82.804 0 1.33.543 1.33 1.358v2.796h-.957V92.17c0-.5-.262-.785-.73-.785-.462 0-.778.338-.778.827v2.519h-.93V92.12c0-.454-.277-.735-.723-.735-.462 0-.785.358-.785.85v2.496H93.4zm8.387-3.42c-.538 0-.926.412-.965.982h1.904c-.02-.577-.389-.981-.939-.981zm.943 2.2h.896c-.123.77-.839 1.3-1.804 1.3-1.223 0-1.962-.803-1.962-2.103 0-1.288.746-2.138 1.924-2.138 1.157 0 1.88.804 1.88 2.042v.311h-2.85v.058c0 .654.4 1.092 1.027 1.092.446 0 .785-.223.889-.561zm1.553 1.22v-4.077h.919v.7h.02c.219-.484.653-.777 1.28-.777.9 0 1.412.577 1.412 1.52v2.634h-.958v-2.442c0-.577-.269-.9-.815-.9-.55 0-.9.396-.9.98v2.362h-.958zm4.665-5.03h.958v.953h.769v.739h-.769v2.119c0 .334.153.488.492.488.088 0 .211-.008.273-.02v.731a2.629 2.629 0 01-.496.039c-.881 0-1.227-.311-1.227-1.104v-2.253h-.585v-.739h.585v-.953zm3.815 4.372c.542 0 .977-.361.977-.854v-.311l-.942.058c-.462.03-.727.238-.727.561 0 .335.277.546.692.546zm-.289.723c-.788 0-1.361-.496-1.361-1.23 0-.724.558-1.158 1.55-1.22l1.077-.061v-.292c0-.427-.289-.673-.762-.673-.454 0-.742.219-.803.557h-.889c.042-.761.692-1.307 1.731-1.307 1.011 0 1.669.534 1.669 1.353v2.808h-.923v-.65h-.019c-.235.442-.747.715-1.27.715zm2.985-.065v-4.077h.919v.712h.019c.139-.496.496-.78.977-.78.123 0 .231.022.3.038v.865a1.22 1.22 0 00-.389-.054c-.542 0-.869.35-.869.923v2.373h-.957zm3.165 1.515c-.058 0-.327-.004-.377-.015v-.758c.05.011.219.015.277.015.396 0 .6-.15.703-.526 0-.012.062-.216.058-.227l-1.45-4.08h1.046l.958 3.26h.019l.962-3.26h1.007l-1.477 4.237c-.346 1.012-.796 1.354-1.726 1.354zM40.939 104.766v.59h-2.118v-3.237h.678v2.647h1.44zm1.508-1.438c-.303 0-.516.211-.539.532h1.054c-.013-.327-.21-.532-.516-.532zm.529 1.324h.608c-.097.464-.525.758-1.13.758-.755 0-1.199-.475-1.199-1.278 0-.806.453-1.304 1.19-1.304.728 0 1.16.465 1.16 1.25v.199h-1.7v.034c.01.368.225.597.566.597.258 0 .435-.092.505-.256zm2.057.251c.303 0 .532-.193.532-.444v-.182l-.5.032c-.28.02-.418.121-.418.298 0 .184.16.296.386.296zm-.215.492c-.476 0-.81-.292-.81-.745 0-.449.343-.709.958-.745l.599-.036v-.202c0-.206-.148-.323-.417-.323-.236 0-.393.081-.447.229H44.1c.042-.458.462-.745 1.083-.745.655 0 1.026.31 1.026.839v1.689h-.633v-.323h-.04c-.128.227-.398.362-.718.362zm2.918 0c-.623 0-1.007-.49-1.007-1.279 0-.788.386-1.274 1.007-1.274.335 0 .61.161.738.435h.038v-1.339h.653v3.418h-.632v-.388h-.04c-.133.267-.413.427-.757.427zm.222-2.006c-.347 0-.558.276-.558.729 0 .458.208.731.558.731.35 0 .561-.276.561-.729 0-.451-.213-.731-.56-.731zm2.988 1.068h.656c.03.262.296.431.677.431.352 0 .601-.171.601-.415 0-.207-.161-.326-.558-.411l-.422-.09c-.59-.123-.88-.43-.88-.924 0-.61.492-1.012 1.239-1.012.713 0 1.218.4 1.238.976h-.637c-.031-.256-.27-.426-.597-.426-.338 0-.563.157-.563.404 0 .199.155.314.534.395l.39.083c.651.136.931.417.931.919 0 .653-.5 1.052-1.312 1.052-.772 0-1.272-.379-1.297-.982zm5.375-.702h-.61c-.045-.236-.213-.391-.491-.391-.352 0-.55.263-.55.75 0 .493.2.76.55.76.267 0 .442-.13.491-.375h.61c-.053.555-.457.911-1.101.911-.772 0-1.21-.466-1.21-1.296 0-.821.436-1.286 1.21-1.286.655 0 1.048.364 1.101.927zm1.582-.427c-.303 0-.516.211-.538.532h1.054c-.014-.327-.211-.532-.516-.532zm.53 1.324h.607c-.096.464-.525.758-1.13.758-.754 0-1.198-.475-1.198-1.278 0-.806.453-1.304 1.189-1.304.729 0 1.16.465 1.16 1.25v.199h-1.699v.034c.01.368.225.597.566.597.258 0 .435-.092.504-.256zm1.164.704v-2.474h.632v.397h.04c.115-.278.366-.451.732-.451.55 0 .846.337.846.929v1.599h-.653v-1.444c0-.341-.146-.521-.456-.521-.302 0-.489.213-.489.539v1.426h-.652zm2.889 0v-2.474h.653v2.474h-.653zm.328-2.844a.373.373 0 010-.747.37.37 0 01.37.372.372.372 0 01-.37.375zm3.176 1.243h-.61c-.045-.236-.213-.391-.491-.391-.353 0-.55.263-.55.75 0 .493.2.76.55.76.267 0 .442-.13.49-.375h.611c-.054.555-.458.911-1.101.911-.772 0-1.21-.466-1.21-1.296 0-.821.436-1.286 1.21-1.286.655 0 1.047.364 1.101.927zm3.84 1.601l-.244-.771H68.45l-.25.771h-.679l1.124-3.237h.796l1.124 3.237h-.733zm-.83-2.564l-.405 1.27h.847l-.401-1.27h-.04zm2.051 2.564v-2.474h.633v.395h.04c.065-.247.32-.435.635-.435.09 0 .2.011.256.031v.595a1.154 1.154 0 00-.31-.041c-.357 0-.601.211-.601.559v1.37h-.653zm2.29-3.062h.653v.613h.514v.513h-.514v1.113c0 .215.099.314.321.314.085 0 .13-.002.193-.009v.498c-.08.016-.202.029-.328.029-.6 0-.839-.195-.839-.677v-1.268h-.385v-.513h.385v-.613zm1.717 3.062v-2.474h.652v2.474h-.652zm.327-2.844a.373.373 0 010-.747.37.37 0 01.37.372.372.372 0 01-.37.375zm.931 1.097c0-.469.413-.781 1.03-.781.628 0 .998.263 1.034.736h-.604c-.033-.159-.183-.258-.426-.258-.233 0-.406.105-.406.262 0 .122.106.196.334.247l.465.101c.48.106.695.308.695.678 0 .493-.442.816-1.09.816-.653 0-1.048-.267-1.093-.742h.638c.049.168.208.264.468.264.254 0 .429-.105.429-.264 0-.121-.094-.195-.312-.243l-.449-.101c-.48-.105-.713-.334-.713-.715zm2.831-1.315h.653v.613h.514v.513H79.8v1.113c0 .215.099.314.32.314.086 0 .13-.002.194-.009v.498c-.081.016-.202.029-.328.029-.601 0-.839-.195-.839-.677v-1.268h-.386v-.513h.386v-.613zm4.677 1.185c-.237 0-.379.19-.379.511 0 .319.142.512.377.512.24 0 .39-.195.39-.512 0-.316-.15-.511-.388-.511zm.072-1.375c1.075 0 1.81.677 1.81 1.666 0 .714-.338 1.16-.881 1.16-.28 0-.485-.134-.534-.35h-.04c-.095.227-.279.343-.539.343-.466 0-.776-.376-.776-.946 0-.545.305-.916.754-.916.24 0 .435.117.525.317h.04v-.267h.453v1.189c0 .159.079.251.216.251.226 0 .372-.287.372-.742 0-.813-.56-1.342-1.413-1.342-.868 0-1.472.624-1.472 1.519 0 .911.604 1.485 1.557 1.485.24 0 .484-.029.61-.074v.365a2.362 2.362 0 01-.644.081c-1.168 0-1.933-.742-1.933-1.868 0-1.109.773-1.871 1.895-1.871zm4.998 1.958v.738c.312-.027.467-.164.467-.363 0-.191-.119-.288-.467-.375zm-.258-.671v-.715c-.282.031-.43.172-.43.347s.13.287.43.368zm.258.059l.16.035c.612.137.933.386.933.88 0 .565-.456.911-1.093.955v.355h-.258v-.352c-.63-.038-1.085-.37-1.103-.931h.6c.039.222.198.377.503.408v-.796l-.15-.034c-.586-.132-.909-.397-.909-.886 0-.538.442-.891 1.06-.929v-.361h.257v.361c.624.047 1.03.399 1.05.933h-.599c-.031-.237-.2-.374-.45-.41v.772zm3.065 1.989c-.777 0-1.34-.554-1.34-1.678 0-1.074.519-1.725 1.346-1.725.638 0 1.11.37 1.19.911h-.671c-.052-.22-.247-.354-.51-.354-.448 0-.709.399-.709 1.099h.04c.149-.303.45-.473.826-.473.615 0 1.066.453 1.066 1.07 0 .673-.514 1.15-1.238 1.15zm-.007-.556a.571.571 0 00.588-.579c0-.336-.238-.576-.586-.576s-.588.242-.588.567c0 .332.25.588.586.588zm3.091.556c-.702 0-1.18-.426-1.2-1.005h.626c.036.274.267.451.568.451.34 0 .576-.235.576-.592 0-.348-.233-.579-.563-.579-.256 0-.453.119-.554.31h-.606l.173-1.905h2.021v.557h-1.496l-.083.87h.04c.135-.204.373-.325.71-.325.558 0 1.004.408 1.004 1.065 0 .687-.487 1.153-1.216 1.153zm3.064 0c-.8 0-1.285-.632-1.285-1.707 0-1.072.49-1.696 1.285-1.696.795 0 1.286.624 1.286 1.698 0 1.071-.485 1.705-1.285 1.705zm0-.551c.373 0 .6-.389.6-1.156 0-.762-.23-1.142-.6-1.142-.367 0-.598.382-.598 1.142 0 .767.228 1.156.599 1.156zm2.183 1.164h-.6l1.159-4.114h.601l-1.16 4.114zm2.304-.696v-2.577h-.04l-.794.547v-.63l.837-.577h.675v3.237h-.678zm2.822.083c-.801 0-1.285-.632-1.285-1.707 0-1.072.489-1.696 1.285-1.696.794 0 1.286.624 1.286 1.698 0 1.071-.485 1.705-1.286 1.705zm0-.551c.373 0 .599-.389.599-1.156 0-.762-.229-1.142-.599-1.142-.368 0-.599.382-.599 1.142 0 .767.229 1.156.599 1.156zm3.424-.532h-1.474v-.613h1.474v.613zm.724 1v-3.418h.642v1.35h.04c.115-.283.384-.453.747-.453.532 0 .848.334.848.929v1.592h-.653v-1.438c0-.343-.159-.52-.455-.52-.328 0-.516.218-.516.538v1.42h-.653zm2.912 0v-2.474h.633v.395h.04c.065-.247.321-.435.635-.435.09 0 .2.011.256.031v.595a1.162 1.162 0 00-.31-.041c-.357 0-.601.211-.601.559v1.37h-.653zm3.376-1h-1.474v-.613h1.474v.613zm1.588 1.039c-.623 0-1.007-.49-1.007-1.279 0-.788.386-1.274 1.007-1.274.335 0 .611.161.739.435h.038v-1.339h.652v3.418h-.632v-.388h-.041c-.132.267-.412.427-.756.427zm.223-2.006c-.348 0-.559.276-.559.729 0 .458.209.731.559.731.35 0 .56-.276.56-.729 0-.451-.213-.731-.56-.731zm2.777 1.514c.303 0 .531-.193.531-.444v-.182l-.5.032c-.28.02-.417.121-.417.298 0 .184.159.296.386.296zm-.216.492c-.475 0-.809-.292-.809-.745 0-.449.343-.709.957-.745l.599-.036v-.202c0-.206-.148-.323-.417-.323-.235 0-.392.081-.446.229h-.601c.042-.458.462-.745 1.083-.745.655 0 1.025.31 1.025.839v1.689h-.632v-.323h-.041c-.128.227-.397.362-.718.362zm2.273.861c-.025 0-.222-.002-.249-.007v-.525c.022.005.121.005.148.005.244 0 .384-.079.437-.267l.023-.09-.868-2.49h.72l.52 1.875h.041l.52-1.875h.691l-.852 2.513c-.211.637-.514.861-1.131.861z" fill="#282C2E"/><path d="M38.622 111.164h.401c.01.271.215.46.52.46.346 0 .541-.211.541-.608v-2.333h.404v2.335c0 .617-.357.978-.942.978-.543 0-.924-.337-.924-.832zm3.387.46c.397 0 .69-.261.69-.606v-.222l-.65.042c-.367.025-.53.153-.53.395 0 .247.21.391.49.391zm-.072.338c-.469 0-.816-.278-.816-.72 0-.433.318-.682.881-.715l.698-.043v-.22c0-.298-.186-.462-.547-.462-.29 0-.492.11-.546.301h-.39c.052-.389.433-.644.949-.644.59 0 .92.303.92.805v1.656h-.368v-.357h-.036c-.157.258-.422.399-.745.399zm1.862-.042v-2.419h.368v.382h.036c.121-.267.357-.424.727-.424.543 0 .846.32.846.895v1.566h-.386v-1.472c0-.435-.184-.642-.57-.642-.386 0-.635.258-.635.682v1.432h-.386zm3.957-2.324c0-.577.444-.99 1.064-.99.565 0 .998.384.998.909 0 .372-.162.641-.745 1.245l-.736.76v.036h1.535v.364h-2.096v-.279l1.095-1.184c.413-.446.534-.615.534-.9 0-.343-.23-.599-.612-.599-.388 0-.646.254-.646.638h-.39zm3.904 2.4c-.687 0-1.167-.388-1.167-.942 0-.422.267-.75.673-.826v-.036a.722.722 0 01-.54-.722c0-.505.428-.864 1.034-.864.605 0 1.034.359 1.034.864 0 .354-.207.63-.54.722v.036c.405.076.672.404.672.826 0 .554-.48.942-1.166.942zm0-.346c.448 0 .758-.255.758-.625 0-.371-.31-.626-.758-.626-.449 0-.758.255-.758.626 0 .37.309.625.758.625zm0-1.592c.381 0 .637-.22.637-.55 0-.334-.254-.556-.637-.556-.384 0-.637.222-.637.556 0 .33.255.55.637.55zm4.583.742H54.77v-.365h1.472v.365zm2.46 1.12H58.3v-3.237h1.965v.363h-1.561v1.113h1.433v.359h-1.433v1.402zm3.141-2.12c-.386 0-.655.282-.684.711h1.333c-.01-.429-.265-.711-.649-.711zm.637 1.494h.386c-.112.413-.489.668-1.018.668-.67 0-1.09-.484-1.09-1.249 0-.761.426-1.254 1.09-1.254.653 0 1.05.464 1.05 1.216v.148H61.16v.018c.02.477.287.78.698.78.312 0 .523-.114.623-.327zm2.226.668c-.337 0-.624-.159-.776-.428h-.036v.386h-.368v-3.379h.386v1.342h.036c.132-.261.426-.424.758-.424.615 0 1.014.491 1.014 1.251 0 .756-.402 1.252-1.014 1.252zm-.09-2.156c-.44 0-.713.346-.713.904 0 .559.273.905.713.905.442 0 .704-.339.704-.905 0-.565-.262-.904-.704-.904zm2.984-.21c0-.577.444-.99 1.063-.99.565 0 .998.384.998.909 0 .372-.161.641-.745 1.245l-.735.76v.036h1.534v.364h-2.095v-.279l1.095-1.184c.412-.446.534-.615.534-.9 0-.343-.232-.599-.613-.599-.388 0-.646.254-.646.638h-.39zm2.777 0c0-.577.444-.99 1.063-.99.566 0 .998.384.998.909 0 .372-.161.641-.744 1.245l-.736.76v.036h1.534v.364h-2.095v-.279l1.095-1.184c.413-.446.534-.615.534-.9 0-.343-.231-.599-.613-.599-.388 0-.646.254-.646.638h-.39zm2.977 3.147h-.29l.213-1.277h.429l-.352 1.277zm2.393-3.147c0-.577.444-.99 1.064-.99.565 0 .998.384.998.909 0 .372-.162.641-.745 1.245l-.736.76v.036h1.535v.364h-2.095v-.279l1.094-1.184c.413-.446.534-.615.534-.9 0-.343-.23-.599-.612-.599-.388 0-.646.254-.646.638h-.39zm3.886 2.4c-.73 0-1.149-.619-1.149-1.696 0-1.068.424-1.694 1.149-1.694.72 0 1.144.628 1.144 1.701 0 1.074-.417 1.689-1.144 1.689zm0-.352c.478 0 .738-.476.738-1.344 0-.859-.265-1.339-.738-1.339-.474 0-.743.484-.743 1.339 0 .866.265 1.344.743 1.344zm1.785-2.048c0-.577.445-.99 1.064-.99.565 0 .998.384.998.909 0 .372-.161.641-.745 1.245l-.736.76v.036h1.535v.364H81.44v-.279l1.094-1.184c.413-.446.534-.615.534-.9 0-.343-.23-.599-.612-.599-.388 0-.646.254-.646.638h-.39zm4.209 2.324v-.671H84.05v-.368c.437-.734.933-1.523 1.386-2.198h.586v2.205h.46v.361h-.46v.671h-.395zm-1.164-1.057v.027h1.166v-1.833h-.027a41.433 41.433 0 00-1.14 1.806z" fill="#54595C"/><path d="M70.37 125.838H40.398c-.997 0-1.805.808-1.805 1.805v22.751c0 .997.808 1.805 1.805 1.805H70.37c.997 0 1.805-.808 1.805-1.805v-22.751c0-.997-.808-1.805-1.805-1.805z" fill="#F2F0FF"/><path d="M70.37 125.838H40.398c-.997 0-1.805.808-1.805 1.805v22.751c0 .997.808 1.805 1.805 1.805H70.37c.997 0 1.805-.808 1.805-1.805v-22.751c0-.997-.808-1.805-1.805-1.805z" stroke="#F2F0FF" stroke-width=".328"/><mask id="c" maskUnits="userSpaceOnUse" x="51" y="130" width="9" height="9"><path d="M59.322 130.925h-7.876v7.876h7.876v-7.876z" fill="#fff"/></mask><g mask="url(#c)" stroke="#4426BD" stroke-linecap="round" stroke-linejoin="round"><path d="M55.384 138.144a3.281 3.281 0 100-6.563 3.281 3.281 0 000 6.563z" stroke-width=".656"/><path d="M55.384 132.893v1.969l1.313.657" stroke-width=".574"/></g><path d="M51.633 146.426h-.579v-2.737h-.996v-.5h2.573v.5h-.998v2.737zm1.507 0v-2.454h.554v2.454h-.554zm.276-2.86a.333.333 0 01-.332-.335c0-.186.15-.336.332-.336.184 0 .332.15.332.336a.332.332 0 01-.332.335zm.97 2.86v-2.454h.536v.397h.038c.105-.281.356-.447.682-.447.338 0 .574.171.677.447h.038c.121-.269.404-.447.745-.447.491 0 .788.308.788.817v1.687h-.555v-1.546c0-.316-.15-.473-.448-.473-.29 0-.48.211-.48.491v1.528h-.541v-1.586c0-.269-.17-.433-.444-.433-.276 0-.48.227-.48.527v1.492h-.556zm5.193-2.062c-.332 0-.566.238-.59.597h1.155c-.011-.363-.231-.597-.565-.597zm.57 1.387h.527c-.101.446-.512.724-1.09.724-.723 0-1.158-.478-1.158-1.267 0-.79.442-1.286 1.153-1.286.7 0 1.12.465 1.12 1.239v.179h-1.715v.029c.014.409.25.664.615.664.276 0 .467-.101.547-.282z" fill="#4426BD"/><path d="M106.906 125.838H76.933c-.997 0-1.805.808-1.805 1.805v22.751c0 .997.808 1.805 1.805 1.805h29.973c.996 0 1.805-.808 1.805-1.805v-22.751c0-.997-.809-1.805-1.805-1.805z" fill="#F2F0FF"/><path d="M106.906 125.838H76.933c-.997 0-1.805.808-1.805 1.805v22.751c0 .997.808 1.805 1.805 1.805h29.973c.996 0 1.805-.808 1.805-1.805v-22.751c0-.997-.809-1.805-1.805-1.805z" stroke="#F2F0FF" stroke-width=".328"/><path d="M88.966 131.581h5.907v6.891l-.984-.656-.985.656-.984-.656-.985.656-.984-.656-.985.656v-6.891zM90.279 136.175h1.64M93.232 136.175h.329" stroke="#4426BD" stroke-width=".574" stroke-linecap="round" stroke-linejoin="round"/><path d="M91.92 134.862a.984.984 0 100-1.968.984.984 0 000 1.968z" stroke="#4426BD" stroke-width=".574" stroke-linecap="round" stroke-linejoin="round"/><path d="M84.887 145.926v.5H82.79v-3.237h2.096v.5H83.37v.859h1.434v.471H83.37v.907h1.517zm1.613-.341h-.038l-.5.845h-.602l.794-1.218-.8-1.236h.645l.487.844h.038l.485-.844h.612l-.791 1.214.8 1.24h-.628l-.502-.845zm2.959-1.654c.621 0 1.011.48 1.011 1.268 0 .783-.385 1.267-1.005 1.267-.352 0-.623-.152-.749-.412h-.038v1.189h-.556v-3.271h.536v.406h.038a.833.833 0 01.763-.447zm-.175 2.062c.385 0 .614-.298.614-.794 0-.496-.23-.794-.612-.794-.38 0-.617.305-.62.794.003.491.239.794.618.794zm2.775-1.629c-.332 0-.566.238-.59.597h1.155c-.011-.363-.231-.597-.565-.597zm.57 1.387h.527c-.101.446-.512.724-1.09.724-.723 0-1.158-.478-1.158-1.267 0-.79.442-1.286 1.153-1.286.7 0 1.12.465 1.12 1.239v.179h-1.715v.029c.014.409.25.664.615.664.276 0 .467-.101.547-.282zm1.11.675v-2.454h.536v.392h.038c.117-.273.364-.442.73-.442.547 0 .845.33.845.916v1.588h-.556v-1.456c0-.375-.157-.563-.496-.563-.332 0-.54.229-.54.59v1.429h-.557zm2.752-1.752c0-.444.404-.752.983-.752.583 0 .949.258.99.705h-.523c-.04-.173-.204-.283-.465-.283-.253 0-.444.121-.444.299 0 .139.117.224.364.28l.433.099c.468.105.686.307.686.668 0 .471-.433.785-1.046.785-.612 0-.998-.264-1.04-.711h.55c.053.182.226.29.504.29.28 0 .476-.124.476-.306 0-.139-.106-.226-.34-.278l-.434-.101c-.472-.107-.694-.325-.694-.695zm3.617-.31c-.332 0-.566.238-.59.597h1.155c-.011-.363-.231-.597-.565-.597zm.569 1.387h.528c-.101.446-.512.724-1.091.724-.722 0-1.157-.478-1.157-1.267 0-.79.442-1.286 1.153-1.286.7 0 1.119.465 1.119 1.239v.179h-1.714v.029c.014.409.25.664.615.664.276 0 .467-.101.547-.282z" fill="#4426BD"/><path d="M143.441 125.838h-29.972c-.997 0-1.805.808-1.805 1.805v22.751c0 .997.808 1.805 1.805 1.805h29.972c.997 0 1.805-.808 1.805-1.805v-22.751c0-.997-.808-1.805-1.805-1.805z" fill="#F2F0FF"/><path d="M143.441 125.838h-29.972c-.997 0-1.805.808-1.805 1.805v22.751c0 .997.808 1.805 1.805 1.805h29.972c.997 0 1.805-.808 1.805-1.805v-22.751c0-.997-.808-1.805-1.805-1.805z" stroke="#F2F0FF" stroke-width=".328"/><path d="M132.065 132.565h-7.22v5.251h7.22v-5.251z" stroke="#4426BD" stroke-width=".656" stroke-linecap="round" stroke-linejoin="round"/><path d="M128.455 136.175a.985.985 0 100-1.97.985.985 0 000 1.97zM131.409 131.253h-5.907" stroke="#4426BD" stroke-width=".656" stroke-linecap="round" stroke-linejoin="round"/><path d="M124.505 146.507c-.918 0-1.488-.651-1.488-1.698 0-1.053.568-1.701 1.486-1.701.735 0 1.303.48 1.37 1.155h-.57c-.08-.388-.392-.639-.8-.639-.55 0-.893.453-.893 1.182 0 .732.343 1.185.895 1.185.41 0 .722-.229.801-.592h.569c-.076.661-.623 1.108-1.37 1.108zm2.795-.478c.336 0 .588-.218.588-.503v-.195l-.554.036c-.312.02-.458.132-.458.332 0 .207.177.33.424.33zm-.164.437c-.473 0-.812-.287-.812-.735 0-.445.334-.7.931-.736l.633-.038v-.207c0-.24-.162-.374-.462-.374-.256 0-.431.089-.483.255h-.525c.045-.433.451-.709 1.034-.709.631 0 .985.308.985.828v1.676h-.536v-.337h-.038c-.137.238-.406.377-.727.377zm1.916-1.792c0-.444.404-.752.983-.752.583 0 .948.258.989.705h-.523c-.04-.173-.204-.283-.464-.283-.254 0-.444.121-.444.299 0 .139.116.224.363.28l.433.099c.469.105.686.307.686.668 0 .471-.433.785-1.045.785-.612 0-.998-.264-1.041-.711h.55c.054.182.226.29.504.29.281 0 .476-.124.476-.306 0-.139-.105-.226-.339-.278l-.435-.101c-.471-.107-.693-.325-.693-.695zm2.609 1.752v-3.403h.547v1.346h.041c.116-.276.379-.442.744-.442.525 0 .844.332.844.915v1.584h-.556v-1.451c0-.373-.171-.564-.494-.564-.366 0-.57.238-.57.59v1.425h-.556z" fill="#4426BD"/><path d="M268.144 81.644H155.912a2.461 2.461 0 00-2.461 2.461v70.884a2.461 2.461 0 002.461 2.461h112.232a2.461 2.461 0 002.462-2.461V84.105a2.461 2.461 0 00-2.462-2.461z" fill="#fff"/><path d="M268.144 81.644H155.912a2.461 2.461 0 00-2.461 2.461v70.884a2.461 2.461 0 002.461 2.461h112.232a2.461 2.461 0 002.462-2.461V84.105a2.461 2.461 0 00-2.462-2.461z" stroke="#DFE2E5" stroke-width=".328"/><path d="M155.912 23.395H27.928v17.393h127.984V23.395z" fill="#4426BD"/><path d="M43.516 34.974V31.75h-.046l-.978.687v-.676l1.027-.719h.7v3.93h-.703zm1.648-2.762c0-.747.577-1.267 1.397-1.267.782 0 1.313.477 1.313 1.13 0 .458-.199.78-.874 1.433l-.845.823v.046h1.776v.597h-2.73v-.488l1.363-1.364c.495-.496.615-.684.615-.978 0-.352-.245-.621-.656-.621-.428 0-.7.28-.7.689h-.66zm3.925 2.22a.42.42 0 01-.436-.43c0-.248.18-.431.436-.431.258 0 .435.183.435.43 0 .246-.177.43-.435.43zm0-1.989a.417.417 0 01-.436-.427c0-.248.18-.43.436-.43.258 0 .435.182.435.43a.416.416 0 01-.435.427zm2.611 2.629c-.942 0-1.5-.763-1.5-2.068 0-1.299.566-2.059 1.5-2.059.932 0 1.499.76 1.499 2.065 0 1.3-.559 2.062-1.499 2.062zm0-.583c.499 0 .788-.51.788-1.485 0-.97-.295-1.473-.788-1.473-.493 0-.79.506-.79 1.473 0 .976.292 1.485.79 1.485zm3.598.583c-.901 0-1.522-.469-1.522-1.15 0-.498.335-.893.85-1.002v-.046c-.42-.104-.692-.444-.692-.864 0-.62.569-1.065 1.367-1.065s1.365.444 1.365 1.065c0 .422-.267.757-.69.864v.046c.513.095.85.493.85 1 0 .683-.62 1.152-1.528 1.152zm.003-.548c.474 0 .798-.27.798-.662s-.327-.661-.798-.661c-.474 0-.8.27-.8.661 0 .393.326.662.8.662zm0-1.863c.398 0 .673-.237.673-.583 0-.351-.272-.594-.673-.594-.403 0-.675.243-.675.594 0 .346.275.583.675.583z" fill="#fff"/><path d="M106.359 26.02H77.481a6.071 6.071 0 000 12.142h28.878a6.071 6.071 0 100-12.142z" fill="#000"/><path d="M91.917 25.785h-14.11a6.071 6.071 0 100 12.142h14.11a6.071 6.071 0 000-12.142zM106.685 25.785a6.071 6.071 0 100 12.142 6.071 6.071 0 100-12.142z" fill="#000"/><path d="M124.588 30.943c0-.182.147-.329.329-.329h.328c.181 0 .328.147.328.329v2.625a.328.328 0 01-.328.328h-.328a.328.328 0 01-.329-.328v-2.625zM126.229 30.286c0-.18.147-.328.328-.328h.329c.181 0 .328.147.328.328v3.282a.328.328 0 01-.328.328h-.329a.328.328 0 01-.328-.328v-3.282zM122.948 32.091c0-.18.147-.328.328-.328h.328c.181 0 .328.147.328.328v1.477a.328.328 0 01-.328.328h-.328a.328.328 0 01-.328-.328v-1.477zM121.307 32.912c0-.181.147-.328.328-.328h.328c.181 0 .328.147.328.328v.656a.328.328 0 01-.328.328h-.328a.328.328 0 01-.328-.328v-.656z" fill="#fff"/><path fill-rule="evenodd" clip-rule="evenodd" d="M132.629 30.807c.809 0 1.587.318 2.174.887a.11.11 0 00.158-.001l.423-.435a.122.122 0 00-.001-.17 3.923 3.923 0 00-5.509 0 .122.122 0 00-.001.17l.422.435a.112.112 0 00.159.001 3.12 3.12 0 012.175-.887zm.011 1.314c.445 0 .874.168 1.203.473a.113.113 0 00.159-.002l.421-.435a.12.12 0 00-.001-.171 2.577 2.577 0 00-3.563 0 .12.12 0 00-.001.171l.421.435a.113.113 0 00.159.002 1.771 1.771 0 011.202-.473zm.858.849a.12.12 0 01-.035.086l-.729.751a.114.114 0 01-.081.035.111.111 0 01-.081-.035l-.73-.751a.119.119 0 01.004-.17 1.23 1.23 0 011.614 0 .122.122 0 01.038.084z" fill="#fff"/><path opacity=".35" d="M138.762 29.834h5.578c.63 0 1.14.51 1.14 1.14v1.64c0 .63-.51 1.14-1.14 1.14h-5.578c-.63 0-1.14-.51-1.14-1.14v-1.64c0-.63.51-1.14 1.14-1.14z" stroke="#fff" stroke-width=".346"/><path opacity=".4" d="M145.981 31.302v1.385a.751.751 0 000-1.385z" fill="#fff"/><path d="M138.105 30.974c0-.363.294-.657.656-.657h3.61c.363 0 .657.294.657.657v1.64a.657.657 0 01-.657.657h-3.61a.656.656 0 01-.656-.656v-1.641z" fill="#fff"/></g></g></g></g><defs><linearGradient id="paint0_linear_1313_2437696" x1="21.699" y1="46.539" x2="24.206" y2="46.539" gradientUnits="userSpaceOnUse"><stop stop-color="#403548"/><stop offset=".222" stop-color="#7F7386"/><stop offset=".447" stop-color="#352C40"/></linearGradient><linearGradient id="paint1_linear_1313_2437696" x1="132.314" y1="16.965" x2="132.314" y2="19.233" gradientUnits="userSpaceOnUse"><stop stop-color="#403548"/><stop offset=".262" stop-color="#7F7386"/><stop offset=".511" stop-color="#352C40"/></linearGradient><linearGradient id="paint2_linear_1313_2437696" x1="162.406" y1="45.982" x2="159.898" y2="45.982" gradientUnits="userSpaceOnUse"><stop stop-color="#403548"/><stop offset=".222" stop-color="#7F7386"/><stop offset=".447" stop-color="#352C40"/></linearGradient><linearGradient id="paint3_linear_1313_2437696" x1="91.912" y1="19.252" x2="91.912" y2="20.369" gradientUnits="userSpaceOnUse"><stop offset=".12"/><stop offset="1" stop-color="#303030"/></linearGradient><linearGradient id="paint4_linear_1313_2437696" x1="162.824" y1="108.97" x2="162.824" y2="143.52" gradientUnits="userSpaceOnUse"><stop stop-color="#C7C7C7"/><stop offset=".038" stop-color="#221D35" stop-opacity=".65"/><stop offset=".406" stop-color="#221D35" stop-opacity="0"/><stop offset=".604" stop-color="#221D35" stop-opacity="0"/><stop offset=".974" stop-color="#221D35" stop-opacity=".65"/><stop offset="1" stop-color="#C7C7C7"/></linearGradient><linearGradient id="paint5_linear_1313_2437696" x1="21.281" y1="72.749" x2="21.281" y2="83.894" gradientUnits="userSpaceOnUse"><stop stop-color="#C7C7C7"/><stop offset=".083" stop-color="#221D35" stop-opacity=".65"/><stop offset=".406" stop-color="#fff" stop-opacity="0"/><stop offset=".604" stop-color="#fff" stop-opacity="0"/><stop offset=".917" stop-color="#221D35" stop-opacity=".65"/><stop offset="1" stop-color="#C7C7C7"/></linearGradient><linearGradient id="paint6_linear_1313_2437696" x1="21.42" y1="93.646" x2="21.42" y2="115.936" gradientUnits="userSpaceOnUse"><stop stop-color="#C7C7C7"/><stop offset=".038" stop-color="#221D35" stop-opacity=".65"/><stop offset=".406" stop-color="#221D35" stop-opacity="0"/><stop offset=".604" stop-color="#221D35" stop-opacity="0"/><stop offset=".962" stop-color="#221D35" stop-opacity=".65"/><stop offset="1" stop-color="#C7C7C7"/></linearGradient><linearGradient id="paint7_linear_1313_2437696" x1="21.42" y1="121.509" x2="21.42" y2="143.799" gradientUnits="userSpaceOnUse"><stop stop-color="#C7C7C7"/><stop offset=".038" stop-color="#221D35" stop-opacity=".65"/><stop offset=".406" stop-color="#221D35" stop-opacity="0"/><stop offset=".604" stop-color="#221D35" stop-opacity="0"/><stop offset=".974" stop-color="#221D35" stop-opacity=".65"/><stop offset="1" stop-color="#C7C7C7"/></linearGradient><linearGradient id="paint8_linear_1313_2437696" x1="108.697" y1="34.937" x2="104.271" y2="32.315" gradientUnits="userSpaceOnUse"><stop stop-color="#222"/><stop offset="1" stop-color="#0B0B0B"/></linearGradient><linearGradient id="paint10_linear_1313_2437696" x1="105.692" y1="32.753" x2="106.199" y2="34.374" gradientUnits="userSpaceOnUse"><stop stop-color="#20569B"/><stop offset=".677" stop-color="#061127"/></linearGradient><linearGradient id="paint11_linear_1313_2437696" x1="107.111" y1="34.172" x2="106.605" y2="32.55" gradientUnits="userSpaceOnUse"><stop stop-color="#3D6495"/><stop offset=".719" stop-color="#061127"/></linearGradient><linearGradient id="paint12_linear_1313_2437696" x1="107.01" y1="34.07" x2="106.604" y2="33.563" gradientUnits="userSpaceOnUse"><stop stop-color="#3291AF"/><stop offset="1" stop-color="#3291AF" stop-opacity="0"/></linearGradient><filter id="filter0_d_1313_2437696" x=".863" y="1.023" width="182.379" height="330.052" filterUnits="userSpaceOnUse" color-interpolation-filters="sRGB"><feFlood flood-opacity="0" result="BackgroundImageFix"/><feColorMatrix in="SourceAlpha" values="0 0 0 0 0 0 0 0 0 0 0 0 0 0 0 0 0 0 127 0" result="hardAlpha"/><feOffset dy="4"/><feGaussianBlur stdDeviation="10"/><feComposite in2="hardAlpha" operator="out"/><feColorMatrix values="0 0 0 0 0 0 0 0 0 0 0 0 0 0 0 0 0 0 0.3 0"/><feBlend in2="BackgroundImageFix" result="effect1_dropShadow_1313_2437696"/><feBlend in="SourceGraphic" in2="effect1_dropShadow_1313_2437696" result="shape"/></filter><filter id="filter1_dddd_1313_2437696" x="16.068" y="17.023" width="151.968" height="300.165" filterUnits="userSpaceOnUse" color-interpolation-filters="sRGB"><feFlood flood-opacity="0" result="BackgroundImageFix"/><feColorMatrix in="SourceAlpha" values="0 0 0 0 0 0 0 0 0 0 0 0 0 0 0 0 0 0 127 0" result="hardAlpha"/><feOffset dy=".555"/><feGaussianBlur stdDeviation=".236"/><feColorMatrix values="0 0 0 0 0 0 0 0 0 0 0 0 0 0 0 0 0 0 0.0383468 0"/><feBlend in2="BackgroundImageFix" result="effect1_dropShadow_1313_2437696"/><feColorMatrix in="SourceAlpha" values="0 0 0 0 0 0 0 0 0 0 0 0 0 0 0 0 0 0 127 0" result="hardAlpha"/><feOffset dy="1.262"/><feGaussianBlur stdDeviation=".536"/><feColorMatrix values="0 0 0 0 0 0 0 0 0 0 0 0 0 0 0 0 0 0 0.0557458 0"/><feBlend in2="effect1_dropShadow_1313_2437696" result="effect2_dropShadow_1313_2437696"/><feColorMatrix in="SourceAlpha" values="0 0 0 0 0 0 0 0 0 0 0 0 0 0 0 0 0 0 127 0" result="hardAlpha"/><feOffset dy="2.196"/><feGaussianBlur stdDeviation=".933"/><feColorMatrix values="0 0 0 0 0 0 0 0 0 0 0 0 0 0 0 0 0 0 0.0686568 0"/><feBlend in2="effect2_dropShadow_1313_2437696" result="effect3_dropShadow_1313_2437696"/><feColorMatrix in="SourceAlpha" values="0 0 0 0 0 0 0 0 0 0 0 0 0 0 0 0 0 0 127 0" result="hardAlpha"/><feOffset dy="5.318"/><feGaussianBlur stdDeviation="2.397"/><feColorMatrix values="0 0 0 0 0 0 0 0 0 0 0 0 0 0 0 0 0 0 0.11 0"/><feBlend in2="effect3_dropShadow_1313_2437696" result="effect4_dropShadow_1313_2437696"/><feBlend in="SourceGraphic" in2="effect4_dropShadow_1313_2437696" result="shape"/></filter><filter id="filter2_dd_1313_2437696" x="21.364" y="16.689" width="141.376" height="290.721" filterUnits="userSpaceOnUse" color-interpolation-filters="sRGB"><feFlood flood-opacity="0" result="BackgroundImageFix"/><feColorMatrix in="SourceAlpha" values="0 0 0 0 0 0 0 0 0 0 0 0 0 0 0 0 0 0 127 0" result="hardAlpha"/><feOffset/><feGaussianBlur stdDeviation=".139"/><feComposite in2="hardAlpha" operator="out"/><feColorMatrix values="0 0 0 0 0.686664 0 0 0 0 0.640174 0 0 0 0 0.745833 0 0 0 1 0"/><feBlend in2="BackgroundImageFix" result="effect1_dropShadow_1313_2437696"/><feColorMatrix in="SourceAlpha" values="0 0 0 0 0 0 0 0 0 0 0 0 0 0 0 0 0 0 127 0" result="hardAlpha"/><feOffset/><feGaussianBlur stdDeviation=".167"/><feComposite in2="hardAlpha" operator="out"/><feColorMatrix values="0 0 0 0 0.227307 0 0 0 0 0.169271 0 0 0 0 0.270833 0 0 0 1 0"/><feBlend in2="effect1_dropShadow_1313_2437696" result="effect2_dropShadow_1313_2437696"/><feBlend in="SourceGraphic" in2="effect2_dropShadow_1313_2437696" result="shape"/></filter><filter id="filter3_ii_1313_2437696" x="162.294" y="108.97" width="1.059" height="34.55" filterUnits="userSpaceOnUse" color-interpolation-filters="sRGB"><feFlood flood-opacity="0" result="BackgroundImageFix"/><feBlend in="SourceGraphic" in2="BackgroundImageFix" result="shape"/><feColorMatrix in="SourceAlpha" values="0 0 0 0 0 0 0 0 0 0 0 0 0 0 0 0 0 0 127 0" result="hardAlpha"/><feOffset dx="-.139"/><feGaussianBlur stdDeviation=".056"/><feComposite in2="hardAlpha" operator="arithmetic" k2="-1" k3="1"/><feColorMatrix values="0 0 0 0 0.779167 0 0 0 0 0.779167 0 0 0 0 0.779167 0 0 0 1 0"/><feBlend in2="shape" result="effect1_innerShadow_1313_2437696"/><feColorMatrix in="SourceAlpha" values="0 0 0 0 0 0 0 0 0 0 0 0 0 0 0 0 0 0 127 0" result="hardAlpha"/><feOffset dx=".111"/><feGaussianBlur stdDeviation=".056"/><feComposite in2="hardAlpha" operator="arithmetic" k2="-1" k3="1"/><feColorMatrix values="0 0 0 0 0.133333 0 0 0 0 0.113725 0 0 0 0 0.207843 0 0 0 0.6 0"/><feBlend in2="effect1_innerShadow_1313_2437696" result="effect2_innerShadow_1313_2437696"/></filter><filter id="filter4_ii_1313_2437696" x="20.751" y="72.749" width="1.059" height="11.145" filterUnits="userSpaceOnUse" color-interpolation-filters="sRGB"><feFlood flood-opacity="0" result="BackgroundImageFix"/><feBlend in="SourceGraphic" in2="BackgroundImageFix" result="shape"/><feColorMatrix in="SourceAlpha" values="0 0 0 0 0 0 0 0 0 0 0 0 0 0 0 0 0 0 127 0" result="hardAlpha"/><feOffset dx=".279"/><feGaussianBlur stdDeviation=".056"/><feComposite in2="hardAlpha" operator="arithmetic" k2="-1" k3="1"/><feColorMatrix values="0 0 0 0 0.779167 0 0 0 0 0.779167 0 0 0 0 0.779167 0 0 0 1 0"/><feBlend in2="shape" result="effect1_innerShadow_1313_2437696"/><feColorMatrix in="SourceAlpha" values="0 0 0 0 0 0 0 0 0 0 0 0 0 0 0 0 0 0 127 0" result="hardAlpha"/><feOffset dx="-.111"/><feGaussianBlur stdDeviation=".056"/><feComposite in2="hardAlpha" operator="arithmetic" k2="-1" k3="1"/><feColorMatrix values="0 0 0 0 0.133333 0 0 0 0 0.113725 0 0 0 0 0.207843 0 0 0 0.6 0"/><feBlend in2="effect1_innerShadow_1313_2437696" result="effect2_innerShadow_1313_2437696"/></filter><filter id="filter5_ii_1313_2437696" x="21.03" y="93.646" width=".78" height="22.29" filterUnits="userSpaceOnUse" color-interpolation-filters="sRGB"><feFlood flood-opacity="0" result="BackgroundImageFix"/><feBlend in="SourceGraphic" in2="BackgroundImageFix" result="shape"/><feColorMatrix in="SourceAlpha" values="0 0 0 0 0 0 0 0 0 0 0 0 0 0 0 0 0 0 127 0" result="hardAlpha"/><feOffset dx=".139"/><feGaussianBlur stdDeviation=".056"/><feComposite in2="hardAlpha" operator="arithmetic" k2="-1" k3="1"/><feColorMatrix values="0 0 0 0 0.779167 0 0 0 0 0.779167 0 0 0 0 0.779167 0 0 0 1 0"/><feBlend in2="shape" result="effect1_innerShadow_1313_2437696"/><feColorMatrix in="SourceAlpha" values="0 0 0 0 0 0 0 0 0 0 0 0 0 0 0 0 0 0 127 0" result="hardAlpha"/><feOffset dx="-.111"/><feGaussianBlur stdDeviation=".056"/><feComposite in2="hardAlpha" operator="arithmetic" k2="-1" k3="1"/><feColorMatrix values="0 0 0 0 0.133333 0 0 0 0 0.113725 0 0 0 0 0.207843 0 0 0 0.6 0"/><feBlend in2="effect1_innerShadow_1313_2437696" result="effect2_innerShadow_1313_2437696"/></filter><filter id="filter6_ii_1313_2437696" x="21.03" y="121.509" width=".78" height="22.29" filterUnits="userSpaceOnUse" color-interpolation-filters="sRGB"><feFlood flood-opacity="0" result="BackgroundImageFix"/><feBlend in="SourceGraphic" in2="BackgroundImageFix" result="shape"/><feColorMatrix in="SourceAlpha" values="0 0 0 0 0 0 0 0 0 0 0 0 0 0 0 0 0 0 127 0" result="hardAlpha"/><feOffset dx=".139"/><feGaussianBlur stdDeviation=".056"/><feComposite in2="hardAlpha" operator="arithmetic" k2="-1" k3="1"/><feColorMatrix values="0 0 0 0 0.779167 0 0 0 0 0.779167 0 0 0 0 0.779167 0 0 0 1 0"/><feBlend in2="shape" result="effect1_innerShadow_1313_2437696"/><feColorMatrix in="SourceAlpha" values="0 0 0 0 0 0 0 0 0 0 0 0 0 0 0 0 0 0 127 0" result="hardAlpha"/><feOffset dx="-.111"/><feGaussianBlur stdDeviation=".056"/><feComposite in2="hardAlpha" operator="arithmetic" k2="-1" k3="1"/><feColorMatrix values="0 0 0 0 0.133333 0 0 0 0 0.113725 0 0 0 0 0.207843 0 0 0 0.6 0"/><feBlend in2="effect1_innerShadow_1313_2437696" result="effect2_innerShadow_1313_2437696"/></filter><filter id="filter7_f_1313_2437696" x="105.206" y="32.267" width="1.377" height="2.39" filterUnits="userSpaceOnUse" color-interpolation-filters="sRGB"><feFlood flood-opacity="0" result="BackgroundImageFix"/><feBlend in="SourceGraphic" in2="BackgroundImageFix" result="shape"/><feGaussianBlur stdDeviation=".141" result="effect1_foregroundBlur_1313_2437696"/></filter><filter id="filter8_f_1313_2437696" x="104.903" y="31.76" width="2.593" height="2.593" filterUnits="userSpaceOnUse" color-interpolation-filters="sRGB"><feFlood flood-opacity="0" result="BackgroundImageFix"/><feBlend in="SourceGraphic" in2="BackgroundImageFix" result="shape"/><feGaussianBlur stdDeviation=".496" result="effect1_foregroundBlur_1313_2437696"/></filter><filter id="filter9_f_1313_2437696" x="106.221" y="32.268" width="1.376" height="2.39" filterUnits="userSpaceOnUse" color-interpolation-filters="sRGB"><feFlood flood-opacity="0" result="BackgroundImageFix"/><feBlend in="SourceGraphic" in2="BackgroundImageFix" result="shape"/><feGaussianBlur stdDeviation=".141" result="effect1_foregroundBlur_1313_2437696"/></filter><filter id="filter10_f_1313_2437696" x="105.969" y="33.232" width="1.27" height="1.27" filterUnits="userSpaceOnUse" color-interpolation-filters="sRGB"><feFlood flood-opacity="0" result="BackgroundImageFix"/><feBlend in="SourceGraphic" in2="BackgroundImageFix" result="shape"/><feGaussianBlur stdDeviation=".165" result="effect1_foregroundBlur_1313_2437696"/></filter><radialGradient id="paint9_radial_1313_2437696" cx="0" cy="0" r="1" gradientUnits="userSpaceOnUse" gradientTransform="matrix(.91188 .70924 -.71448 .91862 106.402 33.36)"><stop stop-color="#152457"/><stop offset="1"/></radialGradient><clipPath id="clip0_1313_2437696"><path fill="#fff" transform="translate(.777 .987)" d="M0 0h183v166H0z"/></clipPath></defs></svg>