<svg width="289" height="46" viewBox="0 0 289 46" fill="none" xmlns="http://www.w3.org/2000/svg"><path d="M289 41.453c0 2.25-1.888 4.086-4.189 4.086s-4.189-1.836-4.189-4.086 1.888-4.204 4.189-4.204S289 39.203 289 41.453zM273.039 38.078c-3.953 4.915-8.26 7.461-11.269 7.461-1.829 0-3.127-1.421-3.422-4.263l-.708-8.053c-1.888.296-3.776.533-5.546.533l-4.248 11.191h-5.015l14.927-36.592c.413-1.066.649-2.013.649-2.428 0-.829-.413-1.184-4.956-2.842l.472-1.42L264.425.538l1.18.533-9.794 22.796h.236c4.307-3.849 8.555-7.342 13.511-7.342 2.891 0 5.015 1.895 5.015 4.677 0 5.152-6.195 9.178-13.216 11.132l1.357 7.638c.295 1.48.767 2.013 1.711 2.013 1.593 0 4.012-1.657 7.198-5.328l1.416 1.42zm-6.726-17.94c-3.304 0-8.673 3.73-11.859 7.401l-1.652 4.322c8.791-.296 16.874-4.322 16.874-9 0-1.954-1.357-2.723-3.363-2.723zM237.372 19.072c-5.133 0-11.446 10.54-11.446 17.94 0 3.613 1.357 5.448 3.658 5.448 2.773 0 5.605-1.835 8.968-5.743l1.652 1.54c-3.717 4.618-8.083 7.282-11.8 7.282-4.543 0-7.434-2.901-7.434-8.467 0-8.94 8.968-20.546 17.523-20.546 3.835 0 5.9 2.072 5.9 4.796 0 1.954-1.239 3.434-2.95 3.434-3.717 0-1.652-5.684-4.071-5.684zM215.57 6.638a3.708 3.708 0 013.717-3.73 3.708 3.708 0 013.717 3.73 3.708 3.708 0 01-3.717 3.73 3.708 3.708 0 01-3.717-3.73zm3.835 10.717l-8.437 19.302c-1.416 3.198-1.652 3.73-1.652 4.441 0 .592.354.83.944.83 1.593 0 3.776-1.6 6.372-4.738l1.416 1.421c-3.363 4.382-7.788 6.928-10.856 6.928-1.829 0-3.127-1.007-3.127-2.664 0-1.007.295-1.895 1.062-3.672l6.136-14.565c.472-1.125.649-2.073.649-2.487 0-.77-.413-1.125-4.956-2.783l.472-1.421 10.738-1.125 1.239.533zM207.928 1.072l-14.691 35.586c-1.357 3.256-1.593 3.73-1.593 4.44 0 .592.354.83.944.83 1.593 0 3.658-1.6 6.254-4.738l1.416 1.421c-3.363 4.382-7.611 6.928-10.679 6.928-1.829 0-3.127-1.007-3.127-2.664 0-1.007.354-1.895 1.062-3.672l12.567-30.848c.413-1.066.649-2.013.649-2.428 0-.829-.413-1.184-4.956-2.842l.472-1.42L206.748.538l1.18.533zM179.813 19.072c-5.133 0-11.446 10.54-11.446 17.94 0 3.613 1.357 5.448 3.658 5.448 2.773 0 5.605-1.835 8.968-5.743l1.652 1.54c-3.717 4.618-8.083 7.282-11.8 7.282-4.543 0-7.434-2.901-7.434-8.467 0-8.94 8.968-20.546 17.523-20.546 3.835 0 5.9 2.072 5.9 4.796 0 1.954-1.239 3.434-2.95 3.434-3.717 0-1.652-5.684-4.071-5.684zM146.593 45.539c-2.773 0-5.074-2.072-5.487-5.092-2.006 2.664-5.841 5.092-9.381 5.092-3.953 0-6.844-2.428-6.844-6.454 0-5.21 5.074-8.822 15.989-11.072v-3.671c0-3.316-1.711-5.092-5.015-5.092-2.537 0-4.602 1.243-4.602 2.546 0 .77.531 1.125.531 2.368 0 1.658-1.239 2.842-2.95 2.842-1.593 0-3.068-1.243-3.068-3.256 0-4.086 5.664-7.224 11.328-7.224 5.251 0 8.85 1.835 8.85 7.638v14.803c0 2.131 1.298 3.02 2.419 3.02s1.829-.415 2.655-1.066l.885 1.835c-1.239 1.48-3.304 2.783-5.31 2.783zm-5.723-14.98c-7.316 1.658-10.974 3.67-10.974 7.52 0 2.427 1.534 3.907 3.776 3.907 2.714 0 5.015-1.302 7.198-3.552v-7.875zM92.547 42.4v2.547H79.802v-2.546c3.54 0 3.835-.119 3.835-1.125V7.407c0-1.243-.294-1.42-1.357-1.894l-2.714-1.244V2.967l8.32-2.428h.826v21.257c1.77-2.31 5.605-5.27 9.617-5.27 5.723 0 7.965 4.618 7.965 9.888v14.862c0 1.006.295 1.125 3.835 1.125v2.546H97.385v-2.546c3.54 0 3.835-.119 3.835-1.125V26.888c0-4.145-1.711-6.513-5.37-6.513-2.831 0-5.486 1.717-7.138 3.493v17.408c0 1.006.294 1.125 3.835 1.125zM78.768 40.92a11.141 11.141 0 01-9.027 4.62c-4.248 0-7.434-2.784-7.434-6.692V20.02H58.53v-2.901h3.776v-7.105l5.074-1.48v8.585h8.791v2.901h-8.791v17.408c0 3.08 1.593 4.56 4.425 4.56 2.065 0 3.776-1.126 5.428-2.961l1.534 1.895zM46.582 6.638a3.708 3.708 0 013.717-3.73 3.708 3.708 0 013.717 3.73 3.708 3.708 0 01-3.717 3.73 3.708 3.708 0 01-3.717-3.73zm1.298 16.756c0-1.243-.295-1.42-1.357-1.894l-2.714-1.244v-1.303l8.32-2.427h.825v24.75c0 1.006.295 1.125 3.835 1.125v2.546H44.045V42.4c3.54 0 3.835-.119 3.835-1.125V23.394zM28.32 45.243L21.535 24.4H21.3l-6.608 20.842h-2.95L3.658 20.789c-.295-.947-.767-1.125-3.658-1.125v-2.546h12.508v2.546c-3.363.118-3.717.178-3.717.77 0 .237.118.592.236.888l5.133 16.697h.236l6.55-20.901h2.89l6.726 20.96h.236l5.37-16.756c.117-.296.236-.651.236-.888 0-.592-.355-.652-3.718-.77v-2.546h10.267v2.546c-2.892 0-3.305.178-3.6 1.125L31.27 45.243h-2.95z" fill="#fff"/></svg>