<svg width="246" height="85" viewBox="0 0 246 85" fill="none" xmlns="http://www.w3.org/2000/svg"><path d="M.208 15.847v-3.936c11.712 0 15.744-3.36 17.376-10.464h2.976v68.928H14.8V15.847H.208zm73.517 4.416c0 12.96-11.328 18.72-21.024 25.536-8.257 5.856-17.76 12.384-17.569 19.392h39.36v5.184H29.18v-3.072c0-11.52 11.712-20.256 21.889-26.688 9.023-5.952 17.087-11.712 17.087-20.256 0-7.008-3.936-14.4-15.264-14.4-10.367 0-16.224 7.68-16.896 16.512H30.62C31.197 10.759 39.069.679 52.892.679c14.304 0 20.833 10.08 20.833 19.584zm10.21 50.112v-8.352h8.256v10.368c0 7.008-4.032 12.48-11.904 12.48v-3.84c4.704 0 7.2-2.496 7.2-8.64v-2.016h-3.552zm50.9-68.544v43.968h15.264v4.8h-15.264v19.776h-5.664V50.599h-34.08v-4.896L128.02 1.831h6.816zm-5.664 6.624l-27.936 37.344h27.936V8.455zm58.199-1.344h-40.224v-5.28h47.136v3.648c-16.512 20.064-22.656 40.992-22.944 64.896h-6.24c.288-24.864 9.12-46.56 22.272-63.264zm36.358-1.152c-13.824 0-20.832 14.496-20.832 34.176 2.016-7.776 9.12-15.552 20.352-15.552 13.44 0 22.272 10.08 22.272 23.136 0 13.92-9.12 23.808-22.848 23.808-14.688 0-25.152-13.344-25.152-34.272 0-21.6 10.944-36.576 26.208-36.576 11.712 0 19.68 6.816 21.216 18.432h-5.376c-1.824-8.832-7.008-13.152-15.84-13.152zm-1.056 60.384c10.656 0 17.28-7.872 17.28-18.336 0-10.464-6.624-18.144-17.28-18.144-10.368 0-17.472 7.68-17.472 18.144 0 10.464 7.104 18.336 17.472 18.336z" fill="#000"/></svg>