<svg width="232" height="36" viewBox="0 0 232 36" fill="none" xmlns="http://www.w3.org/2000/svg"><path d="M.752 8.999H2.08c.176 1.84 1.68 2.464 3.376 2.464 1.632 0 2.832-.784 2.832-2.16 0-.96-.528-1.584-2.08-1.872l-2.176-.432c-1.536-.288-2.912-.992-2.912-2.96 0-1.872 1.616-3.28 3.984-3.28 2.448 0 4.064 1.056 4.288 3.12H8.064c-.192-1.28-1.312-2.016-2.944-2.016-1.664 0-2.656.928-2.656 2.128 0 1.136.64 1.536 2.032 1.808l2.24.464c1.76.352 2.88 1.168 2.88 2.976 0 1.952-1.728 3.328-4.144 3.328-2.48 0-4.56-1.072-4.72-3.568zm17.811 1.008c-.368 1.712-1.76 2.56-3.328 2.56-2.272 0-3.872-1.584-3.872-4.176 0-2.624 1.648-4.256 3.792-4.256 2.384 0 3.456 1.904 3.456 3.968v.528H12.66c.064 1.856 1.04 2.88 2.576 2.88 1.088 0 1.744-.528 2.08-1.504h1.248zm-3.408-4.8c-1.264 0-2.224.816-2.448 2.464h4.608c-.032-1.392-.72-2.464-2.16-2.464zm10.806 7.168a7.032 7.032 0 01-.144-1.36c-.352.944-1.456 1.536-2.8 1.536-1.408 0-2.608-.816-2.608-2.304 0-1.552 1.152-2.224 2.784-2.416l2.592-.336v-.464c0-1.28-.784-1.824-1.888-1.824-1.072 0-1.744.56-1.84 1.488h-1.28c.16-1.632 1.44-2.56 3.152-2.56 1.952 0 3.168.928 3.168 2.864v3.696c0 .592.032 1.152.192 1.68h-1.328zm-2.672-.832c1.248 0 2.496-.784 2.496-2.336v-.72l-2.192.24c-1.008.144-1.84.4-1.84 1.488 0 .752.528 1.328 1.536 1.328zm12.844-5.68c.496-1.088 1.52-1.728 2.704-1.728 1.856 0 2.768 1.168 2.768 3.056v5.184h-1.343V7.479c0-1.504-.544-2.256-1.745-2.256-1.2 0-2.111.864-2.111 2.72v4.432h-1.344V7.479c0-1.504-.529-2.256-1.744-2.256-1.216 0-2.128.864-2.128 2.72v4.432H29.86V4.327h1.28v1.472c.385-1.024 1.377-1.664 2.544-1.664 1.36 0 2.096.656 2.448 1.728zm9.556 6.512h-1.328V.599h1.329v11.776zm9.452-2.368c-.368 1.712-1.76 2.56-3.328 2.56-2.272 0-3.872-1.584-3.872-4.176 0-2.624 1.648-4.256 3.792-4.256 2.384 0 3.456 1.904 3.456 3.968v.528h-5.952c.064 1.856 1.04 2.88 2.576 2.88 1.088 0 1.744-.528 2.08-1.504h1.248zm-3.408-4.8c-1.264 0-2.224.816-2.448 2.464h4.608c-.032-1.392-.72-2.464-2.16-2.464zm5.097 4.784h1.28c.096 1.104 1.12 1.568 2.208 1.568 1.104 0 1.904-.512 1.904-1.376 0-.592-.384-.976-1.408-1.168l-1.424-.288c-1.296-.24-2.24-.768-2.24-2.176 0-1.36 1.216-2.416 2.992-2.416 1.856 0 2.992.8 3.152 2.32h-1.232c-.096-.816-.816-1.296-1.92-1.296-1.072 0-1.76.528-1.76 1.312 0 .688.48.976 1.408 1.152l1.6.304c1.312.256 2.08.896 2.08 2.192 0 1.408-1.328 2.448-3.136 2.448-1.92 0-3.36-.848-3.504-2.576zm8.25 0h1.28c.096 1.104 1.12 1.568 2.208 1.568 1.104 0 1.904-.512 1.904-1.376 0-.592-.384-.976-1.408-1.168l-1.424-.288c-1.296-.24-2.24-.768-2.24-2.176 0-1.36 1.216-2.416 2.992-2.416 1.856 0 2.992.8 3.152 2.32h-1.232c-.096-.816-.816-1.296-1.92-1.296-1.072 0-1.76.528-1.76 1.312 0 .688.48.976 1.408 1.152l1.6.304c1.312.256 2.08.896 2.08 2.192 0 1.408-1.328 2.448-3.136 2.448-1.92 0-3.36-.848-3.504-2.576zm12.31-7.344V1.031h1.504v1.616H77.39zm.097 9.728V4.327h1.328v8.048h-1.328zm5.451-8.048v1.472c.384-.992 1.392-1.664 2.624-1.664 1.808 0 2.88 1.136 2.88 3.056v5.184h-1.328V7.479c0-1.488-.656-2.256-1.92-2.256-1.232 0-2.208.784-2.208 2.72v4.432h-1.328V4.327h1.28zm12.011 6.864v1.088a4.909 4.909 0 01-1.408.224c-1.472 0-2.224-.704-2.224-2.192V5.335h-1.184V4.327h1.184V2.279h1.312v2.048h2.112v1.008h-2.128v4.912c0 .848.432 1.136 1.168 1.136.304 0 .656-.032 1.168-.192zm8.677-1.184c-.368 1.712-1.76 2.56-3.328 2.56-2.272 0-3.872-1.584-3.872-4.176 0-2.624 1.648-4.256 3.792-4.256 2.384 0 3.456 1.904 3.456 3.968v.528h-5.952c.064 1.856 1.04 2.88 2.576 2.88 1.088 0 1.744-.528 2.08-1.504h1.248zm-3.408-4.8c-1.264 0-2.224.816-2.448 2.464h4.608c-.032-1.392-.72-2.464-2.16-2.464zm11.338 6.656v-1.184c-.368.784-1.264 1.552-2.672 1.552-2.064 0-3.568-1.552-3.568-4.064 0-2.416 1.504-4.032 3.568-4.032 1.408 0 2.336.832 2.72 1.6V4.327h1.296v7.44c0 2.56-1.664 3.648-3.808 3.648-1.936 0-3.248-.784-3.568-2.352h1.344c.272 1.008 1.12 1.328 2.208 1.328 1.584 0 2.48-.848 2.48-2.528zm.096-3.504v-.384c0-1.664-1.04-2.8-2.528-2.8-1.568 0-2.496 1.2-2.496 2.992 0 1.776.928 3.008 2.496 3.008 1.488 0 2.528-1.152 2.528-2.816zm8.564-4.144v1.216a3.238 3.238 0 00-.688-.064c-1.28 0-2.448 1.008-2.448 3.04v3.968h-1.328V4.327h1.28v1.904c.352-1.328 1.376-2.08 2.56-2.08.208 0 .432.016.624.064zm6.62 8.16a7.032 7.032 0 01-.144-1.36c-.352.944-1.456 1.536-2.8 1.536-1.408 0-2.608-.816-2.608-2.304 0-1.552 1.152-2.224 2.784-2.416l2.592-.336v-.464c0-1.28-.784-1.824-1.888-1.824-1.072 0-1.744.56-1.84 1.488h-1.28c.16-1.632 1.44-2.56 3.152-2.56 1.952 0 3.168.928 3.168 2.864v3.696c0 .592.032 1.152.192 1.68h-1.328zm-2.672-.832c1.248 0 2.496-.784 2.496-2.336v-.72l-2.192.24c-1.008.144-1.84.4-1.84 1.488 0 .752.528 1.328 1.536 1.328zm10.317-.352v1.088a4.913 4.913 0 01-1.408.224c-1.472 0-2.224-.704-2.224-2.192V5.335h-1.184V4.327h1.184V2.279h1.312v2.048h2.112v1.008h-2.128v4.912c0 .848.432 1.136 1.167 1.136.305 0 .657-.032 1.169-.192zm2.066-8.544V1.031h1.504v1.616h-1.504zm.096 9.728V4.327h1.328v8.048h-1.328zm11.228-4.016c0 2.592-1.6 4.208-3.824 4.208-2.224 0-3.824-1.616-3.824-4.208s1.6-4.224 3.824-4.224c2.224 0 3.824 1.632 3.824 4.224zm-6.336 0c0 1.936.944 3.136 2.512 3.136s2.512-1.2 2.512-3.136c0-1.936-.944-3.152-2.512-3.152s-2.512 1.216-2.512 3.152zm9.872-4.032v1.472c.384-.992 1.392-1.664 2.624-1.664 1.808 0 2.88 1.136 2.88 3.056v5.184h-1.328V7.479c0-1.488-.656-2.256-1.92-2.256-1.232 0-2.208.784-2.208 2.72v4.432h-1.328V4.327h1.28zm7.579 5.664h1.28c.096 1.104 1.12 1.568 2.208 1.568 1.104 0 1.904-.512 1.904-1.376 0-.592-.384-.976-1.408-1.168l-1.424-.288c-1.296-.24-2.24-.768-2.24-2.176 0-1.36 1.216-2.416 2.992-2.416 1.856 0 2.992.8 3.152 2.32h-1.232c-.096-.816-.816-1.296-1.92-1.296-1.072 0-1.76.528-1.76 1.312 0 .688.48.976 1.408 1.152l1.6.304c1.312.256 2.08.896 2.08 2.192 0 1.408-1.328 2.448-3.136 2.448-1.92 0-3.36-.848-3.504-2.576zm16.151 1.2v1.088a4.908 4.908 0 01-1.408.224c-1.472 0-2.224-.704-2.224-2.192V5.335h-1.184V4.327h1.184V2.279h1.312v2.048h2.112v1.008h-2.128v4.912c0 .848.432 1.136 1.168 1.136.304 0 .656-.032 1.168-.192zm9.124-2.832c0 2.592-1.6 4.208-3.824 4.208-2.224 0-3.824-1.616-3.824-4.208s1.6-4.224 3.824-4.224c2.224 0 3.824 1.632 3.824 4.224zm-6.336 0c0 1.936.944 3.136 2.512 3.136s2.512-1.2 2.512-3.136c0-1.936-.944-3.152-2.512-3.152s-2.512 1.216-2.512 3.152zm-177.093 20c0-2.576 1.552-4.224 3.792-4.224 1.792 0 2.976 1.024 3.232 2.736H6.592c-.224-1.072-.88-1.664-1.968-1.664-1.584 0-2.48 1.264-2.48 3.152 0 1.888.896 3.136 2.48 3.136 1.088 0 1.744-.592 1.968-1.664h1.264c-.256 1.728-1.44 2.736-3.232 2.736-2.24 0-3.792-1.632-3.792-4.208zm16.273 0c0 2.592-1.6 4.208-3.824 4.208-2.224 0-3.824-1.616-3.824-4.208s1.6-4.224 3.824-4.224c2.224 0 3.824 1.632 3.824 4.224zm-6.336 0c0 1.936.944 3.136 2.512 3.136s2.512-1.2 2.512-3.136c0-1.936-.944-3.152-2.512-3.152s-2.512 1.216-2.512 3.152zm13.057-4.144v1.216a3.238 3.238 0 00-.689-.064c-1.28 0-2.448 1.008-2.448 3.04v3.968h-1.328v-8.048h1.28v1.904c.353-1.328 1.377-2.08 2.56-2.08.209 0 .433.016.625.064zm3.02 6.752v4.256h-1.328V24.327h1.28v1.472c.368-.816 1.328-1.664 2.72-1.664 2.048 0 3.584 1.664 3.584 4.224 0 2.544-1.536 4.208-3.584 4.208-1.328 0-2.272-.784-2.672-1.6zm-.064-2.736v.224c0 1.824.896 3.072 2.464 3.072 1.584 0 2.512-1.296 2.512-3.168 0-1.888-.928-3.184-2.512-3.184-1.568 0-2.464 1.232-2.464 3.056zm15.651.128c0 2.592-1.6 4.208-3.824 4.208-2.224 0-3.824-1.616-3.824-4.208s1.6-4.224 3.824-4.224c2.224 0 3.824 1.632 3.824 4.224zm-6.336 0c0 1.936.944 3.136 2.512 3.136s2.512-1.2 2.512-3.136c0-1.936-.944-3.152-2.512-3.152s-2.512 1.216-2.512 3.152zm13.057-4.144v1.216a3.238 3.238 0 00-.688-.064c-1.28 0-2.448 1.008-2.448 3.04v3.968H44.69v-8.048h1.28v1.904c.352-1.328 1.376-2.08 2.56-2.08.208 0 .432.016.624.064zm6.62 8.16a7.032 7.032 0 01-.144-1.36c-.352.944-1.456 1.536-2.8 1.536-1.408 0-2.608-.816-2.608-2.304 0-1.552 1.152-2.224 2.784-2.416l2.592-.336v-.464c0-1.28-.784-1.824-1.888-1.824-1.072 0-1.744.56-1.84 1.488h-1.28c.16-1.632 1.44-2.56 3.152-2.56 1.952 0 3.168.928 3.168 2.864v3.696c0 .592.032 1.152.192 1.68h-1.328zm-2.672-.832c1.248 0 2.496-.784 2.496-2.336v-.72l-2.192.24c-1.008.144-1.84.4-1.84 1.488 0 .752.528 1.328 1.536 1.328zm10.316-.352v1.088a4.908 4.908 0 01-1.408.224c-1.472 0-2.224-.704-2.224-2.192v-4.976h-1.184v-1.008h1.184v-2.048h1.312v2.048h2.112v1.008h-2.128v4.912c0 .848.432 1.136 1.168 1.136.304 0 .656-.032 1.168-.192zm8.676-1.184c-.367 1.712-1.76 2.56-3.328 2.56-2.272 0-3.872-1.584-3.872-4.176 0-2.624 1.648-4.256 3.792-4.256 2.384 0 3.456 1.904 3.456 3.968v.528h-5.951c.063 1.856 1.04 2.88 2.575 2.88 1.088 0 1.744-.528 2.08-1.504h1.248zm-3.407-4.8c-1.264 0-2.224.816-2.448 2.464h4.608c-.032-1.392-.72-2.464-2.16-2.464zm14.103 7.168a7.032 7.032 0 01-.145-1.36c-.352.944-1.456 1.536-2.8 1.536-1.407 0-2.608-.816-2.608-2.304 0-1.552 1.153-2.224 2.785-2.416l2.591-.336v-.464c0-1.28-.784-1.824-1.888-1.824-1.072 0-1.743.56-1.84 1.488h-1.28c.16-1.632 1.44-2.56 3.152-2.56 1.953 0 3.168.928 3.168 2.864v3.696c0 .592.032 1.152.193 1.68H82.79zm-2.672-.832c1.248 0 2.496-.784 2.496-2.336v-.72l-2.193.24c-1.008.144-1.84.4-1.84 1.488 0 .752.528 1.328 1.537 1.328zm5.98-3.184c0-2.576 1.552-4.224 3.792-4.224 1.792 0 2.976 1.024 3.232 2.736h-1.264c-.224-1.072-.88-1.664-1.968-1.664-1.584 0-2.48 1.264-2.48 3.152 0 1.888.896 3.136 2.48 3.136 1.088 0 1.744-.592 1.968-1.664h1.264c-.256 1.728-1.44 2.736-3.232 2.736-2.24 0-3.792-1.632-3.792-4.208zm8.625 0c0-2.576 1.552-4.224 3.792-4.224 1.792 0 2.976 1.024 3.232 2.736h-1.264c-.224-1.072-.88-1.664-1.968-1.664-1.584 0-2.48 1.264-2.48 3.152 0 1.888.896 3.136 2.48 3.136 1.088 0 1.744-.592 1.968-1.664h1.264c-.256 1.728-1.44 2.736-3.232 2.736-2.24 0-3.792-1.632-3.792-4.208zm16.273 0c0 2.592-1.6 4.208-3.824 4.208-2.224 0-3.824-1.616-3.824-4.208s1.6-4.224 3.824-4.224c2.224 0 3.824 1.632 3.824 4.224zm-6.336 0c0 1.936.944 3.136 2.512 3.136s2.512-1.2 2.512-3.136c0-1.936-.944-3.152-2.512-3.152s-2.512 1.216-2.512 3.152zm15.216 4.016h-1.296v-1.456c-.384 1.008-1.344 1.648-2.56 1.648-1.824 0-2.848-1.104-2.848-3.056v-5.184h1.344v4.928c0 1.488.624 2.272 1.888 2.272 1.216 0 2.128-.832 2.128-2.768v-4.432h1.344v8.048zm4.125-8.048v1.472c.384-.992 1.392-1.664 2.624-1.664 1.808 0 2.88 1.136 2.88 3.056v5.184h-1.328v-4.896c0-1.488-.656-2.256-1.92-2.256-1.232 0-2.208.784-2.208 2.72v4.432h-1.328v-8.048h1.28zm12.011 6.864v1.088a4.908 4.908 0 01-1.408.224c-1.472 0-2.224-.704-2.224-2.192v-4.976h-1.184v-1.008h1.184v-2.048h1.312v2.048h2.112v1.008h-2.128v4.912c0 .848.432 1.136 1.168 1.136.304 0 .656-.032 1.168-.192zm2.066-8.544v-1.616h1.504v1.616h-1.504zm.096 9.728v-8.048h1.328v8.048h-1.328zm5.452-8.048v1.472c.384-.992 1.392-1.664 2.624-1.664 1.808 0 2.88 1.136 2.88 3.056v5.184h-1.328v-4.896c0-1.488-.656-2.256-1.92-2.256-1.232 0-2.208.784-2.208 2.72v4.432h-1.328v-8.048h1.28zm13.899 7.536v-1.184c-.368.784-1.264 1.552-2.672 1.552-2.064 0-3.568-1.552-3.568-4.064 0-2.416 1.504-4.032 3.568-4.032 1.408 0 2.336.832 2.72 1.6v-1.408h1.296v7.44c0 2.56-1.664 3.648-3.808 3.648-1.936 0-3.248-.784-3.568-2.352h1.344c.272 1.008 1.12 1.328 2.208 1.328 1.584 0 2.48-.848 2.48-2.528zm.096-3.504v-.384c0-1.664-1.04-2.8-2.528-2.8-1.568 0-2.496 1.2-2.496 2.992 0 1.776.928 3.008 2.496 3.008 1.488 0 2.528-1.152 2.528-2.816zm6.881 1.632h1.28c.096 1.104 1.12 1.568 2.208 1.568 1.104 0 1.904-.512 1.904-1.376 0-.592-.384-.976-1.408-1.168l-1.424-.288c-1.296-.24-2.24-.768-2.24-2.176 0-1.36 1.216-2.416 2.992-2.416 1.856 0 2.992.8 3.152 2.32h-1.232c-.096-.816-.816-1.296-1.92-1.296-1.072 0-1.76.528-1.76 1.312 0 .688.48.976 1.408 1.152l1.6.304c1.312.256 2.08.896 2.08 2.192 0 1.408-1.328 2.448-3.136 2.448-1.92 0-3.36-.848-3.504-2.576zm15.994-1.632c0 2.592-1.6 4.208-3.824 4.208-2.224 0-3.824-1.616-3.824-4.208s1.6-4.224 3.824-4.224c2.224 0 3.824 1.632 3.824 4.224zm-6.336 0c0 1.936.944 3.136 2.512 3.136s2.512-1.2 2.512-3.136c0-1.936-.944-3.152-2.512-3.152s-2.512 1.216-2.512 3.152zm9.92 4.016h-1.328V20.599h1.328v11.776zm9.468 0h-1.296v-1.456c-.384 1.008-1.344 1.648-2.56 1.648-1.824 0-2.848-1.104-2.848-3.056v-5.184h1.344v4.928c0 1.488.624 2.272 1.888 2.272 1.216 0 2.128-.832 2.128-2.768v-4.432h1.344v8.048zm6.589-1.184v1.088a4.908 4.908 0 01-1.408.224c-1.472 0-2.224-.704-2.224-2.192v-4.976h-1.184v-1.008h1.184v-2.048h1.312v2.048h2.112v1.008h-2.128v4.912c0 .848.432 1.136 1.168 1.136.304 0 .656-.032 1.168-.192zm2.066-8.544v-1.616h1.504v1.616h-1.504zm.096 9.728v-8.048h1.328v8.048h-1.328zm11.228-4.016c0 2.592-1.6 4.208-3.824 4.208-2.224 0-3.824-1.616-3.824-4.208s1.6-4.224 3.824-4.224c2.224 0 3.824 1.632 3.824 4.224zm-6.336 0c0 1.936.944 3.136 2.512 3.136s2.512-1.2 2.512-3.136c0-1.936-.944-3.152-2.512-3.152s-2.512 1.216-2.512 3.152zm9.872-4.032v1.472c.384-.992 1.392-1.664 2.624-1.664 1.808 0 2.88 1.136 2.88 3.056v5.184h-1.328v-4.896c0-1.488-.656-2.256-1.92-2.256-1.232 0-2.208.784-2.208 2.72v4.432h-1.328v-8.048h1.28zm7.579 5.664h1.28c.096 1.104 1.12 1.568 2.208 1.568 1.104 0 1.904-.512 1.904-1.376 0-.592-.384-.976-1.408-1.168l-1.424-.288c-1.296-.24-2.24-.768-2.24-2.176 0-1.36 1.216-2.416 2.992-2.416 1.856 0 2.992.8 3.152 2.32h-1.232c-.096-.816-.816-1.296-1.92-1.296-1.072 0-1.76.528-1.76 1.312 0 .688.48.976 1.408 1.152l1.6.304c1.312.256 2.08.896 2.08 2.192 0 1.408-1.328 2.448-3.136 2.448-1.92 0-3.36-.848-3.504-2.576z" fill="#000"/></svg>