<svg width="603" height="22" viewBox="0 0 603 22" fill="none" xmlns="http://www.w3.org/2000/svg"><path d="M.081 12.647H1.99c.253 2.645 2.415 3.542 4.853 3.542 2.346 0 4.071-1.127 4.071-3.105 0-1.38-.759-2.277-2.99-2.691l-3.128-.621C2.588 9.358.61 8.346.61 5.517.61 2.826 2.933.802 6.337.802c3.519 0 5.842 1.518 6.164 4.485h-1.909c-.276-1.84-1.886-2.898-4.232-2.898-2.392 0-3.818 1.334-3.818 3.059 0 1.633.92 2.208 2.921 2.599l3.22.667c2.53.506 4.14 1.679 4.14 4.278 0 2.806-2.484 4.784-5.957 4.784-3.565 0-6.555-1.541-6.785-5.129zm25.604 1.449c-.53 2.461-2.53 3.68-4.784 3.68-3.266 0-5.566-2.277-5.566-6.003 0-3.772 2.369-6.118 5.45-6.118 3.428 0 4.969 2.737 4.969 5.704v.759h-8.556c.092 2.668 1.495 4.14 3.703 4.14 1.564 0 2.507-.759 2.99-2.162h1.794zm-4.9-6.9c-1.816 0-3.196 1.173-3.518 3.542h6.624c-.046-2.001-1.035-3.542-3.105-3.542zM36.32 17.5a10.108 10.108 0 01-.207-1.955c-.506 1.357-2.093 2.208-4.025 2.208-2.024 0-3.749-1.173-3.749-3.312 0-2.231 1.656-3.197 4.002-3.473l3.726-.483v-.667c0-1.84-1.127-2.622-2.714-2.622-1.54 0-2.506.805-2.644 2.139h-1.84c.23-2.346 2.07-3.68 4.53-3.68 2.806 0 4.554 1.334 4.554 4.117v5.313c0 .851.047 1.656.276 2.415H36.32zm-3.84-1.196c1.794 0 3.587-1.127 3.587-3.358v-1.035l-3.15.345c-1.45.207-2.645.575-2.645 2.139 0 1.081.758 1.909 2.207 1.909zm18.463-8.165c.713-1.564 2.185-2.484 3.887-2.484 2.668 0 3.979 1.679 3.979 4.393V17.5h-1.932v-7.038c0-2.162-.782-3.243-2.507-3.243s-3.036 1.242-3.036 3.91V17.5H49.4v-7.038c0-2.162-.76-3.243-2.507-3.243-1.748 0-3.06 1.242-3.06 3.91V17.5h-1.908V5.931h1.84v2.116c.552-1.472 1.978-2.392 3.657-2.392 1.955 0 3.013.943 3.519 2.484zM64.679 17.5h-1.91V.572h1.91V17.5zm13.587-3.404c-.53 2.461-2.53 3.68-4.784 3.68-3.266 0-5.566-2.277-5.566-6.003 0-3.772 2.369-6.118 5.45-6.118 3.428 0 4.969 2.737 4.969 5.704v.759h-8.556c.092 2.668 1.495 4.14 3.703 4.14 1.564 0 2.507-.759 2.99-2.162h1.794zm-4.9-6.9c-1.816 0-3.196 1.173-3.518 3.542h6.624c-.046-2.001-1.035-3.542-3.105-3.542zm7.327 6.877h1.84c.138 1.587 1.61 2.254 3.174 2.254 1.587 0 2.737-.736 2.737-1.978 0-.851-.552-1.403-2.024-1.679l-2.047-.414c-1.863-.345-3.22-1.104-3.22-3.128 0-1.955 1.748-3.473 4.3-3.473 2.669 0 4.302 1.15 4.532 3.335h-1.771c-.138-1.173-1.173-1.863-2.76-1.863-1.541 0-2.53.759-2.53 1.886 0 .989.69 1.403 2.024 1.656l2.3.437c1.886.368 2.99 1.288 2.99 3.151 0 2.024-1.91 3.519-4.508 3.519-2.76 0-4.83-1.219-5.037-3.703zm11.86 0h1.84c.137 1.587 1.61 2.254 3.173 2.254 1.587 0 2.737-.736 2.737-1.978 0-.851-.552-1.403-2.024-1.679l-2.047-.414c-1.863-.345-3.22-1.104-3.22-3.128 0-1.955 1.748-3.473 4.301-3.473 2.668 0 4.301 1.15 4.531 3.335h-1.771c-.138-1.173-1.173-1.863-2.76-1.863-1.54 0-2.53.759-2.53 1.886 0 .989.69 1.403 2.024 1.656l2.3.437c1.886.368 2.99 1.288 2.99 3.151 0 2.024-1.909 3.519-4.508 3.519-2.76 0-4.83-1.219-5.037-3.703zm17.696-10.557V1.193h2.162v2.323h-2.162zm.138 13.984V5.931h1.909V17.5h-1.909zm7.837-11.569v2.116c.552-1.426 2.001-2.392 3.772-2.392 2.599 0 4.14 1.633 4.14 4.393V17.5h-1.909v-7.038c0-2.139-.943-3.243-2.76-3.243-1.771 0-3.174 1.127-3.174 3.91V17.5h-1.909V5.931h1.84zm17.266 9.867v1.564c-.851.253-1.518.322-2.024.322-2.116 0-3.197-1.012-3.197-3.151V7.38h-1.702V5.931h1.702V2.987h1.886v2.944h3.036V7.38h-3.059v7.061c0 1.219.621 1.633 1.679 1.633.437 0 .943-.046 1.679-.276zm12.472-1.702c-.529 2.461-2.53 3.68-4.784 3.68-3.266 0-5.566-2.277-5.566-6.003 0-3.772 2.369-6.118 5.451-6.118 3.427 0 4.968 2.737 4.968 5.704v.759h-8.556c.092 2.668 1.495 4.14 3.703 4.14 1.564 0 2.507-.759 2.99-2.162h1.794zm-4.899-6.9c-1.817 0-3.197 1.173-3.519 3.542h6.624c-.046-2.001-1.035-3.542-3.105-3.542zm16.299 9.568v-1.702c-.529 1.127-1.817 2.231-3.841 2.231-2.967 0-5.129-2.231-5.129-5.842 0-3.473 2.162-5.796 5.129-5.796 2.024 0 3.358 1.196 3.91 2.3V5.931h1.863v10.695c0 3.68-2.392 5.244-5.474 5.244-2.783 0-4.669-1.127-5.129-3.381h1.932c.391 1.449 1.61 1.909 3.174 1.909 2.277 0 3.565-1.219 3.565-3.634zm.138-5.037v-.552c0-2.392-1.495-4.025-3.634-4.025-2.254 0-3.588 1.725-3.588 4.301 0 2.553 1.334 4.324 3.588 4.324 2.139 0 3.634-1.656 3.634-4.048zm12.311-5.957v1.748c-.276-.069-.69-.092-.989-.092-1.84 0-3.519 1.449-3.519 4.37V17.5h-1.909V5.931h1.84v2.737c.506-1.909 1.978-2.99 3.68-2.99.299 0 .621.023.897.092zm9.516 11.73a10.108 10.108 0 01-.207-1.955c-.506 1.357-2.093 2.208-4.025 2.208-2.024 0-3.749-1.173-3.749-3.312 0-2.231 1.656-3.197 4.002-3.473l3.726-.483v-.667c0-1.84-1.127-2.622-2.714-2.622-1.541 0-2.507.805-2.645 2.139h-1.84c.23-2.346 2.07-3.68 4.531-3.68 2.806 0 4.554 1.334 4.554 4.117v5.313c0 .851.046 1.656.276 2.415h-1.909zm-3.841-1.196c1.794 0 3.588-1.127 3.588-3.358v-1.035l-3.151.345c-1.449.207-2.645.575-2.645 2.139 0 1.081.759 1.909 2.208 1.909zm14.83-.506v1.564c-.851.253-1.518.322-2.024.322-2.116 0-3.197-1.012-3.197-3.151V7.38h-1.702V5.931h1.702V2.987h1.886v2.944h3.036V7.38h-3.059v7.061c0 1.219.621 1.633 1.679 1.633.437 0 .943-.046 1.679-.276zm2.97-12.282V1.193h2.162v2.323h-2.162zm.138 13.984V5.931h1.909V17.5h-1.909zm16.14-5.773c0 3.726-2.3 6.049-5.497 6.049s-5.497-2.323-5.497-6.049c0-3.726 2.3-6.072 5.497-6.072s5.497 2.346 5.497 6.072zm-9.108 0c0 2.783 1.357 4.508 3.611 4.508 2.254 0 3.611-1.725 3.611-4.508s-1.357-4.531-3.611-4.531c-2.254 0-3.611 1.748-3.611 4.531zm14.192-5.796v2.116c.552-1.426 2.001-2.392 3.772-2.392 2.599 0 4.14 1.633 4.14 4.393V17.5h-1.909v-7.038c0-2.139-.943-3.243-2.76-3.243-1.771 0-3.174 1.127-3.174 3.91V17.5h-1.909V5.931h1.84zm10.894 8.142h1.84c.138 1.587 1.61 2.254 3.174 2.254 1.587 0 2.737-.736 2.737-1.978 0-.851-.552-1.403-2.024-1.679l-2.047-.414c-1.863-.345-3.22-1.104-3.22-3.128 0-1.955 1.748-3.473 4.301-3.473 2.668 0 4.301 1.15 4.531 3.335h-1.771c-.138-1.173-1.173-1.863-2.76-1.863-1.541 0-2.53.759-2.53 1.886 0 .989.69 1.403 2.024 1.656l2.3.437c1.886.368 2.99 1.288 2.99 3.151 0 2.024-1.909 3.519-4.508 3.519-2.76 0-4.83-1.219-5.037-3.703zm23.217 1.725v1.564c-.851.253-1.518.322-2.024.322-2.116 0-3.197-1.012-3.197-3.151V7.38h-1.702V5.931h1.702V2.987h1.886v2.944h3.036V7.38h-3.059v7.061c0 1.219.621 1.633 1.679 1.633.437 0 .943-.046 1.679-.276zm13.117-4.071c0 3.726-2.3 6.049-5.497 6.049s-5.497-2.323-5.497-6.049c0-3.726 2.3-6.072 5.497-6.072s5.497 2.346 5.497 6.072zm-9.108 0c0 2.783 1.357 4.508 3.611 4.508 2.254 0 3.611-1.725 3.611-4.508s-1.357-4.531-3.611-4.531c-2.254 0-3.611 1.748-3.611 4.531zm16.487 0c0-3.703 2.231-6.072 5.451-6.072 2.576 0 4.278 1.472 4.646 3.933h-1.817c-.322-1.541-1.265-2.392-2.829-2.392-2.277 0-3.565 1.817-3.565 4.531 0 2.714 1.288 4.508 3.565 4.508 1.564 0 2.507-.851 2.829-2.392h1.817c-.368 2.484-2.07 3.933-4.646 3.933-3.22 0-5.451-2.346-5.451-6.049zm23.392 0c0 3.726-2.3 6.049-5.497 6.049s-5.497-2.323-5.497-6.049c0-3.726 2.3-6.072 5.497-6.072s5.497 2.346 5.497 6.072zm-9.108 0c0 2.783 1.357 4.508 3.611 4.508 2.254 0 3.611-1.725 3.611-4.508s-1.357-4.531-3.611-4.531c-2.254 0-3.611 1.748-3.611 4.531zm18.769-5.957v1.748c-.276-.069-.69-.092-.989-.092-1.84 0-3.519 1.449-3.519 4.37V17.5h-1.909V5.931h1.84v2.737c.506-1.909 1.978-2.99 3.68-2.99.299 0 .621.023.897.092zm4.341 9.706v6.118h-1.909V5.931h1.84v2.116c.529-1.173 1.909-2.392 3.91-2.392 2.944 0 5.152 2.392 5.152 6.072 0 3.657-2.208 6.049-5.152 6.049-1.909 0-3.266-1.127-3.841-2.3zm-.092-3.933v.322c0 2.622 1.288 4.416 3.542 4.416 2.277 0 3.611-1.863 3.611-4.554 0-2.714-1.334-4.577-3.611-4.577-2.254 0-3.542 1.771-3.542 4.393zm22.499.184c0 3.726-2.3 6.049-5.497 6.049s-5.497-2.323-5.497-6.049c0-3.726 2.3-6.072 5.497-6.072s5.497 2.346 5.497 6.072zm-9.108 0c0 2.783 1.357 4.508 3.611 4.508 2.254 0 3.611-1.725 3.611-4.508s-1.357-4.531-3.611-4.531c-2.254 0-3.611 1.748-3.611 4.531zm18.769-5.957v1.748c-.276-.069-.69-.092-.989-.092-1.84 0-3.519 1.449-3.519 4.37V17.5H334.3V5.931h1.84v2.737c.506-1.909 1.978-2.99 3.68-2.99.299 0 .621.023.897.092zm9.517 11.73a10.108 10.108 0 01-.207-1.955c-.506 1.357-2.093 2.208-4.025 2.208-2.024 0-3.749-1.173-3.749-3.312 0-2.231 1.656-3.197 4.002-3.473l3.726-.483v-.667c0-1.84-1.127-2.622-2.714-2.622-1.541 0-2.507.805-2.645 2.139h-1.84c.23-2.346 2.07-3.68 4.531-3.68 2.806 0 4.554 1.334 4.554 4.117v5.313c0 .851.046 1.656.276 2.415h-1.909zm-3.841-1.196c1.794 0 3.588-1.127 3.588-3.358v-1.035l-3.151.345c-1.449.207-2.645.575-2.645 2.139 0 1.081.759 1.909 2.208 1.909zm14.829-.506v1.564c-.851.253-1.518.322-2.024.322-2.116 0-3.197-1.012-3.197-3.151V7.38h-1.702V5.931h1.702V2.987h1.886v2.944h3.036V7.38h-3.059v7.061c0 1.219.621 1.633 1.679 1.633.437 0 .943-.046 1.679-.276zm12.472-1.702c-.529 2.461-2.53 3.68-4.784 3.68-3.266 0-5.566-2.277-5.566-6.003 0-3.772 2.369-6.118 5.451-6.118 3.427 0 4.968 2.737 4.968 5.704v.759h-8.556c.092 2.668 1.495 4.14 3.703 4.14 1.564 0 2.507-.759 2.99-2.162h1.794zm-4.899-6.9c-1.817 0-3.197 1.173-3.519 3.542h6.624c-.046-2.001-1.035-3.542-3.105-3.542zM389.069 17.5a10.108 10.108 0 01-.207-1.955c-.506 1.357-2.093 2.208-4.025 2.208-2.025 0-3.749-1.173-3.749-3.312 0-2.231 1.656-3.197 4.002-3.473l3.726-.483v-.667c0-1.84-1.127-2.622-2.714-2.622-1.541 0-2.507.805-2.645 2.139h-1.84c.23-2.346 2.07-3.68 4.531-3.68 2.806 0 4.554 1.334 4.554 4.117v5.313c0 .851.046 1.656.276 2.415h-1.909zm-3.841-1.196c1.794 0 3.588-1.127 3.588-3.358v-1.035l-3.151.345c-1.449.207-2.645.575-2.645 2.139 0 1.081.759 1.909 2.208 1.909zm8.596-4.577c0-3.703 2.231-6.072 5.451-6.072 2.576 0 4.278 1.472 4.646 3.933h-1.817c-.322-1.541-1.265-2.392-2.829-2.392-2.277 0-3.565 1.817-3.565 4.531 0 2.714 1.288 4.508 3.565 4.508 1.564 0 2.507-.851 2.829-2.392h1.817c-.368 2.484-2.07 3.933-4.646 3.933-3.22 0-5.451-2.346-5.451-6.049zm12.398 0c0-3.703 2.231-6.072 5.451-6.072 2.576 0 4.278 1.472 4.646 3.933h-1.817c-.322-1.541-1.265-2.392-2.829-2.392-2.277 0-3.565 1.817-3.565 4.531 0 2.714 1.288 4.508 3.565 4.508 1.564 0 2.507-.851 2.829-2.392h1.817c-.368 2.484-2.07 3.933-4.646 3.933-3.22 0-5.451-2.346-5.451-6.049zm23.393 0c0 3.726-2.3 6.049-5.497 6.049s-5.497-2.323-5.497-6.049c0-3.726 2.3-6.072 5.497-6.072s5.497 2.346 5.497 6.072zm-9.108 0c0 2.783 1.357 4.508 3.611 4.508 2.254 0 3.611-1.725 3.611-4.508s-1.357-4.531-3.611-4.531c-2.254 0-3.611 1.748-3.611 4.531zm21.874 5.773h-1.863v-2.093c-.552 1.449-1.932 2.369-3.68 2.369-2.622 0-4.094-1.587-4.094-4.393V5.931h1.932v7.084c0 2.139.897 3.266 2.714 3.266 1.748 0 3.059-1.196 3.059-3.979V5.931h1.932V17.5zm5.929-11.569v2.116c.552-1.426 2.001-2.392 3.772-2.392 2.599 0 4.14 1.633 4.14 4.393V17.5h-1.909v-7.038c0-2.139-.943-3.243-2.76-3.243-1.771 0-3.174 1.127-3.174 3.91V17.5h-1.909V5.931h1.84zm17.265 9.867v1.564c-.851.253-1.518.322-2.024.322-2.116 0-3.197-1.012-3.197-3.151V7.38h-1.702V5.931h1.702V2.987h1.886v2.944h3.036V7.38h-3.059v7.061c0 1.219.621 1.633 1.679 1.633.437 0 .943-.046 1.679-.276zm2.971-12.282V1.193h2.162v2.323h-2.162zm.138 13.984V5.931h1.909V17.5h-1.909zm7.837-11.569v2.116c.552-1.426 2.001-2.392 3.772-2.392 2.599 0 4.14 1.633 4.14 4.393V17.5h-1.909v-7.038c0-2.139-.943-3.243-2.76-3.243-1.771 0-3.174 1.127-3.174 3.91V17.5h-1.909V5.931h1.84zM496.5 16.764v-1.702c-.529 1.127-1.817 2.231-3.841 2.231-2.967 0-5.129-2.231-5.129-5.842 0-3.473 2.162-5.796 5.129-5.796 2.024 0 3.358 1.196 3.91 2.3V5.931h1.863v10.695c0 3.68-2.392 5.244-5.474 5.244-2.783 0-4.669-1.127-5.129-3.381h1.932c.391 1.449 1.61 1.909 3.174 1.909 2.277 0 3.565-1.219 3.565-3.634zm.138-5.037v-.552c0-2.392-1.495-4.025-3.634-4.025-2.254 0-3.588 1.725-3.588 4.301 0 2.553 1.334 4.324 3.588 4.324 2.139 0 3.634-1.656 3.634-4.048zm9.892 2.346h1.84c.138 1.587 1.61 2.254 3.174 2.254 1.587 0 2.737-.736 2.737-1.978 0-.851-.552-1.403-2.024-1.679l-2.047-.414c-1.863-.345-3.22-1.104-3.22-3.128 0-1.955 1.748-3.473 4.301-3.473 2.668 0 4.301 1.15 4.531 3.335h-1.771c-.138-1.173-1.173-1.863-2.76-1.863-1.541 0-2.53.759-2.53 1.886 0 .989.69 1.403 2.024 1.656l2.3.437c1.886.368 2.99 1.288 2.99 3.151 0 2.024-1.909 3.519-4.508 3.519-2.76 0-4.83-1.219-5.037-3.703zm22.991-2.346c0 3.726-2.3 6.049-5.497 6.049s-5.497-2.323-5.497-6.049c0-3.726 2.3-6.072 5.497-6.072s5.497 2.346 5.497 6.072zm-9.108 0c0 2.783 1.357 4.508 3.611 4.508 2.254 0 3.611-1.725 3.611-4.508s-1.357-4.531-3.611-4.531c-2.254 0-3.611 1.748-3.611 4.531zm14.261 5.773h-1.909V.572h1.909V17.5zm13.61 0h-1.863v-2.093c-.552 1.449-1.932 2.369-3.68 2.369-2.622 0-4.094-1.587-4.094-4.393V5.931h1.932v7.084c0 2.139.897 3.266 2.714 3.266 1.748 0 3.059-1.196 3.059-3.979V5.931h1.932V17.5zm9.471-1.702v1.564c-.851.253-1.518.322-2.024.322-2.116 0-3.197-1.012-3.197-3.151V7.38h-1.702V5.931h1.702V2.987h1.886v2.944h3.036V7.38h-3.059v7.061c0 1.219.621 1.633 1.679 1.633.437 0 .943-.046 1.679-.276zm2.97-12.282V1.193h2.162v2.323h-2.162zm.138 13.984V5.931h1.909V17.5h-1.909zm16.14-5.773c0 3.726-2.3 6.049-5.497 6.049s-5.497-2.323-5.497-6.049c0-3.726 2.3-6.072 5.497-6.072s5.497 2.346 5.497 6.072zm-9.108 0c0 2.783 1.357 4.508 3.611 4.508 2.254 0 3.611-1.725 3.611-4.508s-1.357-4.531-3.611-4.531c-2.254 0-3.611 1.748-3.611 4.531zm14.192-5.796v2.116c.552-1.426 2.001-2.392 3.772-2.392 2.599 0 4.14 1.633 4.14 4.393V17.5h-1.909v-7.038c0-2.139-.943-3.243-2.76-3.243-1.771 0-3.174 1.127-3.174 3.91V17.5h-1.909V5.931h1.84zm10.895 8.142h1.84c.138 1.587 1.61 2.254 3.174 2.254 1.587 0 2.737-.736 2.737-1.978 0-.851-.552-1.403-2.024-1.679l-2.047-.414c-1.863-.345-3.22-1.104-3.22-3.128 0-1.955 1.748-3.473 4.301-3.473 2.668 0 4.301 1.15 4.531 3.335h-1.771c-.138-1.173-1.173-1.863-2.76-1.863-1.541 0-2.53.759-2.53 1.886 0 .989.69 1.403 2.024 1.656l2.3.437c1.886.368 2.99 1.288 2.99 3.151 0 2.024-1.909 3.519-4.508 3.519-2.76 0-4.83-1.219-5.037-3.703z" fill="#000"/></svg>