<svg width="329" height="113" viewBox="0 0 329 113" fill="none" xmlns="http://www.w3.org/2000/svg"><path d="M.944 20.796v-5.248c15.616 0 20.992-4.48 23.168-13.952h3.968V93.5H20.4V20.796H.944zm98.022 5.888c0 17.28-15.104 24.96-28.032 34.048-11.008 7.808-23.68 16.512-23.424 25.856h52.48V93.5H39.574v-4.096c0-15.36 15.616-27.008 29.184-35.584 12.032-7.936 22.784-15.616 22.784-27.008 0-9.344-5.248-19.2-20.352-19.2-13.824 0-21.632 10.24-22.528 22.016h-7.168C42.262 14.012 52.758.572 71.19.572c19.072 0 27.776 13.44 27.776 26.112zM112.58 93.5V82.364h11.008v13.824c0 9.344-5.376 16.64-15.872 16.64v-5.12c6.272 0 9.6-3.328 9.6-11.52V93.5h-4.736zm67.867-91.392v58.624h20.352v6.4h-20.352V93.5h-7.552V67.132h-45.44v-6.528l43.904-58.496h9.088zm-7.552 8.832l-37.248 49.792h37.248V10.94zm77.598-1.792h-53.632v-7.04h62.848v4.864c-22.016 26.752-30.208 54.656-30.592 86.528h-8.32c.384-33.152 12.16-62.08 29.696-84.352zm48.478-1.536c-18.432 0-27.776 19.328-27.776 45.568 2.688-10.368 12.16-20.736 27.136-20.736 17.92 0 29.696 13.44 29.696 30.848 0 18.56-12.16 31.744-30.464 31.744-19.584 0-33.536-17.792-33.536-45.696 0-28.8 14.592-48.768 34.944-48.768 15.616 0 26.24 9.088 28.288 24.576h-7.168c-2.432-11.776-9.344-17.536-21.12-17.536zm-1.408 80.512c14.208 0 23.04-10.496 23.04-24.448s-8.832-24.192-23.04-24.192c-13.824 0-23.296 10.24-23.296 24.192s9.472 24.448 23.296 24.448z" fill="#000"/></svg>