<svg width="199" height="72" viewBox="0 0 199 72" fill="none" xmlns="http://www.w3.org/2000/svg"><path d="M44.672 20.45c0 12.96-11.328 18.72-21.024 25.537C15.392 51.841 5.888 58.37 6.08 65.379h39.36v5.183H.128V67.49c0-11.52 11.712-20.255 21.888-26.687C31.04 34.85 39.104 29.09 39.104 20.547c0-7.008-3.936-14.4-15.264-14.4-10.368 0-16.224 7.68-16.896 16.511H1.568C2.144 10.947 10.016.866 23.84.866c14.304 0 20.832 10.08 20.832 19.585zm10.21 50.112v-8.351h8.257v8.352h-8.257zm14.012-34.271C68.894 15.747 79.166.866 95.102.866c15.936 0 26.208 14.88 26.208 35.425 0 20.544-10.272 35.424-26.208 35.424-15.936 0-26.208-14.88-26.208-35.425zm5.856 0c0 17.568 6.912 29.952 20.352 29.952 13.44 0 20.352-12.384 20.352-29.952S108.542 6.338 95.102 6.338c-13.44 0-20.352 12.383-20.352 29.952zm56.345 27.12h3.84c.288 3.311 3.36 4.704 6.624 4.704 3.312 0 5.712-1.536 5.712-4.128 0-1.776-1.152-2.928-4.224-3.505l-4.272-.864c-3.888-.72-6.72-2.303-6.72-6.528 0-4.08 3.648-7.248 8.976-7.248 5.568 0 8.976 2.4 9.456 6.96h-3.696c-.288-2.447-2.448-3.888-5.76-3.888-3.216 0-5.28 1.584-5.28 3.936 0 2.064 1.44 2.928 4.224 3.456l4.8.913c3.936.767 6.24 2.688 6.24 6.575 0 4.225-3.984 7.344-9.408 7.344-5.76 0-10.08-2.544-10.512-7.728zm43.758.047c-1.104 5.136-5.28 7.68-9.984 7.68-6.816 0-11.616-4.752-11.616-12.528 0-7.871 4.944-12.767 11.376-12.767 7.152 0 10.368 5.711 10.368 11.903v1.584h-17.856c.192 5.569 3.12 8.64 7.728 8.64 3.264 0 5.232-1.584 6.24-4.511h3.744zm-10.224-14.4c-3.792 0-6.672 2.449-7.344 7.392h13.824c-.096-4.175-2.16-7.392-6.48-7.392zm12.51 9.456c0-7.728 4.656-12.672 11.376-12.672 5.376 0 8.928 3.072 9.696 8.209h-3.792c-.672-3.217-2.64-4.992-5.904-4.992-4.752 0-7.44 3.791-7.44 9.456 0 5.663 2.688 9.407 7.44 9.407 3.264 0 5.232-1.775 5.904-4.991h3.792c-.768 5.184-4.32 8.207-9.696 8.207-6.72 0-11.376-4.895-11.376-12.624z" fill="#000"/></svg>