<svg width="188" height="36" viewBox="0 0 188 36" fill="none" xmlns="http://www.w3.org/2000/svg"><path d="M9.648 12.563L8.384 9.378H2.912l-1.264 3.184H.272L4.896 1.137h1.552l4.64 11.425h-1.44zM5.632 2.514L3.36 8.244h4.576L5.68 2.513h-.048zm9.126 10.049l-3.216-8.049h1.36l2.592 6.737h.032l2.48-6.736h1.328l-3.088 8.047h-1.488zm12.805-2.369c-.368 1.712-1.76 2.56-3.328 2.56-2.272 0-3.872-1.583-3.872-4.175 0-2.625 1.648-4.257 3.792-4.257 2.384 0 3.456 1.904 3.456 3.968v.529H21.66c.064 1.855 1.04 2.88 2.576 2.88 1.088 0 1.744-.528 2.08-1.505h1.248zm-3.408-4.8c-1.264 0-2.224.816-2.448 2.465h4.608c-.032-1.393-.72-2.465-2.16-2.465zm10.17-.992v1.216a3.238 3.238 0 00-.688-.064c-1.28 0-2.448 1.008-2.448 3.04v3.969h-1.328V4.514h1.28v1.904c.353-1.328 1.377-2.08 2.56-2.08.209 0 .432.016.624.064zm6.62 8.16a7.032 7.032 0 01-.143-1.36c-.352.944-1.456 1.537-2.8 1.537-1.408 0-2.608-.817-2.608-2.305 0-1.551 1.152-2.223 2.784-2.415l2.592-.337v-.464c0-1.28-.784-1.824-1.888-1.824-1.072 0-1.744.56-1.84 1.489h-1.28c.16-1.633 1.44-2.56 3.152-2.56 1.952 0 3.168.927 3.168 2.863v3.697c0 .592.032 1.152.192 1.68h-1.328zm-2.671-.832c1.248 0 2.496-.784 2.496-2.335v-.72l-2.192.24c-1.008.144-1.84.4-1.84 1.488 0 .752.528 1.327 1.536 1.327zm12.204.32v-1.184c-.368.784-1.264 1.553-2.672 1.553-2.064 0-3.568-1.553-3.568-4.065 0-2.415 1.504-4.031 3.568-4.031 1.408 0 2.336.831 2.72 1.6V4.514h1.296v7.44c0 2.56-1.664 3.648-3.808 3.648-1.936 0-3.248-.784-3.568-2.351h1.344c.272 1.008 1.12 1.328 2.208 1.328 1.584 0 2.48-.849 2.48-2.529zm.096-3.504v-.383c0-1.665-1.04-2.8-2.528-2.8-1.568 0-2.496 1.2-2.496 2.991 0 1.777.928 3.009 2.496 3.009 1.488 0 2.528-1.152 2.528-2.816zm10.708 1.649c-.368 1.711-1.76 2.56-3.328 2.56-2.272 0-3.872-1.585-3.872-4.177 0-2.623 1.648-4.255 3.792-4.255 2.384 0 3.456 1.903 3.456 3.967v.529h-5.952c.064 1.855 1.04 2.88 2.576 2.88 1.088 0 1.744-.528 2.08-1.505h1.248zm-3.408-4.8c-1.264 0-2.224.816-2.448 2.464h4.608c-.032-1.393-.72-2.465-2.16-2.465zm12.919 5.984v1.088a4.908 4.908 0 01-1.408.223c-1.472 0-2.224-.704-2.224-2.191V5.521h-1.184V4.514h1.184V2.466h1.312v2.048h2.112v1.008h-2.128v4.912c0 .849.432 1.136 1.168 1.136.304 0 .656-.031 1.168-.191zm2.066-8.544V1.218h1.504v1.616H72.86zm.096 9.727V4.515h1.328v8.047h-1.328zM83.4 6.051c.496-1.088 1.52-1.729 2.704-1.729 1.856 0 2.768 1.168 2.768 3.056v5.184h-1.344V7.668c0-1.505-.544-2.256-1.744-2.256s-2.112.864-2.112 2.72v4.431h-1.344V7.668c0-1.505-.528-2.256-1.744-2.256s-2.128.864-2.128 2.72v4.431h-1.328V4.515h1.28v1.472c.384-1.024 1.376-1.665 2.544-1.665 1.36 0 2.096.657 2.448 1.729zm14.836 4.143c-.368 1.712-1.76 2.56-3.328 2.56-2.272 0-3.872-1.583-3.872-4.175 0-2.625 1.648-4.257 3.792-4.257 2.384 0 3.456 1.904 3.456 3.968v.529h-5.952c.064 1.855 1.04 2.88 2.576 2.88 1.088 0 1.744-.528 2.08-1.505h1.248zm-3.408-4.8c-1.264 0-2.224.816-2.448 2.465h4.608c-.032-1.393-.72-2.465-2.16-2.465zm12.919 5.985v1.088a4.908 4.908 0 01-1.408.223c-1.472 0-2.224-.704-2.224-2.191V5.521h-1.184V4.514h1.184V2.466h1.312v2.048h2.112v1.008h-2.128v4.912c0 .849.432 1.136 1.168 1.136.304 0 .656-.031 1.168-.191zm9.125-2.832c0 2.591-1.6 4.207-3.824 4.207-2.224 0-3.824-1.615-3.824-4.207 0-2.593 1.6-4.225 3.824-4.225 2.224 0 3.824 1.633 3.824 4.224zm-6.336 0c0 1.935.944 3.135 2.512 3.135s2.512-1.2 2.512-3.136c0-1.935-.944-3.151-2.512-3.151s-2.512 1.216-2.512 3.152zm11.469 0c0-2.577 1.552-4.225 3.792-4.225 1.792 0 2.976 1.024 3.232 2.737h-1.264c-.224-1.072-.88-1.665-1.968-1.665-1.584 0-2.48 1.264-2.48 3.152 0 1.889.896 3.136 2.48 3.136 1.088 0 1.744-.591 1.968-1.664h1.264c-.256 1.728-1.44 2.736-3.232 2.736-2.24 0-3.792-1.631-3.792-4.207zm14.145 4.015a7.032 7.032 0 01-.144-1.36c-.352.944-1.456 1.537-2.8 1.537-1.408 0-2.608-.817-2.608-2.305 0-1.551 1.152-2.223 2.784-2.415l2.592-.337v-.464c0-1.28-.784-1.824-1.888-1.824-1.072 0-1.744.56-1.84 1.489h-1.28c.16-1.633 1.44-2.56 3.152-2.56 1.952 0 3.168.927 3.168 2.863v3.697c0 .592.032 1.152.192 1.68h-1.328zm-2.672-.832c1.248 0 2.496-.784 2.496-2.335v-.72l-2.192.24c-1.008.144-1.84.4-1.84 1.488 0 .752.528 1.327 1.536 1.327zm7.9.832h-1.328V.787h1.328v11.777zm2.252-4.015c0-2.577 1.552-4.225 3.792-4.225 1.792 0 2.976 1.024 3.232 2.737h-1.264c-.224-1.072-.88-1.665-1.968-1.665-1.584 0-2.48 1.264-2.48 3.152 0 1.889.896 3.136 2.48 3.136 1.088 0 1.744-.591 1.968-1.664h1.264c-.256 1.728-1.44 2.736-3.232 2.736-2.24 0-3.792-1.631-3.792-4.207zm15.841 4.015h-1.296v-1.455c-.384 1.008-1.344 1.648-2.56 1.648-1.824 0-2.848-1.105-2.848-3.057V4.514h1.344v4.929c0 1.488.624 2.271 1.888 2.271 1.216 0 2.128-.832 2.128-2.768V4.516h1.344v8.047zm4.173 0h-1.328V.787h1.328v11.777zm7.772 0a7.032 7.032 0 01-.144-1.36c-.352.944-1.456 1.537-2.8 1.537-1.409 0-2.608-.817-2.608-2.305 0-1.551 1.152-2.223 2.784-2.415l2.592-.337v-.464c0-1.28-.784-1.824-1.888-1.824-1.072 0-1.744.56-1.84 1.489h-1.28c.16-1.633 1.44-2.56 3.152-2.56 1.952 0 3.168.927 3.168 2.863v3.697c0 .592.032 1.152.192 1.68h-1.328zm-2.672-.832c1.248 0 2.496-.784 2.496-2.335v-.72l-2.192.24c-1.008.144-1.84.4-1.84 1.488 0 .752.528 1.327 1.536 1.327zm10.316-.351v1.088a4.908 4.908 0 01-1.408.223c-1.472 0-2.224-.704-2.224-2.191V5.521h-1.184V4.514h1.184V2.466h1.312v2.048h2.112v1.008h-2.128v4.912c0 .849.432 1.136 1.168 1.136.304 0 .656-.031 1.168-.191zm8.676-1.184c-.368 1.711-1.76 2.56-3.328 2.56-2.272 0-3.872-1.585-3.872-4.177 0-2.623 1.648-4.255 3.792-4.255 2.384 0 3.456 1.903 3.456 3.967v.529h-5.952c.064 1.855 1.04 2.88 2.576 2.88 1.088 0 1.744-.528 2.08-1.505h1.248zm-3.408-4.8c-1.264 0-2.224.816-2.448 2.464h4.608c-.032-1.393-.72-2.465-2.16-2.465zM2.704 24.515v1.471c.384-.992 1.392-1.663 2.624-1.663 1.808 0 2.88 1.136 2.88 3.055v5.184H6.88v-4.895c0-1.489-.656-2.257-1.92-2.257-1.232 0-2.208.785-2.208 2.72v4.433H1.424v-8.049h1.28zm15.323 4.032c0 2.591-1.6 4.207-3.824 4.207-2.224 0-3.824-1.615-3.824-4.207 0-2.593 1.6-4.224 3.824-4.224 2.224 0 3.824 1.631 3.824 4.224zm-6.336 0c0 1.936.944 3.136 2.512 3.136s2.512-1.2 2.512-3.136c0-1.937-.944-3.152-2.512-3.152s-2.512 1.215-2.512 3.152zm9.872-4.032v1.471c.384-.992 1.392-1.663 2.624-1.663 1.808 0 2.88 1.136 2.88 3.055v5.184H25.74v-4.895c0-1.489-.656-2.257-1.92-2.257-1.232 0-2.208.785-2.208 2.72v4.433h-1.328v-8.049h1.28zm8.235 4.143V27.49h4.432v1.169h-4.432zm13.875 3.904h-1.296v-1.455c-.384 1.008-1.344 1.648-2.56 1.648-1.824 0-2.848-1.105-2.848-3.057v-5.183h1.344v4.927c0 1.488.624 2.273 1.888 2.273 1.216 0 2.128-.832 2.128-2.768v-4.432h1.344v8.047zm4.125-8.047v1.471c.384-.992 1.392-1.663 2.624-1.663 1.808 0 2.88 1.136 2.88 3.055v5.184h-1.328v-4.895c0-1.489-.656-2.257-1.92-2.257-1.232 0-2.208.785-2.208 2.72v4.433h-1.328v-8.049h1.28zm8.17-1.68v-1.617h1.505v1.616h-1.504zm.097 9.727v-8.047h1.328v8.047h-1.328zm11.228-4.015c0 2.591-1.6 4.207-3.825 4.207-2.224 0-3.824-1.615-3.824-4.207 0-2.593 1.6-4.224 3.825-4.224 2.223 0 3.824 1.631 3.824 4.224zm-6.337 0c0 1.936.944 3.136 2.512 3.136 1.569 0 2.513-1.2 2.513-3.136 0-1.937-.944-3.152-2.512-3.152-1.569 0-2.513 1.215-2.513 3.152zm9.873-4.032v1.471c.384-.992 1.392-1.663 2.624-1.663 1.808 0 2.88 1.136 2.88 3.055v5.184h-1.328v-4.895c0-1.489-.656-2.257-1.92-2.257-1.232 0-2.208.785-2.208 2.72v4.433h-1.328v-8.049h1.28zm13.064 6.64v4.255h-1.328V24.515h1.28v1.471c.368-.816 1.328-1.663 2.72-1.663 2.048 0 3.584 1.663 3.584 4.224 0 2.543-1.536 4.207-3.584 4.207-1.328 0-2.272-.783-2.672-1.6zm-.064-2.736v.223c0 1.825.896 3.073 2.464 3.073 1.584 0 2.512-1.296 2.512-3.168 0-1.889-.928-3.184-2.512-3.184-1.568 0-2.464 1.232-2.464 3.056zm13.507 4.143a7.032 7.032 0 01-.144-1.36c-.352.945-1.456 1.537-2.8 1.537-1.408 0-2.608-.816-2.608-2.304 0-1.552 1.152-2.224 2.784-2.416l2.592-.336v-.465c0-1.28-.784-1.823-1.888-1.823-1.072 0-1.744.56-1.84 1.488h-1.28c.16-1.633 1.44-2.56 3.152-2.56 1.952 0 3.168.927 3.168 2.863v3.697c0 .591.032 1.152.192 1.68h-1.328zm-2.672-.831c1.248 0 2.496-.785 2.496-2.337v-.72l-2.192.24c-1.008.144-1.84.4-1.84 1.488 0 .752.528 1.328 1.536 1.328zm8.735.895l-3.232-8.111h1.392l2.56 6.575h.032l2.416-6.575h1.376l-3.248 8.288c-.736 1.92-1.376 2.72-2.848 2.736-.224 0-.528-.032-.784-.08V34.37c.256.065.432.065.64.065.8 0 1.168-.449 1.696-1.809zm10.88-8.223v1.216a3.238 3.238 0 00-.688-.064c-1.28 0-2.448 1.008-2.448 3.04v3.968h-1.328v-8.049h1.28v1.905c.352-1.329 1.376-2.08 2.56-2.08.208 0 .432.016.624.064zm8.592 4.144c0 2.591-1.6 4.207-3.824 4.207-2.224 0-3.824-1.615-3.824-4.207 0-2.593 1.6-4.224 3.824-4.224 2.224 0 3.824 1.631 3.824 4.224zm-6.336 0c0 1.936.944 3.136 2.512 3.136s2.512-1.2 2.512-3.136c0-1.937-.944-3.152-2.512-3.152s-2.512 1.215-2.512 3.152zm9.92 4.015h-1.328V20.788h1.328v11.776zm4.172 0h-1.328V20.788h1.328v11.776z" fill="#000"/></svg>