<svg width="144" height="34" viewBox="0 0 144 34" fill="none" xmlns="http://www.w3.org/2000/svg"><path d="M8.368 3.962c0 2.144-1.776 3.104-3.488 4.208-1.392.928-2.768 1.888-2.768 2.928H8.48v1.152H.64v-.624c0-2.032 1.968-3.456 3.664-4.512 1.52-.976 2.752-1.824 2.752-3.152 0-1.088-.624-2.176-2.32-2.176-1.568 0-2.48 1.184-2.576 2.56H.864C.976 2.33 2.352.634 4.752.634s3.616 1.632 3.616 3.328zm1.652 2.576c0-3.424 1.776-5.904 4.544-5.904 2.784 0 4.544 2.48 4.544 5.904s-1.76 5.904-4.544 5.904c-2.768 0-4.544-2.48-4.544-5.904zm1.408 0c0 2.8 1.056 4.72 3.136 4.72 2.096 0 3.152-1.92 3.152-4.72s-1.056-4.72-3.152-4.72c-2.08 0-3.136 1.92-3.136 4.72zm16.924-2.576c0 2.144-1.776 3.104-3.488 4.208-1.392.928-2.768 1.888-2.768 2.928h6.368v1.152h-7.84v-.624c0-2.032 1.968-3.456 3.664-4.512 1.52-.976 2.752-1.824 2.752-3.152 0-1.088-.624-2.176-2.32-2.176-1.568 0-2.48 1.184-2.576 2.56h-1.296C20.96 2.33 22.336.634 24.736.634s3.616 1.632 3.616 3.328zM36.57.826V8.01h2.448v1.104h-2.448v3.136h-1.344V9.114H29.56v-1.12L35.017.826h1.552zM35.225 2.25l-4.336 5.76h4.336V2.25zM46.2.826l6.096 9.12h.032V.826h1.328V12.25h-1.28L45.88 2.506h-.032v9.744h-1.344V.826H46.2zm16.988 9.056c-.368 1.712-1.76 2.56-3.328 2.56-2.272 0-3.872-1.584-3.872-4.176 0-2.624 1.648-4.256 3.792-4.256 2.384 0 3.456 1.904 3.456 3.968v.528h-5.952c.064 1.856 1.04 2.88 2.576 2.88 1.088 0 1.744-.528 2.08-1.504h1.248zm-3.408-4.8c-1.264 0-2.224.816-2.448 2.464h4.608c-.032-1.392-.72-2.464-2.16-2.464zm9.45 5.984v1.088a4.908 4.908 0 01-1.407.224c-1.472 0-2.224-.704-2.224-2.192V5.21h-1.184V4.202h1.183V2.154h1.313v2.048h2.111V5.21h-2.128v4.912c0 .848.432 1.136 1.168 1.136.305 0 .657-.032 1.169-.192zm9.935-3.408h-2.88v4.592h-1.36V.826h4.225c2.543 0 4.015 1.168 4.015 3.408 0 2.256-1.472 3.424-4 3.424zm-2.88-1.152h2.833c1.728 0 2.672-.72 2.672-2.272 0-1.552-.945-2.256-2.672-2.256h-2.832v4.528zM89.748 4.09v1.216a3.238 3.238 0 00-.688-.064c-1.28 0-2.448 1.008-2.448 3.04v3.968h-1.328V4.202h1.28v1.904c.352-1.328 1.376-2.08 2.56-2.08.208 0 .432.016.624.064zm8.592 4.144c0 2.592-1.6 4.208-3.824 4.208-2.224 0-3.824-1.616-3.824-4.208s1.6-4.224 3.824-4.224c2.224 0 3.824 1.632 3.824 4.224zm-6.336 0c0 1.936.944 3.136 2.512 3.136s2.512-1.2 2.512-3.136c0-1.936-.944-3.152-2.512-3.152s-2.512 1.216-2.512 3.152zm14.865-2.496c.496-1.088 1.52-1.728 2.704-1.728 1.856 0 2.768 1.168 2.768 3.056v5.184h-1.344V7.354c0-1.504-.544-2.256-1.744-2.256s-2.112.864-2.112 2.72v4.432h-1.344V7.354c0-1.504-.528-2.256-1.744-2.256s-2.128.864-2.128 2.72v4.432h-1.328V4.202h1.28v1.472c.384-1.024 1.376-1.664 2.544-1.664 1.36 0 2.096.656 2.448 1.728zm15.284 2.496c0 2.592-1.6 4.208-3.824 4.208-2.224 0-3.824-1.616-3.824-4.208s1.6-4.224 3.824-4.224c2.224 0 3.824 1.632 3.824 4.224zm-6.336 0c0 1.936.944 3.136 2.512 3.136s2.512-1.2 2.512-3.136c0-1.936-.944-3.152-2.512-3.152s-2.512 1.216-2.512 3.152zm12.336 2.832v1.088a4.908 4.908 0 01-1.408.224c-1.472 0-2.224-.704-2.224-2.192V5.21h-1.184V4.202h1.184V2.154h1.312v2.048h2.112V5.21h-2.128v4.912c0 .848.432 1.136 1.168 1.136.304 0 .656-.032 1.168-.192zm8.677-1.184c-.368 1.712-1.76 2.56-3.328 2.56-2.272 0-3.872-1.584-3.872-4.176 0-2.624 1.648-4.256 3.792-4.256 2.384 0 3.456 1.904 3.456 3.968v.528h-5.952c.064 1.856 1.04 2.88 2.576 2.88 1.088 0 1.744-.528 2.08-1.504h1.248zm-3.408-4.8c-1.264 0-2.224.816-2.448 2.464h4.608c-.032-1.392-.72-2.464-2.16-2.464zm10.17-.992v1.216a3.238 3.238 0 00-.688-.064c-1.28 0-2.448 1.008-2.448 3.04v3.968h-1.328V4.202h1.28v1.904c.352-1.328 1.376-2.08 2.56-2.08.208 0 .432.016.624.064zM.752 28.874H2.08c.176 1.84 1.68 2.464 3.376 2.464 1.632 0 2.832-.784 2.832-2.16 0-.96-.528-1.584-2.08-1.872l-2.176-.432c-1.536-.288-2.912-.992-2.912-2.96 0-1.872 1.616-3.28 3.984-3.28 2.448 0 4.064 1.056 4.288 3.12H8.064c-.192-1.28-1.312-2.016-2.944-2.016-1.664 0-2.656.928-2.656 2.128 0 1.136.64 1.536 2.032 1.808l2.24.464c1.76.352 2.88 1.168 2.88 2.976 0 1.952-1.728 3.328-4.144 3.328-2.48 0-4.56-1.072-4.72-3.568zm10.611-.64c0-2.576 1.552-4.224 3.792-4.224 1.792 0 2.976 1.024 3.232 2.736h-1.264c-.224-1.072-.88-1.664-1.968-1.664-1.584 0-2.48 1.264-2.48 3.152 0 1.888.896 3.136 2.48 3.136 1.088 0 1.744-.592 1.968-1.664h1.264c-.256 1.728-1.44 2.736-3.232 2.736-2.24 0-3.792-1.632-3.792-4.208zm16.273 0c0 2.592-1.6 4.208-3.824 4.208-2.224 0-3.824-1.616-3.824-4.208s1.6-4.224 3.824-4.224c2.224 0 3.824 1.632 3.824 4.224zm-6.336 0c0 1.936.944 3.136 2.512 3.136s2.512-1.2 2.512-3.136c0-1.936-.944-3.152-2.512-3.152S21.3 26.298 21.3 28.234zm13.057-4.144v1.216a3.238 3.238 0 00-.688-.064c-1.28 0-2.448 1.008-2.448 3.04v3.968h-1.328v-8.048h1.28v1.904c.352-1.328 1.376-2.08 2.56-2.08.208 0 .432.016.624.064zm8.144 5.792c-.368 1.712-1.76 2.56-3.328 2.56-2.272 0-3.872-1.584-3.872-4.176 0-2.624 1.648-4.256 3.792-4.256 2.384 0 3.456 1.904 3.456 3.968v.528h-5.952c.064 1.856 1.04 2.88 2.576 2.88 1.088 0 1.744-.528 2.08-1.504H42.5zm-3.408-4.8c-1.264 0-2.224.816-2.448 2.464h4.608c-.032-1.392-.72-2.464-2.16-2.464zm10.503 2.144c0 2.4 1.008 4.752 2.576 6.752h-1.296c-1.616-1.984-2.608-4.272-2.608-6.752 0-2.464.992-4.768 2.608-6.752h1.296c-1.472 2-2.576 4.352-2.576 6.752zm6.697-6.4l6.096 9.12h.032v-9.12h1.328V32.25h-1.28l-6.496-9.744h-.032v9.744h-1.344V20.826h1.696zm14.685 6.832h-2.88v4.592h-1.36V20.826h4.224c2.544 0 4.016 1.168 4.016 3.408 0 2.256-1.472 3.424-4 3.424zm-2.88-1.152h2.832c1.728 0 2.672-.72 2.672-2.272 0-1.552-.944-2.256-2.672-2.256h-2.832v4.528zm8.357 2.368h1.328c.176 1.84 1.68 2.464 3.376 2.464 1.632 0 2.832-.784 2.832-2.16 0-.96-.528-1.584-2.08-1.872l-2.176-.432c-1.536-.288-2.912-.992-2.912-2.96 0-1.872 1.616-3.28 3.984-3.28 2.448 0 4.064 1.056 4.288 3.12h-1.328c-.192-1.28-1.312-2.016-2.944-2.016-1.664 0-2.656.928-2.656 2.128 0 1.136.64 1.536 2.032 1.808l2.24.464c1.76.352 2.88 1.168 2.88 2.976 0 1.952-1.728 3.328-4.144 3.328-2.48 0-4.56-1.072-4.72-3.568zm10.692 5.104c1.568-2 2.576-4.352 2.576-6.752 0-2.4-1.104-4.752-2.576-6.752h1.296c1.616 1.984 2.608 4.288 2.608 6.752 0 2.48-.992 4.768-2.608 6.752h-1.296z" fill="#000"/></svg>