<svg width="100" height="72" viewBox="0 0 100 72" fill="none" xmlns="http://www.w3.org/2000/svg"><path d="M25.336.554c12.384 0 21.792 7.104 21.792 18.72 0 7.968-4.512 13.536-11.616 16.224 7.584 1.344 14.784 7.968 14.784 16.128 0 11.616-9.696 19.776-24.96 19.776-15.168 0-24.864-8.16-24.864-19.776 0-8.16 7.2-14.784 14.784-16.128C8.152 32.81 3.544 27.242 3.544 19.274c0-11.616 9.504-18.72 21.792-18.72zm0 32.064c8.832 0 16.32-4.32 16.32-13.536 0-9.12-7.488-13.44-16.32-13.44-8.736 0-16.224 4.32-16.224 13.44 0 9.216 7.488 13.536 16.224 13.536zm0 33.696c11.712 0 18.912-5.664 18.912-14.4 0-8.64-7.2-14.112-18.912-14.112-11.616 0-18.816 5.472-18.816 14.112 0 8.736 7.2 14.4 18.816 14.4zm73.326-46.176c0 12.96-11.328 18.72-21.024 25.536-8.256 5.856-17.76 12.384-17.568 19.392h39.36v5.184H54.118v-3.072c0-11.52 11.712-20.256 21.888-26.688 9.024-5.952 17.088-11.712 17.088-20.256 0-7.008-3.936-14.4-15.264-14.4-10.368 0-16.224 7.68-16.896 16.512h-5.376C56.134 10.634 64.006.554 77.83.554c14.304 0 20.832 10.08 20.832 19.584z" fill="#000"/></svg>