<svg width="211" height="36" viewBox="0 0 211 36" fill="none" xmlns="http://www.w3.org/2000/svg"><path d="M7.664 12h-1.12L2.832 1.984H2.8V12H1.488V.576h2.128l3.52 9.632h.032l3.52-9.632h2.048V12h-1.328V1.984h-.032L7.664 12zm14.587-2.368c-.368 1.712-1.76 2.56-3.328 2.56-2.272 0-3.872-1.584-3.872-4.176 0-2.624 1.648-4.256 3.792-4.256 2.384 0 3.456 1.904 3.456 3.968v.528h-5.952c.064 1.856 1.04 2.88 2.576 2.88 1.088 0 1.744-.528 2.08-1.504h1.248zm-3.408-4.8c-1.264 0-2.224.816-2.448 2.464h4.608c-.032-1.392-.72-2.464-2.16-2.464zM30.277 12v-1.408c-.4.816-1.392 1.6-2.72 1.6-2.048 0-3.584-1.664-3.584-4.208 0-2.56 1.536-4.224 3.584-4.224 1.392 0 2.304.8 2.672 1.616V.224h1.328V12h-1.28zm.016-3.92v-.224c0-1.824-.896-3.056-2.464-3.056-1.584 0-2.512 1.296-2.512 3.184 0 1.872.928 3.168 2.512 3.168 1.568 0 2.464-1.248 2.464-3.072zm4.02-5.808V.656h1.503v1.616h-1.504zM34.407 12V3.952h1.328V12h-1.328zm9.1 0a7.032 7.032 0 01-.144-1.36c-.352.944-1.456 1.536-2.8 1.536-1.408 0-2.608-.816-2.608-2.304 0-1.552 1.152-2.224 2.784-2.416l2.592-.336v-.464c0-1.28-.784-1.824-1.888-1.824-1.072 0-1.744.56-1.84 1.488h-1.28c.16-1.632 1.44-2.56 3.152-2.56 1.952 0 3.168.928 3.168 2.864v3.696c0 .592.032 1.152.192 1.68h-1.328zm-2.672-.832c1.248 0 2.496-.784 2.496-2.336v-.72l-2.192.24c-1.008.144-1.84.4-1.84 1.488 0 .752.528 1.328 1.536 1.328zm7.852-7.216v1.472c.384-.992 1.392-1.664 2.624-1.664 1.808 0 2.88 1.136 2.88 3.056V12h-1.328V7.104c0-1.488-.656-2.256-1.92-2.256-1.232 0-2.208.784-2.208 2.72V12h-1.328V3.952h1.28zm15.48 6.864v1.088a4.908 4.908 0 01-1.408.224c-1.472 0-2.224-.704-2.224-2.192V4.96h-1.184V3.952h1.184V1.904h1.312v2.048h2.112V4.96h-2.128v4.912c0 .848.432 1.136 1.168 1.136.304 0 .656-.032 1.168-.192zm2.066-8.544V.656h1.504v1.616h-1.504zM66.33 12V3.952h1.328V12H66.33zm10.444-6.512c.496-1.088 1.52-1.728 2.704-1.728 1.856 0 2.768 1.168 2.768 3.056V12h-1.344V7.104c0-1.504-.544-2.256-1.744-2.256s-2.112.864-2.112 2.72V12h-1.344V7.104c0-1.504-.528-2.256-1.744-2.256s-2.128.864-2.128 2.72V12h-1.328V3.952h1.28v1.472c.384-1.024 1.376-1.664 2.544-1.664 1.36 0 2.096.656 2.448 1.728zM91.61 9.632c-.368 1.712-1.76 2.56-3.328 2.56-2.272 0-3.872-1.584-3.872-4.176 0-2.624 1.648-4.256 3.792-4.256 2.384 0 3.456 1.904 3.456 3.968v.528h-5.952c.064 1.856 1.04 2.88 2.576 2.88 1.088 0 1.744-.528 2.08-1.504h1.248zm-3.408-4.8c-1.264 0-2.224.816-2.448 2.464h4.608c-.032-1.392-.72-2.464-2.16-2.464zm12.919 5.984v1.088a4.908 4.908 0 01-1.408.224c-1.472 0-2.224-.704-2.224-2.192V4.96h-1.184V3.952h1.184V1.904h1.312v2.048h2.112V4.96h-2.128v4.912c0 .848.432 1.136 1.168 1.136.304 0 .656-.032 1.168-.192zm9.125-2.832c0 2.592-1.6 4.208-3.824 4.208-2.224 0-3.824-1.616-3.824-4.208s1.6-4.224 3.824-4.224c2.224 0 3.824 1.632 3.824 4.224zm-6.336 0c0 1.936.944 3.136 2.512 3.136s2.512-1.2 2.512-3.136c0-1.936-.944-3.152-2.512-3.152s-2.512 1.216-2.512 3.152zm19.117 0c0 2.592-1.6 4.208-3.824 4.208-2.224 0-3.824-1.616-3.824-4.208s1.6-4.224 3.824-4.224c2.224 0 3.824 1.632 3.824 4.224zm-6.336 0c0 1.936.944 3.136 2.512 3.136s2.512-1.2 2.512-3.136c0-1.936-.944-3.152-2.512-3.152s-2.512 1.216-2.512 3.152zm9.872-4.032v1.472c.384-.992 1.392-1.664 2.624-1.664 1.808 0 2.88 1.136 2.88 3.056V12h-1.328V7.104c0-1.488-.656-2.256-1.92-2.256-1.232 0-2.208.784-2.208 2.72V12h-1.328V3.952h1.28zm9.547 6.64V12h-1.28V.224h1.328v5.152c.368-.816 1.28-1.616 2.672-1.616 2.048 0 3.584 1.664 3.584 4.224 0 2.544-1.536 4.208-3.584 4.208-1.328 0-2.32-.784-2.72-1.6zm-.016-2.736v.224c0 1.824.896 3.072 2.464 3.072 1.584 0 2.512-1.296 2.512-3.168 0-1.888-.928-3.184-2.512-3.184-1.568 0-2.464 1.232-2.464 3.056zm15.652.128c0 2.592-1.6 4.208-3.824 4.208-2.224 0-3.824-1.616-3.824-4.208s1.6-4.224 3.824-4.224c2.224 0 3.824 1.632 3.824 4.224zm-6.336 0c0 1.936.944 3.136 2.512 3.136s2.512-1.2 2.512-3.136c0-1.936-.944-3.152-2.512-3.152s-2.512 1.216-2.512 3.152zM158.93 12a7.032 7.032 0 01-.144-1.36c-.352.944-1.456 1.536-2.8 1.536-1.408 0-2.608-.816-2.608-2.304 0-1.552 1.152-2.224 2.784-2.416l2.592-.336v-.464c0-1.28-.784-1.824-1.888-1.824-1.072 0-1.744.56-1.84 1.488h-1.28c.16-1.632 1.44-2.56 3.152-2.56 1.952 0 3.168.928 3.168 2.864v3.696c0 .592.032 1.152.192 1.68h-1.328zm-2.672-.832c1.248 0 2.496-.784 2.496-2.336v-.72l-2.192.24c-1.008.144-1.84.4-1.84 1.488 0 .752.528 1.328 1.536 1.328zm11.036-7.328v1.216a3.238 3.238 0 00-.688-.064c-1.28 0-2.448 1.008-2.448 3.04V12h-1.328V3.952h1.28v1.904c.352-1.328 1.376-2.08 2.56-2.08.208 0 .432.016.624.064zm7.248 8.16v-1.408c-.4.816-1.392 1.6-2.72 1.6-2.048 0-3.584-1.664-3.584-4.208 0-2.56 1.536-4.224 3.584-4.224 1.392 0 2.304.8 2.672 1.616V.224h1.328V12h-1.28zm.016-3.92v-.224c0-1.824-.896-3.056-2.464-3.056-1.584 0-2.512 1.296-2.512 3.184 0 1.872.928 3.168 2.512 3.168 1.568 0 2.464-1.248 2.464-3.072zm8.865-4.128v1.472c.384-.992 1.392-1.664 2.624-1.664 1.808 0 2.88 1.136 2.88 3.056V12h-1.328V7.104c0-1.488-.656-2.256-1.92-2.256-1.232 0-2.208.784-2.208 2.72V12h-1.328V3.952h1.28zm14.875 5.68c-.368 1.712-1.76 2.56-3.328 2.56-2.272 0-3.872-1.584-3.872-4.176 0-2.624 1.648-4.256 3.792-4.256 2.384 0 3.456 1.904 3.456 3.968v.528h-5.952c.064 1.856 1.04 2.88 2.576 2.88 1.088 0 1.744-.528 2.08-1.504h1.248zm-3.408-4.8c-1.264 0-2.224.816-2.448 2.464h4.608c-.032-1.392-.72-2.464-2.16-2.464zm11.004-.88l1.824 6.608h.032l1.856-6.608h1.28L208.454 12h-1.376l-1.856-6.512h-.048L203.35 12h-1.392l-2.432-8.048h1.312l1.872 6.608h.048l1.792-6.608h1.344zM6.352 32a7.032 7.032 0 01-.144-1.36c-.352.944-1.456 1.536-2.8 1.536C2 32.176.8 31.36.8 29.872c0-1.552 1.152-2.224 2.784-2.416l2.592-.336v-.464c0-1.28-.784-1.824-1.888-1.824-1.072 0-1.744.56-1.84 1.488h-1.28c.16-1.632 1.44-2.56 3.152-2.56 1.952 0 3.168.928 3.168 2.864v3.696c0 .592.032 1.152.192 1.68H6.352zm-2.672-.832c1.248 0 2.496-.784 2.496-2.336v-.72l-2.192.24c-1.008.144-1.84.4-1.84 1.488 0 .752.528 1.328 1.536 1.328zm7.852-7.216v1.472c.384-.992 1.392-1.664 2.624-1.664 1.808 0 2.88 1.136 2.88 3.056V32h-1.328v-4.896c0-1.488-.656-2.256-1.92-2.256-1.232 0-2.208.784-2.208 2.72V32h-1.328v-8.048h1.28zM25.511 32v-1.408c-.4.816-1.392 1.6-2.72 1.6-2.048 0-3.584-1.664-3.584-4.208 0-2.56 1.536-4.224 3.584-4.224 1.392 0 2.304.8 2.672 1.616v-5.152h1.328V32h-1.28zm.016-3.92v-.224c0-1.824-.896-3.056-2.464-3.056-1.584 0-2.512 1.296-2.512 3.184 0 1.872.928 3.168 2.512 3.168 1.568 0 2.464-1.248 2.464-3.072zm14.192 1.552c-.367 1.712-1.76 2.56-3.328 2.56-2.271 0-3.871-1.584-3.871-4.176 0-2.624 1.647-4.256 3.791-4.256 2.385 0 3.456 1.904 3.456 3.968v.528h-5.952c.065 1.856 1.04 2.88 2.577 2.88 1.087 0 1.743-.528 2.08-1.504h1.247zm-3.407-4.8c-1.264 0-2.224.816-2.448 2.464h4.608c-.032-1.392-.72-2.464-2.16-2.464zM42.266 32h-1.424l3.056-4.144-2.896-3.904h1.568l2.144 2.96 2.128-2.96h1.44l-2.848 3.84L48.538 32h-1.552l-2.384-3.232L42.266 32zm8.187-9.728v-1.616h1.504v1.616h-1.504zM50.549 32v-8.048h1.328V32h-1.328zm3.484-2.384h1.28c.096 1.104 1.12 1.568 2.208 1.568 1.104 0 1.904-.512 1.904-1.376 0-.592-.384-.976-1.408-1.168l-1.424-.288c-1.296-.24-2.24-.768-2.24-2.176 0-1.36 1.216-2.416 2.992-2.416 1.856 0 2.992.8 3.152 2.32h-1.232c-.096-.816-.816-1.296-1.92-1.296-1.072 0-1.76.528-1.76 1.312 0 .688.48.976 1.408 1.152l1.6.304c1.312.256 2.08.896 2.08 2.192 0 1.408-1.328 2.448-3.136 2.448-1.92 0-3.36-.848-3.504-2.576zm12.682 1.2v1.088a4.908 4.908 0 01-1.408.224c-1.472 0-2.224-.704-2.224-2.192V24.96h-1.184v-1.008h1.184v-2.048h1.312v2.048h2.112v1.008h-2.128v4.912c0 .848.432 1.136 1.168 1.136.304 0 .656-.032 1.168-.192zm2.066-8.544v-1.616h1.504v1.616h-1.504zM68.877 32v-8.048h1.328V32h-1.328zm5.452-8.048v1.472c.384-.992 1.392-1.664 2.624-1.664 1.808 0 2.88 1.136 2.88 3.056V32h-1.328v-4.896c0-1.488-.656-2.256-1.92-2.256-1.232 0-2.208.784-2.208 2.72V32h-1.328v-8.048h1.28zm13.899 7.536v-1.184c-.368.784-1.264 1.552-2.672 1.552-2.064 0-3.568-1.552-3.568-4.064 0-2.416 1.504-4.032 3.568-4.032 1.408 0 2.336.832 2.72 1.6v-1.408h1.296v7.44c0 2.56-1.664 3.648-3.808 3.648-1.936 0-3.248-.784-3.568-2.352h1.344c.272 1.008 1.12 1.328 2.208 1.328 1.584 0 2.48-.848 2.48-2.528zm.096-3.504V27.6c0-1.664-1.04-2.8-2.528-2.8-1.568 0-2.496 1.2-2.496 2.992 0 1.776.928 3.008 2.496 3.008 1.488 0 2.528-1.152 2.528-2.816zm12.961-4.032l1.824 6.608h.032l1.856-6.608h1.28L103.845 32h-1.376l-1.856-6.512h-.048L98.741 32h-1.392l-2.432-8.048h1.312L98.1 30.56h.048l1.792-6.608h1.344zm13.726 4.032c0 2.592-1.6 4.208-3.824 4.208-2.224 0-3.824-1.616-3.824-4.208s1.6-4.224 3.824-4.224c2.224 0 3.824 1.632 3.824 4.224zm-6.336 0c0 1.936.944 3.136 2.512 3.136s2.512-1.2 2.512-3.136c0-1.936-.944-3.152-2.512-3.152s-2.512 1.216-2.512 3.152zm13.057-4.144v1.216a3.238 3.238 0 00-.688-.064c-1.28 0-2.448 1.008-2.448 3.04V32h-1.328v-8.048h1.28v1.904c.352-1.328 1.376-2.08 2.56-2.08.208 0 .432.016.624.064zm7.116 8.16l-3.056-3.792-1.04 1.008V32h-1.328V20.224h1.328v7.584l3.968-3.856h1.584l-3.552 3.408 3.696 4.64h-1.6zm9.887-2.368c-.368 1.712-1.76 2.56-3.328 2.56-2.272 0-3.872-1.584-3.872-4.176 0-2.624 1.648-4.256 3.792-4.256 2.384 0 3.456 1.904 3.456 3.968v.528h-5.952c.064 1.856 1.04 2.88 2.576 2.88 1.088 0 1.744-.528 2.08-1.504h1.248zm-3.408-4.8c-1.264 0-2.224.816-2.448 2.464h4.608c-.032-1.392-.72-2.464-2.16-2.464zm10.17-.992v1.216a3.238 3.238 0 00-.688-.064c-1.28 0-2.448 1.008-2.448 3.04V32h-1.328v-8.048h1.28v1.904c.352-1.328 1.376-2.08 2.56-2.08.208 0 .432.016.624.064zm1.005 5.776h1.28c.096 1.104 1.12 1.568 2.208 1.568 1.104 0 1.904-.512 1.904-1.376 0-.592-.384-.976-1.408-1.168l-1.424-.288c-1.296-.24-2.24-.768-2.24-2.176 0-1.36 1.216-2.416 2.992-2.416 1.856 0 2.992.8 3.152 2.32h-1.232c-.096-.816-.816-1.296-1.92-1.296-1.072 0-1.76.528-1.76 1.312 0 .688.48.976 1.408 1.152l1.6.304c1.312.256 2.08.896 2.08 2.192 0 1.408-1.328 2.448-3.136 2.448-1.92 0-3.36-.848-3.504-2.576z" fill="#000"/></svg>