<svg width="131" height="72" viewBox="0 0 131 72" fill="none" xmlns="http://www.w3.org/2000/svg"><path d="M47.936 51.376c0 10.656-8.256 19.776-23.04 19.776-14.208 0-23.424-7.968-24.384-20.928h5.76c.672 9.216 7.008 15.84 18.624 15.84 10.752 0 17.472-5.568 17.472-14.592 0-8.64-6.336-13.728-16.032-13.728H18.56v-5.28h7.488c7.488 0 14.4-3.36 14.4-12.96 0-7.68-4.992-14.112-15.36-14.112-10.752 0-16.608 7.584-17.184 16.416H2.336C3.104 9.904 10.784.304 25.088.304c14.208 0 21.216 9.312 21.216 19.296 0 8.544-5.76 14.4-12.288 15.36 7.968 1.152 13.92 7.776 13.92 16.416zm30.621-.912c1.488-3.264 4.56-5.184 8.112-5.184 5.568 0 8.304 3.504 8.304 9.168V70h-4.032V55.312c0-4.512-1.632-6.768-5.232-6.768-3.6 0-6.336 2.592-6.336 8.16V70h-4.032V55.312c0-4.512-1.584-6.768-5.232-6.768s-6.384 2.592-6.384 8.16V70h-3.984V45.856h3.84v4.416c1.152-3.072 4.128-4.992 7.632-4.992 4.08 0 6.288 1.968 7.344 5.184zm21.516-9.648v-4.848h4.512v4.848h-4.512zM100.361 70V45.856h3.984V70h-3.984zm13.476-24.144v4.416c1.152-2.976 4.176-4.992 7.872-4.992 5.424 0 8.64 3.408 8.64 9.168V70h-3.984V55.312c0-4.464-1.968-6.768-5.76-6.768-3.696 0-6.624 2.352-6.624 8.16V70h-3.984V45.856h3.84z" fill="#000"/></svg>