<svg width="174" height="96" viewBox="0 0 174 96" fill="none" xmlns="http://www.w3.org/2000/svg"><path d="M63.248 68.668c0 14.208-11.008 26.368-30.72 26.368-18.944 0-31.232-10.624-32.512-27.904h7.68c.896 12.288 9.344 21.12 24.832 21.12 14.336 0 23.296-7.424 23.296-19.456 0-11.52-8.448-18.304-21.376-18.304H24.08v-7.04h9.984c9.984 0 19.2-4.48 19.2-17.28 0-10.24-6.656-18.816-20.48-18.816-14.336 0-22.144 10.112-22.912 21.888H2.448C3.472 13.372 13.712.572 32.784.572c18.944 0 28.288 12.416 28.288 25.728 0 11.392-7.68 19.2-16.384 20.48 10.624 1.536 18.56 10.368 18.56 21.888zm40.829-1.216c1.984-4.352 6.08-6.912 10.816-6.912 7.424 0 11.072 4.672 11.072 12.224V93.5h-5.376V73.916c0-6.016-2.176-9.024-6.976-9.024s-8.448 3.456-8.448 10.88V93.5h-5.377V73.916c0-6.016-2.111-9.024-6.975-9.024-4.865 0-8.513 3.456-8.513 10.88V93.5H78.99V61.308h5.12v5.888c1.535-4.096 5.504-6.656 10.175-6.656 5.44 0 8.385 2.624 9.793 6.912zm28.687-12.864v-6.464h6.016v6.464h-6.016zm.384 38.912V61.308h5.312V93.5h-5.312zm17.968-32.192v5.888c1.536-3.968 5.568-6.656 10.496-6.656 7.232 0 11.52 4.544 11.52 12.224V93.5h-5.312V73.916c0-5.952-2.624-9.024-7.68-9.024-4.928 0-8.832 3.136-8.832 10.88V93.5h-5.312V61.308h5.12z" fill="#000"/></svg>