<svg width="527" height="22" viewBox="0 0 527 22" fill="none" xmlns="http://www.w3.org/2000/svg"><path d="M9.017 17.5h-1.61L2.071 3.102h-.046V17.5H.139V1.078h3.059l5.06 13.846h.046l5.06-13.846h2.944V17.5h-1.909V3.102h-.046L9.017 17.5zm20.968-3.404c-.529 2.461-2.53 3.68-4.784 3.68-3.265 0-5.566-2.277-5.566-6.003 0-3.772 2.37-6.118 5.451-6.118 3.428 0 4.969 2.737 4.969 5.704v.759h-8.556c.091 2.668 1.495 4.14 3.703 4.14 1.563 0 2.506-.759 2.99-2.162h1.793zm-4.898-6.9c-1.817 0-3.197 1.173-3.52 3.542h6.625c-.047-2.001-1.035-3.542-3.105-3.542zM41.523 17.5v-2.024c-.575 1.173-2.001 2.3-3.91 2.3-2.944 0-5.152-2.392-5.152-6.049 0-3.68 2.208-6.072 5.152-6.072 2 0 3.312 1.15 3.84 2.323V.572h1.91V17.5h-1.84zm.023-5.635v-.322c0-2.622-1.288-4.393-3.542-4.393-2.277 0-3.611 1.863-3.611 4.577 0 2.691 1.334 4.554 3.61 4.554 2.255 0 3.543-1.794 3.543-4.416zm5.778-8.349V1.193h2.162v2.323h-2.162zm.138 13.984V5.931h1.909V17.5h-1.909zm13.081 0a10.108 10.108 0 01-.207-1.955c-.506 1.357-2.093 2.208-4.025 2.208-2.024 0-3.749-1.173-3.749-3.312 0-2.231 1.656-3.197 4.002-3.473l3.726-.483v-.667c0-1.84-1.127-2.622-2.714-2.622-1.54 0-2.507.805-2.645 2.139h-1.84c.23-2.346 2.07-3.68 4.531-3.68 2.806 0 4.554 1.334 4.554 4.117v5.313c0 .851.046 1.656.276 2.415h-1.909zm-3.84-1.196c1.793 0 3.587-1.127 3.587-3.358v-1.035l-3.15.345c-1.45.207-2.646.575-2.646 2.139 0 1.081.76 1.909 2.208 1.909zM67.99 5.931v2.116c.552-1.426 2-2.392 3.772-2.392 2.599 0 4.14 1.633 4.14 4.393V17.5h-1.91v-7.038c0-2.139-.943-3.243-2.76-3.243-1.77 0-3.174 1.127-3.174 3.91V17.5H66.15V5.931h1.84zm22.252 9.867v1.564c-.852.253-1.519.322-2.025.322-2.115 0-3.197-1.012-3.197-3.151V7.38H83.32V5.931h1.701V2.987h1.886v2.944h3.036V7.38h-3.058v7.061c0 1.219.62 1.633 1.678 1.633.438 0 .944-.046 1.68-.276zm2.97-12.282V1.193h2.162v2.323h-2.162zM93.35 17.5V5.931h1.909V17.5h-1.91zm15.013-9.361c.713-1.564 2.185-2.484 3.887-2.484 2.668 0 3.979 1.679 3.979 4.393V17.5h-1.932v-7.038c0-2.162-.782-3.243-2.507-3.243s-3.036 1.242-3.036 3.91V17.5h-1.932v-7.038c0-2.162-.759-3.243-2.507-3.243-1.748 0-3.059 1.242-3.059 3.91V17.5h-1.91V5.931h1.841v2.116c.552-1.472 1.978-2.392 3.657-2.392 1.955 0 3.013.943 3.519 2.484zm21.327 5.957c-.529 2.461-2.53 3.68-4.784 3.68-3.266 0-5.566-2.277-5.566-6.003 0-3.772 2.369-6.118 5.451-6.118 3.427 0 4.968 2.737 4.968 5.704v.759h-8.556c.092 2.668 1.495 4.14 3.703 4.14 1.564 0 2.507-.759 2.99-2.162h1.794zm-4.899-6.9c-1.817 0-3.197 1.173-3.519 3.542h6.624c-.046-2.001-1.035-3.542-3.105-3.542zm18.571 8.602v1.564c-.851.253-1.518.322-2.024.322-2.116 0-3.197-1.012-3.197-3.151V7.38h-1.702V5.931h1.702V2.987h1.886v2.944h3.036V7.38h-3.059v7.061c0 1.219.621 1.633 1.679 1.633.437 0 .943-.046 1.679-.276zm13.116-4.071c0 3.726-2.3 6.049-5.497 6.049s-5.497-2.323-5.497-6.049c0-3.726 2.3-6.072 5.497-6.072s5.497 2.346 5.497 6.072zm-9.108 0c0 2.783 1.357 4.508 3.611 4.508 2.254 0 3.611-1.725 3.611-4.508s-1.357-4.531-3.611-4.531c-2.254 0-3.611 1.748-3.611 4.531zm27.481 0c0 3.726-2.3 6.049-5.497 6.049s-5.497-2.323-5.497-6.049c0-3.726 2.3-6.072 5.497-6.072s5.497 2.346 5.497 6.072zm-9.108 0c0 2.783 1.357 4.508 3.611 4.508 2.254 0 3.611-1.725 3.611-4.508s-1.357-4.531-3.611-4.531c-2.254 0-3.611 1.748-3.611 4.531zm14.192-5.796v2.116c.552-1.426 2.001-2.392 3.772-2.392 2.599 0 4.14 1.633 4.14 4.393V17.5h-1.909v-7.038c0-2.139-.943-3.243-2.76-3.243-1.771 0-3.174 1.127-3.174 3.91V17.5h-1.909V5.931h1.84zm13.723 9.545V17.5h-1.84V.572h1.909v7.406c.529-1.173 1.84-2.323 3.841-2.323 2.944 0 5.152 2.392 5.152 6.072 0 3.657-2.208 6.049-5.152 6.049-1.909 0-3.335-1.127-3.91-2.3zm-.023-3.933v.322c0 2.622 1.288 4.416 3.542 4.416 2.277 0 3.611-1.863 3.611-4.554 0-2.714-1.334-4.577-3.611-4.577-2.254 0-3.542 1.771-3.542 4.393zm22.499.184c0 3.726-2.3 6.049-5.497 6.049s-5.497-2.323-5.497-6.049c0-3.726 2.3-6.072 5.497-6.072s5.497 2.346 5.497 6.072zm-9.108 0c0 2.783 1.357 4.508 3.611 4.508 2.254 0 3.611-1.725 3.611-4.508s-1.357-4.531-3.611-4.531c-2.254 0-3.611 1.748-3.611 4.531zm19.436 5.773a10.108 10.108 0 01-.207-1.955c-.506 1.357-2.093 2.208-4.025 2.208-2.024 0-3.749-1.173-3.749-3.312 0-2.231 1.656-3.197 4.002-3.473l3.726-.483v-.667c0-1.84-1.127-2.622-2.714-2.622-1.541 0-2.507.805-2.645 2.139h-1.84c.23-2.346 2.07-3.68 4.531-3.68 2.806 0 4.554 1.334 4.554 4.117v5.313c0 .851.046 1.656.276 2.415h-1.909zm-3.841-1.196c1.794 0 3.588-1.127 3.588-3.358v-1.035l-3.151.345c-1.449.207-2.645.575-2.645 2.139 0 1.081.759 1.909 2.208 1.909zM238.485 5.77v1.748c-.276-.069-.69-.092-.989-.092-1.84 0-3.519 1.449-3.519 4.37V17.5h-1.909V5.931h1.84v2.737c.506-1.909 1.978-2.99 3.68-2.99.299 0 .621.023.897.092zm10.419 11.73v-2.024c-.575 1.173-2.001 2.3-3.91 2.3-2.944 0-5.152-2.392-5.152-6.049 0-3.68 2.208-6.072 5.152-6.072 2.001 0 3.312 1.15 3.841 2.323V.572h1.909V17.5h-1.84zm.023-5.635v-.322c0-2.622-1.288-4.393-3.542-4.393-2.277 0-3.611 1.863-3.611 4.577 0 2.691 1.334 4.554 3.611 4.554 2.254 0 3.542-1.794 3.542-4.416zm12.743-5.934v2.116c.552-1.426 2.001-2.392 3.772-2.392 2.599 0 4.14 1.633 4.14 4.393V17.5h-1.909v-7.038c0-2.139-.943-3.243-2.76-3.243-1.771 0-3.174 1.127-3.174 3.91V17.5h-1.909V5.931h1.84zm21.383 8.165c-.529 2.461-2.53 3.68-4.784 3.68-3.266 0-5.566-2.277-5.566-6.003 0-3.772 2.369-6.118 5.451-6.118 3.427 0 4.968 2.737 4.968 5.704v.759h-8.556c.092 2.668 1.495 4.14 3.703 4.14 1.564 0 2.507-.759 2.99-2.162h1.794zm-4.899-6.9c-1.817 0-3.197 1.173-3.519 3.542h6.624c-.046-2.001-1.035-3.542-3.105-3.542zm15.819-1.265l2.622 9.499h.046l2.668-9.499h1.84L297.653 17.5h-1.978l-2.668-9.361h-.069l-2.622 9.361h-2.001l-3.496-11.569h1.886l2.691 9.499h.069l2.576-9.499h1.932zM315.879 17.5a10.108 10.108 0 01-.207-1.955c-.506 1.357-2.093 2.208-4.025 2.208-2.024 0-3.749-1.173-3.749-3.312 0-2.231 1.656-3.197 4.002-3.473l3.726-.483v-.667c0-1.84-1.127-2.622-2.714-2.622-1.541 0-2.507.805-2.645 2.139h-1.84c.23-2.346 2.07-3.68 4.531-3.68 2.806 0 4.554 1.334 4.554 4.117v5.313c0 .851.046 1.656.276 2.415h-1.909zm-3.841-1.196c1.794 0 3.588-1.127 3.588-3.358v-1.035l-3.151.345c-1.449.207-2.645.575-2.645 2.139 0 1.081.759 1.909 2.208 1.909zm11.287-10.373v2.116c.552-1.426 2.001-2.392 3.772-2.392 2.599 0 4.14 1.633 4.14 4.393V17.5h-1.909v-7.038c0-2.139-.943-3.243-2.76-3.243-1.771 0-3.174 1.127-3.174 3.91V17.5h-1.909V5.931h1.84zM343.42 17.5v-2.024c-.575 1.173-2.001 2.3-3.91 2.3-2.944 0-5.152-2.392-5.152-6.049 0-3.68 2.208-6.072 5.152-6.072 2.001 0 3.312 1.15 3.841 2.323V.572h1.909V17.5h-1.84zm.023-5.635v-.322c0-2.622-1.288-4.393-3.542-4.393-2.277 0-3.611 1.863-3.611 4.577 0 2.691 1.334 4.554 3.611 4.554 2.254 0 3.542-1.794 3.542-4.416zm20.402 2.231c-.529 2.461-2.53 3.68-4.784 3.68-3.266 0-5.566-2.277-5.566-6.003 0-3.772 2.369-6.118 5.451-6.118 3.427 0 4.968 2.737 4.968 5.704v.759h-8.556c.092 2.668 1.495 4.14 3.703 4.14 1.564 0 2.507-.759 2.99-2.162h1.794zm-4.899-6.9c-1.817 0-3.197 1.173-3.519 3.542h6.624c-.046-2.001-1.035-3.542-3.105-3.542zm8.56 10.304h-2.047l4.393-5.957-4.163-5.612h2.254l3.082 4.255 3.059-4.255h2.07l-4.094 5.52 4.462 6.049h-2.231l-3.427-4.646-3.358 4.646zm11.768-13.984V1.193h2.162v2.323h-2.162zm.138 13.984V5.931h1.909V17.5h-1.909zm5.008-3.427h1.84c.138 1.587 1.61 2.254 3.174 2.254 1.587 0 2.737-.736 2.737-1.978 0-.851-.552-1.403-2.024-1.679l-2.047-.414c-1.863-.345-3.22-1.104-3.22-3.128 0-1.955 1.748-3.473 4.301-3.473 2.668 0 4.301 1.15 4.531 3.335h-1.771c-.138-1.173-1.173-1.863-2.76-1.863-1.541 0-2.53.759-2.53 1.886 0 .989.69 1.403 2.024 1.656l2.3.437c1.886.368 2.99 1.288 2.99 3.151 0 2.024-1.909 3.519-4.508 3.519-2.76 0-4.83-1.219-5.037-3.703zm18.231 1.725v1.564c-.851.253-1.518.322-2.024.322-2.116 0-3.197-1.012-3.197-3.151V7.38h-1.702V5.931h1.702V2.987h1.886v2.944h3.036V7.38h-3.059v7.061c0 1.219.621 1.633 1.679 1.633.437 0 .943-.046 1.679-.276zm2.97-12.282V1.193h2.162v2.323h-2.162zm.138 13.984V5.931h1.909V17.5h-1.909zm7.837-11.569v2.116c.552-1.426 2.001-2.392 3.772-2.392 2.599 0 4.14 1.633 4.14 4.393V17.5h-1.909v-7.038c0-2.139-.943-3.243-2.76-3.243-1.771 0-3.174 1.127-3.174 3.91V17.5h-1.909V5.931h1.84zm19.98 10.833v-1.702c-.529 1.127-1.817 2.231-3.841 2.231-2.967 0-5.129-2.231-5.129-5.842 0-3.473 2.162-5.796 5.129-5.796 2.024 0 3.358 1.196 3.91 2.3V5.931h1.863v10.695c0 3.68-2.392 5.244-5.474 5.244-2.783 0-4.669-1.127-5.129-3.381h1.932c.391 1.449 1.61 1.909 3.174 1.909 2.277 0 3.565-1.219 3.565-3.634zm.138-5.037v-.552c0-2.392-1.495-4.025-3.634-4.025-2.254 0-3.588 1.725-3.588 4.301 0 2.553 1.334 4.324 3.588 4.324 2.139 0 3.634-1.656 3.634-4.048zm18.631-5.796l2.622 9.499h.046l2.668-9.499h1.84L456.025 17.5h-1.978l-2.668-9.361h-.069l-2.622 9.361h-2.001l-3.496-11.569h1.886l2.691 9.499h.069l2.576-9.499h1.932zm19.732 5.796c0 3.726-2.3 6.049-5.497 6.049s-5.497-2.323-5.497-6.049c0-3.726 2.3-6.072 5.497-6.072s5.497 2.346 5.497 6.072zm-9.108 0c0 2.783 1.357 4.508 3.611 4.508 2.254 0 3.611-1.725 3.611-4.508s-1.357-4.531-3.611-4.531c-2.254 0-3.611 1.748-3.611 4.531zm18.768-5.957v1.748c-.276-.069-.69-.092-.989-.092-1.84 0-3.519 1.449-3.519 4.37V17.5h-1.909V5.931h1.84v2.737c.506-1.909 1.978-2.99 3.68-2.99.299 0 .621.023.897.092zm10.23 11.73l-4.393-5.451-1.495 1.449V17.5h-1.909V.572h1.909v10.902l5.704-5.543h2.277l-5.106 4.899 5.313 6.67h-2.3zm14.213-3.404c-.529 2.461-2.53 3.68-4.784 3.68-3.266 0-5.566-2.277-5.566-6.003 0-3.772 2.369-6.118 5.451-6.118 3.427 0 4.968 2.737 4.968 5.704v.759h-8.556c.092 2.668 1.495 4.14 3.703 4.14 1.564 0 2.507-.759 2.99-2.162h1.794zm-4.899-6.9c-1.817 0-3.197 1.173-3.519 3.542h6.624c-.046-2.001-1.035-3.542-3.105-3.542zm14.62-1.426v1.748c-.276-.069-.69-.092-.989-.092-1.84 0-3.519 1.449-3.519 4.37V17.5h-1.909V5.931h1.84v2.737c.506-1.909 1.978-2.99 3.68-2.99.299 0 .621.023.897.092zm1.443 8.303h1.84c.138 1.587 1.61 2.254 3.174 2.254 1.587 0 2.737-.736 2.737-1.978 0-.851-.552-1.403-2.024-1.679l-2.047-.414c-1.863-.345-3.22-1.104-3.22-3.128 0-1.955 1.748-3.473 4.301-3.473 2.668 0 4.301 1.15 4.531 3.335h-1.771c-.138-1.173-1.173-1.863-2.76-1.863-1.541 0-2.53.759-2.53 1.886 0 .989.69 1.403 2.024 1.656l2.3.437c1.886.368 2.99 1.288 2.99 3.151 0 2.024-1.909 3.519-4.508 3.519-2.76 0-4.83-1.219-5.037-3.703z" fill="#000"/></svg>