<svg width="216" height="95" viewBox="0 0 216 95" fill="none" xmlns="http://www.w3.org/2000/svg"><path d="M.944 19.796v-5.248c15.616 0 20.992-4.48 23.168-13.952h3.968V92.5H20.4V19.796H.944zM91.158 8.148H37.526v-7.04h62.848v4.864C78.358 32.724 70.166 60.628 69.782 92.5h-8.32c.384-33.152 12.16-62.08 29.696-84.352zm46.141 30.72c-10.496 0-17.536 5.248-21.248 11.392h-6.912l4.992-49.152h49.664v7.04h-44.032l-3.456 33.792c4.096-5.504 12.416-9.856 20.864-9.856 19.2 0 30.848 13.952 30.848 30.976 0 17.28-11.52 30.976-30.72 30.976-17.28 0-30.464-10.752-31.872-28.416h7.552c1.024 12.8 10.24 21.632 24.448 21.632 15.872 0 23.168-11.648 23.168-24.32 0-12.544-7.424-24.064-23.296-24.064zm77.893 34.496h-14.464v14.528h-4.352V73.364h-14.528v-4.352h14.528V54.484h4.352v14.528h14.464v4.352z" fill="#000"/></svg>