<svg width="299" height="22" viewBox="0 0 299 22" fill="none" xmlns="http://www.w3.org/2000/svg"><path d="M2.577 1.078l8.763 13.11h.046V1.078h1.909V17.5h-1.84L2.117 3.493h-.046V17.5H.139V1.078h2.438zm24.421 13.018c-.529 2.461-2.53 3.68-4.784 3.68-3.266 0-5.566-2.277-5.566-6.003 0-3.772 2.37-6.118 5.451-6.118 3.427 0 4.968 2.737 4.968 5.704v.759h-8.556c.092 2.668 1.495 4.14 3.703 4.14 1.564 0 2.507-.759 2.99-2.162h1.794zm-4.899-6.9c-1.817 0-3.197 1.173-3.519 3.542h6.624c-.046-2.001-1.035-3.542-3.105-3.542zm15.82-1.265l2.621 9.499h.046l2.668-9.499h1.84L41.598 17.5H39.62l-2.668-9.361h-.069L34.261 17.5h-2L28.763 5.931h1.886l2.691 9.499h.07l2.575-9.499h1.932zm16.73 9.545v6.118H52.74V5.931h1.84v2.116c.53-1.173 1.91-2.392 3.91-2.392 2.944 0 5.152 2.392 5.152 6.072 0 3.657-2.208 6.049-5.152 6.049-1.909 0-3.266-1.127-3.84-2.3zm-.092-3.933v.322c0 2.622 1.288 4.416 3.542 4.416 2.277 0 3.611-1.863 3.611-4.554 0-2.714-1.334-4.577-3.61-4.577-2.255 0-3.543 1.771-3.543 4.393zm18.75-5.773v1.748c-.275-.069-.69-.092-.988-.092-1.84 0-3.52 1.449-3.52 4.37V17.5h-1.908V5.931h1.84v2.737c.506-1.909 1.978-2.99 3.68-2.99.299 0 .62.023.897.092zm12.352 5.957c0 3.726-2.3 6.049-5.497 6.049s-5.497-2.323-5.497-6.049c0-3.726 2.3-6.072 5.497-6.072s5.497 2.346 5.497 6.072zm-9.108 0c0 2.783 1.357 4.508 3.61 4.508 2.255 0 3.612-1.725 3.612-4.508s-1.357-4.531-3.611-4.531c-2.254 0-3.611 1.748-3.611 4.531zM97.136 17.5v-2.024c-.575 1.173-2.001 2.3-3.91 2.3-2.944 0-5.152-2.392-5.152-6.049 0-3.68 2.208-6.072 5.152-6.072 2 0 3.312 1.15 3.84 2.323V.572h1.91V17.5h-1.84zm.023-5.635v-.322c0-2.622-1.288-4.393-3.542-4.393-2.277 0-3.611 1.863-3.611 4.577 0 2.691 1.334 4.554 3.61 4.554 2.255 0 3.543-1.794 3.543-4.416zm15.438 5.635h-1.863v-2.093c-.552 1.449-1.932 2.369-3.68 2.369-2.622 0-4.094-1.587-4.094-4.393V5.931h1.932v7.084c0 2.139.897 3.266 2.714 3.266 1.748 0 3.059-1.196 3.059-3.979V5.931h1.932V17.5zm3.239-5.773c0-3.703 2.231-6.072 5.451-6.072 2.576 0 4.278 1.472 4.646 3.933h-1.817c-.322-1.541-1.265-2.392-2.829-2.392-2.277 0-3.565 1.817-3.565 4.531 0 2.714 1.288 4.508 3.565 4.508 1.564 0 2.507-.851 2.829-2.392h1.817c-.368 2.484-2.07 3.933-4.646 3.933-3.22 0-5.451-2.346-5.451-6.049zm18.631 4.071v1.564c-.851.253-1.518.322-2.024.322-2.116 0-3.197-1.012-3.197-3.151V7.38h-1.702V5.931h1.702V2.987h1.886v2.944h3.036V7.38h-3.059v7.061c0 1.219.621 1.633 1.679 1.633.437 0 .943-.046 1.679-.276zm17.594-1.702c-.529 2.461-2.53 3.68-4.784 3.68-3.266 0-5.566-2.277-5.566-6.003 0-3.772 2.369-6.118 5.451-6.118 3.427 0 4.968 2.737 4.968 5.704v.759h-8.556c.092 2.668 1.495 4.14 3.703 4.14 1.564 0 2.507-.759 2.99-2.162h1.794zm-4.899-6.9c-1.817 0-3.197 1.173-3.519 3.542h6.624c-.046-2.001-1.035-3.542-3.105-3.542zm10.042-1.265v2.116c.552-1.426 2.001-2.392 3.772-2.392 2.599 0 4.14 1.633 4.14 4.393V17.5h-1.909v-7.038c0-2.139-.943-3.243-2.76-3.243-1.771 0-3.174 1.127-3.174 3.91V17.5h-1.909V5.931h1.84zm13.793 2.116c.552-1.472 1.932-2.392 3.703-2.392 2.599 0 4.14 1.633 4.14 4.393V17.5h-1.909v-7.038c0-2.139-.943-3.243-2.76-3.243-1.771 0-3.174 1.127-3.174 3.91V17.5h-1.909V.572h1.909v7.475zm18.899 9.453a10.108 10.108 0 01-.207-1.955c-.506 1.357-2.093 2.208-4.025 2.208-2.024 0-3.749-1.173-3.749-3.312 0-2.231 1.656-3.197 4.002-3.473l3.726-.483v-.667c0-1.84-1.127-2.622-2.714-2.622-1.541 0-2.507.805-2.645 2.139h-1.84c.23-2.346 2.07-3.68 4.531-3.68 2.806 0 4.554 1.334 4.554 4.117v5.313c0 .851.046 1.656.276 2.415h-1.909zm-3.841-1.196c1.794 0 3.588-1.127 3.588-3.358v-1.035l-3.151.345c-1.449.207-2.645.575-2.645 2.139 0 1.081.759 1.909 2.208 1.909zm11.287-10.373v2.116c.552-1.426 2.001-2.392 3.772-2.392 2.599 0 4.14 1.633 4.14 4.393V17.5h-1.909v-7.038c0-2.139-.943-3.243-2.76-3.243-1.771 0-3.174 1.127-3.174 3.91V17.5h-1.909V5.931h1.84zm11.033 5.796c0-3.703 2.231-6.072 5.451-6.072 2.576 0 4.278 1.472 4.646 3.933h-1.817c-.322-1.541-1.265-2.392-2.829-2.392-2.277 0-3.565 1.817-3.565 4.531 0 2.714 1.288 4.508 3.565 4.508 1.564 0 2.507-.851 2.829-2.392h1.817c-.368 2.484-2.07 3.933-4.646 3.933-3.22 0-5.451-2.346-5.451-6.049zm22.748 2.369c-.529 2.461-2.53 3.68-4.784 3.68-3.266 0-5.566-2.277-5.566-6.003 0-3.772 2.369-6.118 5.451-6.118 3.427 0 4.968 2.737 4.968 5.704v.759h-8.556c.092 2.668 1.495 4.14 3.703 4.14 1.564 0 2.507-.759 2.99-2.162h1.794zm-4.899-6.9c-1.817 0-3.197 1.173-3.519 3.542h6.624c-.046-2.001-1.035-3.542-3.105-3.542zm17.219.943c.713-1.564 2.185-2.484 3.887-2.484 2.668 0 3.979 1.679 3.979 4.393V17.5h-1.932v-7.038c0-2.162-.782-3.243-2.507-3.243s-3.036 1.242-3.036 3.91V17.5h-1.932v-7.038c0-2.162-.759-3.243-2.507-3.243-1.748 0-3.059 1.242-3.059 3.91V17.5h-1.909V5.931h1.84v2.116c.552-1.472 1.978-2.392 3.657-2.392 1.955 0 3.013.943 3.519 2.484zm21.327 5.957c-.529 2.461-2.53 3.68-4.784 3.68-3.266 0-5.566-2.277-5.566-6.003 0-3.772 2.369-6.118 5.451-6.118 3.427 0 4.968 2.737 4.968 5.704v.759h-8.556c.092 2.668 1.495 4.14 3.703 4.14 1.564 0 2.507-.759 2.99-2.162h1.794zm-4.899-6.9c-1.817 0-3.197 1.173-3.519 3.542h6.624c-.046-2.001-1.035-3.542-3.105-3.542zm10.042-1.265v2.116c.552-1.426 2.001-2.392 3.772-2.392 2.599 0 4.14 1.633 4.14 4.393V17.5h-1.909v-7.038c0-2.139-.943-3.243-2.76-3.243-1.771 0-3.174 1.127-3.174 3.91V17.5h-1.909V5.931h1.84zm17.266 9.867v1.564c-.851.253-1.518.322-2.024.322-2.116 0-3.197-1.012-3.197-3.151V7.38h-1.702V5.931h1.702V2.987h1.886v2.944h3.036V7.38h-3.059v7.061c0 1.219.621 1.633 1.679 1.633.437 0 .943-.046 1.679-.276zm2.119-1.725h1.84c.138 1.587 1.61 2.254 3.174 2.254 1.587 0 2.737-.736 2.737-1.978 0-.851-.552-1.403-2.024-1.679l-2.047-.414c-1.863-.345-3.22-1.104-3.22-3.128 0-1.955 1.748-3.473 4.301-3.473 2.668 0 4.301 1.15 4.531 3.335h-1.771c-.138-1.173-1.173-1.863-2.76-1.863-1.541 0-2.53.759-2.53 1.886 0 .989.69 1.403 2.024 1.656l2.3.437c1.886.368 2.99 1.288 2.99 3.151 0 2.024-1.909 3.519-4.508 3.519-2.76 0-4.83-1.219-5.037-3.703z" fill="#000"/></svg>