<svg width="267" height="22" viewBox="0 0 267 22" fill="none" xmlns="http://www.w3.org/2000/svg"><path d="M13.869 17.5l-1.817-4.577H4.186L2.369 17.5H.391L7.038 1.078h2.231l6.67 16.422h-2.07zM8.096 3.056L4.83 11.29h6.578L8.165 3.056h-.069zM21.214 17.5L16.591 5.931h1.955l3.726 9.683h.046l3.565-9.683h1.91L23.352 17.5h-2.139zm18.408-3.404c-.529 2.461-2.53 3.68-4.784 3.68-3.266 0-5.566-2.277-5.566-6.003 0-3.772 2.37-6.118 5.451-6.118 3.427 0 4.968 2.737 4.968 5.704v.759h-8.556c.092 2.668 1.495 4.14 3.703 4.14 1.564 0 2.507-.759 2.99-2.162h1.794zm-4.899-6.9c-1.817 0-3.197 1.173-3.519 3.542h6.624c-.046-2.001-1.035-3.542-3.105-3.542zm14.62-1.426v1.748c-.276-.069-.69-.092-.99-.092-1.84 0-3.518 1.449-3.518 4.37V17.5h-1.91V5.931h1.84v2.737c.507-1.909 1.979-2.99 3.68-2.99.3 0 .622.023.898.092zm9.516 11.73a10.108 10.108 0 01-.206-1.955c-.506 1.357-2.093 2.208-4.026 2.208-2.024 0-3.748-1.173-3.748-3.312 0-2.231 1.656-3.197 4.002-3.473l3.725-.483v-.667c0-1.84-1.127-2.622-2.714-2.622-1.54 0-2.507.805-2.645 2.139h-1.84c.23-2.346 2.07-3.68 4.532-3.68 2.806 0 4.553 1.334 4.553 4.117v5.313c0 .851.047 1.656.277 2.415h-1.91zm-3.84-1.196c1.794 0 3.587-1.127 3.587-3.358v-1.035l-3.15.345c-1.45.207-2.646.575-2.646 2.139 0 1.081.76 1.909 2.209 1.909zm17.543.46v-1.702c-.53 1.127-1.817 2.231-3.841 2.231-2.967 0-5.13-2.231-5.13-5.842 0-3.473 2.163-5.796 5.13-5.796 2.024 0 3.358 1.196 3.91 2.3V5.931h1.863v10.695c0 3.68-2.392 5.244-5.474 5.244-2.783 0-4.67-1.127-5.13-3.381h1.933c.39 1.449 1.61 1.909 3.174 1.909 2.277 0 3.565-1.219 3.565-3.634zm.138-5.037v-.552c0-2.392-1.495-4.025-3.634-4.025-2.254 0-3.588 1.725-3.588 4.301 0 2.553 1.334 4.324 3.588 4.324 2.139 0 3.634-1.656 3.634-4.048zm15.393 2.369c-.53 2.461-2.53 3.68-4.784 3.68-3.266 0-5.566-2.277-5.566-6.003 0-3.772 2.369-6.118 5.45-6.118 3.428 0 4.969 2.737 4.969 5.704v.759h-8.556c.092 2.668 1.495 4.14 3.703 4.14 1.564 0 2.507-.759 2.99-2.162h1.794zm-4.9-6.9c-1.816 0-3.196 1.173-3.518 3.542h6.624c-.046-2.001-1.035-3.542-3.105-3.542zm12.293 2.07c0-5.152 3.243-8.464 7.59-8.464 3.657 0 5.842 2.024 6.417 5.06h-1.978c-.437-2.047-1.932-3.381-4.439-3.381-3.496 0-5.566 2.691-5.566 6.785s2.024 6.831 5.497 6.831c2.76 0 4.807-1.702 4.807-4.37v-.851h-3.887V9.312h5.819V17.5h-1.564l-.184-2.737c-.621 1.771-2.829 3.013-5.014 3.013-4.347 0-7.498-3.335-7.498-8.51zm28.039-3.68c0 3.082-2.553 4.462-5.014 6.049-2.001 1.334-3.979 2.714-3.979 4.209h9.154V17.5h-11.27v-.897c0-2.921 2.829-4.968 5.267-6.486 2.185-1.403 3.956-2.622 3.956-4.531 0-1.564-.897-3.128-3.335-3.128-2.254 0-3.565 1.702-3.703 3.68h-1.863c.161-2.898 2.139-5.336 5.589-5.336 3.45 0 5.198 2.346 5.198 4.784zm14.584.184v1.748c-.276-.069-.69-.092-.989-.092-1.84 0-3.519 1.449-3.519 4.37V17.5h-1.909V5.931h1.84v2.737c.506-1.909 1.978-2.99 3.68-2.99.299 0 .621.023.897.092zm11.707 8.326c-.529 2.461-2.53 3.68-4.784 3.68-3.266 0-5.566-2.277-5.566-6.003 0-3.772 2.369-6.118 5.451-6.118 3.427 0 4.968 2.737 4.968 5.704v.759h-8.556c.092 2.668 1.495 4.14 3.703 4.14 1.564 0 2.507-.759 2.99-2.162h1.794zm-4.899-6.9c-1.817 0-3.197 1.173-3.519 3.542h6.624c-.046-2.001-1.035-3.542-3.105-3.542zM156.07 17.5l-4.623-11.569h1.955l3.726 9.683h.046l3.565-9.683h1.909L158.209 17.5h-2.139zm9.152-13.984V1.193h2.162v2.323h-2.162zm.138 13.984V5.931h1.909V17.5h-1.909zm15.497-3.404c-.529 2.461-2.53 3.68-4.784 3.68-3.266 0-5.566-2.277-5.566-6.003 0-3.772 2.369-6.118 5.451-6.118 3.427 0 4.968 2.737 4.968 5.704v.759h-8.556c.092 2.668 1.495 4.14 3.703 4.14 1.564 0 2.507-.759 2.99-2.162h1.794zm-4.899-6.9c-1.817 0-3.197 1.173-3.519 3.542h6.624c-.046-2.001-1.035-3.542-3.105-3.542zm15.819-1.265l2.622 9.499h.046l2.668-9.499h1.84L195.457 17.5h-1.978l-2.668-9.361h-.069L188.12 17.5h-2.001l-3.496-11.569h1.886l2.691 9.499h.069l2.576-9.499h1.932zm21.239-.161v1.748c-.276-.069-.69-.092-.989-.092-1.84 0-3.519 1.449-3.519 4.37V17.5h-1.909V5.931h1.84v2.737c.506-1.909 1.978-2.99 3.68-2.99.299 0 .621.023.897.092zm9.516 11.73a10.108 10.108 0 01-.207-1.955c-.506 1.357-2.093 2.208-4.025 2.208-2.024 0-3.749-1.173-3.749-3.312 0-2.231 1.656-3.197 4.002-3.473l3.726-.483v-.667c0-1.84-1.127-2.622-2.714-2.622-1.541 0-2.507.805-2.645 2.139h-1.84c.23-2.346 2.07-3.68 4.531-3.68 2.806 0 4.554 1.334 4.554 4.117v5.313c0 .851.046 1.656.276 2.415h-1.909zm-3.841-1.196c1.794 0 3.588-1.127 3.588-3.358v-1.035l-3.151.345c-1.449.207-2.645.575-2.645 2.139 0 1.081.759 1.909 2.208 1.909zm14.83-.506v1.564c-.851.253-1.518.322-2.024.322-2.116 0-3.197-1.012-3.197-3.151V7.38h-1.702V5.931h1.702V2.987h1.886v2.944h3.036V7.38h-3.059v7.061c0 1.219.621 1.633 1.679 1.633.437 0 .943-.046 1.679-.276zm2.97-12.282V1.193h2.162v2.323h-2.162zm.138 13.984V5.931h1.909V17.5h-1.909zm7.837-11.569v2.116c.552-1.426 2.001-2.392 3.772-2.392 2.599 0 4.14 1.633 4.14 4.393V17.5h-1.909v-7.038c0-2.139-.943-3.243-2.76-3.243-1.771 0-3.174 1.127-3.174 3.91V17.5h-1.909V5.931h1.84zm19.98 10.833v-1.702c-.529 1.127-1.817 2.231-3.841 2.231-2.967 0-5.129-2.231-5.129-5.842 0-3.473 2.162-5.796 5.129-5.796 2.024 0 3.358 1.196 3.91 2.3V5.931h1.863v10.695c0 3.68-2.392 5.244-5.474 5.244-2.783 0-4.669-1.127-5.129-3.381h1.932c.391 1.449 1.61 1.909 3.174 1.909 2.277 0 3.565-1.219 3.565-3.634zm.138-5.037v-.552c0-2.392-1.495-4.025-3.634-4.025-2.254 0-3.588 1.725-3.588 4.301 0 2.553 1.334 4.324 3.588 4.324 2.139 0 3.634-1.656 3.634-4.048z" fill="#000"/></svg>