<svg width="169" height="96" viewBox="0 0 169 96" fill="none" xmlns="http://www.w3.org/2000/svg"><path d="M53.112 2.108v58.624h20.352v6.4H53.112V93.5H45.56V67.132H.12v-6.528L44.024 2.108h9.088zM45.56 10.94L8.312 60.732H45.56V10.94zM80.885 93.5V82.364h11.008V93.5H80.885zM135.213.572c16.512 0 29.056 9.472 29.056 24.96 0 10.624-6.016 18.048-15.488 21.632 10.112 1.792 19.712 10.624 19.712 21.504 0 15.488-12.928 26.368-33.28 26.368-20.224 0-33.152-10.88-33.152-26.368 0-10.88 9.6-19.712 19.712-21.504-9.472-3.584-15.616-11.008-15.616-21.632 0-15.488 12.672-24.96 29.056-24.96zm0 42.752c11.776 0 21.76-5.76 21.76-18.048 0-12.16-9.984-17.92-21.76-17.92-11.648 0-21.632 5.76-21.632 17.92 0 12.288 9.984 18.048 21.632 18.048zm0 44.928c15.616 0 25.216-7.552 25.216-19.2 0-11.52-9.6-18.816-25.216-18.816-15.488 0-25.088 7.296-25.088 18.816 0 11.648 9.6 19.2 25.088 19.2z" fill="#000"/></svg>