<svg width="161" height="66" viewBox="0 0 161 66" fill="none" xmlns="http://www.w3.org/2000/svg"><path d="M148.446 63.4v1.719h-8.597V63.4c2.388 0 2.587-.08 2.587-.759V39.783c0-.839-.199-.959-.915-1.278l-1.831-.84v-.879l5.612-1.638h.557v14.346c1.194-1.559 3.781-3.557 6.487-3.557 3.861 0 5.373 3.117 5.373 6.674v10.03c0 .68.199.76 2.587.76v1.718h-8.597V63.4c2.388 0 2.587-.08 2.587-.759v-9.71c0-2.798-1.154-4.396-3.621-4.396-1.911 0-3.702 1.159-4.816 2.358V62.64c0 .68.199.76 2.587.76zM139.152 62.401a7.514 7.514 0 01-6.089 3.117c-2.866 0-5.015-1.878-5.015-4.515V48.295h-2.547v-1.958h2.547v-4.795l3.423-1v5.795h5.93v1.958h-5.93v11.749c0 2.078 1.074 3.077 2.985 3.077 1.393 0 2.547-.76 3.661-1.998l1.035 1.278zM117.44 39.264a2.503 2.503 0 012.508-2.518 2.502 2.502 0 012.507 2.518 2.502 2.502 0 01-2.507 2.517 2.503 2.503 0 01-2.508-2.517zm.876 11.309c0-.84-.199-.96-.915-1.279l-1.831-.84v-.878l5.612-1.639h.557v16.704c0 .68.199.76 2.587.76v1.718h-8.597V63.4c2.388 0 2.587-.08 2.587-.759V50.573zM105.122 65.318l-4.577-14.066h-.159l-4.458 14.066h-1.99l-5.452-16.503c-.2-.64-.518-.76-2.468-.76v-1.718h8.438v1.718c-2.269.08-2.508.12-2.508.52 0 .16.08.4.16.6l3.462 11.268h.16l4.417-14.106h1.95l4.537 14.146h.159l3.622-11.309c.08-.2.159-.44.159-.6 0-.399-.238-.439-2.507-.519v-1.718h6.925v1.718c-1.95 0-2.229.12-2.428.76l-5.452 16.503h-1.99zM69.022 65.318l-4.577-14.066h-.159l-4.458 14.066h-1.99l-5.452-16.503c-.199-.64-.517-.76-2.468-.76v-1.718h8.438v1.718c-2.269.08-2.507.12-2.507.52 0 .16.08.4.159.6l3.462 11.268h.16l4.417-14.106h1.95l4.537 14.146h.16l3.621-11.309c.08-.2.16-.44.16-.6 0-.399-.24-.439-2.508-.519v-1.718h6.925v1.718c-1.95 0-2.228.12-2.427.76l-5.453 16.503h-1.99zM49.142 61.282c-1.354 2.718-4.22 4.236-7.164 4.236-4.537 0-8.637-3.596-8.637-9.59 0-5.835 4.1-9.99 8.597-9.99 4.855 0 7.124 3.556 7.124 7.991v1.28H36.724v.12c0 5.154 2.826 7.791 6.01 7.791 2.07 0 3.423-.799 4.935-2.877l1.473 1.04zm-7.363-13.387c-2.348 0-4.418 1.918-4.935 5.555h8.875c-.04-3.397-1.114-5.555-3.94-5.555zM27.749 63.4v1.718h-9.791V63.4c2.388 0 2.587-.08 2.587-.759V50.573c0-.84-.199-.96-.915-1.279l-1.831-.84v-.878l5.611-1.639h.558v5.315c1.194-2.038 3.661-5.315 5.93-5.315 1.751 0 2.627 1.2 2.627 2.398 0 1.399-.956 2.158-2.15 2.158-1.114 0-1.591-1.16-2.507-1.16-1.114.08-2.826 2.079-3.9 3.677v9.551c0 .76.199.84 3.78.84zM9.42 48.015c-2.825 0-5.213 3.037-5.213 7.513 0 4.995 2.626 7.593 5.492 7.593 2.229 0 3.701-1.08 5.015-3.317l1.552.959c-1.393 2.837-3.86 4.755-7.204 4.755-4.338 0-8.318-3.317-8.318-9.31 0-5.835 4.418-10.27 9.154-10.27 3.423 0 5.85 1.957 5.85 3.796 0 1.238-.875 1.878-1.79 1.878-2.309 0-1.473-3.597-4.538-3.597zM139.311 25.174v1.718h-9.79v-1.718c2.387 0 2.586-.08 2.586-.76V12.348c0-.84-.199-.96-.915-1.28l-1.831-.838v-.88l5.612-1.638h.557v5.315c1.194-2.038 3.662-5.315 5.93-5.315 1.752 0 2.627 1.199 2.627 2.398 0 1.399-.955 2.158-2.149 2.158-1.114 0-1.592-1.16-2.507-1.16-1.115.08-2.826 2.079-3.901 3.677v9.551c0 .76.199.84 3.781.84zM128.027 26.453l-5.612.84h-.557v-3.358c-1.194 1.559-3.383 3.357-5.97 3.357-3.462 0-5.492-2.597-5.492-6.673v-9.072c0-.839-.159-1.118-.915-1.278l-1.911-.36V8.51l5.692-.4h.557V20.38c0 2.917 1.273 4.396 3.502 4.396 1.831 0 3.383-1.08 4.537-2.358v-10.87c0-.839-.159-1.118-.915-1.278l-1.91-.36V8.51l5.691-.4h.557v15.346c0 .84.199.959.915 1.279l1.831.839v.879zM88.764 17.502c0-5.915 3.94-9.79 8.676-9.79 4.737 0 8.677 3.875 8.677 9.79 0 5.914-3.94 9.79-8.677 9.79-4.736 0-8.676-3.876-8.676-9.79zm13.691 0c0-4.836-1.751-7.793-5.015-7.793-3.263 0-5.014 2.957-5.014 7.793 0 4.835 1.75 7.792 5.014 7.792 3.264 0 5.015-2.957 5.015-7.792zM78.992 27.652c-1.83 4.555-3.98 8.112-7.482 8.112-1.592 0-2.945-.96-2.945-2.478 0-1.239.995-1.918 1.91-1.918 1.553 0 1.95 1.838 2.786 1.838 1.194 0 2.587-2.277 4.18-6.314l-6.727-16.304c-.239-.639-.517-.759-2.467-.759V8.111h8.596v1.718c-2.268.08-2.507.12-2.507.52 0 .16.08.4.16.6l4.496 11.588h.12l4.537-11.589c.08-.2.16-.44.16-.6 0-.399-.24-.439-2.508-.519V8.111h7.044v1.718c-1.95 0-2.189.12-2.427.76l-6.926 17.063zM51.769 27.652c-1.831 4.555-3.98 8.112-7.483 8.112-1.592 0-2.945-.96-2.945-2.478 0-1.239.995-1.918 1.91-1.918 1.553 0 1.95 1.838 2.787 1.838 1.194 0 2.587-2.277 4.179-6.314L43.49 10.588c-.238-.639-.517-.759-2.467-.759V8.111h8.597v1.718c-2.269.08-2.508.12-2.508.52 0 .16.08.4.16.6l4.497 11.588h.12l4.536-11.589c.08-.2.16-.44.16-.6 0-.399-.24-.439-2.508-.519V8.111h7.045v1.718c-1.95 0-2.19.12-2.428.76l-6.925 17.063z" fill="#fff"/><path d="M38.574 27.292c-1.87 0-3.423-1.399-3.701-3.437-1.354 1.799-3.94 3.437-6.328 3.437-2.667 0-4.617-1.638-4.617-4.356 0-3.516 3.422-5.954 10.785-7.472v-2.478c0-2.238-1.154-3.437-3.383-3.437-1.711 0-3.104.84-3.104 1.719 0 .52.358.759.358 1.598 0 1.12-.835 1.918-1.99 1.918-1.074 0-2.07-.839-2.07-2.198 0-2.757 3.822-4.875 7.642-4.875 3.542 0 5.97 1.239 5.97 5.155v9.99c0 1.439.876 2.038 1.632 2.038.756 0 1.234-.28 1.79-.719l.598 1.239c-.836.999-2.229 1.878-3.582 1.878zm-3.86-10.11c-4.936 1.119-7.403 2.478-7.403 5.075 0 1.638 1.035 2.637 2.547 2.637 1.83 0 3.383-.879 4.855-2.397v-5.315zM3.888 24.095V3.315c0-.919-.477-1.038-3.582-1.038V.518H11.49c6.129 0 10.427 2.678 10.427 7.473s-4.298 7.473-10.427 7.473H7.63v8.631c0 .92.477 1.04 3.581 1.04h1.712v1.758H.306v-1.759c3.105 0 3.582-.12 3.582-1.039zm3.741-10.47h3.622c4.06 0 6.647-1.638 6.647-5.634 0-3.996-2.588-5.634-6.647-5.634H7.629v11.268z" fill="#fff"/></svg>