<svg width="109" height="30" viewBox="0 0 109 30" fill="none" xmlns="http://www.w3.org/2000/svg"><path d="M108.061 27.285c0 1.5-1.274 2.724-2.826 2.724s-2.826-1.224-2.826-2.724c0-1.5 1.274-2.803 2.826-2.803s2.826 1.303 2.826 2.803zM100.001 25.035c-2.667 3.276-5.572 4.974-7.602 4.974-1.234 0-2.11-.948-2.308-2.843l-.478-5.368c-1.273.197-2.547.355-3.741.355l-2.866 7.46h-3.382L89.693 5.22c.278-.71.438-1.342.438-1.618 0-.553-.28-.79-3.344-1.895l.319-.947 7.084-.75.796.355-6.607 15.197h.16c2.905-2.566 5.77-4.895 9.114-4.895 1.95 0 3.382 1.264 3.382 3.119 0 3.434-4.178 6.118-8.915 7.42l.916 5.093c.199.987.517 1.342 1.154 1.342 1.075 0 2.706-1.105 4.855-3.553l.956.948zm-4.538-11.96c-2.228 0-5.85 2.486-8 4.934L86.35 20.89c5.93-.197 11.382-2.881 11.382-6 0-1.303-.915-1.816-2.269-1.816zM75.941 12.364c-3.463 0-7.72 7.026-7.72 11.96 0 2.408.914 3.632 2.467 3.632 1.87 0 3.78-1.224 6.049-3.83l1.114 1.027c-2.507 3.079-5.452 4.855-7.96 4.855-3.064 0-5.014-1.934-5.014-5.644 0-5.96 6.05-13.698 11.82-13.698 2.587 0 3.98 1.382 3.98 3.198 0 1.302-.836 2.29-1.99 2.29-2.507 0-1.114-3.79-2.746-3.79zM61.234 4.074a2.487 2.487 0 012.508-2.486 2.487 2.487 0 110 4.973 2.487 2.487 0 01-2.508-2.487zm2.587 7.145l-5.69 12.869c-.956 2.131-1.115 2.486-1.115 2.96 0 .395.239.553.637.553 1.074 0 2.547-1.066 4.298-3.158l.955.947c-2.269 2.921-5.253 4.619-7.323 4.619-1.234 0-2.11-.671-2.11-1.777 0-.67.2-1.263.717-2.447l4.14-9.71c.318-.75.437-1.382.437-1.658 0-.514-.279-.75-3.343-1.856l.318-.947 7.244-.75.835.355zM56.08.364l-9.91 23.724c-.915 2.17-1.074 2.486-1.074 2.96 0 .395.238.553.636.553 1.075 0 2.468-1.066 4.219-3.158l.955.947c-2.268 2.921-5.134 4.619-7.203 4.619-1.234 0-2.11-.672-2.11-1.777 0-.67.24-1.263.717-2.447l8.477-20.566c.278-.71.438-1.342.438-1.618 0-.553-.279-.79-3.343-1.895L48.2.759l7.084-.75.796.355zM37.115 12.364c-3.463 0-7.721 7.026-7.721 11.96 0 2.408.915 3.632 2.467 3.632 1.871 0 3.781-1.224 6.05-3.83l1.114 1.027c-2.507 3.079-5.452 4.855-7.96 4.855-3.064 0-5.014-1.934-5.014-5.644 0-5.96 6.05-13.698 11.82-13.698 2.587 0 3.98 1.382 3.98 3.198 0 1.302-.836 2.29-1.99 2.29-2.507 0-1.114-3.79-2.746-3.79zM14.707 30.008c-1.871 0-3.423-1.381-3.702-3.394-1.353 1.776-3.94 3.394-6.328 3.394-2.666 0-4.616-1.618-4.616-4.302 0-3.474 3.422-5.882 10.785-7.382v-2.447c0-2.21-1.154-3.395-3.383-3.395-1.711 0-3.104.829-3.104 1.697 0 .514.358.75.358 1.58 0 1.105-.836 1.894-1.99 1.894-1.074 0-2.07-.829-2.07-2.171 0-2.724 3.821-4.816 7.642-4.816 3.542 0 5.97 1.224 5.97 5.092v9.869c0 1.42.875 2.013 1.631 2.013.757 0 1.234-.276 1.792-.71l.596 1.223c-.835.987-2.228 1.855-3.581 1.855zm-3.86-9.986c-4.936 1.105-7.404 2.447-7.404 5.013 0 1.618 1.035 2.605 2.548 2.605 1.83 0 3.383-.869 4.855-2.369v-5.25z" fill="#fff"/></svg>