<svg width="117" height="107" viewBox="0 0 117 107" fill="none" xmlns="http://www.w3.org/2000/svg"><g filter="url(#filter0_d_1313_2424944)"><path fill-rule="evenodd" clip-rule="evenodd" d="M37.07 51.576c-.77-.974-1.706-2.966-3.372-5.383-.944-1.367-3.285-3.942-3.983-5.25-.605-1.156-.54-1.674-.396-2.632.255-1.704 2.002-3.03 3.866-2.851 1.408.133 2.602 1.063 3.677 1.942.648.53 1.446 1.558 1.926 2.138.442.532.55.752 1.023 1.381.624.833.82 1.246.58.329-.192-1.346-.507-3.644-.963-5.676-.347-1.541-.431-1.783-.762-2.966-.35-1.259-.53-2.14-.857-3.475-.228-.944-.638-2.874-.75-3.959-.154-1.484-.235-3.904.717-5.017.746-.87 2.458-1.134 3.519-.596 1.389.702 2.179 2.72 2.54 3.527.648 1.449 1.05 3.123 1.4 5.32.444 2.797 1.264 6.68 1.29 7.497.066-1.002-.184-3.11-.01-4.07.157-.871.89-1.883 1.807-2.157.776-.23 1.685-.315 2.485-.15.85.174 1.745.782 2.078 1.355.983 1.693 1.002 5.152 1.042 4.967.234-1.02.193-3.334.77-4.297.38-.635 1.35-1.208 1.865-1.3.797-.14 1.777-.184 2.615-.021.676.132 1.59.936 1.837 1.32.591.934.928 3.574 1.028 4.5.041.382.201-1.064.795-1.998 1.102-1.733 5-2.07 5.15 1.734.068 1.774.054 1.693.054 2.887 0 1.403-.032 2.246-.108 3.261-.085 1.085-.318 3.538-.657 4.726-.233.817-1.007 2.654-1.769 3.755 0 0-2.914 3.392-3.231 4.92-.32 1.524-.215 1.535-.277 2.617-.062 1.08.328 2.502.328 2.502s-2.176.282-3.348.095c-1.06-.171-2.374-2.282-2.713-2.928-.467-.89-1.462-.719-1.85-.062-.61 1.04-1.924 2.903-2.852 3.02-1.812.228-5.573.084-8.516.054 0 0 .502-2.743-.616-3.684-.828-.703-2.252-2.127-3.104-2.876l-2.258-2.5z" fill="#fff"/><path clip-rule="evenodd" d="M37.07 51.576c-.77-.974-1.706-2.966-3.372-5.383-.944-1.367-3.285-3.942-3.983-5.25-.605-1.156-.54-1.674-.396-2.632.255-1.704 2.002-3.03 3.866-2.851 1.408.133 2.602 1.063 3.677 1.942.648.53 1.446 1.558 1.926 2.138.442.532.55.752 1.023 1.381.624.833.82 1.246.58.329-.192-1.346-.507-3.644-.963-5.676-.347-1.541-.431-1.783-.762-2.966-.35-1.259-.53-2.14-.857-3.475-.228-.944-.638-2.874-.75-3.959-.154-1.484-.235-3.904.717-5.017.746-.87 2.458-1.134 3.519-.596 1.389.702 2.179 2.72 2.54 3.527.648 1.449 1.05 3.123 1.4 5.32.444 2.797 1.264 6.68 1.29 7.497.066-1.002-.184-3.11-.01-4.07.157-.871.89-1.883 1.807-2.157.776-.23 1.685-.315 2.485-.15.85.174 1.745.782 2.078 1.355.983 1.693 1.002 5.152 1.042 4.967.234-1.02.193-3.334.77-4.297.38-.635 1.35-1.208 1.865-1.3.797-.14 1.777-.184 2.615-.021.676.132 1.59.936 1.837 1.32.591.934.928 3.574 1.028 4.5.041.382.201-1.064.795-1.998 1.102-1.733 5-2.07 5.15 1.734.068 1.774.054 1.693.054 2.887 0 1.403-.032 2.246-.108 3.261-.085 1.085-.318 3.538-.657 4.726-.233.817-1.007 2.654-1.769 3.755 0 0-2.914 3.392-3.231 4.92-.32 1.524-.215 1.535-.277 2.617-.062 1.08.328 2.502.328 2.502s-2.176.282-3.348.095c-1.06-.171-2.374-2.282-2.713-2.928-.467-.89-1.462-.719-1.85-.062-.61 1.04-1.924 2.903-2.852 3.02-1.812.228-5.573.084-8.516.054 0 0 .502-2.743-.616-3.684-.828-.703-2.252-2.127-3.104-2.876l-2.258-2.5z" stroke="#000" stroke-width="2.035" stroke-linecap="round" stroke-linejoin="round"/><path d="M59.414 52.537v-9.384M53.945 52.57l-.044-9.423M48.53 43.232l.056 9.296" stroke="#000" stroke-width="2.035" stroke-linecap="round"/></g><defs><filter id="filter0_d_1313_2424944" x=".71" y=".601" width="117.924" height="120.638" filterUnits="userSpaceOnUse" color-interpolation-filters="sRGB"><feFlood flood-opacity="0" result="BackgroundImageFix"/><feColorMatrix in="SourceAlpha" values="0 0 0 0 0 0 0 0 0 0 0 0 0 0 0 0 0 0 127 0" result="hardAlpha"/><feOffset dx="9.935" dy="19.87"/><feGaussianBlur stdDeviation="18.629"/><feComposite in2="hardAlpha" operator="out"/><feColorMatrix values="0 0 0 0 0 0 0 0 0 0 0 0 0 0 0 0 0 0 0.5 0"/><feBlend in2="BackgroundImageFix" result="effect1_dropShadow_1313_2424944"/><feBlend in="SourceGraphic" in2="effect1_dropShadow_1313_2424944" result="shape"/></filter></defs></svg>