<svg width="200" height="72" viewBox="0 0 200 72" fill="none" xmlns="http://www.w3.org/2000/svg"><path d="M.4 50.8v-3.968l27.968-14.4v4.032L4.176 48.816l24.192 12.352v4.096L.4 50.8zm34.218-35.328v-3.936c11.712 0 15.744-3.36 17.376-10.464h2.976V70h-5.76V15.472H34.618zm30.508 20.256C65.126 15.184 75.398.304 91.335.304c15.936 0 26.208 14.88 26.208 35.424 0 20.544-10.272 35.424-26.209 35.424-15.936 0-26.208-14.88-26.208-35.424zm5.856 0c0 17.568 6.912 29.952 20.353 29.952 13.44 0 20.352-12.384 20.352-29.952S104.775 5.776 91.335 5.776c-13.44 0-20.352 12.384-20.352 29.952zm77.225 14.736c1.488-3.264 4.56-5.184 8.112-5.184 5.568 0 8.304 3.504 8.304 9.168V70h-4.032V55.312c0-4.512-1.632-6.768-5.232-6.768-3.6 0-6.336 2.592-6.336 8.16V70h-4.032V55.312c0-4.512-1.584-6.768-5.232-6.768s-6.384 2.592-6.384 8.16V70h-3.984V45.856h3.84v4.416c1.152-3.072 4.128-4.992 7.632-4.992 4.08 0 6.288 1.968 7.344 5.184zm21.516-9.648v-4.848h4.512v4.848h-4.512zM170.011 70V45.856h3.984V70h-3.984zm13.476-24.144v4.416c1.152-2.976 4.176-4.992 7.872-4.992 5.424 0 8.64 3.408 8.64 9.168V70h-3.984V55.312c0-4.464-1.968-6.768-5.76-6.768-3.696 0-6.624 2.352-6.624 8.16V70h-3.984V45.856h3.84z" fill="#000"/></svg>