<svg width="175" height="35" viewBox="0 0 175 35" fill="none" xmlns="http://www.w3.org/2000/svg"><path d="M9.648 12L8.384 8.816H2.912L1.648 12H.272L4.896.576h1.552L11.088 12h-1.44zM5.632 1.952L3.36 7.68h4.576L5.68 1.952h-.048zM14.758 12l-3.216-8.048h1.36l2.592 6.736h.032l2.48-6.736h1.328L16.246 12h-1.488zm12.805-2.368c-.368 1.712-1.76 2.56-3.328 2.56-2.272 0-3.872-1.584-3.872-4.176 0-2.624 1.648-4.256 3.792-4.256 2.384 0 3.456 1.904 3.456 3.968v.528H21.66c.064 1.856 1.04 2.88 2.576 2.88 1.088 0 1.744-.528 2.08-1.504h1.248zm-3.408-4.8c-1.264 0-2.224.816-2.448 2.464h4.608c-.032-1.392-.72-2.464-2.16-2.464zm10.17-.992v1.216a3.238 3.238 0 00-.688-.064c-1.28 0-2.448 1.008-2.448 3.04V12h-1.328V3.952h1.28v1.904c.353-1.328 1.377-2.08 2.56-2.08.209 0 .432.016.624.064zm6.62 8.16a7.032 7.032 0 01-.143-1.36c-.352.944-1.456 1.536-2.8 1.536-1.408 0-2.608-.816-2.608-2.304 0-1.552 1.152-2.224 2.784-2.416l2.592-.336v-.464c0-1.28-.784-1.824-1.888-1.824-1.072 0-1.744.56-1.84 1.488h-1.28c.16-1.632 1.44-2.56 3.152-2.56 1.952 0 3.168.928 3.168 2.864v3.696c0 .592.032 1.152.192 1.68h-1.328zm-2.671-.832c1.248 0 2.496-.784 2.496-2.336v-.72l-2.192.24c-1.008.144-1.84.4-1.84 1.488 0 .752.528 1.328 1.536 1.328zm12.204.32v-1.184c-.368.784-1.264 1.552-2.672 1.552-2.064 0-3.568-1.552-3.568-4.064 0-2.416 1.504-4.032 3.568-4.032 1.408 0 2.336.832 2.72 1.6V3.952h1.296v7.44c0 2.56-1.664 3.648-3.808 3.648-1.936 0-3.248-.784-3.568-2.352h1.344c.272 1.008 1.12 1.328 2.208 1.328 1.584 0 2.48-.848 2.48-2.528zm.096-3.504V7.6c0-1.664-1.04-2.8-2.528-2.8-1.568 0-2.496 1.2-2.496 2.992 0 1.776.928 3.008 2.496 3.008 1.488 0 2.528-1.152 2.528-2.816zm10.708 1.648c-.368 1.712-1.76 2.56-3.328 2.56-2.272 0-3.872-1.584-3.872-4.176 0-2.624 1.648-4.256 3.792-4.256 2.384 0 3.456 1.904 3.456 3.968v.528h-5.952c.064 1.856 1.04 2.88 2.576 2.88 1.088 0 1.744-.528 2.08-1.504h1.248zm-3.408-4.8c-1.264 0-2.224.816-2.448 2.464h4.608c-.032-1.392-.72-2.464-2.16-2.464zm12.919 5.984v1.088a4.908 4.908 0 01-1.408.224c-1.472 0-2.224-.704-2.224-2.192V4.96h-1.184V3.952h1.184V1.904h1.312v2.048h2.112V4.96h-2.128v4.912c0 .848.432 1.136 1.168 1.136.304 0 .656-.032 1.168-.192zm2.066-8.544V.656h1.504v1.616H72.86zM72.955 12V3.952h1.328V12h-1.328zM83.4 5.488c.496-1.088 1.52-1.728 2.704-1.728 1.856 0 2.768 1.168 2.768 3.056V12h-1.344V7.104c0-1.504-.544-2.256-1.744-2.256s-2.112.864-2.112 2.72V12h-1.344V7.104c0-1.504-.528-2.256-1.744-2.256s-2.128.864-2.128 2.72V12h-1.328V3.952h1.28v1.472c.384-1.024 1.376-1.664 2.544-1.664 1.36 0 2.096.656 2.448 1.728zm14.836 4.144c-.368 1.712-1.76 2.56-3.328 2.56-2.272 0-3.872-1.584-3.872-4.176 0-2.624 1.648-4.256 3.792-4.256 2.384 0 3.456 1.904 3.456 3.968v.528h-5.952c.064 1.856 1.04 2.88 2.576 2.88 1.088 0 1.744-.528 2.08-1.504h1.248zm-3.408-4.8c-1.264 0-2.224.816-2.448 2.464h4.608c-.032-1.392-.72-2.464-2.16-2.464zm9.079-2.56V.656h1.504v1.616h-1.504zm.096 9.728V3.952h1.328V12h-1.328zm7.916-1.184v1.088a4.908 4.908 0 01-1.408.224c-1.472 0-2.224-.704-2.224-2.192V4.96h-1.184V3.952h1.184V1.904h1.312v2.048h2.112V4.96h-2.128v4.912c0 .848.432 1.136 1.168 1.136.304 0 .656-.032 1.168-.192zm9.375 0v1.088a4.908 4.908 0 01-1.408.224c-1.472 0-2.224-.704-2.224-2.192V4.96h-1.184V3.952h1.184V1.904h1.312v2.048h2.112V4.96h-2.128v4.912c0 .848.432 1.136 1.168 1.136.304 0 .656-.032 1.168-.192zm7.09 1.184a7.032 7.032 0 01-.144-1.36c-.352.944-1.456 1.536-2.8 1.536-1.408 0-2.608-.816-2.608-2.304 0-1.552 1.152-2.224 2.784-2.416l2.592-.336v-.464c0-1.28-.784-1.824-1.888-1.824-1.072 0-1.744.56-1.84 1.488h-1.28c.16-1.632 1.44-2.56 3.152-2.56 1.952 0 3.168.928 3.168 2.864v3.696c0 .592.032 1.152.192 1.68h-1.328zm-2.672-.832c1.248 0 2.496-.784 2.496-2.336v-.72l-2.192.24c-1.008.144-1.84.4-1.84 1.488 0 .752.528 1.328 1.536 1.328zm11.996.832l-3.056-3.792-1.04 1.008V12h-1.328V.224h1.328v7.584l3.968-3.856h1.584l-3.552 3.408 3.696 4.64h-1.6zm9.888-2.368c-.368 1.712-1.76 2.56-3.329 2.56-2.271 0-3.871-1.584-3.871-4.176 0-2.624 1.648-4.256 3.792-4.256 2.384 0 3.455 1.904 3.455 3.968v.528h-5.951c.064 1.856 1.04 2.88 2.575 2.88 1.089 0 1.745-.528 2.081-1.504h1.248zm-3.408-4.8c-1.264 0-2.224.816-2.448 2.464h4.608c-.032-1.392-.72-2.464-2.16-2.464zm5.096 4.784h1.28c.096 1.104 1.12 1.568 2.208 1.568 1.104 0 1.904-.512 1.904-1.376 0-.592-.384-.976-1.408-1.168l-1.424-.288c-1.296-.24-2.24-.768-2.24-2.176 0-1.36 1.216-2.416 2.992-2.416 1.856 0 2.992.8 3.152 2.32h-1.232c-.096-.816-.816-1.296-1.92-1.296-1.072 0-1.76.528-1.76 1.312 0 .688.48.976 1.408 1.152l1.6.304c1.312.256 2.08.896 2.08 2.192 0 1.408-1.328 2.448-3.136 2.448-1.92 0-3.36-.848-3.504-2.576zm16.151 1.2v1.088a4.908 4.908 0 01-1.408.224c-1.472 0-2.224-.704-2.224-2.192V4.96h-1.184V3.952h1.184V1.904h1.312v2.048h2.112V4.96h-2.128v4.912c0 .848.432 1.136 1.168 1.136.304 0 .656-.032 1.168-.192zm9.124-2.832c0 2.592-1.6 4.208-3.824 4.208-2.224 0-3.824-1.616-3.824-4.208s1.6-4.224 3.824-4.224c2.224 0 3.824 1.632 3.824 4.224zm-6.336 0c0 1.936.944 3.136 2.512 3.136s2.512-1.2 2.512-3.136c0-1.936-.944-3.152-2.512-3.152s-2.512 1.216-2.512 3.152zM.736 29.616h1.28c.096 1.104 1.12 1.568 2.208 1.568 1.104 0 1.904-.512 1.904-1.376 0-.592-.384-.976-1.408-1.168l-1.424-.288c-1.296-.24-2.24-.768-2.24-2.176 0-1.36 1.216-2.416 2.992-2.416 1.856 0 2.992.8 3.152 2.32H5.968c-.096-.816-.816-1.296-1.92-1.296-1.072 0-1.76.528-1.76 1.312 0 .688.48.976 1.408 1.152l1.6.304c1.312.256 2.08.896 2.08 2.192 0 1.408-1.328 2.448-3.136 2.448-1.92 0-3.36-.848-3.504-2.576zm15.546.016c-.368 1.712-1.76 2.56-3.328 2.56-2.272 0-3.872-1.584-3.872-4.176 0-2.624 1.648-4.256 3.792-4.256 2.384 0 3.456 1.904 3.456 3.968v.528h-5.952c.064 1.856 1.04 2.88 2.576 2.88 1.088 0 1.744-.528 2.08-1.504h1.248zm-3.408-4.8c-1.264 0-2.224.816-2.448 2.464h4.608c-.032-1.392-.72-2.464-2.16-2.464zm9.45 5.984v1.088a4.909 4.909 0 01-1.408.224c-1.472 0-2.224-.704-2.224-2.192V24.96h-1.184v-1.008h1.184v-2.048h1.312v2.048h2.112v1.008h-2.128v4.912c0 .848.432 1.136 1.168 1.136.304 0 .656-.032 1.168-.192zM34.58 32h-1.296v-1.456c-.384 1.008-1.344 1.648-2.56 1.648-1.824 0-2.848-1.104-2.848-3.056v-5.184h1.344v4.928c0 1.488.624 2.272 1.888 2.272 1.216 0 2.128-.832 2.128-2.768v-4.432h1.344V32zm4.173-1.408v4.256h-1.328V23.952h1.28v1.472c.368-.816 1.328-1.664 2.72-1.664 2.048 0 3.584 1.664 3.584 4.224 0 2.544-1.536 4.208-3.584 4.208-1.328 0-2.272-.784-2.672-1.6zm-.064-2.736v.224c0 1.824.896 3.072 2.464 3.072 1.584 0 2.512-1.296 2.512-3.168 0-1.888-.928-3.184-2.512-3.184-1.568 0-2.464 1.232-2.464 3.056zM55.664 32a7.032 7.032 0 01-.144-1.36c-.352.944-1.456 1.536-2.8 1.536-1.407 0-2.608-.816-2.608-2.304 0-1.552 1.152-2.224 2.785-2.416l2.592-.336v-.464c0-1.28-.784-1.824-1.889-1.824-1.072 0-1.744.56-1.84 1.488h-1.28c.16-1.632 1.44-2.56 3.153-2.56 1.951 0 3.167.928 3.167 2.864v3.696c0 .592.033 1.152.193 1.68h-1.329zm-2.672-.832c1.248 0 2.497-.784 2.497-2.336v-.72l-2.192.24c-1.008.144-1.84.4-1.84 1.488 0 .752.527 1.328 1.535 1.328zm11.37-.576v4.256h-1.329V23.952h1.28v1.472c.368-.816 1.328-1.664 2.72-1.664 2.048 0 3.584 1.664 3.584 4.224 0 2.544-1.536 4.208-3.584 4.208-1.328 0-2.272-.784-2.672-1.6zm-.065-2.736v.224c0 1.824.896 3.072 2.464 3.072 1.584 0 2.512-1.296 2.512-3.168 0-1.888-.928-3.184-2.512-3.184-1.568 0-2.464 1.232-2.464 3.056zm13.044-4.016v1.216a3.238 3.238 0 00-.688-.064c-1.28 0-2.448 1.008-2.448 3.04V32h-1.328v-8.048h1.28v1.904c.352-1.328 1.376-2.08 2.56-2.08.208 0 .432.016.624.064zm8.592 4.144c0 2.592-1.6 4.208-3.824 4.208-2.224 0-3.824-1.616-3.824-4.208s1.6-4.224 3.824-4.224c2.224 0 3.824 1.632 3.824 4.224zm-6.336 0c0 1.936.944 3.136 2.512 3.136s2.512-1.2 2.512-3.136c0-1.936-.944-3.152-2.512-3.152s-2.512 1.216-2.512 3.152zm8.497-5.712v-1.616h1.504v1.616h-1.504zm-.736 12.672c-.24 0-.448-.016-.688-.064v-1.056c.144.032.272.048.432.048.752 0 1.088-.24 1.088-1.104v-8.816h1.328v8.768c0 1.504-.672 2.224-2.16 2.224zm11.611-5.312c-.367 1.712-1.76 2.56-3.328 2.56-2.272 0-3.872-1.584-3.872-4.176 0-2.624 1.648-4.256 3.792-4.256 2.384 0 3.456 1.904 3.456 3.968v.528h-5.951c.063 1.856 1.04 2.88 2.575 2.88 1.088 0 1.744-.528 2.08-1.504h1.248zm-3.407-4.8c-1.264 0-2.224.816-2.448 2.464h4.608c-.032-1.392-.72-2.464-2.16-2.464zm5.129 3.152c0-2.576 1.552-4.224 3.792-4.224 1.792 0 2.976 1.024 3.232 2.736h-1.264c-.224-1.072-.88-1.664-1.968-1.664-1.584 0-2.48 1.264-2.48 3.152 0 1.888.896 3.136 2.48 3.136 1.088 0 1.744-.592 1.968-1.664h1.264c-.256 1.728-1.44 2.736-3.232 2.736-2.24 0-3.792-1.632-3.792-4.208zm12.961 2.832v1.088a4.908 4.908 0 01-1.408.224c-1.472 0-2.224-.704-2.224-2.192V24.96h-1.184v-1.008h1.184v-2.048h1.312v2.048h2.112v1.008h-2.128v4.912c0 .848.432 1.136 1.168 1.136.304 0 .656-.032 1.168-.192z" fill="#000"/></svg>