<svg width="247" height="96" viewBox="0 0 247 96" fill="none" xmlns="http://www.w3.org/2000/svg"><path d="M53.112 2.108v58.624h20.352v6.4H53.112V93.5H45.56V67.132H.12v-6.528L44.024 2.108h9.088zM45.56 10.94L8.312 60.732H45.56V10.94zM110.768.572c16.512 0 29.056 9.472 29.056 24.96 0 10.624-6.016 18.048-15.488 21.632 10.112 1.792 19.712 10.624 19.712 21.504 0 15.488-12.928 26.368-33.28 26.368-20.224 0-33.152-10.88-33.152-26.368 0-10.88 9.6-19.712 19.712-21.504-9.472-3.584-15.616-11.008-15.616-21.632 0-15.488 12.672-24.96 29.056-24.96zm0 42.752c11.776 0 21.76-5.76 21.76-18.048 0-12.16-9.984-17.92-21.76-17.92-11.648 0-21.632 5.76-21.632 17.92 0 12.288 9.984 18.048 21.632 18.048zm0 44.928c15.616 0 25.216-7.552 25.216-19.2 0-11.52-9.6-18.816-25.216-18.816-15.488 0-25.088 7.296-25.088 18.816 0 11.648 9.6 19.2 25.088 19.2zm46.039-4.288h5.12c.384 4.416 4.48 6.272 8.832 6.272 4.416 0 7.616-2.048 7.616-5.504 0-2.368-1.536-3.904-5.632-4.672l-5.696-1.152c-5.184-.96-8.96-3.072-8.96-8.704 0-5.44 4.864-9.664 11.968-9.664 7.424 0 11.968 3.2 12.608 9.28h-4.928c-.384-3.264-3.264-5.184-7.68-5.184-4.288 0-7.04 2.112-7.04 5.248 0 2.752 1.92 3.904 5.632 4.608l6.4 1.216c5.248 1.024 8.32 3.584 8.32 8.768 0 5.632-5.312 9.792-12.544 9.792-7.68 0-13.44-3.392-14.016-10.304zm58.344.064c-1.472 6.848-7.04 10.24-13.312 10.24-9.088 0-15.488-6.336-15.488-16.704 0-10.496 6.592-17.024 15.168-17.024 9.536 0 13.824 7.616 13.824 15.872v2.112h-23.808c.256 7.424 4.16 11.52 10.304 11.52 4.352 0 6.976-2.112 8.32-6.016h4.992zm-13.632-19.2c-5.056 0-8.896 3.264-9.792 9.856h18.432c-.128-5.568-2.88-9.856-8.64-9.856zm16.679 12.608c0-10.304 6.208-16.896 15.168-16.896 7.168 0 11.904 4.096 12.928 10.944h-5.056c-.896-4.288-3.52-6.656-7.872-6.656-6.336 0-9.92 5.056-9.92 12.608 0 7.552 3.584 12.544 9.92 12.544 4.352 0 6.976-2.368 7.872-6.656h5.056c-1.024 6.912-5.76 10.944-12.928 10.944-8.96 0-15.168-6.528-15.168-16.832z" fill="#000"/></svg>