<svg width="300" height="250" viewBox="0 0 300 250" fill="none" xmlns="http://www.w3.org/2000/svg"><path d="M-12.084-62.083V.333l62.417-62.416V.333M112.75-62.083H50.334V.333h62.416v-62.416zM175.167-62.083H112.75V.333m62.417-62.416V.333H112.75m62.417-62.416L112.75.333M237.584.333h-62.417m0 0v-62.416h62.417L175.167.333zM300-62.083L237.583.333M50.333 62.75V.333L-12.083 62.75h62.416zM50.333 125.167h-62.416m0 0V62.75h62.416l-62.416 62.417zM-12.084 125.167h62.417m0 0v62.416m0-62.416l-62.416 62.416M-12.084 187.583V250l62.417-62.417V250M50.334.333V62.75L112.75.333M112.75 125.167V62.75l-62.416 62.417h62.416zM112.75 125.167H50.334v62.416m62.416-62.416v62.416H50.334m62.416-62.416l-62.416 62.416M112.75 250v-62.417H50.334V250M175.167.333l-31.209 31.209L112.75 62.75h62.417M175.167 62.75H112.75v62.417h62.417V62.75zM175.167 125.167H112.75v62.416h62.417v-62.416zM175.167 187.583H112.75V250m62.417-62.417V250H112.75m62.417-62.417L112.75 250M237.584.333L175.167 62.75M175.167 62.75v62.417l62.417-62.417v62.417M175.167 125.167v62.416m0 0l62.417-62.416v62.416h-62.417zM237.584 187.583h-62.417V250l62.417-62.417z" stroke="#202080" stroke-width=".499" stroke-linecap="square" stroke-linejoin="bevel"/><path d="M300 .333L237.583 62.75H300M300 62.75h-62.417v62.417L300 62.75zm0 0v62.417M237.583 125.167v62.416L300 125.167M300 187.583L237.583 250" stroke="#202080" stroke-width=".499" stroke-linecap="square" stroke-linejoin="bevel"/></svg>