<svg width="164" height="53" viewBox="0 0 164 53" fill="none" xmlns="http://www.w3.org/2000/svg"><g filter="url(#filter0_d_1313_2444430)" fill="#fff"><path d="M113.039 25.228l.388.403h4.937v1.163h-6.578v-8.503h6.429v1.164h-4.788l-.388.388v1.983h4.52v1.164h-4.52v2.238zM102.905 23.408v3.386h-1.253v-8.503h3.327c2.193 0 3.401.91 3.401 2.566 0 1.268-.701 2.088-2.014 2.402v.313l2.342 3.222h-1.506l-2.432-3.386h-1.865zm2.044-3.968h-1.641l-.403.402v2.402h2.044c1.462 0 2.148-.507 2.148-1.387 0-.91-.686-1.417-2.148-1.417zM98.606 22.543c0 2.491-1.492 4.46-3.85 4.46-2.341 0-3.833-1.969-3.833-4.46 0-2.506 1.492-4.46 3.834-4.46 2.357 0 3.849 1.954 3.849 4.46zm-1.313 0c0-1.805-.85-3.282-2.536-3.282s-2.521 1.477-2.521 3.282.835 3.267 2.52 3.267c1.686 0 2.537-1.462 2.537-3.267zM85.534 24.258h-1.671l-1.223-4.49h-.314v7.026h-1.223v-8.503h2.342l1.134 4.37h.283l1.253-4.37h2.178v8.503H87.07v-7.026h-.298l-1.238 4.49zM67.982 26.794h-1.447l-3.789-6.579h-.388v6.58H61.18V18.29h1.73l3.506 6.146h.388v-6.146h1.178v8.503zM52.614 23.408v3.386H51.36v-8.503h3.327c2.193 0 3.401.91 3.401 2.566 0 1.268-.7 2.088-2.014 2.402v.313l2.343 3.222H56.91l-2.432-3.386h-1.864zm2.043-3.968h-1.64l-.404.402v2.402h2.044c1.462 0 2.148-.507 2.148-1.387 0-.91-.686-1.417-2.148-1.417zM47.269 26.794l-.94-2.491h-3.744l-.94 2.491h-1.343l3.372-8.503h1.596l3.356 8.503H47.27zm-3.938-3.58h2.237l.254-.254-1.164-3.058h-.403l-1.163 3.073.239.239zM32.571 25.228l.388.403h4.938v1.163h-6.58v-8.503h6.43v1.164H32.96l-.388.388v1.983h4.52v1.164h-4.52v2.238zM22.78 25.228l.389.403h4.49v1.163h-6.131v-8.503h1.253v6.937zM131.944 28.21l-.793-.794 9.407-9.407h-5.554v-1.133h7.481v7.48h-1.133v-5.554l-9.408 9.408z"/></g><defs><filter id="filter0_d_1313_2444430" x="-19.994" y="-4.957" width="204" height="63" filterUnits="userSpaceOnUse" color-interpolation-filters="sRGB"><feFlood flood-opacity="0" result="BackgroundImageFix"/><feColorMatrix in="SourceAlpha" values="0 0 0 0 0 0 0 0 0 0 0 0 0 0 0 0 0 0 127 0" result="hardAlpha"/><feOffset dy="4"/><feGaussianBlur stdDeviation="10"/><feComposite in2="hardAlpha" operator="out"/><feColorMatrix values="0 0 0 0 0.405825 0 0 0 0 0.2 0 0 0 0 1 0 0 0 0.4 0"/><feBlend in2="BackgroundImageFix" result="effect1_dropShadow_1313_2444430"/><feBlend in="SourceGraphic" in2="effect1_dropShadow_1313_2444430" result="shape"/></filter></defs></svg>