<svg width="160" height="22" viewBox="0 0 160 22" fill="none" xmlns="http://www.w3.org/2000/svg"><path d="M.081 12.647H1.99c.253 2.645 2.415 3.542 4.853 3.542 2.346 0 4.071-1.127 4.071-3.105 0-1.38-.759-2.277-2.99-2.691l-3.128-.621C2.588 9.358.61 8.346.61 5.517.61 2.826 2.933.802 6.337.802c3.519 0 5.842 1.518 6.164 4.485h-1.909c-.276-1.84-1.886-2.898-4.232-2.898-2.392 0-3.818 1.334-3.818 3.059 0 1.633.92 2.208 2.921 2.599l3.22.667c2.53.506 4.14 1.679 4.14 4.278 0 2.806-2.484 4.784-5.957 4.784-3.565 0-6.555-1.541-6.785-5.129zm19.19 4.945L14.625 5.931h2.001l3.68 9.453h.046l3.473-9.453h1.978l-4.669 11.914c-1.058 2.76-1.978 3.91-4.094 3.933a6.69 6.69 0 01-1.127-.115v-1.564c.368.092.621.092.92.092 1.15 0 1.68-.644 2.438-2.599zm8.1-3.519h1.84c.138 1.587 1.61 2.254 3.174 2.254 1.587 0 2.736-.736 2.736-1.978 0-.851-.552-1.403-2.024-1.679l-2.047-.414c-1.863-.345-3.22-1.104-3.22-3.128 0-1.955 1.748-3.473 4.302-3.473 2.668 0 4.3 1.15 4.53 3.335h-1.77c-.139-1.173-1.174-1.863-2.76-1.863-1.541 0-2.53.759-2.53 1.886 0 .989.69 1.403 2.023 1.656l2.3.437c1.887.368 2.99 1.288 2.99 3.151 0 2.024-1.908 3.519-4.508 3.519-2.76 0-4.83-1.219-5.036-3.703zm18.23 1.725v1.564c-.851.253-1.518.322-2.024.322-2.116 0-3.197-1.012-3.197-3.151V7.38h-1.702V5.931h1.702V2.987h1.886v2.944h3.036V7.38h-3.06v7.061c0 1.219.622 1.633 1.68 1.633.437 0 .943-.046 1.679-.276zm12.472-1.702c-.529 2.461-2.53 3.68-4.784 3.68-3.266 0-5.566-2.277-5.566-6.003 0-3.772 2.37-6.118 5.451-6.118 3.427 0 4.968 2.737 4.968 5.704v.759h-8.556c.092 2.668 1.495 4.14 3.703 4.14 1.564 0 2.507-.759 2.99-2.162h1.794zm-4.899-6.9c-1.817 0-3.197 1.173-3.519 3.542h6.624c-.046-2.001-1.035-3.542-3.105-3.542zm17.22.943c.712-1.564 2.184-2.484 3.886-2.484 2.668 0 3.98 1.679 3.98 4.393V17.5h-1.933v-7.038c0-2.162-.782-3.243-2.507-3.243s-3.036 1.242-3.036 3.91V17.5h-1.932v-7.038c0-2.162-.759-3.243-2.507-3.243-1.748 0-3.059 1.242-3.059 3.91V17.5h-1.909V5.931h1.84v2.116c.552-1.472 1.978-2.392 3.657-2.392 1.955 0 3.013.943 3.52 2.484zM96.728 17.5h-1.863v-2.093c-.552 1.449-1.932 2.369-3.68 2.369-2.622 0-4.094-1.587-4.094-4.393V5.931h1.932v7.084c0 2.139.897 3.266 2.714 3.266 1.748 0 3.06-1.196 3.06-3.979V5.931h1.931V17.5zm5.998-2.024v6.118h-1.909V5.931h1.84v2.116c.529-1.173 1.909-2.392 3.91-2.392 2.944 0 5.152 2.392 5.152 6.072 0 3.657-2.208 6.049-5.152 6.049-1.909 0-3.266-1.127-3.841-2.3zm-.092-3.933v.322c0 2.622 1.288 4.416 3.542 4.416 2.277 0 3.611-1.863 3.611-4.554 0-2.714-1.334-4.577-3.611-4.577-2.254 0-3.542 1.771-3.542 4.393zm17.716 4.255v1.564c-.851.253-1.518.322-2.024.322-2.116 0-3.197-1.012-3.197-3.151V7.38h-1.702V5.931h1.702V2.987h1.886v2.944h3.036V7.38h-3.059v7.061c0 1.219.621 1.633 1.679 1.633.437 0 .943-.046 1.679-.276zm2.97-12.282V1.193h2.162v2.323h-2.162zm.138 13.984V5.931h1.909V17.5h-1.909zm15.013-9.361c.713-1.564 2.185-2.484 3.887-2.484 2.668 0 3.979 1.679 3.979 4.393V17.5h-1.932v-7.038c0-2.162-.782-3.243-2.507-3.243s-3.036 1.242-3.036 3.91V17.5h-1.932v-7.038c0-2.162-.759-3.243-2.507-3.243-1.748 0-3.059 1.242-3.059 3.91V17.5h-1.909V5.931h1.84v2.116c.552-1.472 1.978-2.392 3.657-2.392 1.955 0 3.013.943 3.519 2.484zm21.327 5.957c-.529 2.461-2.53 3.68-4.784 3.68-3.266 0-5.566-2.277-5.566-6.003 0-3.772 2.369-6.118 5.451-6.118 3.427 0 4.968 2.737 4.968 5.704v.759h-8.556c.092 2.668 1.495 4.14 3.703 4.14 1.564 0 2.507-.759 2.99-2.162h1.794zm-4.899-6.9c-1.817 0-3.197 1.173-3.519 3.542h6.624c-.046-2.001-1.035-3.542-3.105-3.542z" fill="#000"/></svg>