<svg width="290" height="96" viewBox="0 0 290 96" fill="none" xmlns="http://www.w3.org/2000/svg"><path d="M29.48 87.996c18.432 0 27.776-19.328 27.776-45.568-2.688 10.368-12.16 20.736-27.136 20.736C12.2 63.164.424 49.724.424 32.316.424 13.756 12.584.572 30.888.572c19.584 0 33.536 17.792 33.536 45.696 0 28.8-14.592 48.768-34.944 48.768-15.616 0-26.24-9.088-28.288-24.576H8.36c2.432 11.776 9.344 17.536 21.12 17.536zm1.408-80.512c-14.208 0-23.04 10.496-23.04 24.448s8.832 24.192 23.04 24.192c13.824 0 23.296-10.24 23.296-24.192S44.712 7.484 30.888 7.484zM100.8 87.996c18.432 0 27.776-19.328 27.776-45.568-2.688 10.368-12.16 20.736-27.136 20.736-17.92 0-29.696-13.44-29.696-30.848 0-18.56 12.16-31.744 30.464-31.744 19.584 0 33.536 17.792 33.536 45.696 0 28.8-14.592 48.768-34.944 48.768-15.616 0-26.24-9.088-28.288-24.576h7.168c2.432 11.776 9.344 17.536 21.12 17.536zm1.408-80.512c-14.208 0-23.04 10.496-23.04 24.448S88 56.124 102.208 56.124c13.824 0 23.296-10.24 23.296-24.192s-9.472-24.448-23.296-24.448zM143.455 93.5V82.364h11.008V93.5h-11.008zm51.235-5.504c18.432 0 27.776-19.328 27.776-45.568-2.688 10.368-12.16 20.736-27.136 20.736-17.92 0-29.696-13.44-29.696-30.848 0-18.56 12.16-31.744 30.464-31.744 19.584 0 33.536 17.792 33.536 45.696 0 28.8-14.592 48.768-34.944 48.768-15.616 0-26.24-9.088-28.288-24.576h7.168c2.432 11.776 9.344 17.536 21.12 17.536zm1.408-80.512c-14.208 0-23.04 10.496-23.04 24.448s8.832 24.192 23.04 24.192c13.824 0 23.296-10.24 23.296-24.192s-9.472-24.448-23.296-24.448zm48.135 49.728c0-5.632 4.608-10.176 10.112-10.176 5.696 0 10.24 4.544 10.24 10.176 0 5.632-4.544 10.176-10.24 10.176-5.504 0-10.112-4.544-10.112-10.176zm34.88-9.408h4.544l-29.312 45.632h-4.608l29.376-45.632zm-30.912 9.408c0 3.584 2.816 6.336 6.144 6.336 3.52 0 6.272-2.752 6.272-6.336 0-3.52-2.752-6.336-6.272-6.336-3.328 0-6.144 2.816-6.144 6.336zm20.544 27.008c0-5.632 4.608-10.24 10.112-10.24 5.696 0 10.24 4.608 10.24 10.24 0 5.632-4.544 10.112-10.24 10.112-5.504 0-10.112-4.48-10.112-10.112zm3.968 0c0 3.52 2.816 6.272 6.144 6.272 3.52 0 6.272-2.752 6.272-6.272 0-3.584-2.752-6.4-6.272-6.4-3.328 0-6.144 2.816-6.144 6.4z" fill="#000"/></svg>