<svg width="133" height="96" viewBox="0 0 133 96" fill="none" xmlns="http://www.w3.org/2000/svg"><path d="M33.448.572c16.512 0 29.056 9.472 29.056 24.96 0 10.624-6.016 18.048-15.488 21.632 10.112 1.792 19.712 10.624 19.712 21.504 0 15.488-12.928 26.368-33.28 26.368-20.224 0-33.152-10.88-33.152-26.368 0-10.88 9.6-19.712 19.712-21.504C10.536 43.58 4.392 36.156 4.392 25.532c0-15.488 12.672-24.96 29.056-24.96zm0 42.752c11.776 0 21.76-5.76 21.76-18.048 0-12.16-9.984-17.92-21.76-17.92-11.648 0-21.632 5.76-21.632 17.92 0 12.288 9.984 18.048 21.632 18.048zm0 44.928c15.616 0 25.216-7.552 25.216-19.2 0-11.52-9.6-18.816-25.216-18.816-15.488 0-25.088 7.296-25.088 18.816 0 11.648 9.6 19.2 25.088 19.2zm97.768-61.568c0 17.28-15.104 24.96-28.032 34.048-11.008 7.808-23.68 16.512-23.424 25.856h52.48V93.5H71.824v-4.096c0-15.36 15.616-27.008 29.184-35.584 12.032-7.936 22.784-15.616 22.784-27.008 0-9.344-5.248-19.2-20.352-19.2-13.824 0-21.632 10.24-22.528 22.016h-7.168C74.512 14.012 85.008.572 103.44.572c19.072 0 27.776 13.44 27.776 26.112z" fill="#000"/></svg>