<svg width="343" height="20" viewBox="0 0 343 20" fill="none" xmlns="http://www.w3.org/2000/svg"><path d="M12.029 5.586c0 3.082-2.553 4.462-5.014 6.049-2.001 1.334-3.979 2.714-3.979 4.209h9.154V17.5H.92v-.897c0-2.921 2.829-4.968 5.267-6.486 2.185-1.403 3.956-2.622 3.956-4.531 0-1.564-.897-3.128-3.335-3.128-2.254 0-3.565 1.702-3.703 3.68H1.242C1.403 3.24 3.381.802 6.831.802c3.45 0 5.198 2.346 5.198 4.784zm2.375 3.703c0-4.922 2.553-8.487 6.532-8.487 4.002 0 6.532 3.565 6.532 8.487 0 4.922-2.53 8.487-6.532 8.487-3.979 0-6.532-3.565-6.532-8.487zm2.024 0c0 4.025 1.518 6.785 4.508 6.785 3.013 0 4.531-2.76 4.531-6.785s-1.518-6.785-4.53-6.785c-2.99 0-4.509 2.76-4.509 6.785zm24.329-3.703c0 3.082-2.553 4.462-5.014 6.049-2.002 1.334-3.98 2.714-3.98 4.209h9.154V17.5h-11.27v-.897c0-2.921 2.83-4.968 5.267-6.486C37.1 8.714 38.87 7.495 38.87 5.586c0-1.564-.896-3.128-3.334-3.128-2.255 0-3.566 1.702-3.704 3.68H29.97C30.131 3.24 32.11.802 35.56.802c3.45 0 5.198 2.346 5.198 4.784zm11.81-4.508v10.327h3.52v1.587h-3.52V17.5h-1.931v-4.508h-8.142v-1.61l7.843-10.304h2.23zm-1.931 2.047l-6.233 8.28h6.233v-8.28zm15.776-2.047l8.763 13.11h.046V1.078h1.909V17.5h-1.84L65.952 3.493h-.046V17.5h-1.932V1.078h2.438zm24.421 13.018c-.529 2.461-2.53 3.68-4.784 3.68-3.266 0-5.566-2.277-5.566-6.003 0-3.772 2.37-6.118 5.451-6.118 3.427 0 4.968 2.737 4.968 5.704v.759h-8.556c.092 2.668 1.495 4.14 3.703 4.14 1.564 0 2.507-.759 2.99-2.162h1.794zm-4.899-6.9c-1.817 0-3.197 1.173-3.519 3.542h6.624c-.046-2.001-1.035-3.542-3.105-3.542zm13.585 8.602v1.564c-.851.253-1.518.322-2.024.322-2.116 0-3.197-1.012-3.197-3.151V7.38h-1.702V5.931h1.702V2.987h1.886v2.944h3.036V7.38h-3.06v7.061c0 1.219.622 1.633 1.68 1.633.437 0 .943-.046 1.679-.276zm14.281-4.899h-4.14V17.5h-1.955V1.078h6.072c3.657 0 5.773 1.679 5.773 4.899 0 3.243-2.116 4.922-5.75 4.922zm-4.14-1.656h4.071c2.484 0 3.841-1.035 3.841-3.266s-1.357-3.243-3.841-3.243h-4.071v6.509zm19.352-3.473v1.748c-.276-.069-.69-.092-.989-.092-1.84 0-3.519 1.449-3.519 4.37V17.5h-1.909V5.931h1.84v2.737c.506-1.909 1.978-2.99 3.68-2.99.299 0 .621.023.897.092zm12.351 5.957c0 3.726-2.3 6.049-5.497 6.049s-5.497-2.323-5.497-6.049c0-3.726 2.3-6.072 5.497-6.072s5.497 2.346 5.497 6.072zm-9.108 0c0 2.783 1.357 4.508 3.611 4.508 2.254 0 3.611-1.725 3.611-4.508s-1.357-4.531-3.611-4.531c-2.254 0-3.611 1.748-3.611 4.531zm21.368-3.588c.713-1.564 2.185-2.484 3.887-2.484 2.668 0 3.979 1.679 3.979 4.393V17.5h-1.932v-7.038c0-2.162-.782-3.243-2.507-3.243s-3.036 1.242-3.036 3.91V17.5h-1.932v-7.038c0-2.162-.759-3.243-2.507-3.243-1.748 0-3.059 1.242-3.059 3.91V17.5h-1.909V5.931h1.84v2.116c.552-1.472 1.978-2.392 3.657-2.392 1.955 0 3.013.943 3.519 2.484zm21.97 3.588c0 3.726-2.3 6.049-5.497 6.049s-5.497-2.323-5.497-6.049c0-3.726 2.3-6.072 5.497-6.072s5.497 2.346 5.497 6.072zm-9.108 0c0 2.783 1.357 4.508 3.611 4.508 2.254 0 3.611-1.725 3.611-4.508s-1.357-4.531-3.611-4.531c-2.254 0-3.611 1.748-3.611 4.531zm17.734 4.071v1.564c-.851.253-1.518.322-2.024.322-2.116 0-3.197-1.012-3.197-3.151V7.38h-1.702V5.931h1.702V2.987h1.886v2.944h3.036V7.38h-3.059v7.061c0 1.219.621 1.633 1.679 1.633.437 0 .943-.046 1.679-.276zm12.473-1.702c-.529 2.461-2.53 3.68-4.784 3.68-3.266 0-5.566-2.277-5.566-6.003 0-3.772 2.369-6.118 5.451-6.118 3.427 0 4.968 2.737 4.968 5.704v.759h-8.556c.092 2.668 1.495 4.14 3.703 4.14 1.564 0 2.507-.759 2.99-2.162h1.794zm-4.899-6.9c-1.817 0-3.197 1.173-3.519 3.542h6.624c-.046-2.001-1.035-3.542-3.105-3.542zm14.619-1.426v1.748c-.276-.069-.69-.092-.989-.092-1.84 0-3.519 1.449-3.519 4.37V17.5h-1.909V5.931h1.84v2.737c.506-1.909 1.978-2.99 3.68-2.99.299 0 .621.023.897.092zm6.453 6.877h1.909c.253 2.645 2.415 3.542 4.853 3.542 2.346 0 4.071-1.127 4.071-3.105 0-1.38-.759-2.277-2.99-2.691l-3.128-.621c-2.208-.414-4.186-1.426-4.186-4.255 0-2.691 2.323-4.715 5.727-4.715 3.519 0 5.842 1.518 6.164 4.485h-1.909c-.276-1.84-1.886-2.898-4.232-2.898-2.392 0-3.818 1.334-3.818 3.059 0 1.633.92 2.208 2.921 2.599l3.22.667c2.53.506 4.14 1.679 4.14 4.278 0 2.806-2.484 4.784-5.957 4.784-3.565 0-6.555-1.541-6.785-5.129zm15.254-.92c0-3.703 2.231-6.072 5.451-6.072 2.576 0 4.278 1.472 4.646 3.933h-1.817c-.322-1.541-1.265-2.392-2.829-2.392-2.277 0-3.565 1.817-3.565 4.531 0 2.714 1.288 4.508 3.565 4.508 1.564 0 2.507-.851 2.829-2.392h1.817c-.368 2.484-2.07 3.933-4.646 3.933-3.22 0-5.451-2.346-5.451-6.049zm23.392 0c0 3.726-2.3 6.049-5.497 6.049s-5.497-2.323-5.497-6.049c0-3.726 2.3-6.072 5.497-6.072s5.497 2.346 5.497 6.072zm-9.108 0c0 2.783 1.357 4.508 3.611 4.508 2.254 0 3.611-1.725 3.611-4.508s-1.357-4.531-3.611-4.531c-2.254 0-3.611 1.748-3.611 4.531zm18.769-5.957v1.748c-.276-.069-.69-.092-.989-.092-1.84 0-3.519 1.449-3.519 4.37V17.5h-1.909V5.931h1.84v2.737c.506-1.909 1.978-2.99 3.68-2.99.299 0 .621.023.897.092zm11.707 8.326c-.529 2.461-2.53 3.68-4.784 3.68-3.266 0-5.566-2.277-5.566-6.003 0-3.772 2.369-6.118 5.451-6.118 3.427 0 4.968 2.737 4.968 5.704v.759h-8.556c.092 2.668 1.495 4.14 3.703 4.14 1.564 0 2.507-.759 2.99-2.162h1.794zm-4.899-6.9c-1.817 0-3.197 1.173-3.519 3.542h6.624c-.046-2.001-1.035-3.542-3.105-3.542zm15.098 3.082c0 3.45 1.449 6.831 3.703 9.706h-1.863c-2.323-2.852-3.749-6.141-3.749-9.706 0-3.542 1.426-6.854 3.749-9.706h1.863c-2.116 2.875-3.703 6.256-3.703 9.706zm9.628-9.2l8.763 13.11h.046V1.078h1.909V17.5h-1.84l-9.338-14.007h-.046V17.5h-1.932V1.078h2.438zm21.109 9.821h-4.14V17.5h-1.955V1.078h6.072c3.657 0 5.773 1.679 5.773 4.899 0 3.243-2.116 4.922-5.75 4.922zm-4.14-1.656h4.071c2.484 0 3.841-1.035 3.841-3.266s-1.357-3.243-3.841-3.243h-4.071v6.509zm12.013 3.404h1.909c.253 2.645 2.415 3.542 4.853 3.542 2.346 0 4.071-1.127 4.071-3.105 0-1.38-.759-2.277-2.99-2.691l-3.128-.621c-2.208-.414-4.186-1.426-4.186-4.255 0-2.691 2.323-4.715 5.727-4.715 3.519 0 5.842 1.518 6.164 4.485h-1.909c-.276-1.84-1.886-2.898-4.232-2.898-2.392 0-3.818 1.334-3.818 3.059 0 1.633.92 2.208 2.921 2.599l3.22.667c2.53.506 4.14 1.679 4.14 4.278 0 2.806-2.484 4.784-5.957 4.784-3.565 0-6.555-1.541-6.785-5.129zm15.37 7.337c2.254-2.875 3.703-6.256 3.703-9.706 0-3.45-1.587-6.831-3.703-9.706h1.863c2.323 2.852 3.749 6.164 3.749 9.706 0 3.565-1.426 6.854-3.749 9.706h-1.863z" fill="#000"/></svg>