<svg width="282" height="95" viewBox="0 0 282 95" fill="none" xmlns="http://www.w3.org/2000/svg"><path d="M.6 64.7v-5.952l41.952-21.6v6.048L6.264 61.724l36.288 18.528v6.144L.6 64.7zm112.911-38.016c0 17.28-15.104 24.96-28.032 34.048-11.008 7.808-23.68 16.512-23.424 25.856h52.48V93.5H54.119v-4.096c0-15.36 15.616-27.008 29.184-35.584 12.032-7.936 22.784-15.616 22.784-27.008 0-9.344-5.248-19.2-20.352-19.2-13.824 0-21.632 10.24-22.528 22.016h-7.168C56.807 14.012 67.303.572 85.735.572c19.072 0 27.776 13.44 27.776 26.112zm55.536-24.576v58.624h20.352v6.4h-20.352V93.5h-7.552V67.132h-45.44v-6.528l43.904-58.496h9.088zm-7.552 8.832l-37.248 49.792h37.248V10.94zm45.99 56.256c1.536-4.096 5.376-6.656 10.304-6.656 7.232 0 11.52 4.544 11.52 12.224V93.5h-5.312V73.916c0-5.952-2.624-9.024-7.68-9.024-4.928 0-8.832 3.136-8.832 10.88V93.5h-5.312V46.396h5.312v20.8zm46.892-6.336v4.864c-.768-.192-1.92-.256-2.752-.256-5.12 0-9.792 4.032-9.792 12.16V93.5h-5.312V61.308h5.12v7.616c1.408-5.312 5.504-8.32 10.24-8.32.832 0 1.728.064 2.496.256zm.177 23.104h5.12c.384 4.416 4.48 6.272 8.832 6.272 4.416 0 7.616-2.048 7.616-5.504 0-2.368-1.536-3.904-5.632-4.672l-5.696-1.152c-5.184-.96-8.96-3.072-8.96-8.704 0-5.44 4.864-9.664 11.968-9.664 7.424 0 11.968 3.2 12.608 9.28h-4.928c-.384-3.264-3.264-5.184-7.68-5.184-4.288 0-7.04 2.112-7.04 5.248 0 2.752 1.92 3.904 5.632 4.608l6.4 1.216c5.248 1.024 8.32 3.584 8.32 8.768 0 5.632-5.312 9.792-12.544 9.792-7.68 0-13.44-3.392-14.016-10.304z" fill="#000"/></svg>