<svg width="451" height="20" viewBox="0 0 451 20" fill="none" xmlns="http://www.w3.org/2000/svg"><path d="M12.029 5.586c0 3.082-2.553 4.462-5.014 6.049-2.001 1.334-3.979 2.714-3.979 4.209h9.154V17.5H.92v-.897c0-2.921 2.829-4.968 5.267-6.486 2.185-1.403 3.956-2.622 3.956-4.531 0-1.564-.897-3.128-3.335-3.128-2.254 0-3.565 1.702-3.703 3.68H1.242C1.403 3.24 3.381.802 6.831.802c3.45 0 5.198 2.346 5.198 4.784zm2.375 3.703c0-4.922 2.553-8.487 6.532-8.487 4.002 0 6.532 3.565 6.532 8.487 0 4.922-2.53 8.487-6.532 8.487-3.979 0-6.532-3.565-6.532-8.487zm2.024 0c0 4.025 1.518 6.785 4.508 6.785 3.013 0 4.531-2.76 4.531-6.785s-1.518-6.785-4.53-6.785c-2.99 0-4.509 2.76-4.509 6.785zm24.329-3.703c0 3.082-2.553 4.462-5.014 6.049-2.002 1.334-3.98 2.714-3.98 4.209h9.154V17.5h-11.27v-.897c0-2.921 2.83-4.968 5.267-6.486C37.1 8.714 38.87 7.495 38.87 5.586c0-1.564-.896-3.128-3.334-3.128-2.255 0-3.566 1.702-3.704 3.68H29.97C30.131 3.24 32.11.802 35.56.802c3.45 0 5.198 2.346 5.198 4.784zm11.81-4.508v10.327h3.52v1.587h-3.52V17.5h-1.931v-4.508h-8.142v-1.61l7.843-10.304h2.23zm-1.931 2.047l-6.233 8.28h6.233v-8.28zm14.373 6.141c0 4.094 1.955 6.831 5.336 6.831 2.76 0 3.956-1.541 4.324-3.381h1.932c-.529 2.99-2.668 5.06-6.256 5.06-4.232 0-7.36-3.335-7.36-8.51 0-5.152 3.128-8.464 7.36-8.464 3.588 0 5.727 2.07 6.256 5.06h-1.932c-.368-1.84-1.564-3.381-4.324-3.381-3.381 0-5.336 2.691-5.336 6.785zM89.171 17.5h-1.863v-2.093c-.552 1.449-1.932 2.369-3.68 2.369-2.621 0-4.094-1.587-4.094-4.393V5.931h1.932v7.084c0 2.139.898 3.266 2.715 3.266 1.748 0 3.059-1.196 3.059-3.979V5.931h1.931V17.5zm3.1-3.427h1.84c.139 1.587 1.61 2.254 3.175 2.254 1.587 0 2.737-.736 2.737-1.978 0-.851-.552-1.403-2.024-1.679l-2.047-.414c-1.863-.345-3.22-1.104-3.22-3.128 0-1.955 1.748-3.473 4.3-3.473 2.669 0 4.302 1.15 4.532 3.335h-1.771c-.138-1.173-1.173-1.863-2.76-1.863-1.541 0-2.53.759-2.53 1.886 0 .989.69 1.403 2.024 1.656l2.3.437c1.886.368 2.99 1.288 2.99 3.151 0 2.024-1.91 3.519-4.508 3.519-2.76 0-4.83-1.219-5.037-3.703zm18.231 1.725v1.564c-.851.253-1.518.322-2.024.322-2.116 0-3.197-1.012-3.197-3.151V7.38h-1.702V5.931h1.702V2.987h1.886v2.944h3.036V7.38h-3.059v7.061c0 1.219.621 1.633 1.679 1.633.437 0 .943-.046 1.679-.276zm13.117-4.071c0 3.726-2.3 6.049-5.497 6.049s-5.497-2.323-5.497-6.049c0-3.726 2.3-6.072 5.497-6.072s5.497 2.346 5.497 6.072zm-9.108 0c0 2.783 1.357 4.508 3.611 4.508 2.254 0 3.611-1.725 3.611-4.508s-1.357-4.531-3.611-4.531c-2.254 0-3.611 1.748-3.611 4.531zm21.367-3.588c.713-1.564 2.185-2.484 3.887-2.484 2.668 0 3.979 1.679 3.979 4.393V17.5h-1.932v-7.038c0-2.162-.782-3.243-2.507-3.243s-3.036 1.242-3.036 3.91V17.5h-1.932v-7.038c0-2.162-.759-3.243-2.507-3.243-1.748 0-3.059 1.242-3.059 3.91V17.5h-1.909V5.931h1.84v2.116c.552-1.472 1.978-2.392 3.657-2.392 1.955 0 3.013.943 3.519 2.484zm21.327 5.957c-.529 2.461-2.53 3.68-4.784 3.68-3.266 0-5.566-2.277-5.566-6.003 0-3.772 2.369-6.118 5.451-6.118 3.427 0 4.968 2.737 4.968 5.704v.759h-8.556c.092 2.668 1.495 4.14 3.703 4.14 1.564 0 2.507-.759 2.99-2.162h1.794zm-4.899-6.9c-1.817 0-3.197 1.173-3.519 3.542h6.624c-.046-2.001-1.035-3.542-3.105-3.542zm14.62-1.426v1.748c-.276-.069-.69-.092-.989-.092-1.84 0-3.519 1.449-3.519 4.37V17.5h-1.909V5.931h1.84v2.737c.506-1.909 1.978-2.99 3.68-2.99.299 0 .621.023.897.092zm6.453 6.877h1.909c.253 2.645 2.415 3.542 4.853 3.542 2.346 0 4.071-1.127 4.071-3.105 0-1.38-.759-2.277-2.99-2.691l-3.128-.621c-2.208-.414-4.186-1.426-4.186-4.255 0-2.691 2.323-4.715 5.727-4.715 3.519 0 5.842 1.518 6.164 4.485h-1.909c-.276-1.84-1.886-2.898-4.232-2.898-2.392 0-3.818 1.334-3.818 3.059 0 1.633.92 2.208 2.921 2.599l3.22.667c2.53.506 4.14 1.679 4.14 4.278 0 2.806-2.484 4.784-5.957 4.784-3.565 0-6.555-1.541-6.785-5.129zm23.189 4.853a10.108 10.108 0 01-.207-1.955c-.506 1.357-2.093 2.208-4.025 2.208-2.024 0-3.749-1.173-3.749-3.312 0-2.231 1.656-3.197 4.002-3.473l3.726-.483v-.667c0-1.84-1.127-2.622-2.714-2.622-1.541 0-2.507.805-2.645 2.139h-1.84c.23-2.346 2.07-3.68 4.531-3.68 2.806 0 4.554 1.334 4.554 4.117v5.313c0 .851.046 1.656.276 2.415h-1.909zm-3.841-1.196c1.794 0 3.588-1.127 3.588-3.358v-1.035l-3.151.345c-1.449.207-2.645.575-2.645 2.139 0 1.081.759 1.909 2.208 1.909zm14.829-.506v1.564c-.851.253-1.518.322-2.024.322-2.116 0-3.197-1.012-3.197-3.151V7.38h-1.702V5.931h1.702V2.987h1.886v2.944h3.036V7.38h-3.059v7.061c0 1.219.621 1.633 1.679 1.633.437 0 .943-.046 1.679-.276zm2.97-12.282V1.193h2.162v2.323h-2.162zm.138 13.984V5.931h1.909V17.5h-1.909zm5.008-3.427h1.84c.138 1.587 1.61 2.254 3.174 2.254 1.587 0 2.737-.736 2.737-1.978 0-.851-.552-1.403-2.024-1.679l-2.047-.414c-1.863-.345-3.22-1.104-3.22-3.128 0-1.955 1.748-3.473 4.301-3.473 2.668 0 4.301 1.15 4.531 3.335h-1.771c-.138-1.173-1.173-1.863-2.76-1.863-1.541 0-2.53.759-2.53 1.886 0 .989.69 1.403 2.024 1.656l2.3.437c1.886.368 2.99 1.288 2.99 3.151 0 2.024-1.909 3.519-4.508 3.519-2.76 0-4.83-1.219-5.037-3.703zM228.82 7.38h-1.679V5.931h1.679V3.769c0-2.162 1.38-3.266 3.358-3.266.414 0 .943.046 1.288.115v1.518a8.703 8.703 0 00-1.173-.069c-.828 0-1.587.414-1.587 1.725v2.139h2.484V7.38h-2.484V17.5h-1.886V7.38zm13.927 10.12a10.108 10.108 0 01-.207-1.955c-.506 1.357-2.093 2.208-4.025 2.208-2.024 0-3.749-1.173-3.749-3.312 0-2.231 1.656-3.197 4.002-3.473l3.726-.483v-.667c0-1.84-1.127-2.622-2.714-2.622-1.541 0-2.507.805-2.645 2.139h-1.84c.23-2.346 2.07-3.68 4.531-3.68 2.806 0 4.554 1.334 4.554 4.117v5.313c0 .851.046 1.656.276 2.415h-1.909zm-3.841-1.196c1.794 0 3.588-1.127 3.588-3.358v-1.035l-3.151.345c-1.449.207-2.645.575-2.645 2.139 0 1.081.759 1.909 2.208 1.909zm8.597-4.577c0-3.703 2.231-6.072 5.451-6.072 2.576 0 4.278 1.472 4.646 3.933h-1.817c-.322-1.541-1.265-2.392-2.829-2.392-2.277 0-3.565 1.817-3.565 4.531 0 2.714 1.288 4.508 3.565 4.508 1.564 0 2.507-.851 2.829-2.392h1.817c-.368 2.484-2.07 3.933-4.646 3.933-3.22 0-5.451-2.346-5.451-6.049zm18.631 4.071v1.564c-.851.253-1.518.322-2.024.322-2.116 0-3.197-1.012-3.197-3.151V7.38h-1.702V5.931h1.702V2.987h1.886v2.944h3.036V7.38h-3.059v7.061c0 1.219.621 1.633 1.679 1.633.437 0 .943-.046 1.679-.276zm2.97-12.282V1.193h2.162v2.323h-2.162zm.138 13.984V5.931h1.909V17.5h-1.909zm16.14-5.773c0 3.726-2.3 6.049-5.497 6.049s-5.497-2.323-5.497-6.049c0-3.726 2.3-6.072 5.497-6.072s5.497 2.346 5.497 6.072zm-9.108 0c0 2.783 1.357 4.508 3.611 4.508 2.254 0 3.611-1.725 3.611-4.508s-1.357-4.531-3.611-4.531c-2.254 0-3.611 1.748-3.611 4.531zm14.192-5.796v2.116c.552-1.426 2.001-2.392 3.772-2.392 2.599 0 4.14 1.633 4.14 4.393V17.5h-1.909v-7.038c0-2.139-.943-3.243-2.76-3.243-1.771 0-3.174 1.127-3.174 3.91V17.5h-1.909V5.931h1.84zm15.904 6.716h1.909c.253 2.645 2.415 3.542 4.853 3.542 2.346 0 4.071-1.127 4.071-3.105 0-1.38-.759-2.277-2.99-2.691l-3.128-.621c-2.208-.414-4.186-1.426-4.186-4.255 0-2.691 2.323-4.715 5.727-4.715 3.519 0 5.842 1.518 6.164 4.485h-1.909c-.276-1.84-1.886-2.898-4.232-2.898-2.392 0-3.818 1.334-3.818 3.059 0 1.633.92 2.208 2.921 2.599l3.22.667c2.53.506 4.14 1.679 4.14 4.278 0 2.806-2.484 4.784-5.957 4.784-3.565 0-6.555-1.541-6.785-5.129zm15.254-.92c0-3.703 2.231-6.072 5.451-6.072 2.576 0 4.278 1.472 4.646 3.933h-1.817c-.322-1.541-1.265-2.392-2.829-2.392-2.277 0-3.565 1.817-3.565 4.531 0 2.714 1.288 4.508 3.565 4.508 1.564 0 2.507-.851 2.829-2.392h1.817c-.368 2.484-2.07 3.933-4.646 3.933-3.22 0-5.451-2.346-5.451-6.049zm23.392 0c0 3.726-2.3 6.049-5.497 6.049s-5.497-2.323-5.497-6.049c0-3.726 2.3-6.072 5.497-6.072s5.497 2.346 5.497 6.072zm-9.108 0c0 2.783 1.357 4.508 3.611 4.508 2.254 0 3.611-1.725 3.611-4.508s-1.357-4.531-3.611-4.531c-2.254 0-3.611 1.748-3.611 4.531zm18.769-5.957v1.748c-.276-.069-.69-.092-.989-.092-1.84 0-3.519 1.449-3.519 4.37V17.5h-1.909V5.931h1.84v2.737c.506-1.909 1.978-2.99 3.68-2.99.299 0 .621.023.897.092zm11.707 8.326c-.529 2.461-2.53 3.68-4.784 3.68-3.266 0-5.566-2.277-5.566-6.003 0-3.772 2.369-6.118 5.451-6.118 3.427 0 4.968 2.737 4.968 5.704v.759h-8.556c.092 2.668 1.495 4.14 3.703 4.14 1.564 0 2.507-.759 2.99-2.162h1.794zm-4.899-6.9c-1.817 0-3.197 1.173-3.519 3.542h6.624c-.046-2.001-1.035-3.542-3.105-3.542zm15.098 3.082c0 3.45 1.449 6.831 3.703 9.706h-1.863c-2.323-2.852-3.749-6.141-3.749-9.706 0-3.542 1.426-6.854 3.749-9.706h1.863c-2.116 2.875-3.703 6.256-3.703 9.706zm8.225-1.012c0 4.094 1.955 6.831 5.336 6.831 2.76 0 3.956-1.541 4.324-3.381h1.932c-.529 2.99-2.668 5.06-6.256 5.06-4.232 0-7.36-3.335-7.36-8.51 0-5.152 3.128-8.464 7.36-8.464 3.588 0 5.727 2.07 6.256 5.06h-1.932c-.368-1.84-1.564-3.381-4.324-3.381-3.381 0-5.336 2.691-5.336 6.785zm13.674 3.381h1.909c.253 2.645 2.415 3.542 4.853 3.542 2.346 0 4.071-1.127 4.071-3.105 0-1.38-.759-2.277-2.99-2.691l-3.128-.621c-2.208-.414-4.186-1.426-4.186-4.255 0-2.691 2.323-4.715 5.727-4.715 3.519 0 5.842 1.518 6.164 4.485h-1.909c-.276-1.84-1.886-2.898-4.232-2.898-2.392 0-3.818 1.334-3.818 3.059 0 1.633.92 2.208 2.921 2.599l3.22.667c2.53.506 4.14 1.679 4.14 4.278 0 2.806-2.484 4.784-5.957 4.784-3.565 0-6.555-1.541-6.785-5.129zm27.86 4.853l-1.817-4.577h-7.866l-1.817 4.577h-1.978l6.647-16.422h2.231l6.67 16.422h-2.07zm-5.773-14.444l-3.266 8.234h6.578l-3.243-8.234h-.069zM434.492 17.5V2.734h-6.118V1.078h14.237v1.656h-6.141V17.5h-1.978zm10.401 2.484c2.254-2.875 3.703-6.256 3.703-9.706 0-3.45-1.587-6.831-3.703-9.706h1.863c2.323 2.852 3.749 6.164 3.749 9.706 0 3.565-1.426 6.854-3.749 9.706h-1.863z" fill="#000"/></svg>