<svg width="192" height="72" viewBox="0 0 192 72" fill="none" xmlns="http://www.w3.org/2000/svg"><path d="M40.816 6.861H.592v-5.28h47.136v3.648C31.216 25.293 25.072 46.221 24.784 70.125h-6.24c.288-24.864 9.12-46.56 22.272-63.264zm34.606 23.04c-7.872 0-13.152 3.936-15.936 8.544h-5.184l3.744-36.864h37.248v5.28H62.27l-2.592 25.344c3.072-4.128 9.312-7.392 15.648-7.392 14.4 0 23.136 10.464 23.136 23.232 0 12.96-8.64 23.232-23.04 23.232-12.96 0-22.848-8.064-23.904-21.312h5.664c.768 9.6 7.68 16.224 18.336 16.224 11.904 0 17.376-8.736 17.376-18.24 0-9.408-5.568-18.048-17.472-18.048zm28.097 5.952c0-20.544 10.272-35.424 26.208-35.424 15.936 0 26.208 14.88 26.208 35.424 0 20.544-10.272 35.424-26.208 35.424-15.936 0-26.208-14.88-26.208-35.424zm5.856 0c0 17.568 6.912 29.952 20.352 29.952 13.44 0 20.352-12.384 20.352-29.952s-6.912-29.952-20.352-29.952c-13.44 0-20.352 12.384-20.352 29.952zm82.457 19.92h-10.848v10.896h-3.264V55.773h-10.896v-3.264h10.896V41.613h3.264v10.896h10.848v3.264z" fill="#000"/></svg>