<svg width="159" height="36" viewBox="0 0 159 36" fill="none" xmlns="http://www.w3.org/2000/svg"><path d="M2.848 12.125h-1.36V.701h4.4c2.56 0 4.016 1.2 4.016 3.392 0 1.856-1.296 2.896-2.64 3.2l3.136 4.832H8.848l-2.96-4.624h-3.04v4.624zm0-5.776h2.96c1.728 0 2.704-.768 2.704-2.256 0-1.44-.976-2.24-2.704-2.24h-2.96v4.496zm16.663 1.76c0 2.592-1.6 4.208-3.824 4.208-2.224 0-3.824-1.616-3.824-4.208s1.6-4.224 3.824-4.224c2.224 0 3.824 1.632 3.824 4.224zm-6.336 0c0 1.936.944 3.136 2.512 3.136s2.512-1.2 2.512-3.136c0-1.936-.944-3.152-2.512-3.152s-2.512 1.216-2.512 3.152zm15.664 0c0 2.592-1.6 4.208-3.824 4.208-2.224 0-3.824-1.616-3.824-4.208s1.6-4.224 3.824-4.224c2.224 0 3.824 1.632 3.824 4.224zm-6.336 0c0 1.936.944 3.136 2.512 3.136s2.512-1.2 2.512-3.136c0-1.936-.944-3.152-2.512-3.152s-2.512 1.216-2.512 3.152zm14.865-2.496c.496-1.088 1.52-1.728 2.704-1.728 1.856 0 2.768 1.168 2.768 3.056v5.184h-1.344V7.229c0-1.504-.544-2.256-1.744-2.256s-2.112.864-2.112 2.72v4.432h-1.344V7.229c0-1.504-.528-2.256-1.744-2.256s-2.128.864-2.128 2.72v4.432h-1.328V4.077h1.28v1.472c.384-1.024 1.376-1.664 2.544-1.664 1.36 0 2.096.656 2.448 1.728zm15.169 6.512V1.853H48.28V.701h9.904v1.152h-4.272v10.272h-1.376zm13.256-4.016c0 2.592-1.6 4.208-3.825 4.208-2.224 0-3.824-1.616-3.824-4.208s1.6-4.224 3.825-4.224c2.223 0 3.824 1.632 3.824 4.224zm-6.337 0c0 1.936.944 3.136 2.512 3.136s2.513-1.2 2.513-3.136c0-1.936-.944-3.152-2.512-3.152-1.569 0-2.513 1.216-2.513 3.152zm9.873-4.032v1.472c.384-.992 1.392-1.664 2.624-1.664 1.808 0 2.88 1.136 2.88 3.056v5.184h-1.328V7.229c0-1.488-.656-2.256-1.92-2.256-1.232 0-2.208.784-2.208 2.72v4.432h-1.328V4.077h1.28zm14.875 5.68c-.368 1.712-1.76 2.56-3.328 2.56-2.272 0-3.872-1.584-3.872-4.176 0-2.624 1.648-4.256 3.792-4.256 2.384 0 3.456 1.904 3.456 3.968v.528H78.3c.064 1.856 1.04 2.88 2.576 2.88 1.088 0 1.744-.528 2.08-1.504h1.248zm-3.408-4.8c-1.264 0-2.224.816-2.448 2.464h4.608c-.032-1.392-.72-2.464-2.16-2.464zM.832 28.109c0-2.576 1.552-4.224 3.792-4.224 1.792 0 2.976 1.024 3.232 2.736H6.592c-.224-1.072-.88-1.664-1.968-1.664-1.584 0-2.48 1.264-2.48 3.152 0 1.888.896 3.136 2.48 3.136 1.088 0 1.744-.592 1.968-1.664h1.264c-.256 1.728-1.44 2.736-3.232 2.736-2.24 0-3.792-1.632-3.792-4.208zm16.273 0c0 2.592-1.6 4.208-3.824 4.208-2.224 0-3.824-1.616-3.824-4.208s1.6-4.224 3.824-4.224c2.224 0 3.824 1.632 3.824 4.224zm-6.336 0c0 1.936.944 3.136 2.512 3.136s2.512-1.2 2.512-3.136c0-1.936-.944-3.152-2.512-3.152s-2.512 1.216-2.512 3.152zm14.865-2.496c.495-1.088 1.52-1.728 2.703-1.728 1.857 0 2.768 1.168 2.768 3.056v5.184h-1.343v-4.896c0-1.504-.544-2.256-1.745-2.256-1.2 0-2.111.864-2.111 2.72v4.432H24.56v-4.896c0-1.504-.527-2.256-1.744-2.256-1.215 0-2.128.864-2.128 2.72v4.432h-1.328v-8.048h1.28v1.472c.385-1.024 1.377-1.664 2.545-1.664 1.36 0 2.096.656 2.448 1.728zm14.5 0c.495-1.088 1.52-1.728 2.703-1.728 1.856 0 2.768 1.168 2.768 3.056v5.184h-1.343v-4.896c0-1.504-.544-2.256-1.745-2.256-1.2 0-2.111.864-2.111 2.72v4.432h-1.344v-4.896c0-1.504-.529-2.256-1.744-2.256-1.216 0-2.128.864-2.128 2.72v4.432h-1.328v-8.048h1.28v1.472c.383-1.024 1.375-1.664 2.543-1.664 1.36 0 2.096.656 2.448 1.728zm14.852 6.512H53.69v-1.456c-.384 1.008-1.344 1.648-2.56 1.648-1.825 0-2.849-1.104-2.849-3.056v-5.184h1.345v4.928c0 1.488.623 2.272 1.888 2.272 1.215 0 2.127-.832 2.127-2.768v-4.432h1.345v8.048zm4.124-8.048v1.472c.384-.992 1.392-1.664 2.624-1.664 1.808 0 2.88 1.136 2.88 3.056v5.184h-1.328v-4.896c0-1.488-.656-2.256-1.92-2.256-1.232 0-2.208.784-2.208 2.72v4.432H57.83v-8.048h1.28zm8.171-1.68v-1.616h1.504v1.616h-1.504zm.096 9.728v-8.048h1.328v8.048h-1.328zm7.916-1.184v1.088a4.908 4.908 0 01-1.408.224c-1.472 0-2.224-.704-2.224-2.192v-4.976h-1.184v-1.008h1.184v-2.048h1.312v2.048h2.112v1.008h-2.128v4.912c0 .848.432 1.136 1.168 1.136.304 0 .656-.032 1.168-.192zm4.418 1.248l-3.232-8.112h1.392l2.56 6.576h.032l2.416-6.576h1.376l-3.248 8.288c-.736 1.92-1.376 2.72-2.848 2.736-.224 0-.528-.032-.784-.08v-1.088c.256.064.432.064.64.064.8 0 1.168-.448 1.696-1.808zm16.157-6.576c.496-1.088 1.52-1.728 2.704-1.728 1.856 0 2.768 1.168 2.768 3.056v5.184h-1.344v-4.896c0-1.504-.544-2.256-1.744-2.256s-2.112.864-2.112 2.72v4.432h-1.344v-4.896c0-1.504-.528-2.256-1.744-2.256s-2.128.864-2.128 2.72v4.432h-1.328v-8.048h1.28v1.472c.384-1.024 1.376-1.664 2.544-1.664 1.36 0 2.096.656 2.448 1.728zm14.836 4.144c-.368 1.712-1.76 2.56-3.328 2.56-2.272 0-3.872-1.584-3.872-4.176 0-2.624 1.648-4.256 3.792-4.256 2.384 0 3.456 1.904 3.456 3.968v.528H104.8c.064 1.856 1.04 2.88 2.576 2.88 1.088 0 1.744-.528 2.08-1.504h1.248zm-3.408-4.8c-1.264 0-2.224.816-2.448 2.464h4.608c-.032-1.392-.72-2.464-2.16-2.464zm11.978.656c.496-1.088 1.52-1.728 2.704-1.728 1.856 0 2.768 1.168 2.768 3.056v5.184h-1.344v-4.896c0-1.504-.544-2.256-1.744-2.256s-2.112.864-2.112 2.72v4.432h-1.344v-4.896c0-1.504-.528-2.256-1.744-2.256s-2.128.864-2.128 2.72v4.432h-1.328v-8.048h1.28v1.472c.384-1.024 1.376-1.664 2.544-1.664 1.36 0 2.096.656 2.448 1.728zm9.508 5.104v1.408h-1.28V20.349h1.328v5.152c.368-.816 1.28-1.616 2.672-1.616 2.048 0 3.584 1.664 3.584 4.224 0 2.544-1.536 4.208-3.584 4.208-1.328 0-2.32-.784-2.72-1.6zm-.016-2.736v.224c0 1.824.896 3.072 2.464 3.072 1.584 0 2.512-1.296 2.512-3.168 0-1.888-.928-3.184-2.512-3.184-1.568 0-2.464 1.232-2.464 3.056zm15.204 1.776c-.368 1.712-1.76 2.56-3.329 2.56-2.271 0-3.871-1.584-3.871-4.176 0-2.624 1.648-4.256 3.792-4.256 2.384 0 3.455 1.904 3.455 3.968v.528h-5.951c.064 1.856 1.04 2.88 2.575 2.88 1.089 0 1.745-.528 2.081-1.504h1.248zm-3.408-4.8c-1.264 0-2.224.816-2.448 2.464h4.608c-.032-1.392-.72-2.464-2.16-2.464zm10.17-.992v1.216a3.238 3.238 0 00-.688-.064c-1.28 0-2.448 1.008-2.448 3.04v3.968h-1.328v-8.048h1.28v1.904c.352-1.328 1.376-2.08 2.56-2.08.208 0 .432.016.624.064zm1.004 5.776h1.28c.096 1.104 1.12 1.568 2.208 1.568 1.104 0 1.904-.512 1.904-1.376 0-.592-.384-.976-1.408-1.168l-1.424-.288c-1.296-.24-2.24-.768-2.24-2.176 0-1.36 1.216-2.416 2.992-2.416 1.856 0 2.992.8 3.152 2.32h-1.232c-.096-.816-.816-1.296-1.92-1.296-1.072 0-1.76.528-1.76 1.312 0 .688.48.976 1.408 1.152l1.6.304c1.312.256 2.08.896 2.08 2.192 0 1.408-1.328 2.448-3.136 2.448-1.92 0-3.36-.848-3.504-2.576z" fill="#000"/></svg>