<svg width="265" height="96" viewBox="0 0 265 96" fill="none" xmlns="http://www.w3.org/2000/svg"><path d="M59.896 26.684c0 17.28-15.104 24.96-28.032 34.048C20.856 68.54 8.184 77.244 8.44 86.588h52.48V93.5H.504v-4.096c0-15.36 15.616-27.008 29.184-35.584 12.032-7.936 22.784-15.616 22.784-27.008 0-9.344-5.248-19.2-20.352-19.2-13.824 0-21.632 10.24-22.528 22.016H2.424C3.192 14.012 13.688.572 32.12.572c19.072 0 27.776 13.44 27.776 26.112zM73.51 93.5V82.364h11.008V93.5H73.51zm18.682-45.696c0-27.392 13.696-47.232 34.944-47.232 21.248 0 34.944 19.84 34.944 47.232s-13.696 47.232-34.944 47.232c-21.248 0-34.944-19.84-34.944-47.232zm7.808 0c0 23.424 9.216 39.936 27.136 39.936s27.136-16.512 27.136-39.936-9.216-39.936-27.136-39.936S100 24.38 100 47.804zm75.126 36.16h5.12c.384 4.416 4.48 6.272 8.832 6.272 4.416 0 7.616-2.048 7.616-5.504 0-2.368-1.536-3.904-5.632-4.672l-5.696-1.152c-5.184-.96-8.96-3.072-8.96-8.704 0-5.44 4.864-9.664 11.968-9.664 7.424 0 11.968 3.2 12.608 9.28h-4.928c-.384-3.264-3.264-5.184-7.68-5.184-4.288 0-7.04 2.112-7.04 5.248 0 2.752 1.92 3.904 5.632 4.608l6.4 1.216c5.248 1.024 8.32 3.584 8.32 8.768 0 5.632-5.312 9.792-12.544 9.792-7.68 0-13.44-3.392-14.016-10.304zm58.345.064c-1.472 6.848-7.04 10.24-13.313 10.24-9.088 0-15.488-6.336-15.488-16.704 0-10.496 6.592-17.024 15.168-17.024 9.537 0 13.824 7.616 13.824 15.872v2.112h-23.808c.256 7.424 4.16 11.52 10.304 11.52 4.352 0 6.977-2.112 8.321-6.016h4.992zm-13.633-19.2c-5.056 0-8.896 3.264-9.792 9.856h18.433c-.128-5.568-2.881-9.856-8.641-9.856zm16.68 12.608c0-10.304 6.208-16.896 15.168-16.896 7.168 0 11.904 4.096 12.928 10.944h-5.056c-.896-4.288-3.52-6.656-7.872-6.656-6.336 0-9.92 5.056-9.92 12.608 0 7.552 3.584 12.544 9.92 12.544 4.352 0 6.976-2.368 7.872-6.656h5.056c-1.024 6.912-5.76 10.944-12.928 10.944-8.96 0-15.168-6.528-15.168-16.832z" fill="#000"/></svg>