<svg width="273" height="96" viewBox="0 0 273 96" fill="none" xmlns="http://www.w3.org/2000/svg"><path d="M.6 64.7v-5.952l41.952-21.6v6.048L6.264 61.724l36.288 18.528v6.144L.6 64.7zm50.959-43.904v-5.248c15.616 0 20.992-4.48 23.168-13.952h3.968V93.5h-7.68V20.796H51.559zm40.678 27.008c0-27.392 13.696-47.232 34.944-47.232 21.248 0 34.944 19.84 34.944 47.232s-13.696 47.232-34.944 47.232c-21.248 0-34.944-19.84-34.944-47.232zm7.808 0c0 23.424 9.216 39.936 27.136 39.936s27.136-16.512 27.136-39.936-9.216-39.936-27.136-39.936-27.136 16.512-27.136 39.936zm102.966 19.648c1.984-4.352 6.08-6.912 10.816-6.912 7.424 0 11.072 4.672 11.072 12.224V93.5h-5.376V73.916c0-6.016-2.176-9.024-6.976-9.024s-8.448 3.456-8.448 10.88V93.5h-5.376V73.916c0-6.016-2.112-9.024-6.976-9.024s-8.512 3.456-8.512 10.88V93.5h-5.312V61.308h5.12v5.888c1.536-4.096 5.504-6.656 10.176-6.656 5.44 0 8.384 2.624 9.792 6.912zm28.688-12.864v-6.464h6.016v6.464h-6.016zm.384 38.912V61.308h5.312V93.5h-5.312zm17.968-32.192v5.888c1.536-3.968 5.568-6.656 10.496-6.656 7.232 0 11.52 4.544 11.52 12.224V93.5h-5.312V73.916c0-5.952-2.624-9.024-7.68-9.024-4.928 0-8.832 3.136-8.832 10.88V93.5h-5.312V61.308h5.12z" fill="#000"/></svg>