<svg width="253" height="23" viewBox="0 0 253 23" fill="none" xmlns="http://www.w3.org/2000/svg"><path d="M53.695.472h3.43l4.968 17.293h.06L67.554.472h3.152l5.286 17.293h.06L81.138.472h3.43l-6.25 22.007h-3.765L69.146 5.345h-.06l-5.554 17.134h-3.736L53.696.472zM127.003 18.266h-11.909l-1.776 4.213h-3.583L119.378.472h3.306l9.645 22.007h-3.552l-1.776-4.213h.002zm-1.256-2.955l-4.684-11.036h-.06l-4.654 11.036h9.398zM135.802.472h11.051c4.561 0 7.562 2.64 7.562 6.916 0 4.275-2.968 6.853-7.562 6.853h-7.745v8.238h-3.306V.472zm10.9 10.72c2.908 0 4.407-1.257 4.407-3.835 0-2.61-1.438-3.836-4.407-3.836h-7.592v7.672h7.592zM158.792.472h11.145c3.735 0 6.276 2.328 6.276 5.753 0 2.044-.918 3.648-2.387 4.402v.062c1.929.786 3.184 2.705 3.184 5.188 0 4.337-2.633 6.602-7.715 6.602h-10.5V.472h-.003zm10.471 9.15c2.45 0 3.642-1.07 3.642-3.113 0-1.948-1.255-2.986-3.642-2.986h-7.165v6.1h7.165zm-.123 9.809c3.184 0 4.561-1.1 4.561-3.552 0-2.39-1.349-3.46-4.501-3.46h-7.102v7.012h7.042zM180.954 11.475C180.954 4.872 185.485 0 192.038 0c6.613 0 11.114 4.872 11.114 11.475s-4.501 11.475-11.114 11.475c-6.551 0-11.084-4.872-11.084-11.475zm18.86 0c0-5.06-3.153-8.426-7.776-8.426-4.594 0-7.746 3.363-7.746 8.426 0 5.063 3.152 8.426 7.746 8.426 4.623 0 7.776-3.363 7.776-8.426zM206.976 11.475C206.976 4.872 211.509 0 218.06 0c6.613 0 11.114 4.872 11.114 11.475S224.673 22.95 218.06 22.95c-6.551 0-11.084-4.872-11.084-11.475zm18.86 0c0-5.06-3.153-8.426-7.776-8.426-4.594 0-7.746 3.363-7.746 8.426 0 5.06 3.152 8.426 7.746 8.426 4.593 0 7.776-3.363 7.776-8.426zM233.834.472h3.306V11.57h.06L247.457.472h4.623L243.019 10l9.428 12.482h-4.102l-7.563-10.186h-.06l-3.582 3.899v6.287h-3.306V.472zM10.739.429H0v11.027h8.055v11.027h5.368L24.16 11.456v11.027h5.37l10.74-11.027h2.684V.43h-5.369L26.848 11.456h-.002V.43h-5.369L10.74 11.456V.43zM101.465 13.655l5.584 8.824h-3.796l-5.328-8.615h-6.141v8.615h-3.306V.472h10.684c4.624 0 7.409 2.547 7.409 6.696 0 3.66-2.014 5.782-5.106 6.456v.03zm-2.55-2.841c2.879 0 4.348-1.258 4.348-3.679 0-2.42-1.409-3.616-4.41-3.616h-7.071v7.295h7.134z" fill="#fff"/></svg>