<svg width="218" height="71" viewBox="0 0 218 71" fill="none" xmlns="http://www.w3.org/2000/svg"><path d="M22.36 65.684c13.824 0 20.832-14.495 20.832-34.175-2.016 7.776-9.12 15.551-20.352 15.551C9.4 47.06.568 36.98.568 23.924.568 10.004 9.688.116 23.416.116c14.688 0 25.152 13.345 25.152 34.273 0 21.6-10.944 36.575-26.208 36.575-11.712 0-19.68-6.816-21.216-18.431H6.52c1.824 8.831 7.008 13.151 15.84 13.151zm1.056-60.383c-10.656 0-17.28 7.871-17.28 18.336 0 10.463 6.624 18.144 17.28 18.144 10.368 0 17.472-7.68 17.472-18.144 0-10.465-7.104-18.337-17.472-18.337zM75.85 65.684c13.824 0 20.832-14.495 20.832-34.175-2.016 7.776-9.12 15.551-20.352 15.551-13.44 0-22.272-10.08-22.272-23.136 0-13.92 9.12-23.808 22.848-23.808 14.688 0 25.152 13.345 25.152 34.273 0 21.6-10.944 36.575-26.208 36.575-11.712 0-19.68-6.816-21.216-18.431h5.376c1.824 8.831 7.008 13.151 15.84 13.151zm1.056-60.383c-10.656 0-17.28 7.871-17.28 18.336 0 10.463 6.624 18.144 17.28 18.144 10.368 0 17.472-7.68 17.472-18.144 0-10.465-7.104-18.337-17.472-18.337zm30.935 64.511v-8.351h8.256v8.352h-8.256zm38.427-4.127c13.824 0 20.832-14.497 20.832-34.177-2.016 7.777-9.12 15.552-20.352 15.552-13.44 0-22.272-10.08-22.272-23.136 0-13.92 9.12-23.808 22.848-23.808 14.688 0 25.152 13.345 25.152 34.273 0 21.6-10.944 36.575-26.208 36.575-11.712 0-19.68-6.816-21.216-18.431h5.376c1.824 8.831 7.008 13.151 15.84 13.151zM147.324 5.3c-10.656 0-17.28 7.872-17.28 18.337 0 10.463 6.624 18.144 17.28 18.144 10.368 0 17.472-7.68 17.472-18.144 0-10.465-7.104-18.337-17.472-18.337zm36.1 37.297c0-4.224 3.456-7.633 7.584-7.633 4.272 0 7.68 3.409 7.68 7.633s-3.408 7.631-7.68 7.631c-4.128 0-7.584-3.407-7.584-7.632zm26.16-7.056h3.408l-21.984 34.224h-3.456l22.032-34.224zM186.4 42.596c0 2.688 2.112 4.752 4.608 4.752 2.64 0 4.704-2.064 4.704-4.752 0-2.64-2.064-4.753-4.704-4.753-2.496 0-4.608 2.112-4.608 4.752zm15.408 20.255c0-4.223 3.456-7.68 7.584-7.68a7.672 7.672 0 017.68 7.68c0 4.224-3.408 7.584-7.68 7.584-4.128 0-7.584-3.36-7.584-7.584zm2.976 0c0 2.64 2.112 4.705 4.608 4.705 2.64 0 4.704-2.064 4.704-4.705 0-2.688-2.064-4.8-4.704-4.8-2.496 0-4.608 2.112-4.608 4.8z" fill="#000"/></svg>