<svg width="56" height="35" viewBox="0 0 56 35" fill="none" xmlns="http://www.w3.org/2000/svg"><path d="M.752 8.437H2.08c.176 1.84 1.68 2.463 3.376 2.463 1.632 0 2.832-.784 2.832-2.16 0-.96-.528-1.583-2.08-1.872l-2.176-.432C2.496 6.15 1.12 5.444 1.12 3.476c0-1.871 1.616-3.28 3.984-3.28 2.448 0 4.064 1.056 4.288 3.12H8.064c-.192-1.28-1.312-2.015-2.944-2.015-1.664 0-2.656.927-2.656 2.128 0 1.135.64 1.536 2.032 1.808l2.24.463c1.76.353 2.88 1.168 2.88 2.977 0 1.952-1.728 3.328-4.144 3.328-2.48 0-4.56-1.073-4.72-3.569zm13.35 3.44L10.87 3.764h1.392l2.56 6.577h.032l2.416-6.576h1.376l-3.248 8.287c-.736 1.92-1.376 2.72-2.848 2.737-.224 0-.528-.032-.784-.08V13.62c.256.063.432.063.64.063.8 0 1.168-.447 1.696-1.807zm5.634-2.449h1.28c.096 1.104 1.12 1.568 2.208 1.568 1.104 0 1.904-.511 1.904-1.376 0-.591-.384-.975-1.408-1.167l-1.424-.288c-1.296-.24-2.24-.768-2.24-2.176 0-1.36 1.216-2.417 2.992-2.417 1.856 0 2.992.8 3.152 2.32h-1.232c-.096-.816-.816-1.296-1.92-1.296-1.072 0-1.76.529-1.76 1.313 0 .688.48.976 1.408 1.152l1.6.303c1.312.256 2.08.897 2.08 2.192 0 1.409-1.328 2.449-3.136 2.449-1.92 0-3.36-.849-3.504-2.577zm12.682 1.2v1.088a4.908 4.908 0 01-1.408.225c-1.472 0-2.224-.705-2.224-2.193V4.774h-1.184V3.764h1.184V1.716h1.312v2.048h2.112v1.009h-2.128v4.912c0 .848.432 1.135 1.168 1.135.304 0 .656-.031 1.168-.191zm8.676-1.184c-.367 1.712-1.76 2.56-3.328 2.56-2.271 0-3.871-1.583-3.871-4.175 0-2.624 1.647-4.256 3.791-4.256 2.385 0 3.456 1.903 3.456 3.967v.529H35.19c.065 1.855 1.04 2.88 2.577 2.88 1.087 0 1.743-.528 2.08-1.505h1.247zm-3.407-4.8c-1.264 0-2.224.816-2.448 2.465h4.608c-.032-1.393-.72-2.465-2.16-2.465zm11.978.657c.496-1.088 1.52-1.729 2.704-1.729 1.856 0 2.768 1.168 2.768 3.056v5.184h-1.344V6.918c0-1.505-.544-2.256-1.744-2.256s-2.112.864-2.112 2.72v4.431h-1.344V6.918c0-1.505-.528-2.256-1.744-2.256s-2.128.864-2.128 2.72v4.431h-1.328V3.765h1.28v1.472c.384-1.024 1.376-1.665 2.544-1.665 1.36 0 2.096.657 2.448 1.729zM8.048 31.813H6.752v-1.456c-.384 1.008-1.344 1.648-2.56 1.648-1.824 0-2.848-1.105-2.848-3.057v-5.183h1.344v4.927c0 1.488.624 2.273 1.888 2.273 1.216 0 2.128-.832 2.128-2.768v-4.432h1.344v8.047zm4.173-1.409v4.256h-1.328V23.765h1.28v1.471c.368-.816 1.328-1.663 2.72-1.663 2.048 0 3.584 1.663 3.584 4.224 0 2.543-1.536 4.207-3.584 4.207-1.328 0-2.272-.783-2.672-1.6zm-.064-2.735v.223c0 1.825.896 3.073 2.464 3.073 1.584 0 2.512-1.296 2.512-3.168 0-1.889-.928-3.184-2.512-3.184-1.568 0-2.464 1.232-2.464 3.056zm12.323 2.96v1.087a4.908 4.908 0 01-1.407.224c-1.473 0-2.224-.704-2.224-2.192v-4.976h-1.184v-1.007h1.184v-2.049h1.311v2.049h2.113v1.008h-2.128v4.912c0 .848.431 1.136 1.168 1.136.303 0 .655-.033 1.168-.193zm2.067-8.545v-1.616h1.504v1.616h-1.504zm.096 9.729v-8.048h1.328v8.047h-1.328zM37.087 25.3c.496-1.088 1.52-1.728 2.704-1.728 1.856 0 2.768 1.168 2.768 3.055v5.184h-1.344v-4.896c0-1.503-.544-2.256-1.744-2.256s-2.112.864-2.112 2.72v4.433h-1.344v-4.896c0-1.505-.528-2.257-1.744-2.257s-2.128.864-2.128 2.72v4.433h-1.328v-8.048h1.28v1.471c.384-1.024 1.376-1.663 2.544-1.663 1.36 0 2.096.655 2.448 1.727zm14.836 4.144c-.368 1.712-1.76 2.56-3.328 2.56-2.272 0-3.872-1.585-3.872-4.177 0-2.623 1.648-4.255 3.792-4.255 2.384 0 3.456 1.904 3.456 3.968v.527h-5.952c.064 1.856 1.04 2.88 2.576 2.88 1.088 0 1.744-.527 2.08-1.503h1.248zm-3.408-4.8c-1.264 0-2.224.816-2.448 2.463h4.608c-.032-1.392-.72-2.463-2.16-2.463z" fill="#000"/></svg>