<svg width="96" height="35" viewBox="0 0 96 35" fill="none" xmlns="http://www.w3.org/2000/svg"><path d="M9.648 11.688L8.384 8.503H2.912l-1.264 3.184H.272L4.896.262h1.552l4.64 11.425h-1.44zM5.632 1.639L3.36 7.367h4.576L5.68 1.64h-.048zm9.126 10.049l-3.216-8.049h1.36l2.592 6.737h.032l2.48-6.736h1.328l-3.088 8.047h-1.488zm12.805-2.369c-.368 1.712-1.76 2.56-3.328 2.56-2.272 0-3.872-1.583-3.872-4.175 0-2.624 1.648-4.256 3.792-4.256 2.384 0 3.456 1.903 3.456 3.967v.529H21.66c.064 1.856 1.04 2.88 2.576 2.88 1.088 0 1.744-.528 2.08-1.505h1.248zm-3.408-4.8c-1.264 0-2.224.816-2.448 2.465h4.608c-.032-1.393-.72-2.465-2.16-2.465zm10.17-.992v1.216a3.238 3.238 0 00-.688-.064c-1.28 0-2.448 1.008-2.448 3.04v3.968h-1.328V3.64h1.28v1.903c.353-1.328 1.377-2.08 2.56-2.08.209 0 .432.016.624.064zm6.62 8.16a7.032 7.032 0 01-.143-1.36c-.352.944-1.456 1.537-2.8 1.537-1.408 0-2.608-.817-2.608-2.305 0-1.551 1.152-2.223 2.784-2.415l2.592-.337v-.464c0-1.28-.784-1.824-1.888-1.824-1.072 0-1.744.56-1.84 1.489h-1.28c.16-1.633 1.44-2.56 3.152-2.56 1.952 0 3.168.927 3.168 2.863v3.697c0 .592.032 1.152.192 1.68h-1.328zm-2.671-.832c1.248 0 2.496-.784 2.496-2.335V7.8l-2.192.24c-1.008.144-1.84.4-1.84 1.488 0 .752.528 1.327 1.536 1.327zm12.204.32V9.992c-.368.784-1.264 1.553-2.672 1.553-2.064 0-3.568-1.553-3.568-4.065 0-2.415 1.504-4.032 3.568-4.032 1.408 0 2.336.832 2.72 1.6V3.64h1.296v7.44c0 2.56-1.664 3.647-3.808 3.647-1.936 0-3.248-.784-3.568-2.351h1.344c.272 1.008 1.12 1.328 2.208 1.328 1.584 0 2.48-.849 2.48-2.529zm.096-3.504v-.384c0-1.663-1.04-2.8-2.528-2.8-1.568 0-2.496 1.2-2.496 2.992 0 1.776.928 3.009 2.496 3.009 1.488 0 2.528-1.152 2.528-2.816zM61.282 9.32c-.368 1.712-1.76 2.56-3.328 2.56-2.272 0-3.872-1.583-3.872-4.175 0-2.624 1.648-4.256 3.792-4.256 2.384 0 3.456 1.903 3.456 3.967v.529h-5.952c.064 1.856 1.04 2.88 2.576 2.88 1.088 0 1.744-.528 2.08-1.505h1.248zm-3.408-4.8c-1.264 0-2.224.816-2.448 2.465h4.608c-.032-1.393-.72-2.465-2.16-2.465zm8.551 1.44c0-3.583 2.256-5.888 5.28-5.888 2.544 0 4.064 1.409 4.464 3.52h-1.376c-.304-1.424-1.344-2.352-3.088-2.352-2.432 0-3.872 1.872-3.872 4.72s1.408 4.752 3.824 4.752c1.92 0 3.344-1.184 3.344-3.04V7.08h-2.704V5.992h4.048v5.696h-1.088l-.128-1.905c-.432 1.232-1.968 2.097-3.488 2.097-3.024 0-5.216-2.32-5.216-5.92zM85.93 3.4c0 2.144-1.776 3.104-3.488 4.209-1.391.928-2.767 1.888-2.767 2.928h6.368v1.152h-7.84v-.625c0-2.032 1.968-3.456 3.663-4.512 1.52-.976 2.752-1.824 2.752-3.151 0-1.088-.623-2.176-2.32-2.176-1.567 0-2.48 1.184-2.576 2.56h-1.295C78.538 1.768 79.913.07 82.314.07s3.617 1.633 3.617 3.329zM5.888 23.527v1.216a3.238 3.238 0 00-.688-.063c-1.28 0-2.448 1.008-2.448 3.04v3.968H1.424V23.64h1.28v1.904c.352-1.329 1.376-2.08 2.56-2.08.208 0 .432.016.624.064zm8.144 5.793c-.368 1.712-1.76 2.56-3.328 2.56-2.272 0-3.872-1.584-3.872-4.177 0-2.623 1.648-4.255 3.792-4.255 2.384 0 3.456 1.904 3.456 3.968v.527H8.128c.064 1.856 1.04 2.88 2.576 2.88 1.088 0 1.744-.527 2.08-1.503h1.248zm-3.408-4.8c-1.264 0-2.224.816-2.448 2.463h4.608c-.032-1.392-.72-2.463-2.16-2.463zm7.759 7.168l-3.216-8.048h1.36l2.592 6.735h.032l2.48-6.735h1.328l-3.088 8.047h-1.488zm6.367-9.729v-1.616h1.504v1.616H24.75zm.096 9.729V23.64h1.328v8.047h-1.328zm10.78-2.368c-.368 1.712-1.76 2.56-3.328 2.56-2.272 0-3.872-1.584-3.872-4.177 0-2.623 1.648-4.255 3.792-4.255 2.384 0 3.456 1.904 3.456 3.968v.527h-5.952c.064 1.856 1.04 2.88 2.576 2.88 1.088 0 1.744-.527 2.08-1.503h1.248zm-3.408-4.8c-1.264 0-2.224.816-2.448 2.463h4.608c-.032-1.392-.72-2.463-2.16-2.463zm11.004-.88l1.824 6.607h.032l1.856-6.607h1.28l-2.432 8.047h-1.376l-1.856-6.512h-.048l-1.824 6.512h-1.392l-2.432-8.047h1.312l1.872 6.607h.048l1.792-6.607h1.344zm14.775-.113v1.216a3.238 3.238 0 00-.688-.063c-1.28 0-2.448 1.008-2.448 3.04v3.968h-1.328V23.64h1.28v1.904c.352-1.329 1.376-2.08 2.56-2.08.208 0 .432.016.624.064zm6.62 8.16a7.032 7.032 0 01-.143-1.36c-.352.944-1.456 1.536-2.8 1.536-1.408 0-2.608-.816-2.608-2.303 0-1.552 1.152-2.224 2.784-2.416l2.592-.336v-.465c0-1.28-.784-1.823-1.888-1.823-1.072 0-1.744.56-1.84 1.488h-1.28c.16-1.633 1.44-2.56 3.152-2.56 1.952 0 3.168.927 3.168 2.863v3.697c0 .591.032 1.152.192 1.68h-1.328zm-2.671-.832c1.248 0 2.496-.784 2.496-2.335v-.72l-2.192.24c-1.008.143-1.84.4-1.84 1.488 0 .752.528 1.328 1.536 1.328zm10.316-.352v1.088a4.909 4.909 0 01-1.408.224c-1.472 0-2.224-.704-2.224-2.192v-4.976h-1.184V23.64h1.184V21.59h1.312v2.049h2.112v1.008h-2.128v4.912c0 .848.432 1.136 1.168 1.136.304 0 .656-.033 1.168-.193zm2.066-8.544v-1.616h1.504v1.616h-1.504zm.096 9.729V23.64h1.328v8.047h-1.328zm5.452-8.048v1.471c.384-.992 1.392-1.663 2.624-1.663 1.808 0 2.88 1.136 2.88 3.055v5.184h-1.328v-4.896c0-1.488-.656-2.256-1.92-2.256-1.232 0-2.208.785-2.208 2.72v4.433h-1.328V23.64h1.28zm13.899 7.535v-1.184c-.368.785-1.264 1.553-2.672 1.553-2.064 0-3.568-1.553-3.568-4.064 0-2.416 1.504-4.032 3.568-4.032 1.408 0 2.336.831 2.72 1.6V23.64h1.296v7.44c0 2.56-1.664 3.648-3.808 3.648-1.936 0-3.248-.785-3.568-2.352h1.344c.272 1.008 1.12 1.328 2.208 1.328 1.584 0 2.48-.849 2.48-2.529zm.096-3.503v-.384c0-1.665-1.04-2.8-2.528-2.8-1.568 0-2.496 1.2-2.496 2.992 0 1.776.928 3.008 2.496 3.008 1.488 0 2.528-1.152 2.528-2.816z" fill="#000"/></svg>