<svg width="128" height="71" viewBox="0 0 128 71" fill="none" xmlns="http://www.w3.org/2000/svg"><path d="M40.584 1.143v43.968h15.264v4.8H40.584v19.776H34.92V49.912H.84v-4.895L33.768 1.144h6.816zM34.92 7.768L6.984 45.11H34.92V7.768zm26.494 61.92v-8.352h8.256v8.352h-8.256zM102.16-.01c12.384 0 21.792 7.105 21.792 18.72 0 7.969-4.512 13.537-11.616 16.224 7.584 1.344 14.784 7.968 14.784 16.128 0 11.616-9.696 19.776-24.96 19.776-15.168 0-24.864-8.16-24.864-19.776 0-8.16 7.2-14.784 14.784-16.128-7.104-2.688-11.712-8.256-11.712-16.224 0-11.615 9.504-18.72 21.792-18.72zm0 32.065c8.832 0 16.32-4.32 16.32-13.536 0-9.12-7.488-13.44-16.32-13.44-8.736 0-16.224 4.32-16.224 13.44 0 9.215 7.488 13.536 16.224 13.536zm0 33.695c11.712 0 18.912-5.664 18.912-14.4 0-8.64-7.2-14.111-18.912-14.111-11.616 0-18.816 5.471-18.816 14.111 0 8.736 7.2 14.4 18.816 14.4z" fill="#000"/></svg>