<svg width="202" height="96" viewBox="0 0 202 96" fill="none" xmlns="http://www.w3.org/2000/svg"><path d="M35.496 7.612C17.064 7.612 7.72 26.94 7.72 53.18c2.688-10.368 12.16-20.736 27.136-20.736 17.92 0 29.696 13.44 29.696 30.848 0 18.56-12.16 31.744-30.464 31.744C14.504 95.036.552 77.244.552 49.34.552 20.54 15.144.572 35.496.572c15.616 0 26.24 9.088 28.288 24.576h-7.168c-2.432-11.776-9.344-17.536-21.12-17.536zm-1.408 80.512c14.208 0 23.04-10.496 23.04-24.448s-8.832-24.192-23.04-24.192c-13.824 0-23.296 10.24-23.296 24.192s9.472 24.448 23.296 24.448zm37.784-40.32c0-27.392 13.696-47.232 34.944-47.232 21.248 0 34.944 19.84 34.944 47.232s-13.696 47.232-34.944 47.232c-21.248 0-34.944-19.84-34.944-47.232zm7.808 0c0 23.424 9.216 39.936 27.136 39.936s27.136-16.512 27.136-39.936-9.216-39.936-27.136-39.936S79.68 24.38 79.68 47.804zm76.663 9.408c0-5.632 4.608-10.176 10.112-10.176 5.696 0 10.24 4.544 10.24 10.176 0 5.632-4.544 10.176-10.24 10.176-5.504 0-10.112-4.544-10.112-10.176zm34.88-9.408h4.544l-29.312 45.632h-4.608l29.376-45.632zm-30.912 9.408c0 3.584 2.816 6.336 6.144 6.336 3.52 0 6.272-2.752 6.272-6.336 0-3.52-2.752-6.336-6.272-6.336-3.328 0-6.144 2.816-6.144 6.336zm20.544 27.008c0-5.632 4.608-10.24 10.112-10.24 5.696 0 10.24 4.608 10.24 10.24 0 5.632-4.544 10.112-10.24 10.112-5.504 0-10.112-4.48-10.112-10.112zm3.968 0c0 3.52 2.816 6.272 6.144 6.272 3.52 0 6.272-2.752 6.272-6.272 0-3.584-2.752-6.4-6.272-6.4-3.328 0-6.144 2.816-6.144 6.4z" fill="#000"/></svg>