<svg width="237" height="96" viewBox="0 0 237 96" fill="none" xmlns="http://www.w3.org/2000/svg"><path d="M219.1 92.728v2.518h-12.68v-2.518c3.522 0 3.816-.117 3.816-1.112V58.123c0-1.23-.294-1.406-1.351-1.874l-2.7-1.23v-1.288l8.277-2.4h.822v21.02c1.761-2.283 5.577-5.211 9.569-5.211 5.694 0 7.925 4.567 7.925 9.779v14.697c0 .995.294 1.112 3.816 1.112v2.518h-12.68v-2.518c3.522 0 3.815-.117 3.815-1.112V77.387c0-4.099-1.702-6.441-5.342-6.441-2.817 0-5.459 1.698-7.103 3.455v17.215c0 .995.294 1.112 3.816 1.112zM205.391 91.264a11.105 11.105 0 01-8.981 4.568c-4.227 0-7.397-2.752-7.397-6.617v-18.62h-3.757v-2.87h3.757V60.7l5.048-1.464v8.49h8.747v2.87h-8.747V87.81c0 3.044 1.585 4.508 4.403 4.508 2.055 0 3.757-1.112 5.401-2.927l1.526 1.873zM173.367 57.361a3.678 3.678 0 013.698-3.689 3.679 3.679 0 013.699 3.69 3.679 3.679 0 01-3.699 3.688 3.678 3.678 0 01-3.698-3.689zm1.292 16.571c0-1.23-.294-1.405-1.351-1.874l-2.7-1.23v-1.287l8.277-2.401h.822v24.476c0 .995.294 1.112 3.816 1.112v2.518h-12.68v-2.518c3.522 0 3.816-.117 3.816-1.112V73.932zM155.197 95.539l-6.751-20.612h-.235l-6.575 20.612h-2.935l-8.042-24.183c-.294-.937-.763-1.113-3.64-1.113v-2.518h12.445v2.518c-3.346.117-3.698.176-3.698.761 0 .235.117.586.235.879l5.107 16.512h.235l6.516-20.67h2.877l6.692 20.729h.235l5.342-16.571c.117-.293.234-.644.234-.879 0-.585-.352-.644-3.698-.76v-2.519h10.215v2.518c-2.877 0-3.288.176-3.581 1.113l-8.043 24.183h-2.935zM101.95 95.539l-6.751-20.612h-.235L88.39 95.54h-2.935l-8.042-24.183c-.294-.937-.764-1.113-3.64-1.113v-2.518h12.445v2.518c-3.346.117-3.698.176-3.698.761 0 .235.117.586.235.879l5.107 16.512h.235l6.516-20.67h2.876l6.693 20.729h.235l5.342-16.571c.117-.293.234-.644.234-.879 0-.585-.352-.644-3.698-.76v-2.519h10.215v2.518c-2.877 0-3.288.176-3.581 1.113l-8.043 24.183h-2.935zM72.626 89.625c-1.996 3.981-6.222 6.207-10.566 6.207-6.693 0-12.74-5.27-12.74-14.053 0-8.55 6.047-14.64 12.68-14.64 7.163 0 10.509 5.212 10.509 11.712v1.874H54.31v.175c0 7.554 4.168 11.418 8.864 11.418 3.053 0 5.049-1.17 7.28-4.216l2.171 1.523zm-10.86-19.616c-3.463 0-6.516 2.81-7.28 8.14h13.092c-.059-4.978-1.644-8.14-5.812-8.14zM41.072 92.728v2.518H26.63v-2.518c3.523 0 3.816-.117 3.816-1.112V73.932c0-1.23-.293-1.405-1.35-1.874l-2.7-1.23v-1.287l8.277-2.401h.822v7.788c1.76-2.987 5.4-7.788 8.747-7.788 2.583 0 3.874 1.757 3.874 3.513 0 2.05-1.409 3.162-3.17 3.162-1.644 0-2.348-1.698-3.698-1.698-1.644.117-4.168 3.045-5.753 5.387v13.995c0 1.112.293 1.23 5.577 1.23zM14.037 70.185c-4.168 0-7.69 4.45-7.69 11.008 0 7.32 3.875 11.125 8.101 11.125 3.288 0 5.46-1.58 7.397-4.86l2.29 1.406c-2.055 4.157-5.695 6.968-10.626 6.968-6.399 0-12.27-4.86-12.27-13.644 0-8.549 6.517-15.048 13.503-15.048 5.048 0 8.63 2.87 8.63 5.563 0 1.815-1.292 2.752-2.642 2.752-3.405 0-2.172-5.27-6.693-5.27zM205.626 36.96v2.517h-14.441V36.96c3.522 0 3.816-.117 3.816-1.113V18.164c0-1.23-.294-1.406-1.35-1.874l-2.701-1.23v-1.288l8.277-2.4h.822v7.787c1.761-2.986 5.401-7.788 8.747-7.788 2.583 0 3.875 1.757 3.875 3.514 0 2.049-1.409 3.162-3.17 3.162-1.644 0-2.348-1.698-3.699-1.698-1.643.117-4.168 3.044-5.753 5.386V35.73c0 1.113.294 1.23 5.577 1.23zM188.983 38.833l-8.278 1.23h-.822v-4.919c-1.761 2.284-4.989 4.919-8.805 4.919-5.107 0-8.101-3.806-8.101-9.779V16.993c0-1.23-.235-1.64-1.351-1.874l-2.817-.527v-2.05l8.394-.585h.822v17.976c0 4.274 1.879 6.441 5.166 6.441 2.701 0 4.99-1.581 6.692-3.455V16.993c0-1.23-.234-1.64-1.35-1.874l-2.818-.527v-2.05l8.395-.585h.822v22.485c0 1.23.293 1.405 1.35 1.873l2.701 1.23v1.288zM131.07 25.717c0-8.666 5.812-14.346 12.797-14.346 6.986 0 12.798 5.68 12.798 14.346s-5.812 14.346-12.798 14.346c-6.985 0-12.797-5.68-12.797-14.346zm20.194 0c0-7.085-2.583-11.418-7.397-11.418-4.813 0-7.396 4.333-7.396 11.418 0 7.085 2.583 11.418 7.396 11.418 4.814 0 7.397-4.333 7.397-11.418zM116.656 40.59c-2.7 6.675-5.87 11.886-11.036 11.886-2.348 0-4.344-1.405-4.344-3.63 0-1.815 1.467-2.81 2.818-2.81 2.289 0 2.876 2.693 4.109 2.693 1.761 0 3.816-3.338 6.164-9.252l-9.921-23.89c-.352-.937-.763-1.112-3.64-1.112v-2.518h12.68v2.518c-3.346.117-3.698.175-3.698.76 0 .235.117.586.235.88l6.633 16.98h.176l6.693-16.98c.117-.294.234-.645.234-.88 0-.585-.352-.643-3.698-.76v-2.518h10.391v2.518c-2.877 0-3.229.175-3.581 1.112L116.656 40.59zM76.5 40.59c-2.7 6.675-5.87 11.886-11.036 11.886-2.348 0-4.344-1.405-4.344-3.63 0-1.815 1.468-2.81 2.818-2.81 2.29 0 2.876 2.693 4.11 2.693 1.76 0 3.815-3.338 6.163-9.252l-9.921-23.89c-.352-.937-.763-1.112-3.64-1.112v-2.518h12.68v2.518c-3.346.117-3.698.175-3.698.76 0 .235.117.586.235.88l6.633 16.98h.177l6.692-16.98c.117-.294.235-.645.235-.88 0-.585-.353-.643-3.699-.76v-2.518h10.391v2.518c-2.877 0-3.229.175-3.581 1.112L76.5 40.59z" fill="#fff"/><path d="M57.04 40.063c-2.76 0-5.05-2.05-5.46-5.036-1.996 2.635-5.812 5.036-9.334 5.036-3.934 0-6.81-2.4-6.81-6.383 0-5.152 5.049-8.724 15.909-10.95V19.1c0-3.279-1.703-5.035-4.99-5.035-2.524 0-4.579 1.23-4.579 2.518 0 .76.528 1.112.528 2.342 0 1.64-1.232 2.81-2.935 2.81-1.585 0-3.052-1.23-3.052-3.22 0-4.04 5.635-7.144 11.27-7.144 5.225 0 8.806 1.816 8.806 7.554v14.638c0 2.108 1.292 2.987 2.407 2.987 1.116 0 1.82-.41 2.642-1.054l.88 1.815c-1.232 1.464-3.287 2.752-5.283 2.752zm-5.695-14.814c-7.28 1.64-10.92 3.63-10.92 7.436 0 2.4 1.527 3.865 3.758 3.865 2.7 0 4.99-1.288 7.162-3.514V25.25zM5.877 35.379V4.93c0-1.346-.704-1.522-5.283-1.522V.832H17.09c9.04 0 15.38 3.923 15.38 10.95 0 7.026-6.34 10.949-15.38 10.949h-5.695v12.648c0 1.346.705 1.522 5.284 1.522h2.524v2.576H.593v-2.576c4.58 0 5.284-.176 5.284-1.522zm5.518-15.342h5.342c5.988 0 9.804-2.4 9.804-8.256 0-5.855-3.816-8.256-9.804-8.256h-5.342v16.512z" fill="#fff"/></svg>