<svg width="117" height="143" viewBox="0 0 117 143" fill="none" xmlns="http://www.w3.org/2000/svg"><g filter="url(#filter0_d_1313_2424632)"><path fill-rule="evenodd" clip-rule="evenodd" d="M43.832 61.631c-.931-1.176-2.062-3.582-4.074-6.502-1.14-1.651-3.968-4.761-4.81-6.34-.731-1.397-.653-2.022-.479-3.18.308-2.057 2.419-3.66 4.67-3.443 1.7.16 3.143 1.284 4.44 2.346.783.639 1.747 1.881 2.327 2.582.534.643.665.908 1.235 1.668.754 1.006.99 1.504.702.397-.233-1.626-.613-4.401-1.164-6.856-.42-1.861-.52-2.153-.92-3.581-.423-1.521-.64-2.586-1.036-4.198-.275-1.14-.77-3.47-.904-4.781-.187-1.793-.286-4.716.865-6.06.9-1.052 2.969-1.37 4.25-.72 1.678.848 2.631 3.286 3.067 4.26.783 1.75 1.268 3.771 1.691 6.426.538 3.378 1.527 8.068 1.56 9.054.079-1.21-.223-3.755-.013-4.915.19-1.052 1.075-2.275 2.182-2.606.938-.278 2.035-.38 3.002-.18 1.026.21 2.107.944 2.51 1.635 1.187 2.045 1.21 6.223 1.259 6 .281-1.232.232-4.027.93-5.19.459-.767 1.629-1.459 2.252-1.57.963-.17 2.146-.223 3.159-.026.816.16 1.92 1.13 2.218 1.596.715 1.127 1.12 4.316 1.242 5.433.05.462.243-1.285.96-2.412 1.33-2.094 6.04-2.5 6.22 2.094.082 2.143.066 2.045.066 3.487 0 1.694-.04 2.713-.132 3.939-.101 1.31-.383 4.273-.793 5.708-.281.987-1.215 3.205-2.136 4.536 0 0-3.52 4.096-3.903 5.941-.387 1.842-.259 1.855-.334 3.162-.076 1.305.396 3.022.396 3.022s-2.628.34-4.044.114c-1.281-.206-2.867-2.756-3.277-3.535-.563-1.075-1.766-.869-2.235-.076-.737 1.255-2.323 3.507-3.444 3.647-2.189.276-6.73.102-10.286.066 0 0 .606-3.313-.744-4.45-1-.849-2.72-2.57-3.749-3.474l-2.726-3.018z" fill="#fff"/><path clip-rule="evenodd" d="M43.832 61.631c-.931-1.176-2.062-3.582-4.074-6.502-1.14-1.651-3.968-4.761-4.81-6.34-.731-1.397-.653-2.022-.479-3.18.308-2.057 2.419-3.66 4.67-3.443 1.7.16 3.143 1.284 4.44 2.346.783.639 1.747 1.881 2.327 2.582.534.643.665.908 1.235 1.668.754 1.006.99 1.504.702.397-.233-1.626-.613-4.401-1.164-6.856-.42-1.861-.52-2.153-.92-3.581-.423-1.521-.64-2.586-1.036-4.198-.275-1.14-.77-3.47-.904-4.781-.187-1.793-.286-4.716.865-6.06.9-1.052 2.969-1.37 4.25-.72 1.678.848 2.631 3.286 3.067 4.26.783 1.75 1.268 3.771 1.691 6.426.538 3.378 1.527 8.068 1.56 9.054.079-1.21-.223-3.755-.013-4.915.19-1.052 1.075-2.275 2.182-2.606.938-.278 2.035-.38 3.002-.18 1.026.21 2.107.944 2.51 1.635 1.187 2.045 1.21 6.223 1.259 6 .281-1.232.232-4.027.93-5.19.459-.767 1.629-1.459 2.252-1.57.963-.17 2.146-.223 3.159-.026.816.16 1.92 1.13 2.218 1.596.715 1.127 1.12 4.316 1.242 5.433.05.462.243-1.285.96-2.412 1.33-2.094 6.04-2.5 6.22 2.094.082 2.143.066 2.045.066 3.487 0 1.694-.04 2.713-.132 3.939-.101 1.31-.383 4.273-.793 5.708-.281.987-1.215 3.205-2.136 4.536 0 0-3.52 4.096-3.903 5.941-.387 1.842-.259 1.855-.334 3.162-.076 1.305.396 3.022.396 3.022s-2.628.34-4.044.114c-1.281-.206-2.867-2.756-3.277-3.535-.563-1.075-1.766-.869-2.235-.076-.737 1.255-2.323 3.507-3.444 3.647-2.189.276-6.73.102-10.286.066 0 0 .606-3.313-.744-4.45-1-.849-2.72-2.57-3.749-3.474l-2.726-3.018z" stroke="#000" stroke-width="2.458" stroke-linecap="round" stroke-linejoin="round"/><path d="M70.819 62.793V51.458M64.213 62.831l-.053-11.38M57.672 51.554l.069 11.227" stroke="#000" stroke-width="2.458" stroke-linecap="round"/></g><defs><filter id="filter0_d_1313_2424632" x="-.085" y=".062" width="142.432" height="145.709" filterUnits="userSpaceOnUse" color-interpolation-filters="sRGB"><feFlood flood-opacity="0" result="BackgroundImageFix"/><feColorMatrix in="SourceAlpha" values="0 0 0 0 0 0 0 0 0 0 0 0 0 0 0 0 0 0 127 0" result="hardAlpha"/><feOffset dx="12" dy="24"/><feGaussianBlur stdDeviation="22.5"/><feComposite in2="hardAlpha" operator="out"/><feColorMatrix values="0 0 0 0 0 0 0 0 0 0 0 0 0 0 0 0 0 0 0.5 0"/><feBlend in2="BackgroundImageFix" result="effect1_dropShadow_1313_2424632"/><feBlend in="SourceGraphic" in2="effect1_dropShadow_1313_2424632" result="shape"/></filter></defs></svg>