<svg width="300" height="600" viewBox="0 0 300 600" fill="none" xmlns="http://www.w3.org/2000/svg"><path d="M99.167-94.167H0V5m99.167-99.167V5H0m99.167-99.167L0 5M99.167 104.167H0m0 0L99.167 5H0v99.167zM99.167 104.167H0v99.166m99.167-99.166v99.166H0m99.167-99.166L0 203.333M198.333 5H99.167m0 0v-99.167h99.166L99.167 5zM99.166 5h99.167m0 0v99.167m0-99.167l-99.166 99.167" stroke="#202080" stroke-width=".793" stroke-linecap="square" stroke-linejoin="bevel"/><path d="M99.166 104.167v99.166m0 0l99.167-99.166v99.166H99.167zM297.5 5v-99.167L198.333 5H297.5zM297.5 5h-99.167v99.167M297.5 5v99.167h-99.167M297.5 5l-99.167 99.167M297.5 104.167h-99.167v99.166H297.5v-99.166zM396.667-94.167H297.5V5h99.167M396.667 5H297.5v99.167h99.167V5zM396.667 203.333H297.5m0 0v-99.166h99.167L297.5 203.333zM99.167 203.333L0 302.5h99.167M0 302.5h99.167m0 0v99.167H0L99.167 302.5z" stroke="#202080" stroke-width=".793" stroke-linecap="square" stroke-linejoin="bevel"/><path d="M0 401.667h99.167L0 500.833h99.167M0 500.833h99.167m0 0V600m0-99.167L0 600M198.333 302.5v-99.167L99.167 302.5h99.166zM198.333 401.667H99.167m0 0V302.5h99.166l-99.166 99.167zM99.166 401.667h99.167m0 0v99.166m0-99.166l-99.166 99.166" stroke="#202080" stroke-width=".793" stroke-linecap="square" stroke-linejoin="bevel"/><path d="M99.166 500.833V600l99.167-99.167V600M198.333 203.333V302.5l99.167-99.167M297.5 401.667V302.5l-99.167 99.167H297.5z" stroke="#202080" stroke-width=".793" stroke-linecap="square" stroke-linejoin="bevel"/><path d="M297.5 401.667h-99.167v99.166m99.167-99.166v99.166h-99.167m99.167-99.166l-99.167 99.166M297.5 600v-99.167h-99.167V600M396.667 302.5v-99.167L297.5 302.5h99.167zM396.667 302.5H297.5v99.167h99.167V302.5zM396.667 500.833H297.5m0 0v-99.166h99.167L297.5 500.833zM396.667 500.833H297.5V600l99.167-99.167zm0 0V600" stroke="#202080" stroke-width=".793" stroke-linecap="square" stroke-linejoin="bevel"/></svg>