<svg width="200" height="82" viewBox="0 0 200 82" fill="none" xmlns="http://www.w3.org/2000/svg"><g filter="url(#filter0_d_1313_2444444)"><rect x="20.82" y="16.836" width="167" height="52" rx="4.262" fill="#6733FF" shape-rendering="crispEdges"/><path d="M135.686 45.27l.388.403h4.937v1.163h-6.578v-8.503h6.429v1.164h-4.788l-.388.388v1.983h4.52v1.164h-4.52v2.238zM125.552 43.45v3.386h-1.253v-8.503h3.327c2.193 0 3.401.91 3.401 2.566 0 1.268-.701 2.088-2.014 2.402v.313l2.342 3.222h-1.506l-2.432-3.386h-1.865zm2.044-3.968h-1.641l-.403.403v2.401h2.044c1.462 0 2.148-.507 2.148-1.387 0-.91-.686-1.417-2.148-1.417zM121.253 42.584c0 2.492-1.492 4.46-3.849 4.46-2.342 0-3.834-1.968-3.834-4.46 0-2.506 1.492-4.46 3.834-4.46 2.357 0 3.849 1.954 3.849 4.46zm-1.313 0c0-1.805-.851-3.282-2.536-3.282-1.686 0-2.521 1.477-2.521 3.282s.835 3.267 2.521 3.267c1.685 0 2.536-1.462 2.536-3.267zM108.181 44.3h-1.671l-1.223-4.49h-.314v7.026h-1.223v-8.503h2.342l1.134 4.37h.283l1.253-4.37h2.178v8.503h-1.223V39.81h-.298l-1.238 4.49zM90.63 46.836h-1.448l-3.789-6.579h-.388v6.58h-1.178v-8.504h1.73l3.506 6.146h.388v-6.146h1.178v8.503zM75.26 43.45v3.386h-1.253v-8.503h3.327c2.193 0 3.401.91 3.401 2.566 0 1.268-.7 2.088-2.014 2.402v.313l2.343 3.222h-1.507l-2.432-3.386H75.26zm2.044-3.968h-1.64l-.404.403v2.401h2.044c1.462 0 2.148-.507 2.148-1.387 0-.91-.686-1.417-2.148-1.417zM69.916 46.836l-.94-2.491h-3.744l-.94 2.491h-1.343l3.372-8.503h1.596l3.356 8.503h-1.357zm-3.938-3.58h2.237l.254-.254-1.164-3.058h-.403l-1.163 3.073.239.239zM55.218 45.27l.388.403h4.938v1.163h-6.58v-8.503h6.43v1.164h-4.788l-.388.388v1.983h4.52v1.164h-4.52v2.238zM45.428 45.27l.388.403h4.49v1.163h-6.131v-8.503h1.253v6.937zM155.839 48.503l-.793-.793 9.407-9.408h-5.554V37.17h7.481v7.48h-1.133v-5.553l-9.408 9.407z" fill="#fff"/></g><defs><filter id="filter0_d_1313_2444444" x=".82" y=".836" width="207" height="92" filterUnits="userSpaceOnUse" color-interpolation-filters="sRGB"><feFlood flood-opacity="0" result="BackgroundImageFix"/><feColorMatrix in="SourceAlpha" values="0 0 0 0 0 0 0 0 0 0 0 0 0 0 0 0 0 0 127 0" result="hardAlpha"/><feOffset dy="4"/><feGaussianBlur stdDeviation="10"/><feComposite in2="hardAlpha" operator="out"/><feColorMatrix values="0 0 0 0 0.405825 0 0 0 0 0.2 0 0 0 0 1 0 0 0 0.4 0"/><feBlend in2="BackgroundImageFix" result="effect1_dropShadow_1313_2444444"/><feBlend in="SourceGraphic" in2="effect1_dropShadow_1313_2444444" result="shape"/></filter></defs></svg>