<svg width="165" height="46" viewBox="0 0 165 46" fill="none" xmlns="http://www.w3.org/2000/svg"><path d="M164.71 41.068c0 2.25-1.886 4.086-4.186 4.086-2.299 0-4.186-1.836-4.186-4.086s1.887-4.204 4.186-4.204c2.3 0 4.186 1.954 4.186 4.204zM148.761 37.693c-3.95 4.915-8.254 7.46-11.261 7.46-1.827 0-3.125-1.42-3.419-4.263l-.708-8.052c-1.886.296-3.773.533-5.542.533l-4.245 11.19h-5.011L133.491 7.97c.413-1.065.649-2.013.649-2.427 0-.83-.413-1.184-4.953-2.842l.472-1.421L140.153.154l1.18.532-9.788 22.797h.236c4.304-3.85 8.549-7.343 13.502-7.343 2.889 0 5.011 1.895 5.011 4.678 0 5.151-6.19 9.178-13.206 11.132l1.356 7.638c.294 1.48.766 2.013 1.709 2.013 1.592 0 4.009-1.658 7.193-5.329l1.415 1.421zm-6.721-17.94c-3.302 0-8.667 3.73-11.851 7.4l-1.65 4.323c8.784-.296 16.862-4.322 16.862-9 0-1.954-1.356-2.724-3.361-2.724zM113.12 18.686c-5.13 0-11.438 10.54-11.438 17.941 0 3.612 1.356 5.448 3.655 5.448 2.771 0 5.601-1.836 8.962-5.744l1.651 1.54c-3.715 4.618-8.077 7.282-11.792 7.282-4.54 0-7.428-2.9-7.428-8.467 0-8.94 8.961-20.546 17.51-20.546 3.832 0 5.896 2.073 5.896 4.796 0 1.954-1.238 3.435-2.948 3.435-3.714 0-1.651-5.685-4.068-5.685zM91.334 6.252c0-2.072 1.65-3.73 3.714-3.73a3.707 3.707 0 013.714 3.73c0 2.073-1.65 3.73-3.714 3.73a3.707 3.707 0 01-3.714-3.73zm3.832 10.717l-8.431 19.303c-1.415 3.197-1.65 3.73-1.65 4.44 0 .593.353.83.943.83 1.591 0 3.773-1.599 6.367-4.737l1.415 1.42c-3.36 4.383-7.782 6.928-10.848 6.928-1.828 0-3.125-1.006-3.125-2.664 0-1.006.295-1.895 1.061-3.671l6.132-14.566c.471-1.125.648-2.072.648-2.487 0-.77-.412-1.125-4.952-2.782l.472-1.422 10.73-1.125 1.238.533zM83.697.686l-14.68 35.586c-1.356 3.257-1.592 3.73-1.592 4.44 0 .593.353.83.943.83 1.592 0 3.655-1.599 6.25-4.737l1.415 1.42c-3.361 4.383-7.606 6.929-10.672 6.929-1.828 0-3.125-1.007-3.125-2.665 0-1.006.354-1.895 1.062-3.671L75.856 7.969c.412-1.065.648-2.013.648-2.427 0-.83-.413-1.184-4.952-2.842l.471-1.421L82.518.154l1.18.532zM55.603 18.686c-5.13 0-11.438 10.54-11.438 17.941 0 3.612 1.356 5.448 3.655 5.448 2.771 0 5.601-1.836 8.962-5.744l1.65 1.54c-3.714 4.618-8.077 7.282-11.79 7.282-4.54 0-7.43-2.9-7.43-8.467 0-8.94 8.962-20.546 17.51-20.546 3.833 0 5.897 2.073 5.897 4.796 0 1.954-1.238 3.435-2.948 3.435-3.715 0-1.651-5.685-4.068-5.685zM22.407 45.154c-2.771 0-5.07-2.073-5.483-5.093-2.005 2.665-5.837 5.093-9.374 5.093-3.95 0-6.84-2.428-6.84-6.454 0-5.21 5.07-8.823 15.978-11.073v-3.67c0-3.317-1.71-5.093-5.011-5.093-2.536 0-4.6 1.244-4.6 2.546 0 .77.532 1.125.532 2.369 0 1.657-1.239 2.842-2.948 2.842-1.592 0-3.066-1.244-3.066-3.257 0-4.085 5.66-7.224 11.32-7.224 5.247 0 8.844 1.836 8.844 7.639V38.58c0 2.132 1.296 3.02 2.417 3.02 1.12 0 1.827-.415 2.653-1.066l.884 1.836c-1.238 1.48-3.301 2.782-5.306 2.782zm-5.719-14.98c-7.31 1.657-10.966 3.67-10.966 7.519 0 2.428 1.533 3.908 3.773 3.908 2.712 0 5.012-1.303 7.193-3.553v-7.875z" fill="#fff"/></svg>