<svg width="152" height="191" viewBox="0 0 152 191" fill="none" xmlns="http://www.w3.org/2000/svg"><g filter="url(#filter0_dddd_1313_2445046)" clip-path="url(#clip0_1313_2445046)"><g filter="url(#filter1_dd_1313_2445046)"><path d="M122.291.036h-92.41C16.649.036 5.92 10.765 5.92 23.998v242.076c0 13.234 10.728 23.962 23.962 23.962h92.409c13.234 0 23.962-10.728 23.962-23.962V23.998c0-13.234-10.728-23.962-23.962-23.962z" fill="#352C40"/></g><path d="M5.984 28.154H8.42v2.229H5.947l.037-2.229z" fill="url(#paint0_linear_1313_2445046)"/><path d="M115.129.036l2.223.03v2.18h-2.223V.037z" fill="url(#paint1_linear_1313_2445046)"/><path d="M143.751 30.383h2.501v-2.229h-2.501v2.23z" fill="url(#paint2_linear_1313_2445046)"/><path d="M122.296 1.917h-92.42c-12.195 0-22.081 9.886-22.081 22.081v242.077c0 12.195 9.886 22.081 22.081 22.081h92.42c12.195 0 22.081-9.886 22.081-22.081V23.998c0-12.195-9.886-22.081-22.081-22.081z" fill="#000" stroke="#54485F" stroke-width=".139"/><path fill-rule="evenodd" clip-rule="evenodd" d="M10.505 14.13c-2.362 4.647-2.362 10.732-2.362 22.902V253.04c0 12.17 0 18.254 2.362 22.903a21.71 21.71 0 009.472 9.496c4.637 2.368 10.707 2.368 22.846 2.368h66.526c12.139 0 18.209 0 22.845-2.368a21.707 21.707 0 009.473-9.496c2.362-4.649 2.362-10.733 2.362-22.903V37.031c0-12.169 0-18.253-2.362-22.902a21.7 21.7 0 00-9.473-9.496c-4.636-2.368-10.706-2.368-22.845-2.368H90.397c-.307 0-.544.265-.692.534a1.109 1.109 0 01-.973.578h-25.57c-.42 0-.785-.233-.973-.578-.148-.27-.385-.534-.692-.534H42.823c-12.14 0-18.209 0-22.846 2.368a21.702 21.702 0 00-9.472 9.496z" fill="#000"/><path d="M8.282 37.032c0-6.087 0-10.644.295-14.26.294-3.615.882-6.278 2.052-8.58a21.563 21.563 0 019.412-9.434c2.295-1.173 4.951-1.763 8.557-2.058 3.607-.295 8.153-.295 14.225-.295h18.674c.11 0 .216.047.315.132s.186.204.254.33c.212.387.623.65 1.096.65h25.57c.472 0 .883-.263 1.095-.65.069-.126.155-.245.255-.33a.483.483 0 01.315-.132h18.952c6.072 0 10.617 0 14.225.295 3.605.295 6.262.885 8.557 2.058a21.558 21.558 0 019.411 9.435c1.17 2.3 1.758 4.964 2.053 8.579.295 3.616.295 8.173.295 14.26V253.04c0 6.087 0 10.644-.295 14.261-.295 3.614-.883 6.277-2.053 8.578a21.559 21.559 0 01-9.411 9.436c-2.295 1.172-4.952 1.762-8.557 2.057-3.608.295-8.153.296-14.225.296H42.823c-6.072 0-10.618-.001-14.225-.296-3.606-.295-6.262-.885-8.557-2.057a21.563 21.563 0 01-9.412-9.436c-1.17-2.301-1.758-4.964-2.052-8.578-.295-3.617-.295-8.174-.295-14.261V37.031z" stroke="#fff" stroke-opacity=".16" stroke-width=".279"/><path d="M62.318 2.733c-.06-.109-.14-.226-.237-.328h27.733a1.59 1.59 0 00-.237.328.982.982 0 01-.861.507H63.179a.982.982 0 01-.861-.507z" fill="url(#paint3_linear_1313_2445046)"/><path d="M89.577 2.733c.06-.109.14-.226.237-.328H62.08c.097.102.177.219.237.328.166.302.49.507.86.507h25.538a.982.982 0 00.86-.507zm0 0l.122.067" stroke="#000" stroke-width=".279"/><g filter="url(#filter2_ii_1313_2445046)"><path d="M147.086 92.525a.558.558 0 00-.557-.558h-.277v34.544h.277a.557.557 0 00.557-.557v-33.43z" fill="#6F6585"/><path d="M147.086 92.525a.558.558 0 00-.557-.558h-.277v34.544h.277a.557.557 0 00.557-.557v-33.43z" fill="url(#paint4_linear_1313_2445046)"/></g><g filter="url(#filter3_ii_1313_2445046)"><path d="M5.086 56.17c0-.23.187-.418.418-.418h.416v11.143h-.416a.418.418 0 01-.418-.418V56.17z" fill="#6F6585"/><path d="M5.086 56.17c0-.23.187-.418.418-.418h.416v11.143h-.416a.418.418 0 01-.418-.418V56.17z" fill="url(#paint5_linear_1313_2445046)"/></g><g filter="url(#filter4_ii_1313_2445046)"><path d="M5.364 77.063c0-.23.187-.418.418-.418h.138v22.287h-.138a.418.418 0 01-.418-.418v-21.45z" fill="#6F6585"/><path d="M5.364 77.063c0-.23.187-.418.418-.418h.138v22.287h-.138a.418.418 0 01-.418-.418v-21.45z" fill="url(#paint6_linear_1313_2445046)"/></g><g filter="url(#filter5_ii_1313_2445046)"><path d="M5.364 104.921c0-.231.187-.418.418-.418h.138v22.286h-.138a.418.418 0 01-.418-.418v-21.45z" fill="#6F6585"/><path d="M5.364 104.921c0-.231.187-.418.418-.418h.138v22.286h-.138a.418.418 0 01-.418-.418v-21.45z" fill="url(#paint7_linear_1313_2445046)"/></g><path d="M90.397 13.687a2.782 2.782 0 00-2.779 2.786 2.782 2.782 0 002.779 2.785 2.782 2.782 0 002.779-2.785 2.782 2.782 0 00-2.78-2.786z" fill="url(#paint8_linear_1313_2445046)"/><path d="M90.397 17.587c.614 0 1.112-.5 1.112-1.114a1.113 1.113 0 10-2.223 0c0 .615.497 1.114 1.111 1.114z" fill="url(#paint9_radial_1313_2445046)"/><g filter="url(#filter6_f_1313_2445046)"><path d="M90.296 15.56a.765.765 0 00-.572.268.974.974 0 00-.237.645c0 .241.086.473.237.644a.765.765 0 00.572.267v-1.823z" fill="url(#paint10_linear_1313_2445046)"/></g><g filter="url(#filter7_f_1313_2445046)"><path d="M90.196 16.37a.303.303 0 100-.606.303.303 0 000 .607z" fill="#50326D"/></g><g filter="url(#filter8_f_1313_2445046)"><path d="M90.499 17.384c.214 0 .42-.096.571-.267a.974.974 0 00.237-.644.974.974 0 00-.237-.645.765.765 0 00-.571-.267v1.824z" fill="url(#paint11_linear_1313_2445046)"/></g><g filter="url(#filter9_f_1313_2445046)"><path d="M90.6 17.182a.304.304 0 10-.001-.607.304.304 0 000 .607z" fill="url(#paint12_linear_1313_2445046)"/></g><mask id="a" maskUnits="userSpaceOnUse" x="12" y="6" width="128" height="278"><path d="M122.222 6.407H29.779c-9.694 0-17.553 7.86-17.553 17.554v242.078c0 9.694 7.859 17.553 17.553 17.553h92.443c9.695 0 17.554-7.859 17.554-17.553V23.961c0-9.695-7.859-17.554-17.554-17.554z" fill="#fff"/></mask><g mask="url(#a)"><mask id="b" maskUnits="userSpaceOnUse" x="12" y="6" width="129" height="281"><path d="M140.116 6.407H12.132v279.596h127.984V6.407z" fill="#fff"/></mask><g mask="url(#b)"><path d="M140.116 6.407H12.132v279.596h127.984V6.407z" fill="#F6F8FA"/><path d="M140.116 6.407H12.132v105.341h127.984V6.408z" fill="#4426BD"/><path d="M125.127 31.142h-3.154v3.154h2.366v3.153h1.577l3.155-3.153v3.153h1.578l3.154-3.153h.789v-3.154h-1.577l-3.155 3.154h-.001v-3.154h-1.577l-3.155 3.154v-3.154zM20.958 34.933c0 .912-.625 1.517-1.571 1.517-1.023 0-1.677-.753-1.677-1.938 0-1.169.664-1.935 1.677-1.935.82 0 1.415.456 1.548 1.19h-.469c-.159-.5-.53-.765-1.08-.765-.732 0-1.202.59-1.202 1.51 0 .933.462 1.513 1.205 1.513.662 0 1.11-.423 1.11-1.049v-.09h-1.04v-.405h1.5v.452zm1.898 1.479c-.788 0-1.275-.544-1.275-1.43 0-.89.487-1.431 1.274-1.431.788 0 1.275.54 1.275 1.43 0 .887-.487 1.431-1.274 1.431zm0-.397c.522 0 .817-.38.817-1.034 0-.656-.294-1.033-.817-1.033-.524 0-.818.377-.818 1.033 0 .654.294 1.034.817 1.034zm3.102.397c-.787 0-1.274-.544-1.274-1.43 0-.89.487-1.431 1.274-1.431s1.274.54 1.274 1.43c0 .887-.487 1.431-1.274 1.431zm0-.397c.523 0 .818-.38.818-1.034 0-.656-.295-1.033-.818-1.033-.523 0-.818.377-.818 1.033 0 .654.295 1.034.818 1.034zm2.99.397c-.709 0-1.162-.562-1.162-1.43 0-.867.459-1.431 1.161-1.431.385 0 .71.182.867.484h.038v-1.533h.441v3.861h-.42v-.44h-.041c-.175.307-.503.489-.885.489zm.102-2.464c-.503 0-.808.39-.808 1.033 0 .646.302 1.034.808 1.034.502 0 .812-.395.812-1.034 0-.633-.312-1.033-.812-1.033zm3.581 2.415V33.6h.42v.436h.042c.125-.307.402-.484.771-.484.375 0 .636.197.764.484h.041c.15-.292.465-.484.847-.484.564 0 .879.323.879.902v1.91h-.441v-1.807c0-.408-.192-.608-.582-.608a.622.622 0 00-.641.639v1.776h-.441v-1.876c0-.329-.228-.539-.577-.539-.361 0-.64.313-.64.703v1.712h-.442zm5.705.049c-.787 0-1.275-.544-1.275-1.43 0-.89.488-1.431 1.275-1.431.787 0 1.274.54 1.274 1.43 0 .887-.487 1.431-1.274 1.431zm0-.397c.523 0 .818-.38.818-1.034 0-.656-.295-1.033-.818-1.033-.523 0-.818.377-.818 1.033 0 .654.295 1.034.818 1.034zm1.966.348V33.6h.42v.41h.041c.083-.269.4-.458.767-.458.072 0 .164.005.22.013v.44a1.767 1.767 0 00-.281-.025c-.42 0-.726.282-.726.672v1.712h-.44zm2.051 0V33.6h.42v.436h.042c.138-.305.407-.484.83-.484.62 0 .967.366.967 1.023v1.79h-.441V34.68c0-.497-.21-.733-.651-.733-.441 0-.726.295-.726.78v1.635h-.44zm3.077 0V33.6h.44v2.764h-.44zm.22-3.297a.309.309 0 01-.307-.307c0-.17.138-.308.307-.308.17 0 .308.138.308.308 0 .169-.139.307-.308.307zm1.062 3.297V33.6h.42v.436h.041c.138-.305.408-.484.83-.484.621 0 .967.366.967 1.023v1.79h-.44V34.68c0-.497-.211-.733-.652-.733-.44 0-.725.295-.725.78v1.635h-.441zm4.184-.43c.512 0 .82-.39.82-.993 0-.602-.31-.992-.82-.992-.513 0-.8.39-.8.992 0 .603.287.993.8.993zm.02 1.492c-.666 0-1.092-.3-1.159-.757h.467c.049.226.295.372.692.372.495 0 .79-.243.79-.651v-.544h-.041c-.175.306-.487.477-.867.477-.715 0-1.159-.553-1.159-1.382 0-.828.449-1.39 1.16-1.39.386 0 .727.19.886.488h.041V33.6h.42v2.812c0 .618-.476 1.013-1.23 1.013zm2.34-.12h-.33l.244-1.46h.49l-.403 1.46zm4.241-.942h-.461V33.08h-1.192v-.415h2.846v.415h-1.193v3.284zm1.808 0V33.6h.44v2.764h-.44zm.22-3.297a.309.309 0 01-.307-.307c0-.17.138-.308.307-.308.17 0 .308.138.308.308 0 .169-.139.307-.308.307zm1.246 3.297V33.97h-.459v-.37h.46v-.307c0-.551.276-.815.802-.815.107 0 .205.007.297.025v.36a1.209 1.209 0 00-.208-.014c-.317 0-.45.154-.45.457v.294h.633v.37h-.634v2.394h-.44zm1.903 0V33.97h-.46v-.37h.46v-.307c0-.551.276-.815.802-.815.108 0 .205.007.297.025v.36a1.208 1.208 0 00-.207-.014c-.318 0-.451.154-.451.457v.294h.633v.37h-.633v2.394h-.441zm2.492-.338c.453 0 .79-.297.79-.692v-.254l-.744.048c-.42.029-.605.175-.605.452 0 .282.238.446.559.446zm-.082.387c-.536 0-.934-.318-.934-.823 0-.495.364-.78 1.008-.818l.797-.049v-.25c0-.342-.212-.529-.625-.529-.331 0-.562.126-.623.344h-.446c.059-.444.494-.736 1.084-.736.674 0 1.051.346 1.051.92v1.892h-.42v-.407h-.041c-.18.294-.482.456-.851.456zm2.127-.049V33.6h.421v.436h.041c.138-.305.408-.484.83-.484.621 0 .967.366.967 1.023v1.79h-.44V34.68c0-.497-.211-.733-.652-.733-.44 0-.725.295-.725.78v1.635h-.442zm3.2 1c-.059 0-.136-.005-.197-.015v-.377c.054.01.123.013.184.013.254 0 .393-.12.508-.454l.051-.164-1.023-2.767h.477l.759 2.275h.041l.756-2.275h.47l-1.08 2.934c-.236.64-.456.83-.946.83z" fill="#fff"/><path d="M66.446 50.053H17.382v9.938h49.064v-9.938z" fill="#4426BD"/><path d="M32.289 50.053H22.35a4.969 4.969 0 000 9.938h9.938a4.969 4.969 0 000-9.938z" fill="#fff"/><path d="M23.059 56.022h-.496v-2.346h-.854v-.429h2.206v.43h-.856v2.345zm1.86.042c-.631 0-1.012-.411-1.012-1.094 0-.679.386-1.094 1.011-1.094.627 0 1.012.413 1.012 1.094 0 .683-.383 1.094-1.012 1.094zm0-.4c.332 0 .52-.254.52-.694 0-.438-.19-.694-.52-.694-.334 0-.524.256-.524.694 0 .44.19.694.523.694zm2.253.393c-.533 0-.866-.42-.866-1.089 0-.665.335-1.084.866-1.084.288 0 .527.138.638.369h.033v-1.148h.477v2.917h-.462v-.333h-.032c-.12.231-.362.368-.654.368zm.148-1.768c-.325 0-.525.258-.525.681 0 .425.198.68.525.68.329 0 .529-.257.529-.68 0-.419-.202-.68-.53-.68zm2.32 1.393c.29 0 .505-.187.505-.431v-.167l-.476.03c-.267.018-.392.114-.392.285 0 .177.152.283.364.283zm-.14.375c-.405 0-.696-.247-.696-.631 0-.38.287-.6.798-.63l.543-.033v-.177c0-.206-.139-.322-.397-.322-.219 0-.369.077-.413.22h-.45c.038-.371.386-.608.886-.608.54 0 .845.264.845.71v1.436h-.46v-.288h-.033c-.117.203-.348.323-.623.323zm1.856.728c-.029 0-.158-.002-.189-.007v-.39a.934.934 0 00.131.007c.202 0 .316-.077.377-.271l.025-.092-.752-2.114h.523l.492 1.642h.033l.49-1.642h.504l-.76 2.171c-.178.523-.403.696-.874.696z" fill="#4426BD"/><path d="M61.477 50.053H43.54a4.969 4.969 0 000 9.938h17.938a4.969 4.969 0 000-9.938z" fill="#fff" fill-opacity=".16"/><path d="M43.511 53.248v1.772c0 .375.233.627.644.627.412 0 .644-.252.644-.627v-1.773h.496v1.82c0 .605-.438 1.024-1.14 1.024s-1.14-.419-1.14-1.025v-1.819h.496zm3.563.636c.533 0 .867.411.867 1.086 0 .672-.33 1.087-.861 1.087-.302 0-.535-.131-.642-.354h-.033v1.02h-.477v-2.804h.46v.348h.032a.713.713 0 01.654-.383zm-.15 1.767c.33 0 .527-.256.527-.68 0-.426-.198-.681-.525-.681-.325 0-.529.261-.53.68.001.422.203.681.528.681zm3.313-1.025h-.454c-.044-.204-.202-.35-.463-.35-.327 0-.521.252-.521.689 0 .442.196.7.521.7.248 0 .413-.118.463-.337h.454c-.052.44-.382.736-.915.736-.633 0-1.006-.407-1.006-1.1 0-.682.371-1.088 1.004-1.088.54 0 .867.308.917.75zm1.363 1.439c-.63 0-1.01-.412-1.01-1.095 0-.678.386-1.094 1.01-1.094.627 0 1.012.414 1.012 1.094 0 .683-.383 1.095-1.012 1.095zm0-.4c.333 0 .522-.254.522-.695 0-.438-.19-.694-.522-.694s-.523.256-.523.694c0 .44.19.694.523.694zm1.493.357V53.92h.46v.34h.032c.09-.24.306-.383.584-.383.29 0 .493.146.581.383h.033c.104-.23.346-.383.638-.383.421 0 .675.264.675.7v1.446h-.475v-1.325c0-.27-.129-.405-.384-.405-.248 0-.412.18-.412.42v1.31h-.463v-1.36c0-.23-.146-.37-.381-.37-.236 0-.412.194-.412.451v1.28h-.476zm3.574 0V53.92h.475v2.103h-.475zm.237-2.451a.287.287 0 010-.575c.157 0 .284.128.284.288 0 .16-.127.287-.284.287zm.83 2.451V53.92h.46v.336h.033c.1-.235.311-.379.625-.379.469 0 .725.283.725.785v1.361H59.1v-1.248c0-.32-.135-.482-.425-.482-.285 0-.464.196-.464.505v1.225h-.477zm3.311-.419c.333 0 .533-.254.533-.656s-.202-.657-.533-.657c-.332 0-.52.255-.52.657s.188.656.52.656zm0 1.22c-.54 0-.894-.24-.932-.6h.479c.03.143.2.236.461.236.327 0 .517-.154.517-.418v-.398h-.032c-.121.225-.35.348-.642.348-.531 0-.862-.411-.862-1.044 0-.644.333-1.063.87-1.063.286 0 .536.142.651.371h.033v-.336h.46v2.11c0 .487-.39.793-1.003.793zM132.24 64.656H20.008a2.461 2.461 0 00-2.462 2.462V138a2.461 2.461 0 002.462 2.461H132.24a2.461 2.461 0 002.461-2.461V67.118a2.461 2.461 0 00-2.461-2.462z" fill="#fff"/><path d="M132.24 64.656H20.008a2.461 2.461 0 00-2.462 2.462V138a2.461 2.461 0 002.462 2.461H132.24a2.461 2.461 0 002.461-2.461V67.118a2.461 2.461 0 00-2.461-2.462z" stroke="#DFE2E5" stroke-width=".328"/><path d="M24.113 77.743h-.992v-5.55h.992v2.596h.035l2.215-2.596h1.142l-2.138 2.462 2.303 3.088h-1.207l-1.804-2.423-.546.638v1.785zm7.565-4.077v4.077h-.923v-.708h-.02c-.215.496-.626.78-1.245.78-.885 0-1.446-.572-1.446-1.514v-2.635H29v2.442c0 .585.285.9.823.9.554 0 .896-.392.896-.984v-2.358h.958zm.784 4.077v-4.077h.92v.712h.019c.138-.496.496-.781.976-.781.123 0 .231.023.3.038v.866a1.214 1.214 0 00-.388-.054c-.542 0-.87.35-.87.923v2.373h-.957zm4.357.08c-1.196 0-1.972-.796-1.972-2.118 0-1.316.784-2.123 1.972-2.123 1.189 0 1.973.803 1.973 2.123 0 1.322-.777 2.118-1.973 2.118zm0-.757c.608 0 1-.492 1-1.362 0-.865-.392-1.36-1-1.36-.603 0-1 .495-1 1.36 0 .87.393 1.362 1 1.362zm2.515-2.23c0-.747.65-1.254 1.635-1.254.992 0 1.623.534 1.646 1.307h-.892c-.039-.369-.312-.604-.754-.604-.423 0-.704.2-.704.5 0 .235.17.397.596.493l.677.15c.846.188 1.173.515 1.173 1.107 0 .77-.708 1.288-1.707 1.288-1.066 0-1.696-.507-1.773-1.296h.942c.073.397.346.597.83.597.466 0 .754-.193.754-.497 0-.246-.146-.384-.573-.48l-.677-.15c-.78-.173-1.172-.558-1.172-1.162zm5.477 2.25c.542 0 .977-.362.977-.855v-.311l-.943.058c-.461.03-.727.238-.727.561 0 .335.277.546.693.546zm-.289.722c-.788 0-1.361-.496-1.361-1.23 0-.724.557-1.158 1.55-1.22l1.077-.061v-.292c0-.427-.289-.673-.762-.673-.454 0-.742.219-.804.557h-.888c.042-.761.692-1.307 1.73-1.307 1.012 0 1.67.534 1.67 1.353v2.808h-.923v-.65h-.02c-.234.442-.746.715-1.269.715zm8.5-4.142l-1.105 4.077H50.91l-.804-2.98h-.019l-.8 2.98h-1l-1.103-4.077h.96l.69 3.13h.018l.797-3.13h.919l.796 3.13h.023l.688-3.13h.946zm1.895 3.42c.542 0 .977-.362.977-.855v-.311l-.942.058c-.462.03-.727.238-.727.561 0 .335.277.546.692.546zm-.288.722c-.789 0-1.362-.496-1.362-1.23 0-.724.558-1.158 1.55-1.22l1.077-.061v-.292c0-.427-.288-.673-.761-.673-.454 0-.743.219-.804.557h-.889c.043-.761.693-1.307 1.731-1.307 1.011 0 1.669.534 1.669 1.353v2.808h-.923v-.65h-.02c-.234.442-.745.715-1.268.715zm4.657-5.615h2.026c1.658 0 2.639 1.004 2.639 2.762 0 1.757-.977 2.788-2.639 2.788h-2.026v-5.55zm.992.839v3.872h.93c1.116 0 1.731-.68 1.731-1.946 0-1.242-.623-1.926-1.73-1.926h-.931zm6.169 4.791c-1.197 0-1.973-.796-1.973-2.118 0-1.316.784-2.123 1.972-2.123 1.189 0 1.973.803 1.973 2.123 0 1.322-.776 2.118-1.972 2.118zm0-.757c.607 0 1-.492 1-1.362 0-.865-.393-1.36-1-1.36-.604 0-1 .495-1 1.36 0 .87.392 1.362 1 1.362zm6.18-1.946h-.904c-.077-.435-.381-.761-.892-.761-.604 0-.993.507-.993 1.346 0 .853.393 1.346 1 1.346.485 0 .8-.277.889-.739h.903c-.077.912-.78 1.511-1.803 1.511-1.192 0-1.962-.796-1.962-2.118 0-1.304.77-2.123 1.954-2.123 1.077 0 1.742.68 1.807 1.538zm4.191-1.454v4.077h-.923v-.708h-.019c-.215.496-.627.78-1.246.78-.884 0-1.446-.572-1.446-1.514v-2.635h.958v2.442c0 .585.284.9.823.9.553 0 .896-.392.896-.984v-2.358h.957zm.785 4.077v-4.077h.919v.708h.02c.176-.473.607-.785 1.16-.785.577 0 .989.296 1.139.82h.023c.196-.504.68-.82 1.269-.82.804 0 1.33.543 1.33 1.358v2.796h-.957v-2.561c0-.5-.261-.785-.73-.785-.462 0-.777.338-.777.827v2.519h-.931v-2.611c0-.454-.277-.735-.723-.735-.462 0-.785.358-.785.85v2.496h-.957zm8.387-3.42c-.538 0-.927.412-.965.982h1.904c-.02-.577-.389-.981-.939-.981zm.942 2.2h.896c-.123.77-.838 1.3-1.803 1.3-1.223 0-1.962-.803-1.962-2.103 0-1.288.747-2.138 1.923-2.138 1.158 0 1.88.803 1.88 2.042v.311h-2.849v.058c0 .654.4 1.092 1.027 1.092.446 0 .785-.223.888-.561zm1.554 1.22v-4.077h.92v.7h.018c.22-.484.654-.777 1.281-.777.9 0 1.411.577 1.411 1.52v2.634h-.957V75.3c0-.577-.27-.9-.816-.9-.55 0-.9.396-.9.98v2.362h-.957zm4.665-5.03h.957v.953h.77v.739h-.77v2.119c0 .334.154.488.493.488.088 0 .211-.008.273-.02v.731a2.63 2.63 0 01-.496.039c-.881 0-1.227-.312-1.227-1.104v-2.253h-.585v-.739h.585v-.953zm3.815 4.372c.542 0 .977-.361.977-.854v-.311l-.943.058c-.461.03-.727.238-.727.561 0 .335.277.546.693.546zm-.289.723c-.788 0-1.361-.496-1.361-1.23 0-.724.558-1.158 1.55-1.22l1.077-.061v-.292c0-.427-.289-.673-.762-.673-.454 0-.742.219-.804.557h-.888c.042-.761.692-1.307 1.73-1.307 1.012 0 1.67.534 1.67 1.353v2.808h-.923v-.65h-.02c-.234.442-.746.715-1.269.715zm2.985-.065v-4.077h.919v.712h.019c.138-.496.496-.781.977-.781.123 0 .231.023.3.038v.866a1.217 1.217 0 00-.389-.054c-.542 0-.869.35-.869.923v2.373h-.957zm3.165 1.515c-.058 0-.327-.004-.377-.015v-.758c.05.011.219.015.277.015.396 0 .6-.15.703-.527 0-.011.062-.215.058-.227l-1.45-4.08h1.046l.958 3.261h.019l.962-3.26h1.007l-1.477 4.237c-.346 1.012-.796 1.354-1.726 1.354zM25.143 87.778v.59h-2.118v-3.237h.678v2.647h1.44zm1.508-1.438c-.303 0-.516.21-.539.532h1.055c-.014-.328-.211-.532-.516-.532zm.529 1.324h.608c-.096.464-.525.758-1.13.758-.754 0-1.199-.476-1.199-1.279 0-.805.454-1.303 1.19-1.303.728 0 1.16.464 1.16 1.25v.199h-1.7v.034c.01.368.225.596.566.596.258 0 .435-.092.505-.255zm2.057.25c.303 0 .532-.192.532-.443v-.182l-.5.031c-.28.02-.418.122-.418.299 0 .184.16.296.386.296zm-.215.492c-.476 0-.81-.291-.81-.745 0-.448.343-.709.958-.745l.599-.035v-.202c0-.207-.148-.323-.417-.323-.236 0-.393.08-.447.229h-.601c.043-.458.462-.745 1.083-.745.655 0 1.026.31 1.026.839v1.689h-.633v-.323h-.04c-.128.227-.397.361-.718.361zm2.918 0c-.623 0-1.007-.489-1.007-1.279 0-.787.386-1.274 1.007-1.274.335 0 .61.162.738.435h.039V84.95h.652v3.419h-.632v-.388h-.04c-.133.267-.414.426-.757.426zm.222-2.005c-.347 0-.558.276-.558.729 0 .457.208.731.558.731.35 0 .561-.276.561-.73 0-.45-.213-.73-.56-.73zm2.989 1.067h.654c.032.263.297.431.678.431.352 0 .601-.17.601-.415 0-.206-.161-.325-.558-.41l-.422-.09c-.59-.123-.88-.43-.88-.924 0-.61.492-1.012 1.239-1.012.713 0 1.218.4 1.238.976h-.637c-.031-.256-.27-.427-.597-.427-.338 0-.563.157-.563.404 0 .2.155.314.534.395l.39.083c.651.137.931.417.931.92 0 .653-.5 1.052-1.312 1.052-.772 0-1.272-.38-1.297-.983zm5.374-.702h-.61c-.045-.235-.213-.39-.491-.39-.352 0-.55.262-.55.75 0 .493.2.76.55.76.267 0 .442-.13.491-.375h.61c-.053.554-.457.91-1.101.91-.772 0-1.21-.466-1.21-1.296 0-.82.436-1.285 1.21-1.285.655 0 1.048.363 1.102.926zm1.582-.426c-.303 0-.516.21-.538.532h1.054c-.014-.328-.21-.532-.516-.532zm.53 1.324h.607c-.096.464-.525.758-1.13.758-.754 0-1.198-.476-1.198-1.279 0-.805.453-1.303 1.189-1.303.729 0 1.16.464 1.16 1.25v.199h-1.699v.034c.01.368.225.596.566.596.258 0 .435-.092.504-.255zm1.164.704v-2.474h.632v.397h.04c.115-.278.366-.451.732-.451.55 0 .846.336.846.928v1.6h-.653v-1.445c0-.34-.146-.52-.456-.52-.302 0-.489.213-.489.538v1.427h-.652zm2.89 0v-2.474h.652v2.474h-.653zm.327-2.845a.373.373 0 010-.747.37.37 0 01.37.373.371.371 0 01-.37.374zm3.176 1.243h-.61c-.045-.235-.213-.39-.491-.39-.353 0-.55.262-.55.75 0 .493.2.76.55.76.267 0 .442-.13.49-.375h.611c-.054.554-.458.91-1.101.91-.772 0-1.21-.466-1.21-1.296 0-.82.436-1.285 1.21-1.285.655 0 1.047.363 1.101.926zm3.84 1.602l-.244-.772h-1.137l-.25.772h-.679l1.124-3.237h.796l1.124 3.237h-.733zm-.83-2.564l-.405 1.27h.848l-.402-1.27h-.04zm2.051 2.564v-2.474h.633v.394h.04c.065-.246.32-.435.635-.435.09 0 .2.011.256.032v.594a1.19 1.19 0 00-.31-.04c-.357 0-.601.21-.601.558v1.371h-.653zm2.29-3.062h.653v.612h.514v.514h-.514v1.113c0 .215.099.314.321.314a1.6 1.6 0 00.193-.01v.499c-.08.016-.202.029-.328.029-.6 0-.839-.195-.839-.677v-1.268h-.385v-.514h.386v-.612zm1.717 3.062v-2.474h.652v2.474h-.652zm.327-2.845a.373.373 0 01-.37-.374.371.371 0 11.74 0 .371.371 0 01-.37.374zm.931 1.097c0-.468.413-.78 1.03-.78.628 0 .998.262 1.034.736h-.604c-.033-.16-.183-.258-.426-.258-.233 0-.406.105-.406.262 0 .121.106.195.334.247l.465.1c.48.106.695.308.695.678 0 .494-.442.817-1.09.817-.653 0-1.048-.267-1.093-.743h.638c.049.168.208.265.468.265.254 0 .429-.106.429-.265 0-.12-.094-.195-.312-.242l-.449-.101c-.48-.105-.713-.334-.713-.716zm2.831-1.314h.653v.612h.514v.514h-.514v1.113c0 .215.099.314.32.314a1.6 1.6 0 00.194-.01v.499c-.081.016-.202.029-.328.029-.601 0-.839-.195-.839-.677v-1.268h-.386v-.514h.386v-.612zm4.677 1.184c-.237 0-.379.191-.379.512 0 .318.142.511.377.511.24 0 .39-.195.39-.511s-.15-.512-.388-.512zm.072-1.375c1.075 0 1.81.678 1.81 1.667 0 .713-.338 1.16-.881 1.16-.28 0-.485-.135-.534-.35h-.04c-.094.226-.278.343-.539.343-.466 0-.776-.377-.776-.947 0-.545.305-.915.754-.915.24 0 .435.117.525.316h.04v-.267h.453v1.19c0 .159.079.25.216.25.226 0 .372-.287.372-.742 0-.812-.56-1.341-1.413-1.341-.868 0-1.472.623-1.472 1.518 0 .911.604 1.485 1.557 1.485.24 0 .485-.029.61-.074v.366a2.38 2.38 0 01-.644.08c-1.168 0-1.933-.742-1.933-1.868 0-1.108.774-1.87 1.895-1.87zm4.998 1.959v.738c.312-.027.467-.164.467-.364 0-.19-.119-.287-.467-.374zm-.258-.671v-.716c-.282.032-.43.173-.43.348s.13.287.43.368zm.258.058l.16.036c.612.137.933.386.933.88 0 .565-.456.91-1.093.955v.355h-.258v-.353c-.63-.038-1.085-.37-1.103-.93h.6c.039.221.198.376.503.408v-.797l-.15-.033c-.585-.133-.909-.397-.909-.886 0-.539.442-.891 1.06-.93v-.36h.257v.36c.624.048 1.03.4 1.05.934h-.599c-.031-.238-.2-.375-.45-.41v.771zm3.065 1.99c-.776 0-1.34-.554-1.34-1.678 0-1.075.519-1.725 1.346-1.725.638 0 1.11.37 1.19.91h-.671c-.052-.22-.247-.354-.51-.354-.448 0-.709.4-.709 1.1h.04c.149-.303.45-.474.826-.474.615 0 1.066.453 1.066 1.07 0 .673-.514 1.151-1.238 1.151zm-.007-.556a.571.571 0 00.588-.58c0-.336-.238-.576-.586-.576-.347 0-.588.243-.588.568 0 .332.25.588.586.588zm3.091.556c-.702 0-1.18-.426-1.2-1.005h.626c.036.274.267.45.567.45.342 0 .577-.235.577-.591 0-.348-.233-.58-.563-.58-.256 0-.453.12-.554.31h-.606l.173-1.904h2.021v.556h-1.496l-.083.87h.04c.135-.204.373-.325.71-.325.558 0 1.004.409 1.004 1.066 0 .686-.487 1.153-1.216 1.153zm3.065 0c-.801 0-1.286-.633-1.286-1.707 0-1.073.49-1.696 1.286-1.696.794 0 1.285.623 1.285 1.698 0 1.07-.484 1.705-1.285 1.705zm0-.552c.372 0 .599-.388.599-1.155 0-.763-.23-1.142-.6-1.142-.367 0-.598.381-.598 1.142 0 .767.229 1.155.599 1.155zm2.182 1.164h-.6l1.159-4.114h.601l-1.16 4.114zm2.304-.695V85.79h-.04l-.794.548v-.63l.837-.577h.675v3.237h-.678zm2.822.083c-.8 0-1.285-.633-1.285-1.707 0-1.073.489-1.696 1.285-1.696.794 0 1.286.623 1.286 1.698 0 1.07-.485 1.705-1.286 1.705zm0-.552c.373 0 .6-.388.6-1.155 0-.763-.23-1.142-.6-1.142-.368 0-.599.381-.599 1.142 0 .767.23 1.155.6 1.155zm3.424-.532H91.57v-.612h1.474v.612zm.724 1.001v-3.419h.642v1.35h.04c.115-.282.384-.453.747-.453.532 0 .848.335.848.93v1.592h-.653V86.93c0-.343-.159-.52-.455-.52-.328 0-.516.217-.516.538v1.42h-.653zm2.912 0v-2.474h.633v.394h.04c.065-.246.32-.435.635-.435.09 0 .2.011.256.032v.594a1.191 1.191 0 00-.31-.04c-.357 0-.601.21-.601.558v1.371h-.653zm3.376-1h-1.474v-.613h1.474v.612zm1.588 1.038c-.623 0-1.007-.489-1.007-1.279 0-.787.386-1.274 1.007-1.274.335 0 .611.162.738.435h.039V84.95h.652v3.419h-.632v-.388h-.041c-.132.267-.412.426-.756.426zm.223-2.005c-.348 0-.559.276-.559.729 0 .457.209.731.559.731.349 0 .56-.276.56-.73 0-.45-.213-.73-.56-.73zm2.777 1.514c.303 0 .531-.193.531-.444v-.182l-.5.031c-.28.02-.417.122-.417.299 0 .184.159.296.386.296zm-.216.491c-.475 0-.809-.291-.809-.745 0-.448.343-.709.957-.745l.599-.035v-.202c0-.207-.148-.323-.417-.323-.235 0-.392.08-.446.229h-.601c.042-.458.462-.745 1.083-.745.655 0 1.025.31 1.025.839v1.689h-.632v-.323h-.041c-.128.227-.397.361-.718.361zm2.273.861c-.025 0-.222-.002-.249-.006v-.525c.022.004.121.004.148.004.244 0 .384-.078.437-.267l.023-.09-.868-2.49h.72l.52 1.876h.041l.52-1.875h.691l-.852 2.512c-.211.637-.514.861-1.131.861z" fill="#282C2E"/><path d="M22.826 94.175h.401c.01.272.216.46.52.46.346 0 .541-.21.541-.608v-2.333h.404v2.335c0 .617-.357.978-.942.978-.543 0-.924-.336-.924-.832zm3.387.46c.397 0 .691-.26.691-.606v-.222l-.65.043c-.368.025-.53.152-.53.395 0 .246.209.39.49.39zm-.072.339c-.468 0-.816-.278-.816-.72 0-.433.318-.682.881-.716l.698-.043v-.22c0-.298-.186-.462-.547-.462-.29 0-.492.11-.545.301h-.39c.05-.388.432-.644.948-.644.59 0 .92.303.92.806v1.655h-.368v-.356h-.036c-.157.257-.422.399-.745.399zm1.862-.043v-2.418h.368v.381h.036c.121-.267.357-.424.727-.424.543 0 .846.321.846.895v1.566h-.386V93.46c0-.436-.184-.642-.57-.642-.386 0-.635.258-.635.682v1.431h-.386zm3.957-2.324c0-.576.445-.99 1.064-.99.565 0 .998.384.998.91 0 .372-.161.64-.745 1.244l-.736.76v.037h1.535v.363H31.98v-.278l1.094-1.184c.413-.447.534-.615.534-.9 0-.343-.23-.599-.612-.599-.388 0-.646.254-.646.637h-.39zm3.904 2.4c-.687 0-1.167-.388-1.167-.942 0-.421.267-.749.673-.825v-.036a.723.723 0 01-.54-.722c0-.505.428-.864 1.034-.864.606 0 1.034.359 1.034.864 0 .354-.206.63-.54.722v.036c.405.076.672.404.672.825 0 .554-.48.942-1.166.942zm0-.345c.449 0 .758-.256.758-.626s-.31-.626-.758-.626c-.449 0-.758.256-.758.626s.31.626.758.626zm0-1.593c.381 0 .637-.22.637-.55 0-.334-.253-.556-.637-.556s-.637.222-.637.557c0 .33.256.55.637.55zm4.583.743h-1.472v-.366h1.472v.366zm2.46 1.12h-.403v-3.238h1.965v.364h-1.561v1.112h1.433v.36h-1.433v1.401zm3.142-2.12c-.386 0-.656.282-.685.71h1.333c-.01-.428-.265-.71-.649-.71zm.637 1.493h.385c-.112.413-.489.669-1.018.669-.67 0-1.09-.485-1.09-1.25 0-.76.426-1.254 1.09-1.254.653 0 1.05.465 1.05 1.216v.148h-1.739v.018c.02.478.287.78.698.78.312 0 .523-.114.624-.327zm2.225.669c-.337 0-.624-.16-.776-.429h-.036v.386h-.368v-3.378h.386v1.341h.036c.132-.26.426-.424.758-.424.615 0 1.014.492 1.014 1.252 0 .756-.402 1.252-1.014 1.252zm-.09-2.156c-.44 0-.713.345-.713.904s.274.904.713.904c.442 0 .705-.339.705-.904s-.263-.904-.705-.904zm2.984-.21c0-.577.444-.99 1.063-.99.566 0 .998.383.998.908 0 .373-.161.642-.744 1.245l-.736.76v.037h1.534v.363h-2.095v-.278l1.095-1.184c.413-.447.534-.615.534-.9 0-.343-.231-.599-.613-.599-.388 0-.646.254-.646.637h-.39zm2.777 0c0-.577.444-.99 1.063-.99.566 0 .999.383.999.908 0 .373-.162.642-.745 1.245l-.736.76v.037h1.535v.363h-2.096v-.278l1.095-1.184c.413-.447.534-.615.534-.9 0-.343-.231-.599-.613-.599-.388 0-.646.254-.646.637h-.39zm2.977 3.146h-.29l.214-1.276h.428l-.352 1.276zm2.394-3.147c0-.576.444-.99 1.063-.99.565 0 .998.384.998.91 0 .372-.161.64-.745 1.244l-.736.76v.037h1.535v.363h-2.095v-.278l1.095-1.184c.412-.447.533-.615.533-.9 0-.343-.23-.599-.612-.599-.388 0-.646.254-.646.637h-.39zm3.885 2.4c-.73 0-1.149-.619-1.149-1.696 0-1.067.424-1.693 1.149-1.693.72 0 1.144.628 1.144 1.7 0 1.075-.417 1.69-1.144 1.69zm0-.352c.478 0 .738-.475.738-1.344 0-.859-.265-1.339-.738-1.339s-.743.485-.743 1.34c0 .865.265 1.343.743 1.343zm1.786-2.048c0-.576.444-.99 1.063-.99.565 0 .998.384.998.91 0 .372-.161.64-.745 1.244l-.735.76v.037h1.534v.363h-2.095v-.278l1.094-1.184c.413-.447.534-.615.534-.9 0-.343-.23-.599-.612-.599-.388 0-.646.254-.646.637h-.39zm4.208 2.324v-.67h-1.577v-.368c.438-.734.933-1.524 1.386-2.199h.586V93.9h.46v.361h-.46v.671h-.395zm-1.164-1.056v.026h1.166V92.07h-.027a41.07 41.07 0 00-1.14 1.806z" fill="#54595C"/><path d="M54.574 108.85H24.602c-.997 0-1.805.808-1.805 1.805v22.752c0 .997.808 1.805 1.805 1.805h29.972c.997 0 1.805-.808 1.805-1.805v-22.752c0-.997-.808-1.805-1.805-1.805z" fill="#F2F0FF"/><path d="M54.574 108.85H24.602c-.997 0-1.805.808-1.805 1.805v22.752c0 .997.808 1.805 1.805 1.805h29.972c.997 0 1.805-.808 1.805-1.805v-22.752c0-.997-.808-1.805-1.805-1.805z" stroke="#F2F0FF" stroke-width=".328"/><mask id="c" maskUnits="userSpaceOnUse" x="35" y="113" width="9" height="9"><path d="M43.526 113.937H35.65v7.876h7.876v-7.876z" fill="#fff"/></mask><g mask="url(#c)" stroke="#4426BD" stroke-linecap="round" stroke-linejoin="round"><path d="M39.588 121.156a3.282 3.282 0 100-6.563 3.282 3.282 0 000 6.563z" stroke-width=".656"/><path d="M39.588 115.906v1.969l1.313.656" stroke-width=".574"/></g><path d="M35.837 129.438h-.579v-2.737h-.996v-.5h2.573v.5h-.998v2.737zm1.507 0v-2.454h.555v2.454h-.555zm.276-2.86a.333.333 0 01-.332-.334c0-.187.15-.337.332-.337.184 0 .332.15.332.337a.332.332 0 01-.332.334zm.97 2.86v-2.454h.536v.397h.038c.105-.281.356-.447.682-.447.339 0 .574.171.677.447h.038c.121-.269.404-.447.745-.447.492 0 .788.308.788.817v1.687h-.555v-1.546c0-.316-.15-.473-.448-.473-.29 0-.48.211-.48.491v1.528h-.54v-1.586c0-.269-.171-.433-.445-.433-.276 0-.48.227-.48.527v1.492h-.556zm5.193-2.062c-.332 0-.566.238-.59.597h1.155c-.011-.363-.231-.597-.565-.597zm.57 1.387h.527c-.101.446-.512.724-1.09.724-.723 0-1.158-.477-1.158-1.267 0-.79.442-1.286 1.153-1.286.7 0 1.12.465 1.12 1.239v.179H43.19v.029c.014.409.25.664.615.664.276 0 .467-.101.548-.282z" fill="#4426BD"/><path d="M91.11 108.85H61.137c-.996 0-1.804.808-1.804 1.805v22.752c0 .997.808 1.805 1.804 1.805H91.11c.996 0 1.805-.808 1.805-1.805v-22.752c0-.997-.809-1.805-1.805-1.805z" fill="#F2F0FF"/><path d="M91.11 108.85H61.137c-.996 0-1.804.808-1.804 1.805v22.752c0 .997.808 1.805 1.804 1.805H91.11c.996 0 1.805-.808 1.805-1.805v-22.752c0-.997-.809-1.805-1.805-1.805z" stroke="#F2F0FF" stroke-width=".328"/><path d="M73.17 114.593h5.907v6.891l-.984-.656-.985.656-.984-.656-.985.656-.984-.656-.985.656v-6.891zM74.483 119.188h1.64M77.436 119.188h.329" stroke="#4426BD" stroke-width=".574" stroke-linecap="round" stroke-linejoin="round"/><path d="M76.124 117.875a.985.985 0 100-1.97.985.985 0 000 1.97z" stroke="#4426BD" stroke-width=".574" stroke-linecap="round" stroke-linejoin="round"/><path d="M69.09 128.938v.5h-2.094v-3.237h2.095v.5h-1.517v.859h1.434v.471h-1.434v.907h1.517zm1.614-.341h-.038l-.5.845h-.602l.794-1.218-.8-1.236h.645l.487.844h.038l.485-.844h.613l-.792 1.214.8 1.24h-.628l-.502-.845zm2.959-1.654c.621 0 1.011.48 1.011 1.268 0 .783-.385 1.267-1.005 1.267-.352 0-.623-.152-.749-.412h-.038v1.189h-.556v-3.271h.536v.406h.038a.833.833 0 01.763-.447zm-.175 2.062c.386 0 .614-.298.614-.794 0-.496-.23-.794-.612-.794-.38 0-.617.305-.62.794.003.491.239.794.618.794zm2.775-1.629c-.332 0-.566.238-.59.597h1.155c-.011-.363-.231-.597-.565-.597zm.57 1.387h.527c-.101.446-.512.724-1.09.724-.723 0-1.158-.477-1.158-1.267 0-.79.442-1.286 1.153-1.286.7 0 1.12.465 1.12 1.239v.179H75.67v.029c.014.409.25.664.615.664.276 0 .467-.101.547-.282zm1.11.675v-2.454h.536v.392h.038c.117-.273.364-.442.73-.442.547 0 .845.33.845.916v1.588h-.556v-1.456c0-.375-.157-.563-.496-.563-.332 0-.54.229-.54.59v1.429h-.557zm2.752-1.752c0-.444.404-.752.983-.752.583 0 .949.258.99.705h-.523c-.04-.173-.204-.283-.465-.283-.253 0-.444.121-.444.299 0 .139.117.224.364.28l.433.099c.468.105.686.307.686.668 0 .471-.433.785-1.045.785-.613 0-.999-.264-1.041-.711h.55c.053.182.226.29.504.29.28 0 .476-.124.476-.305 0-.14-.106-.227-.34-.279l-.434-.101c-.471-.107-.694-.325-.694-.695zm3.617-.31c-.332 0-.566.238-.59.597h1.155c-.011-.363-.231-.597-.565-.597zm.57 1.387h.527c-.101.446-.512.724-1.09.724-.723 0-1.158-.477-1.158-1.267 0-.79.442-1.286 1.153-1.286.7 0 1.12.465 1.12 1.239v.179h-1.715v.029c.014.409.25.664.615.664.276 0 .467-.101.547-.282z" fill="#4426BD"/><path d="M127.645 108.85H97.673c-.997 0-1.805.808-1.805 1.805v22.752c0 .997.808 1.805 1.805 1.805h29.972c.997 0 1.805-.808 1.805-1.805v-22.752c0-.997-.808-1.805-1.805-1.805z" fill="#F2F0FF"/><path d="M127.645 108.85H97.673c-.997 0-1.805.808-1.805 1.805v22.752c0 .997.808 1.805 1.805 1.805h29.972c.997 0 1.805-.808 1.805-1.805v-22.752c0-.997-.808-1.805-1.805-1.805z" stroke="#F2F0FF" stroke-width=".328"/><path d="M116.269 115.578h-7.22v5.25h7.22v-5.25z" stroke="#4426BD" stroke-width=".656" stroke-linecap="round" stroke-linejoin="round"/><path d="M112.659 119.187a.985.985 0 100-1.97.985.985 0 000 1.97zM115.613 114.265h-5.907" stroke="#4426BD" stroke-width=".656" stroke-linecap="round" stroke-linejoin="round"/><path d="M108.709 129.519c-.918 0-1.488-.651-1.488-1.698 0-1.053.568-1.701 1.485-1.701.736 0 1.304.48 1.371 1.155h-.57c-.08-.388-.392-.639-.801-.639-.549 0-.892.453-.892 1.182 0 .732.343 1.185.895 1.185.41 0 .722-.229.801-.592h.569c-.076.661-.623 1.108-1.37 1.108zm2.795-.478c.336 0 .588-.218.588-.503v-.195l-.554.036c-.312.02-.458.133-.458.332 0 .207.177.33.424.33zm-.164.437c-.473 0-.812-.287-.812-.735 0-.445.334-.7.931-.736l.633-.038v-.207c0-.24-.162-.374-.462-.374-.256 0-.431.089-.483.255h-.525c.045-.433.451-.709 1.034-.709.631 0 .985.308.985.828v1.676h-.536v-.337h-.038c-.137.238-.406.377-.727.377zm1.916-1.792c0-.444.404-.752.982-.752.584 0 .949.258.99.705h-.523c-.04-.173-.204-.283-.464-.283-.254 0-.444.121-.444.299 0 .139.116.224.363.28l.433.099c.469.105.686.307.686.668 0 .471-.433.785-1.045.785-.612 0-.998-.264-1.041-.711h.55c.054.182.226.29.504.29.281 0 .476-.124.476-.305 0-.14-.105-.227-.339-.279l-.435-.101c-.471-.107-.693-.325-.693-.695zm2.609 1.752v-3.403h.547v1.346h.041c.116-.276.379-.442.744-.442.525 0 .844.332.844.915v1.584h-.556v-1.451c0-.373-.171-.564-.494-.564-.366 0-.57.238-.57.59v1.425h-.556z" fill="#4426BD"/><path d="M252.349 64.656H140.117a2.461 2.461 0 00-2.462 2.462V138a2.461 2.461 0 002.462 2.461h112.232a2.461 2.461 0 002.461-2.461V67.118a2.461 2.461 0 00-2.461-2.462z" fill="#fff"/><path d="M252.349 64.656H140.117a2.461 2.461 0 00-2.462 2.462V138a2.461 2.461 0 002.462 2.461h112.232a2.461 2.461 0 002.461-2.461V67.118a2.461 2.461 0 00-2.461-2.462z" stroke="#DFE2E5" stroke-width=".328"/><path d="M52.824 160.48H20.007a2.461 2.461 0 00-2.461 2.461v20.938a2.461 2.461 0 002.461 2.461h32.817a2.461 2.461 0 002.46-2.461v-20.938a2.461 2.461 0 00-2.46-2.461z" fill="#fff"/><path d="M52.824 160.48H20.007a2.461 2.461 0 00-2.461 2.461v20.938a2.461 2.461 0 002.461 2.461h32.817a2.461 2.461 0 002.46-2.461v-20.938a2.461 2.461 0 00-2.46-2.461z" stroke="#DFE2E5" stroke-width=".328"/><path d="M33.092 169.766v-.739h.635c.611 0 1.019-.35 1.019-.842 0-.488-.323-.804-.934-.804-.585 0-1.004.312-1.039.835h-.923c.066-.992.846-1.623 1.962-1.623 1.15 0 1.888.6 1.888 1.458 0 .699-.496 1.161-1.166 1.299v.02c.82.077 1.362.569 1.362 1.342 0 .984-.862 1.653-2.077 1.653-1.215 0-2.038-.665-2.088-1.646h.95c.038.504.48.835 1.138.835.635 0 1.07-.358 1.07-.865.003-.593-.428-.923-1.139-.923h-.658zm3.535-1.404c0-1.034.83-1.769 1.984-1.769 1.13 0 1.884.696 1.884 1.588 0 .658-.311 1.089-1.28 2.042l-1.223 1.2v.019h2.588v.812h-3.9v-.677l1.962-1.93c.723-.712.884-.989.884-1.404 0-.485-.365-.854-.915-.854-.6 0-1.054.408-1.054.973h-.93z" fill="#282C2E"/><path d="M28.258 177.792h1.04c.825 0 1.306.504 1.306 1.375 0 .89-.475 1.399-1.306 1.399h-1.04v-2.774zm.496.429v1.917h.479c.552 0 .865-.345.865-.964 0-.605-.321-.953-.865-.953h-.48zm3.072-.018v.929h.573c.316 0 .496-.169.496-.463 0-.289-.192-.466-.507-.466h-.562zm0 1.323v1.04h-.496v-2.774h1.127c.583 0 .948.334.948.867 0 .365-.192.671-.523.79l.606 1.117h-.568l-.544-1.04h-.55zm4.129 1.04l-.235-.709h-1.021l-.238.709h-.502l.984-2.774h.558l.986 2.774h-.532zm-.76-2.245l-.38 1.144h.79l-.377-1.144h-.033zm2.423 2.245h-.496v-2.774h1.769v.429h-1.273v.807h1.163v.414h-1.163v1.124zm3.166 0h-.496v-2.345h-.853v-.429h2.205v.429h-.855v2.345zm1.406-.753h.485c.03.248.276.407.628.407.327 0 .564-.167.564-.4 0-.2-.152-.317-.508-.4l-.36-.082c-.503-.114-.74-.364-.74-.777 0-.504.412-.838 1.033-.838.582 0 1.003.334 1.026.811h-.474c-.035-.244-.25-.398-.554-.398-.32 0-.53.154-.53.39 0 .187.14.296.484.375l.319.073c.563.127.8.362.8.785 0 .54-.417.877-1.09.877-.637 0-1.058-.32-1.083-.823z" fill="#54595C"/><path d="M92.203 160.48H59.387a2.461 2.461 0 00-2.461 2.461v20.938a2.461 2.461 0 002.461 2.461h32.816a2.461 2.461 0 002.462-2.461v-20.938a2.461 2.461 0 00-2.462-2.461z" fill="#fff"/><path d="M92.203 160.48H59.387a2.461 2.461 0 00-2.461 2.461v20.938a2.461 2.461 0 002.461 2.461h32.816a2.461 2.461 0 002.462-2.461v-20.938a2.461 2.461 0 00-2.462-2.461z" stroke="#DFE2E5" stroke-width=".328"/><path d="M70.607 172.254v-4.603h-.023l-1.435.984v-.911l1.45-1.019h.98v5.549h-.972zm4.918 0v-1.065h-2.768v-.846c.48-.904 1.1-1.889 2.303-3.638h1.412v3.668h.753v.816h-.753v1.065h-.947zm-1.876-1.884v.026h1.892v-2.953h-.016c-.896 1.284-1.434 2.119-1.876 2.927zm6.291 1.995c-1.272 0-2.16-.665-2.16-1.611 0-.719.51-1.269 1.253-1.419v-.023c-.635-.169-1.054-.642-1.054-1.238 0-.854.815-1.481 1.961-1.481 1.146 0 1.958.623 1.958 1.485 0 .588-.415 1.057-1.05 1.234v.023c.742.154 1.258.704 1.258 1.419 0 .95-.897 1.611-2.166 1.611zm0-.757c.666 0 1.135-.389 1.135-.927 0-.542-.47-.927-1.135-.927s-1.134.389-1.134.927.47.927 1.134.927zm0-2.611c.573 0 .981-.339.981-.823 0-.493-.408-.831-.98-.831-.578 0-.981.342-.981.831 0 .484.404.823.98.823z" fill="#282C2E"/><path d="M65.634 180.566h-.496v-2.774h.496v2.774zm1.32 0h-.478v-2.774h.43l1.362 1.886h.033v-1.886h.477v2.774h-.43l-1.36-1.888h-.033v1.888zm4.37-2.363v.929h.574c.315 0 .496-.169.496-.463 0-.289-.192-.466-.508-.466h-.561zm0 1.323v1.04h-.495v-2.774h1.127c.582 0 .948.334.948.867 0 .365-.193.671-.523.79l.605 1.117h-.567l-.544-1.04h-.55zm4.135.612v.428h-1.796v-2.774h1.796v.429h-1.3v.736h1.229v.404h-1.229v.777h1.3zm2.107.428h-.571l-.97-2.774h.549l.698 2.196h.033l.692-2.196h.529l-.96 2.774zm2.092 0h-.496v-2.774h.496v2.774zm2.638-.428v.428H80.5v-2.774h1.796v.429h-1.3v.736h1.229v.404h-1.229v.777h1.3zm2.373-1.537l-.562 1.965h-.467l-.744-2.774h.517l.475 2.065h.029l.546-2.065h.44l.554 2.065h.027l.475-2.065h.513l-.744 2.774h-.465l-.566-1.965h-.028z" fill="#54595C"/><path d="M131.583 160.48H98.766a2.461 2.461 0 00-2.46 2.461v20.938a2.461 2.461 0 002.46 2.461h32.817a2.461 2.461 0 002.461-2.461v-20.938a2.461 2.461 0 00-2.461-2.461z" fill="#fff"/><path d="M131.583 160.48H98.766a2.461 2.461 0 00-2.46 2.461v20.938a2.461 2.461 0 002.46 2.461h32.817a2.461 2.461 0 002.461-2.461v-20.938a2.461 2.461 0 00-2.461-2.461z" stroke="#DFE2E5" stroke-width=".328"/><path d="M109.352 169.766v-.739h.634c.612 0 1.019-.35 1.019-.842 0-.488-.323-.804-.934-.804-.585 0-1.004.312-1.039.835h-.923c.066-.992.846-1.623 1.962-1.623 1.15 0 1.888.6 1.888 1.458 0 .699-.496 1.161-1.165 1.299v.02c.819.077 1.361.569 1.361 1.342 0 .984-.861 1.653-2.077 1.653-1.215 0-2.038-.665-2.088-1.646h.95c.038.504.481.835 1.138.835.635 0 1.069-.358 1.069-.865.004-.593-.426-.923-1.138-.923h-.657zm4.853 0v-.739h.634c.612 0 1.019-.35 1.019-.842 0-.488-.323-.804-.934-.804-.585 0-1.004.312-1.038.835h-.923c.065-.992.846-1.623 1.961-1.623 1.15 0 1.888.6 1.888 1.458 0 .699-.496 1.161-1.165 1.299v.02c.819.077 1.361.569 1.361 1.342 0 .984-.861 1.653-2.076 1.653-1.216 0-2.039-.665-2.089-1.646h.95c.039.504.481.835 1.139.835.634 0 1.069-.358 1.069-.865.004-.593-.427-.923-1.139-.923h-.657zm5.668 2.599c-1.273 0-2.161-.665-2.161-1.611 0-.719.511-1.269 1.254-1.419v-.023c-.635-.169-1.054-.642-1.054-1.238 0-.854.815-1.481 1.961-1.481 1.146 0 1.958.623 1.958 1.485 0 .588-.416 1.057-1.05 1.234v.023c.742.154 1.257.704 1.257 1.419 0 .95-.896 1.611-2.165 1.611zm0-.757c.666 0 1.135-.389 1.135-.927 0-.542-.469-.927-1.135-.927-.665 0-1.134.389-1.134.927s.469.927 1.134.927zm0-2.611c.573 0 .981-.339.981-.823 0-.493-.408-.831-.981-.831-.577 0-.98.342-.98.831 0 .484.403.823.98.823z" fill="#282C2E"/><path d="M105.807 180.566l-.234-.709h-1.021l-.239.709h-.502l.985-2.774h.557l.987 2.774h-.533zm-.759-2.245l-.381 1.144h.79l-.377-1.144h-.032zm1.926-.529h1.119c.554 0 .933.379.933.938 0 .55-.392.927-.954.927h-.602v.909h-.496v-2.774zm.496.415v1.038h.491c.353 0 .561-.184.561-.515 0-.34-.202-.523-.559-.523h-.493zm2.261-.415h1.12c.553 0 .932.379.932.938 0 .55-.392.927-.954.927h-.601v.909h-.497v-2.774zm.497.415v1.038h.49c.354 0 .561-.184.561-.515 0-.34-.202-.523-.559-.523h-.492zm2.757-.004v.929h.573c.315 0 .496-.169.496-.463 0-.289-.192-.466-.508-.466h-.561zm0 1.323v1.04h-.496v-2.774h1.126c.583 0 .948.334.948.867 0 .365-.192.671-.523.79l.606 1.117h-.567l-.544-1.04h-.55zm3.534-1.803c.807 0 1.311.559 1.311 1.455 0 .894-.502 1.458-1.311 1.458-.814 0-1.314-.562-1.314-1.458 0-.896.508-1.455 1.314-1.455zm0 .44c-.493 0-.806.394-.806 1.015 0 .619.306 1.017.806 1.017.494 0 .805-.398.805-1.017 0-.621-.313-1.015-.805-1.015zm3.28 2.403h-.571l-.969-2.774h.548l.698 2.196h.032l.693-2.196h.528l-.959 2.774zm3.392-.428v.428h-1.796v-2.774h1.796v.429h-1.3v.736h1.229v.404h-1.229v.777h1.3zm.773-2.346h1.04c.825 0 1.305.504 1.305 1.375 0 .89-.475 1.399-1.305 1.399h-1.04v-2.774zm.496.429v1.917h.478c.552 0 .866-.345.866-.964 0-.605-.321-.953-.866-.953h-.478z" fill="#54595C"/><path d="M18.5 151.352v1.238h.764c.42 0 .661-.226.661-.618 0-.385-.256-.62-.677-.62H18.5zm0 1.763v1.387h-.662v-3.699h1.503c.777 0 1.264.446 1.264 1.156 0 .487-.257.895-.698 1.054l.808 1.489h-.756l-.726-1.387H18.5zm3.93-.969c-.38 0-.646.272-.674.682h1.32c-.013-.415-.264-.682-.646-.682zm.651 1.585h.603c-.116.51-.585.828-1.246.828-.826 0-1.323-.546-1.323-1.449 0-.902.505-1.469 1.318-1.469.8 0 1.279.531 1.279 1.415v.206h-1.959v.033c.016.467.285.759.703.759.315 0 .533-.116.625-.323zm2.287-2.079c.38 0 .713.197.867.51h.043v-.464h.618v3.738h-.64v-1.359h-.044c-.162.3-.457.472-.854.472-.708 0-1.146-.559-1.146-1.452 0-.884.449-1.445 1.156-1.445zm.19 2.356c.438 0 .71-.346.71-.908 0-.559-.274-.908-.707-.908-.436 0-.698.341-.698.908 0 .569.26.908.695.908zm4.556-2.31v2.804H29.5v-.446h-.044c-.135.321-.41.503-.838.503-.613 0-.972-.382-.972-1.038v-1.823h.636v1.664c0 .428.177.638.557.638.412 0 .638-.254.638-.669v-1.633h.636zm1.956.448c-.38 0-.646.272-.674.682h1.32c-.013-.415-.264-.682-.646-.682zm.651 1.585h.603c-.116.51-.585.828-1.246.828-.826 0-1.323-.546-1.323-1.449 0-.902.505-1.469 1.317-1.469.8 0 1.28.531 1.28 1.415v.206h-1.959v.033c.015.467.285.759.703.759.315 0 .533-.116.625-.323zm1.205-1.231c0-.508.462-.859 1.123-.859.667 0 1.084.295 1.13.805h-.597c-.046-.197-.233-.323-.53-.323-.29 0-.508.139-.508.341 0 .159.133.257.415.321l.495.113c.536.12.785.351.785.764 0 .538-.495.897-1.195.897-.7 0-1.14-.303-1.19-.813h.629c.061.208.258.331.576.331.32 0 .544-.141.544-.349 0-.159-.12-.259-.387-.318l-.498-.115c-.538-.123-.792-.372-.792-.795zm3.138-1.489h.633v.705h.6v.507h-.6v1.377c0 .277.118.4.385.4.09 0 .139-.005.215-.013v.497c-.092.018-.21.031-.333.031-.643 0-.9-.218-.9-.761v-1.531h-.443v-.507h.443v-.705zm1.77 1.489c0-.508.46-.859 1.122-.859.667 0 1.085.295 1.13.805h-.597c-.046-.197-.233-.323-.53-.323-.29 0-.508.139-.508.341 0 .159.133.257.415.321l.495.113c.536.12.785.351.785.764 0 .538-.495.897-1.195.897-.7 0-1.14-.303-1.19-.813h.629c.061.208.258.331.576.331.32 0 .544-.141.544-.349 0-.159-.12-.259-.387-.318l-.498-.115c-.538-.123-.792-.372-.792-.795z" fill="#3F4245"/><path d="M126.77 152.44h3.063M128.302 150.909l1.531 1.531-1.531 1.532" stroke="#54595C" stroke-width=".558" stroke-linecap="round" stroke-linejoin="round"/><path d="M132.24 189.195H20.007a2.625 2.625 0 00-2.625 2.625v98.817a2.626 2.626 0 002.625 2.625H132.24a2.626 2.626 0 002.625-2.625V191.82a2.625 2.625 0 00-2.625-2.625z" fill="#fff"/><path d="M140.116 6.407H12.132V23.8h127.984V6.407z" fill="#4426BD"/><path d="M27.72 17.986v-3.222h-.046l-.978.686v-.675l1.027-.72h.7v3.931h-.703zm1.648-2.762c0-.747.577-1.267 1.397-1.267.782 0 1.313.477 1.313 1.13 0 .458-.199.78-.874 1.434l-.845.822v.047h1.776v.596h-2.73v-.488l1.363-1.364c.495-.496.615-.684.615-.978 0-.352-.245-.621-.656-.621-.428 0-.7.28-.7.689h-.66zm3.924 2.22a.42.42 0 01-.435-.43c0-.248.18-.43.435-.43.26 0 .436.182.436.43 0 .245-.177.43-.436.43zm0-1.988a.417.417 0 01-.435-.428c0-.248.18-.43.435-.43.26 0 .436.182.436.43a.416.416 0 01-.436.428zm2.612 2.628c-.942 0-1.5-.763-1.5-2.067 0-1.3.566-2.06 1.5-2.06.932 0 1.499.76 1.499 2.065 0 1.3-.559 2.062-1.499 2.062zm0-.583c.499 0 .788-.51.788-1.484 0-.97-.294-1.474-.788-1.474-.493 0-.79.507-.79 1.474 0 .975.292 1.484.79 1.484zm3.598.583c-.901 0-1.522-.468-1.522-1.15 0-.498.335-.893.85-1.002v-.046c-.42-.104-.692-.444-.692-.864 0-.62.569-1.065 1.367-1.065s1.365.444 1.365 1.065c0 .423-.267.758-.69.864v.046c.513.095.85.493.85 1 0 .684-.62 1.152-1.528 1.152zm.003-.547c.474 0 .798-.27.798-.662 0-.393-.327-.662-.798-.662-.474 0-.8.27-.8.662s.326.662.8.662zm0-1.864c.398 0 .673-.237.673-.582 0-.352-.272-.594-.673-.594-.403 0-.675.242-.675.594 0 .345.275.582.675.582z" fill="#fff"/><path d="M90.563 9.032H61.685a6.071 6.071 0 000 12.142h28.878a6.071 6.071 0 100-12.142z" fill="#000"/><path d="M76.121 8.797h-14.11a6.071 6.071 0 000 12.142h14.11a6.071 6.071 0 100-12.142zM90.889 8.797a6.071 6.071 0 000 12.142 6.071 6.071 0 100-12.142z" fill="#000"/><path d="M108.792 13.955c0-.181.147-.328.329-.328h.328c.181 0 .328.147.328.328v2.625a.328.328 0 01-.328.328h-.328a.328.328 0 01-.329-.328v-2.625zM110.433 13.299c0-.182.147-.329.328-.329h.329c.181 0 .328.147.328.329v3.281a.328.328 0 01-.328.328h-.329a.328.328 0 01-.328-.328V13.3zM107.152 15.104c0-.182.146-.329.328-.329h.328c.181 0 .328.147.328.329v1.476a.328.328 0 01-.328.328h-.328a.328.328 0 01-.328-.328v-1.476zM105.511 15.924c0-.181.147-.328.328-.328h.328c.181 0 .328.147.328.328v.656a.328.328 0 01-.328.328h-.328a.328.328 0 01-.328-.328v-.656z" fill="#fff"/><path fill-rule="evenodd" clip-rule="evenodd" d="M116.833 13.82c.809 0 1.587.317 2.174.886a.11.11 0 00.158 0l.423-.436a.122.122 0 00-.001-.17 3.923 3.923 0 00-5.509 0 .122.122 0 00-.001.17l.422.435a.112.112 0 00.159.001 3.12 3.12 0 012.175-.886zm.011 1.313c.445 0 .874.169 1.203.473a.113.113 0 00.159-.002l.421-.435a.12.12 0 00-.001-.171 2.577 2.577 0 00-3.563 0 .12.12 0 00-.001.171l.421.435a.113.113 0 00.159.002 1.771 1.771 0 011.202-.473zm.858.849a.12.12 0 01-.035.086l-.729.751a.115.115 0 01-.081.035.111.111 0 01-.081-.035l-.73-.751a.119.119 0 01.004-.17 1.23 1.23 0 011.614 0 .122.122 0 01.038.084z" fill="#fff"/><path opacity=".35" d="M122.965 12.846h5.579c.63 0 1.14.51 1.14 1.14v1.64c0 .63-.51 1.14-1.14 1.14h-5.579a1.14 1.14 0 01-1.139-1.14v-1.64c0-.63.51-1.14 1.139-1.14z" stroke="#fff" stroke-width=".346"/><path opacity=".4" d="M130.185 14.314V15.7a.751.751 0 000-1.385z" fill="#fff"/><path d="M122.309 13.986c0-.363.294-.656.656-.656h3.61c.363 0 .657.293.657.656v1.64a.657.657 0 01-.657.657h-3.61a.656.656 0 01-.656-.656v-1.641z" fill="#fff"/></g></g></g><defs><linearGradient id="paint0_linear_1313_2445046" x1="5.92" y1="29.547" x2="8.421" y2="29.547" gradientUnits="userSpaceOnUse"><stop stop-color="#403548"/><stop offset=".222" stop-color="#7F7386"/><stop offset=".447" stop-color="#352C40"/></linearGradient><linearGradient id="paint1_linear_1313_2445046" x1="116.24" y1="-.022" x2="116.24" y2="2.247" gradientUnits="userSpaceOnUse"><stop stop-color="#403548"/><stop offset=".262" stop-color="#7F7386"/><stop offset=".511" stop-color="#352C40"/></linearGradient><linearGradient id="paint2_linear_1313_2445046" x1="146.252" y1="28.99" x2="143.751" y2="28.99" gradientUnits="userSpaceOnUse"><stop stop-color="#403548"/><stop offset=".222" stop-color="#7F7386"/><stop offset=".447" stop-color="#352C40"/></linearGradient><linearGradient id="paint3_linear_1313_2445046" x1="75.946" y1="2.265" x2="75.946" y2="3.382" gradientUnits="userSpaceOnUse"><stop offset=".12"/><stop offset="1" stop-color="#303030"/></linearGradient><linearGradient id="paint4_linear_1313_2445046" x1="146.669" y1="91.967" x2="146.669" y2="126.511" gradientUnits="userSpaceOnUse"><stop stop-color="#C7C7C7"/><stop offset=".038" stop-color="#221D35" stop-opacity=".65"/><stop offset=".406" stop-color="#221D35" stop-opacity="0"/><stop offset=".604" stop-color="#221D35" stop-opacity="0"/><stop offset=".974" stop-color="#221D35" stop-opacity=".65"/><stop offset="1" stop-color="#C7C7C7"/></linearGradient><linearGradient id="paint5_linear_1313_2445046" x1="5.503" y1="55.752" x2="5.503" y2="66.895" gradientUnits="userSpaceOnUse"><stop stop-color="#C7C7C7"/><stop offset=".083" stop-color="#221D35" stop-opacity=".65"/><stop offset=".406" stop-color="#fff" stop-opacity="0"/><stop offset=".604" stop-color="#fff" stop-opacity="0"/><stop offset=".917" stop-color="#221D35" stop-opacity=".65"/><stop offset="1" stop-color="#C7C7C7"/></linearGradient><linearGradient id="paint6_linear_1313_2445046" x1="5.642" y1="76.645" x2="5.642" y2="98.932" gradientUnits="userSpaceOnUse"><stop stop-color="#C7C7C7"/><stop offset=".038" stop-color="#221D35" stop-opacity=".65"/><stop offset=".406" stop-color="#221D35" stop-opacity="0"/><stop offset=".604" stop-color="#221D35" stop-opacity="0"/><stop offset=".962" stop-color="#221D35" stop-opacity=".65"/><stop offset="1" stop-color="#C7C7C7"/></linearGradient><linearGradient id="paint7_linear_1313_2445046" x1="5.642" y1="104.503" x2="5.642" y2="126.789" gradientUnits="userSpaceOnUse"><stop stop-color="#C7C7C7"/><stop offset=".038" stop-color="#221D35" stop-opacity=".65"/><stop offset=".406" stop-color="#221D35" stop-opacity="0"/><stop offset=".604" stop-color="#221D35" stop-opacity="0"/><stop offset=".974" stop-color="#221D35" stop-opacity=".65"/><stop offset="1" stop-color="#C7C7C7"/></linearGradient><linearGradient id="paint8_linear_1313_2445046" x1="92.685" y1="17.947" x2="88.266" y2="15.335" gradientUnits="userSpaceOnUse"><stop stop-color="#222"/><stop offset="1" stop-color="#0B0B0B"/></linearGradient><linearGradient id="paint10_linear_1313_2445046" x1="89.689" y1="15.763" x2="90.197" y2="17.384" gradientUnits="userSpaceOnUse"><stop stop-color="#20569B"/><stop offset=".677" stop-color="#061127"/></linearGradient><linearGradient id="paint11_linear_1313_2445046" x1="91.105" y1="17.182" x2="90.597" y2="15.562" gradientUnits="userSpaceOnUse"><stop stop-color="#3D6495"/><stop offset=".719" stop-color="#061127"/></linearGradient><linearGradient id="paint12_linear_1313_2445046" x1="91.004" y1="17.081" x2="90.598" y2="16.575" gradientUnits="userSpaceOnUse"><stop stop-color="#3291AF"/><stop offset="1" stop-color="#3291AF" stop-opacity="0"/></linearGradient><filter id="filter0_dddd_1313_2445046" x=".291" y=".036" width="151.59" height="300.113" filterUnits="userSpaceOnUse" color-interpolation-filters="sRGB"><feFlood flood-opacity="0" result="BackgroundImageFix"/><feColorMatrix in="SourceAlpha" values="0 0 0 0 0 0 0 0 0 0 0 0 0 0 0 0 0 0 127 0" result="hardAlpha"/><feOffset dy=".555"/><feGaussianBlur stdDeviation=".236"/><feColorMatrix values="0 0 0 0 0 0 0 0 0 0 0 0 0 0 0 0 0 0 0.0383468 0"/><feBlend in2="BackgroundImageFix" result="effect1_dropShadow_1313_2445046"/><feColorMatrix in="SourceAlpha" values="0 0 0 0 0 0 0 0 0 0 0 0 0 0 0 0 0 0 127 0" result="hardAlpha"/><feOffset dy="1.262"/><feGaussianBlur stdDeviation=".536"/><feColorMatrix values="0 0 0 0 0 0 0 0 0 0 0 0 0 0 0 0 0 0 0.0557458 0"/><feBlend in2="effect1_dropShadow_1313_2445046" result="effect2_dropShadow_1313_2445046"/><feColorMatrix in="SourceAlpha" values="0 0 0 0 0 0 0 0 0 0 0 0 0 0 0 0 0 0 127 0" result="hardAlpha"/><feOffset dy="2.196"/><feGaussianBlur stdDeviation=".933"/><feColorMatrix values="0 0 0 0 0 0 0 0 0 0 0 0 0 0 0 0 0 0 0.0686568 0"/><feBlend in2="effect2_dropShadow_1313_2445046" result="effect3_dropShadow_1313_2445046"/><feColorMatrix in="SourceAlpha" values="0 0 0 0 0 0 0 0 0 0 0 0 0 0 0 0 0 0 127 0" result="hardAlpha"/><feOffset dy="5.318"/><feGaussianBlur stdDeviation="2.397"/><feColorMatrix values="0 0 0 0 0 0 0 0 0 0 0 0 0 0 0 0 0 0 0.11 0"/><feBlend in2="effect3_dropShadow_1313_2445046" result="effect4_dropShadow_1313_2445046"/><feBlend in="SourceGraphic" in2="effect4_dropShadow_1313_2445046" result="shape"/></filter><filter id="filter1_dd_1313_2445046" x="5.586" y="-.298" width="141.002" height="290.668" filterUnits="userSpaceOnUse" color-interpolation-filters="sRGB"><feFlood flood-opacity="0" result="BackgroundImageFix"/><feColorMatrix in="SourceAlpha" values="0 0 0 0 0 0 0 0 0 0 0 0 0 0 0 0 0 0 127 0" result="hardAlpha"/><feOffset/><feGaussianBlur stdDeviation=".139"/><feComposite in2="hardAlpha" operator="out"/><feColorMatrix values="0 0 0 0 0.686664 0 0 0 0 0.640174 0 0 0 0 0.745833 0 0 0 1 0"/><feBlend in2="BackgroundImageFix" result="effect1_dropShadow_1313_2445046"/><feColorMatrix in="SourceAlpha" values="0 0 0 0 0 0 0 0 0 0 0 0 0 0 0 0 0 0 127 0" result="hardAlpha"/><feOffset/><feGaussianBlur stdDeviation=".167"/><feComposite in2="hardAlpha" operator="out"/><feColorMatrix values="0 0 0 0 0.227307 0 0 0 0 0.169271 0 0 0 0 0.270833 0 0 0 1 0"/><feBlend in2="effect1_dropShadow_1313_2445046" result="effect2_dropShadow_1313_2445046"/><feBlend in="SourceGraphic" in2="effect2_dropShadow_1313_2445046" result="shape"/></filter><filter id="filter2_ii_1313_2445046" x="146.141" y="91.967" width="1.057" height="34.544" filterUnits="userSpaceOnUse" color-interpolation-filters="sRGB"><feFlood flood-opacity="0" result="BackgroundImageFix"/><feBlend in="SourceGraphic" in2="BackgroundImageFix" result="shape"/><feColorMatrix in="SourceAlpha" values="0 0 0 0 0 0 0 0 0 0 0 0 0 0 0 0 0 0 127 0" result="hardAlpha"/><feOffset dx="-.139"/><feGaussianBlur stdDeviation=".056"/><feComposite in2="hardAlpha" operator="arithmetic" k2="-1" k3="1"/><feColorMatrix values="0 0 0 0 0.779167 0 0 0 0 0.779167 0 0 0 0 0.779167 0 0 0 1 0"/><feBlend in2="shape" result="effect1_innerShadow_1313_2445046"/><feColorMatrix in="SourceAlpha" values="0 0 0 0 0 0 0 0 0 0 0 0 0 0 0 0 0 0 127 0" result="hardAlpha"/><feOffset dx=".111"/><feGaussianBlur stdDeviation=".056"/><feComposite in2="hardAlpha" operator="arithmetic" k2="-1" k3="1"/><feColorMatrix values="0 0 0 0 0.133333 0 0 0 0 0.113725 0 0 0 0 0.207843 0 0 0 0.6 0"/><feBlend in2="effect1_innerShadow_1313_2445046" result="effect2_innerShadow_1313_2445046"/></filter><filter id="filter3_ii_1313_2445046" x="4.974" y="55.752" width="1.056" height="11.143" filterUnits="userSpaceOnUse" color-interpolation-filters="sRGB"><feFlood flood-opacity="0" result="BackgroundImageFix"/><feBlend in="SourceGraphic" in2="BackgroundImageFix" result="shape"/><feColorMatrix in="SourceAlpha" values="0 0 0 0 0 0 0 0 0 0 0 0 0 0 0 0 0 0 127 0" result="hardAlpha"/><feOffset dx=".279"/><feGaussianBlur stdDeviation=".056"/><feComposite in2="hardAlpha" operator="arithmetic" k2="-1" k3="1"/><feColorMatrix values="0 0 0 0 0.779167 0 0 0 0 0.779167 0 0 0 0 0.779167 0 0 0 1 0"/><feBlend in2="shape" result="effect1_innerShadow_1313_2445046"/><feColorMatrix in="SourceAlpha" values="0 0 0 0 0 0 0 0 0 0 0 0 0 0 0 0 0 0 127 0" result="hardAlpha"/><feOffset dx="-.111"/><feGaussianBlur stdDeviation=".056"/><feComposite in2="hardAlpha" operator="arithmetic" k2="-1" k3="1"/><feColorMatrix values="0 0 0 0 0.133333 0 0 0 0 0.113725 0 0 0 0 0.207843 0 0 0 0.6 0"/><feBlend in2="effect1_innerShadow_1313_2445046" result="effect2_innerShadow_1313_2445046"/></filter><filter id="filter4_ii_1313_2445046" x="5.252" y="76.645" width=".779" height="22.286" filterUnits="userSpaceOnUse" color-interpolation-filters="sRGB"><feFlood flood-opacity="0" result="BackgroundImageFix"/><feBlend in="SourceGraphic" in2="BackgroundImageFix" result="shape"/><feColorMatrix in="SourceAlpha" values="0 0 0 0 0 0 0 0 0 0 0 0 0 0 0 0 0 0 127 0" result="hardAlpha"/><feOffset dx=".139"/><feGaussianBlur stdDeviation=".056"/><feComposite in2="hardAlpha" operator="arithmetic" k2="-1" k3="1"/><feColorMatrix values="0 0 0 0 0.779167 0 0 0 0 0.779167 0 0 0 0 0.779167 0 0 0 1 0"/><feBlend in2="shape" result="effect1_innerShadow_1313_2445046"/><feColorMatrix in="SourceAlpha" values="0 0 0 0 0 0 0 0 0 0 0 0 0 0 0 0 0 0 127 0" result="hardAlpha"/><feOffset dx="-.111"/><feGaussianBlur stdDeviation=".056"/><feComposite in2="hardAlpha" operator="arithmetic" k2="-1" k3="1"/><feColorMatrix values="0 0 0 0 0.133333 0 0 0 0 0.113725 0 0 0 0 0.207843 0 0 0 0.6 0"/><feBlend in2="effect1_innerShadow_1313_2445046" result="effect2_innerShadow_1313_2445046"/></filter><filter id="filter5_ii_1313_2445046" x="5.252" y="104.503" width=".779" height="22.286" filterUnits="userSpaceOnUse" color-interpolation-filters="sRGB"><feFlood flood-opacity="0" result="BackgroundImageFix"/><feBlend in="SourceGraphic" in2="BackgroundImageFix" result="shape"/><feColorMatrix in="SourceAlpha" values="0 0 0 0 0 0 0 0 0 0 0 0 0 0 0 0 0 0 127 0" result="hardAlpha"/><feOffset dx=".139"/><feGaussianBlur stdDeviation=".056"/><feComposite in2="hardAlpha" operator="arithmetic" k2="-1" k3="1"/><feColorMatrix values="0 0 0 0 0.779167 0 0 0 0 0.779167 0 0 0 0 0.779167 0 0 0 1 0"/><feBlend in2="shape" result="effect1_innerShadow_1313_2445046"/><feColorMatrix in="SourceAlpha" values="0 0 0 0 0 0 0 0 0 0 0 0 0 0 0 0 0 0 127 0" result="hardAlpha"/><feOffset dx="-.111"/><feGaussianBlur stdDeviation=".056"/><feComposite in2="hardAlpha" operator="arithmetic" k2="-1" k3="1"/><feColorMatrix values="0 0 0 0 0.133333 0 0 0 0 0.113725 0 0 0 0 0.207843 0 0 0 0.6 0"/><feBlend in2="effect1_innerShadow_1313_2445046" result="effect2_innerShadow_1313_2445046"/></filter><filter id="filter6_f_1313_2445046" x="89.204" y="15.278" width="1.375" height="2.389" filterUnits="userSpaceOnUse" color-interpolation-filters="sRGB"><feFlood flood-opacity="0" result="BackgroundImageFix"/><feBlend in="SourceGraphic" in2="BackgroundImageFix" result="shape"/><feGaussianBlur stdDeviation=".141" result="effect1_foregroundBlur_1313_2445046"/></filter><filter id="filter7_f_1313_2445046" x="88.9" y="14.77" width="2.592" height="2.593" filterUnits="userSpaceOnUse" color-interpolation-filters="sRGB"><feFlood flood-opacity="0" result="BackgroundImageFix"/><feBlend in="SourceGraphic" in2="BackgroundImageFix" result="shape"/><feGaussianBlur stdDeviation=".496" result="effect1_foregroundBlur_1313_2445046"/></filter><filter id="filter8_f_1313_2445046" x="90.216" y="15.278" width="1.375" height="2.389" filterUnits="userSpaceOnUse" color-interpolation-filters="sRGB"><feFlood flood-opacity="0" result="BackgroundImageFix"/><feBlend in="SourceGraphic" in2="BackgroundImageFix" result="shape"/><feGaussianBlur stdDeviation=".141" result="effect1_foregroundBlur_1313_2445046"/></filter><filter id="filter9_f_1313_2445046" x="89.966" y="16.243" width="1.268" height="1.27" filterUnits="userSpaceOnUse" color-interpolation-filters="sRGB"><feFlood flood-opacity="0" result="BackgroundImageFix"/><feBlend in="SourceGraphic" in2="BackgroundImageFix" result="shape"/><feGaussianBlur stdDeviation=".165" result="effect1_foregroundBlur_1313_2445046"/></filter><radialGradient id="paint9_radial_1313_2445046" cx="0" cy="0" r="1" gradientUnits="userSpaceOnUse" gradientTransform="matrix(.90945 .70911 -.71478 .91672 90.397 16.371)"><stop stop-color="#152457"/><stop offset="1"/></radialGradient><clipPath id="clip0_1313_2445046"><path fill="#fff" d="M0 0h152v191H0z"/></clipPath></defs></svg>