<svg width="111" height="32" viewBox="0 0 111 32" fill="none" xmlns="http://www.w3.org/2000/svg"><path d="M3.184.388l6.096 9.12h.032V.389h1.328v11.425H9.36L2.864 2.068h-.032v9.745H1.488V.387h1.696zm16.989 9.056c-.368 1.712-1.76 2.56-3.328 2.56-2.272 0-3.872-1.583-3.872-4.175 0-2.624 1.648-4.256 3.792-4.256 2.384 0 3.456 1.903 3.456 3.967v.529h-5.952c.064 1.855 1.04 2.88 2.576 2.88 1.088 0 1.744-.528 2.08-1.505h1.248zm-3.408-4.8c-1.264 0-2.224.816-2.448 2.465h4.608c-.032-1.393-.72-2.465-2.16-2.465zm11.004-.88l1.824 6.609h.032l1.856-6.608h1.28l-2.432 8.047h-1.376l-1.856-6.511h-.048l-1.824 6.511h-1.392l-2.432-8.047h1.312l1.872 6.607h.048l1.792-6.607h1.344zm11.64 6.64v4.257H38.08V3.764h1.28v1.472c.368-.817 1.328-1.665 2.72-1.665 2.048 0 3.584 1.665 3.584 4.224 0 2.545-1.536 4.208-3.584 4.208-1.328 0-2.272-.784-2.672-1.6zm-.065-2.736v.224c0 1.824.896 3.072 2.464 3.072 1.584 0 2.512-1.296 2.512-3.168 0-1.888-.928-3.184-2.512-3.184-1.568 0-2.464 1.232-2.464 3.056zm13.044-4.016v1.216a3.238 3.238 0 00-.688-.064c-1.28 0-2.448 1.008-2.448 3.04v3.968h-1.328V3.765h1.28v1.903c.352-1.328 1.376-2.08 2.56-2.08.208 0 .432.016.624.064zm8.592 4.144c0 2.593-1.6 4.208-3.824 4.208-2.224 0-3.824-1.615-3.824-4.207 0-2.592 1.6-4.224 3.824-4.224 2.224 0 3.824 1.632 3.824 4.223zm-6.336 0c0 1.936.944 3.136 2.512 3.136s2.512-1.2 2.512-3.136c0-1.936-.944-3.152-2.512-3.152s-2.512 1.216-2.512 3.152zm14.32 4.016v-1.407c-.4.816-1.392 1.6-2.72 1.6-2.048 0-3.584-1.665-3.584-4.209 0-2.56 1.536-4.224 3.584-4.224 1.392 0 2.304.8 2.672 1.617V.036h1.328v11.777h-1.28zm.016-3.92v-.224c0-1.824-.896-3.056-2.464-3.056-1.584 0-2.512 1.296-2.512 3.184 0 1.872.928 3.168 2.512 3.168 1.568 0 2.464-1.248 2.464-3.072zm10.74 3.92h-1.296v-1.455c-.384 1.008-1.344 1.648-2.56 1.648-1.824 0-2.848-1.105-2.848-3.057V3.764h1.344v4.929c0 1.488.624 2.271 1.888 2.271 1.216 0 2.128-.832 2.128-2.768V3.766h1.344v8.047zm2.253-4.015c0-2.576 1.552-4.224 3.792-4.224 1.792 0 2.976 1.023 3.232 2.736h-1.264c-.224-1.072-.88-1.665-1.968-1.665-1.584 0-2.48 1.264-2.48 3.152 0 1.888.896 3.136 2.48 3.136 1.088 0 1.744-.591 1.968-1.664h1.264c-.256 1.728-1.44 2.736-3.232 2.736-2.24 0-3.792-1.631-3.792-4.207zm12.96 2.832v1.088a4.908 4.908 0 01-1.407.223c-1.472 0-2.224-.704-2.224-2.191V4.771h-1.184V3.764h1.184V1.717h1.312v2.047h2.112v1.009h-2.128v4.912c0 .848.432 1.135 1.168 1.135.304 0 .656-.031 1.168-.191zM8.033 29.444c-.368 1.712-1.76 2.56-3.328 2.56-2.272 0-3.872-1.585-3.872-4.177 0-2.623 1.648-4.255 3.792-4.255 2.384 0 3.456 1.904 3.456 3.968v.527H2.128c.064 1.856 1.04 2.88 2.576 2.88 1.088 0 1.744-.527 2.08-1.503h1.248zm-3.408-4.8c-1.264 0-2.224.816-2.448 2.463h4.608c-.032-1.392-.72-2.463-2.16-2.463zm6.986-.88v1.471c.384-.992 1.392-1.663 2.624-1.663 1.808 0 2.88 1.136 2.88 3.055v5.184h-1.328v-4.896c0-1.488-.656-2.256-1.92-2.256-1.232 0-2.208.785-2.208 2.72v4.433H10.33v-8.048h1.28zm9.595 1.471c.384-1.024 1.344-1.663 2.576-1.663 1.808 0 2.88 1.136 2.88 3.055v5.184h-1.328v-4.896c0-1.488-.656-2.256-1.92-2.256-1.232 0-2.208.785-2.208 2.72v4.433h-1.328V20.037h1.328v5.2zm13.147 6.576a7.032 7.032 0 01-.144-1.36c-.352.944-1.456 1.536-2.8 1.536-1.408 0-2.608-.816-2.608-2.303 0-1.552 1.152-2.224 2.784-2.416l2.592-.336v-.465c0-1.28-.784-1.823-1.888-1.823-1.072 0-1.744.56-1.84 1.488h-1.28c.16-1.633 1.44-2.56 3.152-2.56 1.952 0 3.168.927 3.168 2.863v3.697c0 .591.032 1.152.192 1.68h-1.328zm-2.672-.832c1.248 0 2.496-.784 2.496-2.335v-.72l-2.192.24c-1.008.143-1.84.4-1.84 1.488 0 .752.528 1.328 1.536 1.328zm7.852-7.215v1.471c.384-.992 1.392-1.663 2.624-1.663 1.808 0 2.88 1.136 2.88 3.055v5.184h-1.328v-4.896c0-1.488-.656-2.256-1.92-2.256-1.232 0-2.208.785-2.208 2.72v4.433h-1.328v-8.048h1.28zm7.675 4.032c0-2.576 1.552-4.224 3.792-4.224 1.792 0 2.976 1.023 3.232 2.735h-1.264c-.224-1.072-.88-1.663-1.968-1.663-1.584 0-2.48 1.264-2.48 3.152 0 1.887.896 3.136 2.48 3.136 1.088 0 1.744-.593 1.968-1.665h1.264c-.256 1.729-1.44 2.736-3.232 2.736-2.24 0-3.792-1.631-3.792-4.207zm15.825 1.648c-.368 1.712-1.76 2.56-3.328 2.56-2.272 0-3.872-1.585-3.872-4.177 0-2.623 1.648-4.255 3.792-4.255 2.384 0 3.456 1.904 3.456 3.968v.527h-5.952c.064 1.856 1.04 2.88 2.576 2.88 1.088 0 1.744-.527 2.08-1.503h1.248zm-3.408-4.8c-1.264 0-2.224.816-2.448 2.463h4.608c-.032-1.392-.72-2.463-2.16-2.463zm11.978.655c.496-1.088 1.52-1.727 2.704-1.727 1.856 0 2.768 1.168 2.768 3.055v5.184H75.73v-4.896c0-1.503-.544-2.256-1.744-2.256s-2.112.864-2.112 2.72v4.433H70.53v-4.896c0-1.505-.528-2.257-1.744-2.257s-2.128.864-2.128 2.72v4.433H65.33v-8.048h1.28v1.471c.384-1.024 1.376-1.663 2.544-1.663 1.36 0 2.096.655 2.448 1.727zm14.836 4.145c-.368 1.712-1.76 2.56-3.328 2.56-2.272 0-3.872-1.585-3.872-4.177 0-2.623 1.648-4.255 3.792-4.255 2.384 0 3.456 1.904 3.456 3.968v.527h-5.952c.064 1.856 1.04 2.88 2.576 2.88 1.088 0 1.744-.527 2.08-1.503h1.248zm-3.408-4.8c-1.264 0-2.224.816-2.448 2.463h4.608c-.032-1.392-.72-2.463-2.16-2.463zm6.986-.88v1.471c.384-.992 1.392-1.663 2.624-1.663 1.808 0 2.88 1.136 2.88 3.055v5.184h-1.328v-4.896c0-1.488-.655-2.256-1.92-2.256-1.232 0-2.208.785-2.208 2.72v4.433h-1.327v-8.048h1.28zm12.011 6.863v1.088a4.908 4.908 0 01-1.408.224c-1.472 0-2.224-.704-2.224-2.192v-4.976h-1.184v-1.007h1.184v-2.049h1.312v2.049h2.112v1.008h-2.128v4.912c0 .848.432 1.136 1.168 1.136.304 0 .656-.033 1.168-.193zm1.475-1.2h1.28c.096 1.104 1.12 1.569 2.208 1.569 1.104 0 1.904-.512 1.904-1.377 0-.591-.384-.976-1.408-1.168l-1.424-.288c-1.296-.24-2.24-.768-2.24-2.176 0-1.36 1.216-2.415 2.992-2.415 1.856 0 2.992.8 3.152 2.32h-1.232c-.096-.817-.816-1.297-1.92-1.297-1.072 0-1.76.529-1.76 1.313 0 .688.48.976 1.408 1.152l1.6.303c1.312.256 2.08.896 2.08 2.192 0 1.409-1.328 2.448-3.136 2.448-1.92 0-3.36-.847-3.504-2.575z" fill="#000"/></svg>