<svg width="161" height="71" viewBox="0 0 161 71" fill="none" xmlns="http://www.w3.org/2000/svg"><path d="M.208 15.284v-3.936c11.712 0 15.744-3.36 17.376-10.464h2.976v68.928H14.8V15.285H.208zm67.66-8.736H27.645v-5.28H74.78v3.648C58.267 24.98 52.124 45.908 51.836 69.813h-6.24c.289-24.864 9.12-46.56 22.273-63.265zm34.606 23.04c-7.872 0-13.152 3.937-15.936 8.544h-5.184L85.098 1.27h37.248v5.28H89.322L86.73 31.892c3.072-4.127 9.312-7.392 15.648-7.392 14.4 0 23.136 10.465 23.136 23.233 0 12.96-8.64 23.232-23.04 23.232-12.96 0-22.848-8.065-23.904-21.313h5.664c.768 9.6 7.68 16.224 18.336 16.224 11.904 0 17.376-8.736 17.376-18.24 0-9.408-5.568-18.048-17.472-18.048zm58.42 25.873h-10.848v10.895h-3.264V55.462h-10.896v-3.264h10.896V41.3h3.264v10.897h10.848v3.264z" fill="#000"/></svg>