<svg width="152" height="72" viewBox="0 0 152 72" fill="none" xmlns="http://www.w3.org/2000/svg"><path d="M26.872 6.146C13.048 6.146 6.04 20.642 6.04 40.323c2.016-7.776 9.12-15.553 20.352-15.553 13.44 0 22.272 10.08 22.272 23.137 0 13.92-9.12 23.808-22.848 23.808C11.128 71.715.664 58.37.664 37.441.664 15.843 11.608.867 26.872.867c11.712 0 19.68 6.817 21.216 18.433h-5.376c-1.824-8.832-7.008-13.152-15.84-13.152zm-1.056 60.385c10.656 0 17.28-7.873 17.28-18.337 0-10.464-6.624-18.144-17.28-18.144-10.368 0-17.472 7.68-17.472 18.144 0 10.464 7.104 18.337 17.472 18.337zm28.338-30.24C54.154 15.747 64.426.866 80.362.866c15.936 0 26.208 14.88 26.208 35.425 0 20.544-10.272 35.424-26.208 35.424-15.936 0-26.208-14.88-26.208-35.425zm5.856 0c0 17.568 6.912 29.952 20.352 29.952 13.44 0 20.352-12.384 20.352-29.952S93.802 6.338 80.362 6.338c-13.44 0-20.352 12.383-20.352 29.952zm57.497 7.056c0-4.224 3.456-7.633 7.584-7.633 4.272 0 7.68 3.409 7.68 7.633s-3.408 7.631-7.68 7.631c-4.128 0-7.584-3.407-7.584-7.632zm26.16-7.056h3.408l-21.984 34.224h-3.456l22.032-34.224zm-23.184 7.056c0 2.688 2.112 4.752 4.608 4.752 2.64 0 4.704-2.064 4.704-4.752 0-2.64-2.064-4.753-4.704-4.753-2.496 0-4.608 2.112-4.608 4.752zm15.408 20.255c0-4.223 3.456-7.68 7.584-7.68a7.672 7.672 0 017.68 7.68c0 4.224-3.408 7.584-7.68 7.584-4.128 0-7.584-3.36-7.584-7.584zm2.976 0c0 2.64 2.112 4.705 4.608 4.705 2.64 0 4.704-2.064 4.704-4.705 0-2.688-2.064-4.8-4.704-4.8-2.496 0-4.608 2.112-4.608 4.8z" fill="#000"/></svg>