<svg width="266" height="36" viewBox="0 0 266 36" fill="none" xmlns="http://www.w3.org/2000/svg"><path d="M2.208 6.835c0 2.847 1.36 4.751 3.712 4.751 1.92 0 2.752-1.072 3.008-2.351h1.344c-.368 2.08-1.856 3.52-4.352 3.52-2.944 0-5.12-2.32-5.12-5.92C.8 3.25 2.976.947 5.92.947c2.496 0 3.984 1.44 4.352 3.52H8.928C8.672 3.186 7.84 2.115 5.92 2.115c-2.352 0-3.712 1.871-3.712 4.72zm14.649-2.433v1.216a3.238 3.238 0 00-.688-.064c-1.28 0-2.448 1.008-2.448 3.04v3.969h-1.328V4.514h1.28v1.904c.352-1.328 1.376-2.08 2.56-2.08.208 0 .432.016.624.064zM25 10.194c-.368 1.712-1.76 2.56-3.328 2.56-2.272 0-3.872-1.583-3.872-4.175 0-2.625 1.648-4.257 3.792-4.257 2.384 0 3.456 1.904 3.456 3.968v.529h-5.952c.064 1.855 1.04 2.88 2.576 2.88 1.088 0 1.744-.528 2.08-1.505H25zm-3.408-4.8c-1.264 0-2.224.816-2.448 2.465h4.608c-.032-1.393-.72-2.465-2.16-2.465zm11.004-.88l1.824 6.609h.032l1.856-6.608h1.28l-2.432 8.047h-1.376l-1.856-6.511h-.048l-1.824 6.511h-1.392L26.23 4.515h1.312l1.872 6.608h.048l1.792-6.608h1.344zM49.18 6.051c.496-1.088 1.52-1.729 2.704-1.729 1.856 0 2.768 1.168 2.768 3.056v5.184h-1.344V7.668c0-1.505-.544-2.256-1.744-2.256s-2.112.864-2.112 2.72v4.431h-1.344V7.668c0-1.505-.528-2.256-1.744-2.256s-2.128.864-2.128 2.72v4.431h-1.328V4.515h1.28v1.472c.384-1.024 1.376-1.665 2.544-1.665 1.36 0 2.096.657 2.448 1.729zm14.836 4.143c-.368 1.712-1.76 2.56-3.328 2.56-2.272 0-3.872-1.583-3.872-4.175 0-2.625 1.648-4.257 3.792-4.257 2.384 0 3.456 1.904 3.456 3.968v.529h-5.952c.064 1.855 1.04 2.88 2.576 2.88 1.088 0 1.744-.528 2.08-1.505h1.248zm-3.408-4.8c-1.264 0-2.224.816-2.448 2.465h4.608c-.032-1.393-.72-2.465-2.16-2.465zm11.979.657c.496-1.088 1.52-1.729 2.704-1.729 1.856 0 2.768 1.168 2.768 3.056v5.184h-1.344V7.668c0-1.505-.544-2.256-1.744-2.256s-2.112.864-2.112 2.72v4.431h-1.344V7.668c0-1.505-.528-2.256-1.744-2.256s-2.128.864-2.128 2.72v4.431h-1.328V4.515h1.28v1.472c.384-1.024 1.376-1.665 2.544-1.665 1.36 0 2.096.657 2.448 1.729zm9.508 5.104v1.408h-1.28V.786h1.328v5.152c.368-.816 1.28-1.615 2.672-1.615 2.048 0 3.584 1.663 3.584 4.223 0 2.545-1.536 4.209-3.584 4.209-1.328 0-2.32-.785-2.72-1.6zm-.016-2.736v.223c0 1.825.896 3.072 2.464 3.072 1.584 0 2.512-1.296 2.512-3.168 0-1.887-.928-3.183-2.512-3.183-1.568 0-2.464 1.231-2.464 3.055zm15.203 1.775c-.368 1.712-1.76 2.56-3.328 2.56-2.272 0-3.872-1.583-3.872-4.175 0-2.625 1.648-4.257 3.792-4.257 2.384 0 3.456 1.904 3.456 3.968v.529h-5.952c.064 1.855 1.04 2.88 2.576 2.88 1.088 0 1.744-.528 2.08-1.505h1.248zm-3.408-4.8c-1.264 0-2.224.816-2.448 2.465h4.608c-.032-1.393-.72-2.465-2.16-2.465zm10.17-.992v1.216a3.238 3.238 0 00-.688-.064c-1.28 0-2.448 1.008-2.448 3.04v3.969H99.58V4.514h1.28v1.904c.352-1.328 1.376-2.08 2.56-2.08.208 0 .432.016.624.064zm1.005 5.776h1.28c.095 1.104 1.12 1.568 2.207 1.568 1.105 0 1.905-.511 1.905-1.376 0-.591-.384-.975-1.408-1.167l-1.424-.288c-1.297-.24-2.241-.768-2.241-2.176 0-1.36 1.217-2.417 2.993-2.417 1.856 0 2.992.8 3.152 2.32h-1.232c-.096-.816-.816-1.296-1.92-1.296-1.072 0-1.76.529-1.76 1.313 0 .688.48.976 1.408 1.152l1.6.303c1.312.256 2.08.896 2.08 2.192 0 1.409-1.328 2.449-3.136 2.449-1.92 0-3.36-.849-3.504-2.577zm12.31-7.344V1.219h1.504v1.616h-1.504zm.096 9.729V4.514h1.328v8.049h-1.328zm5.452-8.049v1.473c.384-.992 1.392-1.665 2.624-1.665 1.808 0 2.88 1.136 2.88 3.056v5.184h-1.328V7.668c0-1.489-.656-2.256-1.92-2.256-1.232 0-2.208.784-2.208 2.72v4.431h-1.328V4.515h1.28zm10.335 8.049l-3.216-8.049h1.36l2.592 6.737h.032l2.48-6.736h1.328l-3.088 8.047h-1.488zm6.367-9.729V1.219h1.504v1.616h-1.504zm.096 9.729V4.514h1.328v8.049h-1.328zm7.916-1.184v1.088a4.908 4.908 0 01-1.408.223c-1.472 0-2.224-.704-2.224-2.191V5.521h-1.184V4.514h1.184V2.466h1.312v2.048h2.112v1.008h-2.128v4.912c0 .849.432 1.136 1.168 1.136.304 0 .656-.031 1.168-.191zm8.677-1.184c-.368 1.711-1.76 2.56-3.328 2.56-2.272 0-3.872-1.585-3.872-4.177 0-2.623 1.648-4.255 3.792-4.255 2.384 0 3.456 1.903 3.456 3.967v.529h-5.952c.064 1.855 1.04 2.88 2.576 2.88 1.088 0 1.744-.528 2.08-1.505h1.248zm-3.408-4.8c-1.264 0-2.224.816-2.448 2.464h4.608c-.032-1.393-.72-2.465-2.16-2.465zm11.434 7.168v-1.409c-.4.816-1.392 1.6-2.72 1.6-2.048 0-3.584-1.663-3.584-4.207 0-2.56 1.536-4.225 3.584-4.225 1.392 0 2.304.8 2.672 1.617V.786h1.328v11.777h-1.28zm.016-3.92v-.225c0-1.823-.896-3.055-2.464-3.055-1.584 0-2.512 1.295-2.512 3.183 0 1.873.928 3.168 2.512 3.168 1.568 0 2.464-1.248 2.464-3.072zm11.328 2.736v1.088a4.908 4.908 0 01-1.408.223c-1.472 0-2.224-.704-2.224-2.191V5.521h-1.184V4.514h1.184V2.466h1.312v2.048h2.112v1.008h-2.128v4.912c0 .849.432 1.136 1.168 1.136.304 0 .656-.031 1.168-.191zm9.125-2.832c0 2.591-1.6 4.207-3.824 4.207-2.224 0-3.824-1.615-3.824-4.207 0-2.593 1.6-4.225 3.824-4.225 2.224 0 3.824 1.633 3.824 4.224zm-6.336 0c0 1.935.944 3.135 2.512 3.135s2.512-1.2 2.512-3.136c0-1.935-.944-3.151-2.512-3.151s-2.512 1.216-2.512 3.152zm21.005 4.015l-2.576-9.6h-.032l-2.592 9.6h-1.552L189.494 1.14h1.456l2.624 9.712h.032l2.576-9.713h1.456l2.592 9.713h.032l2.608-9.713h1.376l-3.216 11.425h-1.568zm10.645-8.16v1.216a3.238 3.238 0 00-.688-.064c-1.28 0-2.448 1.008-2.448 3.04v3.969h-1.328V4.514h1.28v1.904c.352-1.328 1.376-2.08 2.56-2.08.208 0 .432.016.624.064zm6.62 8.16a7.032 7.032 0 01-.144-1.36c-.352.944-1.456 1.537-2.8 1.537-1.408 0-2.608-.817-2.608-2.305 0-1.551 1.152-2.223 2.784-2.415l2.592-.337v-.464c0-1.28-.784-1.824-1.888-1.824-1.072 0-1.744.56-1.84 1.489h-1.28c.16-1.633 1.44-2.56 3.152-2.56 1.952 0 3.168.927 3.168 2.863v3.697c0 .592.032 1.152.192 1.68h-1.328zm-2.672-.832c1.248 0 2.496-.784 2.496-2.335v-.72l-2.192.24c-1.008.144-1.84.4-1.84 1.488 0 .752.528 1.327 1.536 1.327zm7.9-.575v4.256h-1.328V4.514h1.28v1.472c.368-.817 1.328-1.665 2.72-1.665 2.048 0 3.584 1.665 3.584 4.224 0 2.545-1.536 4.209-3.584 4.209-1.328 0-2.272-.785-2.672-1.6zm-.064-2.736v.223c0 1.825.896 3.072 2.464 3.072 1.584 0 2.512-1.296 2.512-3.168 0-1.887-.928-3.183-2.512-3.183-1.568 0-2.464 1.231-2.464 3.055zm9.86 2.736v1.408h-1.28V.786h1.328v5.152c.368-.816 1.28-1.615 2.672-1.615 2.048 0 3.584 1.663 3.584 4.223 0 2.545-1.536 4.209-3.584 4.209-1.328 0-2.32-.785-2.72-1.6zm-.016-2.736v.223c0 1.825.896 3.072 2.464 3.072 1.584 0 2.512-1.296 2.512-3.168 0-1.887-.928-3.183-2.512-3.183-1.568 0-2.464 1.231-2.464 3.055zm15.651.127c0 2.593-1.6 4.209-3.824 4.209-2.224 0-3.824-1.617-3.824-4.209 0-2.591 1.6-4.223 3.824-4.223 2.224 0 3.824 1.631 3.824 4.223zm-6.336 0c0 1.937.944 3.136 2.512 3.136s2.512-1.2 2.512-3.136c0-1.935-.944-3.151-2.512-3.151s-2.512 1.216-2.512 3.152zm15.664 0c0 2.593-1.6 4.209-3.824 4.209-2.224 0-3.824-1.617-3.824-4.209 0-2.591 1.6-4.223 3.824-4.223 2.224 0 3.824 1.631 3.824 4.223zm-6.336 0c0 1.937.944 3.136 2.512 3.136s2.512-1.2 2.512-3.136c0-1.935-.944-3.151-2.512-3.151s-2.512 1.216-2.512 3.152zm14.017 4.017l-3.056-3.793-1.04 1.008v2.784h-1.328V.787h1.328v7.585l3.968-3.857h1.584l-3.552 3.409 3.696 4.64h-1.6zM6.816 24.514l1.824 6.607h.032l1.856-6.607h1.28l-2.432 8.047H8l-1.856-6.511h-.048l-1.824 6.512H2.88L.448 24.514H1.76l1.872 6.608h.048l1.792-6.607h1.344zm6.746-1.68v-1.617h1.504v1.616h-1.504zm.096 9.727v-8.047h1.328v8.047h-1.328zm7.916-1.183v1.088a4.909 4.909 0 01-1.408.224c-1.472 0-2.224-.705-2.224-2.193v-4.976h-1.184v-1.007h1.184v-2.049h1.312v2.049h2.112v1.008h-2.128v4.912c0 .848.432 1.136 1.168 1.136.304 0 .656-.033 1.168-.193zm3.49-5.393c.384-1.024 1.345-1.663 2.576-1.663 1.808 0 2.88 1.136 2.88 3.055v5.184h-1.328v-4.895c0-1.489-.655-2.257-1.92-2.257-1.231 0-2.207.785-2.207 2.72v4.433h-1.329V20.785h1.328v5.2zm16.616 6.576a7.032 7.032 0 01-.144-1.36c-.352.945-1.456 1.537-2.8 1.537-1.408 0-2.608-.816-2.608-2.304 0-1.552 1.152-2.224 2.784-2.416l2.592-.336v-.465c0-1.28-.784-1.823-1.888-1.823-1.072 0-1.744.56-1.84 1.488h-1.28c.16-1.633 1.44-2.56 3.152-2.56 1.952 0 3.168.927 3.168 2.863v3.697c0 .591.032 1.152.192 1.68H41.68zm-2.672-.831c1.248 0 2.496-.785 2.496-2.337v-.72l-2.192.24c-1.008.144-1.84.4-1.84 1.488 0 .752.528 1.328 1.536 1.328zm7.852-7.216v1.471c.384-.992 1.392-1.663 2.624-1.663 1.808 0 2.88 1.136 2.88 3.055v5.184h-1.328v-4.895c0-1.489-.656-2.257-1.92-2.257-1.232 0-2.208.785-2.208 2.72v4.433H45.58v-8.049h1.28zm18.344 5.68c-.368 1.712-1.76 2.56-3.328 2.56-2.272 0-3.872-1.585-3.872-4.177 0-2.623 1.648-4.255 3.792-4.255 2.384 0 3.456 1.904 3.456 3.968v.527H59.3c.064 1.856 1.04 2.88 2.576 2.88 1.088 0 1.744-.527 2.08-1.503h1.248zm-3.408-4.8c-1.264 0-2.224.816-2.448 2.463h4.608c-.032-1.392-.72-2.463-2.16-2.463zm5.955 7.168h-1.424l3.056-4.145-2.896-3.903h1.568l2.144 2.96 2.128-2.96h1.44l-2.848 3.84 3.104 4.207H72.47l-2.384-3.231-2.336 3.232zm8.186-9.729v-1.616h1.504v1.616h-1.504zm.096 9.729v-8.049h1.328v8.049h-1.328zm3.484-2.385h1.28c.096 1.104 1.12 1.569 2.208 1.569 1.104 0 1.904-.512 1.904-1.377 0-.591-.384-.976-1.408-1.168l-1.424-.288c-1.296-.24-2.24-.768-2.24-2.176 0-1.36 1.216-2.415 2.992-2.415 1.856 0 2.992.8 3.152 2.32H84.75c-.096-.817-.816-1.297-1.92-1.297-1.072 0-1.76.529-1.76 1.313 0 .688.48.976 1.408 1.152l1.6.303c1.312.256 2.08.896 2.08 2.192 0 1.409-1.328 2.448-3.136 2.448-1.92 0-3.36-.847-3.504-2.575zm12.682 1.2v1.089a4.909 4.909 0 01-1.408.224c-1.472 0-2.224-.705-2.224-2.193v-4.976h-1.184v-1.007h1.184v-2.049h1.312v2.049h2.112v1.008h-2.128v4.912c0 .848.432 1.136 1.168 1.136.304 0 .656-.033 1.168-.193zm2.067-8.544v-1.616h1.503v1.616h-1.504zm.096 9.729v-8.049h1.328v8.049h-1.328zm5.451-8.049v1.473c.384-.992 1.392-1.664 2.624-1.664 1.808 0 2.88 1.136 2.88 3.055v5.184h-1.328v-4.895c0-1.489-.656-2.257-1.92-2.257-1.232 0-2.208.785-2.208 2.72v4.433h-1.328v-8.049h1.28zm13.899 7.537v-1.185c-.368.785-1.264 1.553-2.672 1.553-2.064 0-3.568-1.552-3.568-4.064 0-2.416 1.504-4.032 3.568-4.032 1.408 0 2.336.831 2.72 1.6v-1.408h1.296v7.44c0 2.56-1.664 3.648-3.808 3.648-1.936 0-3.248-.785-3.568-2.352h1.344c.272 1.008 1.12 1.328 2.208 1.328 1.584 0 2.48-.849 2.48-2.529zm.096-3.505v-.383c0-1.665-1.04-2.8-2.528-2.8-1.568 0-2.496 1.2-2.496 2.992 0 1.776.928 3.008 2.496 3.008 1.488 0 2.528-1.152 2.528-2.816zm8.897 2.608v4.256h-1.328V24.515h1.28v1.471c.368-.816 1.328-1.663 2.72-1.663 2.048 0 3.584 1.663 3.584 4.224 0 2.543-1.536 4.207-3.584 4.207-1.328 0-2.272-.783-2.672-1.6zm-.064-2.735v.223c0 1.825.896 3.073 2.464 3.073 1.584 0 2.512-1.296 2.512-3.168 0-1.889-.928-3.184-2.512-3.184-1.568 0-2.464 1.232-2.464 3.056zm13.044-4.017v1.216a3.238 3.238 0 00-.688-.063c-1.28 0-2.448 1.008-2.448 3.04v3.968h-1.328v-8.049h1.28v1.905c.352-1.329 1.376-2.08 2.56-2.08.208 0 .432.016.624.064zm8.592 4.145c0 2.591-1.6 4.207-3.824 4.207-2.224 0-3.824-1.615-3.824-4.207 0-2.593 1.6-4.224 3.824-4.224 2.224 0 3.824 1.631 3.824 4.224zm-6.336 0c0 1.936.944 3.136 2.512 3.136s2.512-1.2 2.512-3.136c0-1.937-.944-3.152-2.512-3.152s-2.512 1.215-2.512 3.152zm8.8-3.024h-1.168v-1.008h1.168V23.01c0-1.504.96-2.272 2.336-2.272.288 0 .656.032.896.08v1.056a6.054 6.054 0 00-.816-.047c-.576 0-1.104.287-1.104 1.2v1.488h1.728v1.008h-1.728v7.04h-1.312v-7.04zm4.665-2.689v-1.616h1.504v1.616h-1.504zm.096 9.729v-8.049h1.328v8.049h-1.328zm5.5 0h-1.328V20.785h1.328v11.776zm9.452-2.369c-.368 1.713-1.76 2.56-3.328 2.56-2.272 0-3.872-1.583-3.872-4.175 0-2.625 1.648-4.256 3.792-4.256 2.384 0 3.456 1.904 3.456 3.968v.527h-5.952c.064 1.856 1.04 2.88 2.576 2.88 1.088 0 1.744-.527 2.08-1.503h1.248zm-3.408-4.8c-1.264 0-2.224.817-2.448 2.465h4.608c-.032-1.393-.72-2.465-2.16-2.465z" fill="#000"/></svg>