<svg width="353" height="22" viewBox="0 0 353 22" fill="none" xmlns="http://www.w3.org/2000/svg"><path d="M2.094 17.5H.139V1.078h6.325c3.68 0 5.773 1.725 5.773 4.876 0 2.668-1.863 4.163-3.795 4.6L12.95 17.5h-2.231l-4.255-6.647h-4.37V17.5zm0-8.303h4.255c2.484 0 3.887-1.104 3.887-3.243 0-2.07-1.403-3.22-3.887-3.22H2.094v6.463zm23.953 2.53c0 3.726-2.3 6.049-5.497 6.049s-5.497-2.323-5.497-6.049c0-3.726 2.3-6.072 5.497-6.072s5.497 2.346 5.497 6.072zm-9.108 0c0 2.783 1.357 4.508 3.611 4.508 2.254 0 3.611-1.725 3.611-4.508s-1.357-4.531-3.61-4.531c-2.255 0-3.612 1.748-3.612 4.531zm22.518 0c0 3.726-2.3 6.049-5.497 6.049s-5.497-2.323-5.497-6.049c0-3.726 2.3-6.072 5.497-6.072s5.497 2.346 5.497 6.072zm-9.108 0c0 2.783 1.357 4.508 3.61 4.508 2.255 0 3.612-1.725 3.612-4.508s-1.357-4.531-3.611-4.531c-2.254 0-3.611 1.748-3.611 4.531zm21.367-3.588c.713-1.564 2.185-2.484 3.887-2.484 2.668 0 3.98 1.679 3.98 4.393V17.5H57.65v-7.038c0-2.162-.782-3.243-2.507-3.243s-3.036 1.242-3.036 3.91V17.5h-1.932v-7.038c0-2.162-.759-3.243-2.507-3.243-1.748 0-3.059 1.242-3.059 3.91V17.5H42.7V5.931h1.84v2.116c.552-1.472 1.978-2.392 3.657-2.392 1.955 0 3.013.943 3.52 2.484zM73.521 17.5V2.734h-6.118V1.078H81.64v1.656H75.5V17.5H73.52zm19.056-5.773c0 3.726-2.3 6.049-5.497 6.049s-5.497-2.323-5.497-6.049c0-3.726 2.3-6.072 5.497-6.072s5.497 2.346 5.497 6.072zm-9.108 0c0 2.783 1.357 4.508 3.61 4.508 2.255 0 3.612-1.725 3.612-4.508s-1.357-4.531-3.611-4.531c-2.254 0-3.611 1.748-3.611 4.531zM97.66 5.931v2.116c.552-1.426 2.001-2.392 3.772-2.392 2.599 0 4.14 1.633 4.14 4.393V17.5h-1.909v-7.038c0-2.139-.943-3.243-2.76-3.243-1.77 0-3.174 1.127-3.174 3.91V17.5H95.82V5.931h1.84zm21.383 8.165c-.529 2.461-2.53 3.68-4.784 3.68-3.266 0-5.566-2.277-5.566-6.003 0-3.772 2.369-6.118 5.451-6.118 3.427 0 4.968 2.737 4.968 5.704v.759h-8.556c.092 2.668 1.495 4.14 3.703 4.14 1.564 0 2.507-.759 2.99-2.162h1.794zm-4.899-6.9c-1.817 0-3.197 1.173-3.519 3.542h6.624c-.046-2.001-1.035-3.542-3.105-3.542zm12.338 4.531c0-3.703 2.231-6.072 5.451-6.072 2.576 0 4.278 1.472 4.646 3.933h-1.817c-.322-1.541-1.265-2.392-2.829-2.392-2.277 0-3.565 1.817-3.565 4.531 0 2.714 1.288 4.508 3.565 4.508 1.564 0 2.507-.851 2.829-2.392h1.817c-.368 2.484-2.07 3.933-4.646 3.933-3.22 0-5.451-2.346-5.451-6.049zm23.393 0c0 3.726-2.3 6.049-5.497 6.049s-5.497-2.323-5.497-6.049c0-3.726 2.3-6.072 5.497-6.072s5.497 2.346 5.497 6.072zm-9.108 0c0 2.783 1.357 4.508 3.611 4.508 2.254 0 3.611-1.725 3.611-4.508s-1.357-4.531-3.611-4.531c-2.254 0-3.611 1.748-3.611 4.531zm21.367-3.588c.713-1.564 2.185-2.484 3.887-2.484 2.668 0 3.979 1.679 3.979 4.393V17.5h-1.932v-7.038c0-2.162-.782-3.243-2.507-3.243s-3.036 1.242-3.036 3.91V17.5h-1.932v-7.038c0-2.162-.759-3.243-2.507-3.243-1.748 0-3.059 1.242-3.059 3.91V17.5h-1.909V5.931h1.84v2.116c.552-1.472 1.978-2.392 3.657-2.392 1.955 0 3.013.943 3.519 2.484zm20.844 0c.713-1.564 2.185-2.484 3.887-2.484 2.668 0 3.979 1.679 3.979 4.393V17.5h-1.932v-7.038c0-2.162-.782-3.243-2.507-3.243s-3.036 1.242-3.036 3.91V17.5h-1.932v-7.038c0-2.162-.759-3.243-2.507-3.243-1.748 0-3.059 1.242-3.059 3.91V17.5h-1.909V5.931h1.84v2.116c.552-1.472 1.978-2.392 3.657-2.392 1.955 0 3.013.943 3.519 2.484zm21.35 9.361h-1.863v-2.093c-.552 1.449-1.932 2.369-3.68 2.369-2.622 0-4.094-1.587-4.094-4.393V5.931h1.932v7.084c0 2.139.897 3.266 2.714 3.266 1.748 0 3.059-1.196 3.059-3.979V5.931h1.932V17.5zm5.929-11.569v2.116c.552-1.426 2.001-2.392 3.772-2.392 2.599 0 4.14 1.633 4.14 4.393V17.5h-1.909v-7.038c0-2.139-.943-3.243-2.76-3.243-1.771 0-3.174 1.127-3.174 3.91V17.5h-1.909V5.931h1.84zm11.746-2.415V1.193h2.162v2.323h-2.162zm.138 13.984V5.931h1.909V17.5h-1.909zm11.379-1.702v1.564c-.851.253-1.518.322-2.024.322-2.116 0-3.197-1.012-3.197-3.151V7.38h-1.702V5.931h1.702V2.987h1.886v2.944h3.036V7.38h-3.059v7.061c0 1.219.621 1.633 1.679 1.633.437 0 .943-.046 1.679-.276zm6.351 1.794l-4.646-11.661h2.001l3.68 9.453h.046l3.473-9.453h1.978l-4.669 11.914c-1.058 2.76-1.978 3.91-4.094 3.933a6.69 6.69 0 01-1.127-.115v-1.564c.368.092.621.092.92.092 1.15 0 1.679-.644 2.438-2.599zm23.225-9.453c.713-1.564 2.185-2.484 3.887-2.484 2.668 0 3.979 1.679 3.979 4.393V17.5h-1.932v-7.038c0-2.162-.782-3.243-2.507-3.243s-3.036 1.242-3.036 3.91V17.5h-1.932v-7.038c0-2.162-.759-3.243-2.507-3.243-1.748 0-3.059 1.242-3.059 3.91V17.5h-1.909V5.931h1.84v2.116c.552-1.472 1.978-2.392 3.657-2.392 1.955 0 3.013.943 3.519 2.484zm21.327 5.957c-.529 2.461-2.53 3.68-4.784 3.68-3.266 0-5.566-2.277-5.566-6.003 0-3.772 2.369-6.118 5.451-6.118 3.427 0 4.968 2.737 4.968 5.704v.759h-8.556c.092 2.668 1.495 4.14 3.703 4.14 1.564 0 2.507-.759 2.99-2.162h1.794zm-4.899-6.9c-1.817 0-3.197 1.173-3.519 3.542h6.624c-.046-2.001-1.035-3.542-3.105-3.542zm17.219.943c.713-1.564 2.185-2.484 3.887-2.484 2.668 0 3.979 1.679 3.979 4.393V17.5h-1.932v-7.038c0-2.162-.782-3.243-2.507-3.243s-3.036 1.242-3.036 3.91V17.5h-1.932v-7.038c0-2.162-.759-3.243-2.507-3.243-1.748 0-3.059 1.242-3.059 3.91V17.5h-1.909V5.931h1.84v2.116c.552-1.472 1.978-2.392 3.657-2.392 1.955 0 3.013.943 3.519 2.484zm13.667 7.337V17.5h-1.84V.572h1.909v7.406c.529-1.173 1.84-2.323 3.841-2.323 2.944 0 5.152 2.392 5.152 6.072 0 3.657-2.208 6.049-5.152 6.049-1.909 0-3.335-1.127-3.91-2.3zm-.023-3.933v.322c0 2.622 1.288 4.416 3.542 4.416 2.277 0 3.611-1.863 3.611-4.554 0-2.714-1.334-4.577-3.611-4.577-2.254 0-3.542 1.771-3.542 4.393zm21.855 2.553c-.529 2.461-2.53 3.68-4.784 3.68-3.266 0-5.566-2.277-5.566-6.003 0-3.772 2.369-6.118 5.451-6.118 3.427 0 4.968 2.737 4.968 5.704v.759h-8.556c.092 2.668 1.495 4.14 3.703 4.14 1.564 0 2.507-.759 2.99-2.162h1.794zm-4.899-6.9c-1.817 0-3.197 1.173-3.519 3.542h6.624c-.046-2.001-1.035-3.542-3.105-3.542zm14.62-1.426v1.748c-.276-.069-.69-.092-.989-.092-1.84 0-3.519 1.449-3.519 4.37V17.5h-1.909V5.931h1.84v2.737c.506-1.909 1.978-2.99 3.68-2.99.299 0 .621.023.897.092zm1.444 8.303h1.84c.138 1.587 1.61 2.254 3.174 2.254 1.587 0 2.737-.736 2.737-1.978 0-.851-.552-1.403-2.024-1.679l-2.047-.414c-1.863-.345-3.22-1.104-3.22-3.128 0-1.955 1.748-3.473 4.301-3.473 2.668 0 4.301 1.15 4.531 3.335h-1.771c-.138-1.173-1.173-1.863-2.76-1.863-1.541 0-2.53.759-2.53 1.886 0 .989.69 1.403 2.024 1.656l2.3.437c1.886.368 2.99 1.288 2.99 3.151 0 2.024-1.909 3.519-4.508 3.519-2.76 0-4.83-1.219-5.037-3.703z" fill="#000"/></svg>