<svg width="256" height="96" viewBox="0 0 256 96" fill="none" xmlns="http://www.w3.org/2000/svg"><path d="M54.088 9.148H.456v-7.04h62.848v4.864C41.288 33.724 33.096 61.628 32.712 93.5h-8.32c.384-33.152 12.16-62.08 29.696-84.352zm46.141 30.72c-10.496 0-17.536 5.248-21.248 11.392h-6.912l4.992-49.152h49.664v7.04H82.693L79.237 42.94c4.096-5.504 12.416-9.856 20.864-9.856 19.2 0 30.848 13.952 30.848 30.976 0 17.28-11.52 30.976-30.72 30.976-17.28 0-30.464-10.752-31.872-28.416h7.552c1.024 12.8 10.24 21.632 24.448 21.632 15.872 0 23.168-11.648 23.168-24.32 0-12.544-7.424-24.064-23.296-24.064zm37.463 7.936c0-27.392 13.696-47.232 34.944-47.232 21.248 0 34.944 19.84 34.944 47.232s-13.696 47.232-34.944 47.232c-21.248 0-34.944-19.84-34.944-47.232zm7.808 0c0 23.424 9.216 39.936 27.136 39.936s27.136-16.512 27.136-39.936-9.216-39.936-27.136-39.936S145.5 24.38 145.5 47.804zm109.942 26.56h-14.464v14.528h-4.352V74.364h-14.528v-4.352h14.528V55.484h4.352v14.528h14.464v4.352z" fill="#000"/></svg>