<svg width="112" height="33" viewBox="0 0 112 33" fill="none" xmlns="http://www.w3.org/2000/svg"><path d="M9.648 12.125L8.384 8.941H2.912l-1.264 3.184H.272L4.896.701h1.552l4.64 11.424h-1.44zM5.632 2.077L3.36 7.805h4.576L5.68 2.077h-.048zm9.126 10.048l-3.216-8.048h1.36l2.592 6.736h.032l2.48-6.736h1.328l-3.088 8.048h-1.488zm12.805-2.368c-.368 1.712-1.76 2.56-3.328 2.56-2.272 0-3.872-1.584-3.872-4.176 0-2.624 1.648-4.256 3.792-4.256 2.384 0 3.456 1.904 3.456 3.968v.528H21.66c.064 1.856 1.04 2.88 2.576 2.88 1.088 0 1.744-.528 2.08-1.504h1.248zm-3.408-4.8c-1.264 0-2.224.816-2.448 2.464h4.608c-.032-1.392-.72-2.464-2.16-2.464zm10.17-.992v1.216a3.238 3.238 0 00-.688-.064c-1.28 0-2.448 1.008-2.448 3.04v3.968h-1.328V4.077h1.28v1.904c.353-1.328 1.377-2.08 2.56-2.08.209 0 .432.016.624.064zm6.62 8.16a7.032 7.032 0 01-.143-1.36c-.352.944-1.456 1.536-2.8 1.536-1.408 0-2.608-.816-2.608-2.304 0-1.552 1.152-2.224 2.784-2.416l2.592-.336v-.464c0-1.28-.784-1.824-1.888-1.824-1.072 0-1.744.56-1.84 1.488h-1.28c.16-1.632 1.44-2.56 3.152-2.56 1.952 0 3.168.928 3.168 2.864v3.696c0 .592.032 1.152.192 1.68h-1.328zm-2.671-.832c1.248 0 2.496-.784 2.496-2.336v-.72l-2.192.24c-1.008.144-1.84.4-1.84 1.488 0 .752.528 1.328 1.536 1.328zm12.204.32v-1.184c-.368.784-1.264 1.552-2.672 1.552-2.064 0-3.568-1.552-3.568-4.064 0-2.416 1.504-4.032 3.568-4.032 1.408 0 2.336.832 2.72 1.6V4.077h1.296v7.44c0 2.56-1.664 3.648-3.808 3.648-1.936 0-3.248-.784-3.568-2.352h1.344c.272 1.008 1.12 1.328 2.208 1.328 1.584 0 2.48-.848 2.48-2.528zm.096-3.504v-.384c0-1.664-1.04-2.8-2.528-2.8-1.568 0-2.496 1.2-2.496 2.992 0 1.776.928 3.008 2.496 3.008 1.488 0 2.528-1.152 2.528-2.816zm10.708 1.648c-.368 1.712-1.76 2.56-3.328 2.56-2.272 0-3.872-1.584-3.872-4.176 0-2.624 1.648-4.256 3.792-4.256 2.384 0 3.456 1.904 3.456 3.968v.528h-5.952c.064 1.856 1.04 2.88 2.576 2.88 1.088 0 1.744-.528 2.08-1.504h1.248zm-3.408-4.8c-1.264 0-2.224.816-2.448 2.464h4.608c-.032-1.392-.72-2.464-2.16-2.464zM5.888 23.965v1.216a3.238 3.238 0 00-.688-.064c-1.28 0-2.448 1.008-2.448 3.04v3.968H1.424v-8.048h1.28v1.904c.352-1.328 1.376-2.08 2.56-2.08.208 0 .432.016.624.064zm8.144 5.792c-.368 1.712-1.76 2.56-3.328 2.56-2.272 0-3.872-1.584-3.872-4.176 0-2.624 1.648-4.256 3.792-4.256 2.384 0 3.456 1.904 3.456 3.968v.528H8.128c.064 1.856 1.04 2.88 2.576 2.88 1.088 0 1.744-.528 2.08-1.504h1.248zm-3.408-4.8c-1.264 0-2.224.816-2.448 2.464h4.608c-.032-1.392-.72-2.464-2.16-2.464zm5.096 4.784H17c.096 1.104 1.12 1.568 2.208 1.568 1.104 0 1.904-.512 1.904-1.376 0-.592-.384-.976-1.408-1.168l-1.424-.288c-1.296-.24-2.24-.768-2.24-2.176 0-1.36 1.216-2.416 2.992-2.416 1.856 0 2.992.8 3.152 2.32h-1.232c-.096-.816-.816-1.296-1.92-1.296-1.072 0-1.76.528-1.76 1.312 0 .688.48.976 1.408 1.152l1.6.304c1.312.256 2.08.896 2.08 2.192 0 1.408-1.328 2.448-3.136 2.448-1.92 0-3.36-.848-3.504-2.576zm15.994-1.632c0 2.592-1.6 4.208-3.824 4.208-2.224 0-3.824-1.616-3.824-4.208s1.6-4.224 3.824-4.224c2.224 0 3.824 1.632 3.824 4.224zm-6.336 0c0 1.936.944 3.136 2.512 3.136s2.512-1.2 2.512-3.136c0-1.936-.944-3.152-2.512-3.152s-2.512 1.216-2.512 3.152zm9.92 4.016h-1.327V20.349h1.328v11.776zm9.469 0H43.47v-1.456c-.384 1.008-1.344 1.648-2.56 1.648-1.824 0-2.848-1.104-2.848-3.056v-5.184h1.344v4.928c0 1.488.624 2.272 1.888 2.272 1.216 0 2.128-.832 2.128-2.768v-4.432h1.344v8.048zm6.588-1.184v1.088a4.908 4.908 0 01-1.407.224c-1.473 0-2.224-.704-2.224-2.192v-4.976H46.54v-1.008h1.184v-2.048h1.312v2.048h2.111v1.008H49.02v4.912c0 .848.431 1.136 1.167 1.136.305 0 .657-.032 1.169-.192zm2.067-8.544v-1.616h1.504v1.616h-1.504zm.096 9.728v-8.048h1.328v8.048h-1.328zm11.228-4.016c0 2.592-1.6 4.208-3.824 4.208-2.224 0-3.824-1.616-3.824-4.208s1.6-4.224 3.824-4.224c2.224 0 3.824 1.632 3.824 4.224zm-6.336 0c0 1.936.944 3.136 2.512 3.136s2.512-1.2 2.512-3.136c0-1.936-.944-3.152-2.512-3.152s-2.512 1.216-2.512 3.152zm9.872-4.032v1.472c.384-.992 1.392-1.664 2.624-1.664 1.808 0 2.88 1.136 2.88 3.056v5.184h-1.328v-4.896c0-1.488-.656-2.256-1.92-2.256-1.232 0-2.208.784-2.208 2.72v4.432h-1.328v-8.048h1.28zm15.48 6.864v1.088a4.909 4.909 0 01-1.408.224c-1.472 0-2.224-.704-2.224-2.192v-4.976h-1.184v-1.008h1.184v-2.048h1.312v2.048h2.112v1.008h-2.128v4.912c0 .848.432 1.136 1.168 1.136.304 0 .656-.032 1.168-.192zm2.066-8.544v-1.616h1.504v1.616h-1.504zm.096 9.728v-8.048h1.328v8.048h-1.328zm10.444-6.512c.496-1.088 1.52-1.728 2.704-1.728 1.856 0 2.768 1.168 2.768 3.056v5.184h-1.344v-4.896c0-1.504-.544-2.256-1.744-2.256s-2.112.864-2.112 2.72v4.432h-1.344v-4.896c0-1.504-.528-2.256-1.744-2.256s-2.128.864-2.128 2.72v4.432h-1.328v-8.048h1.28v1.472c.384-1.024 1.376-1.664 2.544-1.664 1.36 0 2.096.656 2.448 1.728zm14.836 4.144c-.368 1.712-1.76 2.56-3.328 2.56-2.272 0-3.872-1.584-3.872-4.176 0-2.624 1.648-4.256 3.792-4.256 2.384 0 3.456 1.904 3.456 3.968v.528H105.3c.064 1.856 1.04 2.88 2.576 2.88 1.088 0 1.744-.528 2.08-1.504h1.248zm-3.408-4.8c-1.264 0-2.224.816-2.448 2.464h4.608c-.032-1.392-.72-2.464-2.16-2.464z" fill="#000"/></svg>