<svg width="207" height="71" viewBox="0 0 207 71" fill="none" xmlns="http://www.w3.org/2000/svg"><path d="M.4 50.925v-3.968l27.968-14.4v4.032L4.176 48.941l24.192 12.352v4.096L.4 50.925zm80.682-30.912c0 12.96-11.328 18.72-21.024 25.536-8.256 5.856-17.76 12.384-17.568 19.392h39.36v5.184H36.538v-3.072c0-11.52 11.712-20.256 21.888-26.688 9.024-5.952 17.088-11.712 17.088-20.256 0-7.008-3.936-14.4-15.264-14.4-10.368 0-16.224 7.68-16.896 16.512h-5.376C38.554 10.509 46.426.429 60.25.429c14.304 0 20.832 10.08 20.832 19.584zm41.652-18.432v43.968h15.264v4.8h-15.264v19.776h-5.664V50.349H82.99v-4.896l32.928-43.872h6.816zm-5.664 6.624L89.134 45.549h27.936V8.205zm34.493 42.192c1.152-3.072 4.032-4.992 7.728-4.992 5.424 0 8.64 3.408 8.64 9.168v15.552h-3.984V55.437c0-4.464-1.968-6.768-5.76-6.768-3.696 0-6.624 2.352-6.624 8.16v13.296h-3.984V34.797h3.984v15.6zm35.169-4.752v3.648c-.576-.144-1.44-.192-2.064-.192-3.84 0-7.344 3.024-7.344 9.12v11.904h-3.984V45.981h3.84v5.712c1.056-3.984 4.128-6.24 7.68-6.24.624 0 1.296.048 1.872.192zm.132 17.328h3.84c.288 3.312 3.36 4.704 6.624 4.704 3.312 0 5.712-1.536 5.712-4.128 0-1.776-1.152-2.928-4.224-3.504l-4.272-.864c-3.888-.72-6.72-2.304-6.72-6.528 0-4.08 3.648-7.248 8.976-7.248 5.568 0 8.976 2.4 9.456 6.96h-3.696c-.288-2.448-2.448-3.888-5.76-3.888-3.216 0-5.28 1.584-5.28 3.936 0 2.064 1.44 2.928 4.224 3.456l4.8.912c3.936.768 6.24 2.688 6.24 6.576 0 4.224-3.984 7.344-9.408 7.344-5.76 0-10.08-2.544-10.512-7.728z" fill="#000"/></svg>