<svg width="194" height="34" viewBox="0 0 194 34" fill="none" xmlns="http://www.w3.org/2000/svg"><path d="M8.368 3.962c0 2.144-1.776 3.104-3.488 4.208-1.392.928-2.768 1.888-2.768 2.928H8.48v1.152H.64v-.624c0-2.032 1.968-3.456 3.664-4.512 1.52-.976 2.752-1.824 2.752-3.152 0-1.088-.624-2.176-2.32-2.176-1.568 0-2.48 1.184-2.576 2.56H.864C.976 2.33 2.352.634 4.752.634s3.616 1.632 3.616 3.328zm1.652 2.576c0-3.424 1.776-5.904 4.544-5.904 2.784 0 4.544 2.48 4.544 5.904s-1.76 5.904-4.544 5.904c-2.768 0-4.544-2.48-4.544-5.904zm1.408 0c0 2.8 1.056 4.72 3.136 4.72 2.096 0 3.152-1.92 3.152-4.72s-1.056-4.72-3.152-4.72c-2.08 0-3.136 1.92-3.136 4.72zm16.924-2.576c0 2.144-1.776 3.104-3.488 4.208-1.392.928-2.768 1.888-2.768 2.928h6.368v1.152h-7.84v-.624c0-2.032 1.968-3.456 3.664-4.512 1.52-.976 2.752-1.824 2.752-3.152 0-1.088-.624-2.176-2.32-2.176-1.568 0-2.48 1.184-2.576 2.56h-1.296C20.96 2.33 22.336.634 24.736.634s3.616 1.632 3.616 3.328zM36.57.826V8.01h2.448v1.104h-2.448v3.136h-1.344V9.114H29.56v-1.12L35.017.826h1.552zM35.225 2.25l-4.336 5.76h4.336V2.25zm9.999 4.272c0 2.848 1.36 4.752 3.712 4.752 1.92 0 2.752-1.072 3.008-2.352h1.344c-.368 2.08-1.856 3.52-4.352 3.52-2.944 0-5.12-2.32-5.12-5.92 0-3.584 2.176-5.888 5.12-5.888 2.496 0 3.984 1.44 4.352 3.52h-1.344c-.256-1.28-1.088-2.352-3.008-2.352-2.352 0-3.712 1.872-3.712 4.72zm16.808 5.728h-1.296v-1.456c-.384 1.008-1.344 1.648-2.56 1.648-1.824 0-2.848-1.104-2.848-3.056V4.202h1.344V9.13c0 1.488.624 2.272 1.888 2.272 1.216 0 2.128-.832 2.128-2.768V4.202h1.344v8.048zm2.157-2.384h1.28c.096 1.104 1.12 1.568 2.208 1.568 1.104 0 1.904-.512 1.904-1.376 0-.592-.384-.976-1.408-1.168l-1.424-.288c-1.296-.24-2.24-.768-2.24-2.176 0-1.36 1.216-2.416 2.992-2.416 1.856 0 2.992.8 3.152 2.32h-1.232c-.096-.816-.816-1.296-1.92-1.296-1.072 0-1.76.528-1.76 1.312 0 .688.48.976 1.408 1.152l1.6.304c1.312.256 2.08.896 2.08 2.192 0 1.408-1.328 2.448-3.136 2.448-1.92 0-3.36-.848-3.504-2.576zm12.682 1.2v1.088a4.908 4.908 0 01-1.408.224c-1.472 0-2.224-.704-2.224-2.192V5.21h-1.184V4.202h1.184V2.154h1.312v2.048h2.112V5.21h-2.128v4.912c0 .848.432 1.136 1.168 1.136.304 0 .656-.032 1.168-.192zm9.125-2.832c0 2.592-1.6 4.208-3.824 4.208-2.224 0-3.824-1.616-3.824-4.208s1.6-4.224 3.824-4.224c2.224 0 3.824 1.632 3.824 4.224zm-6.336 0c0 1.936.944 3.136 2.512 3.136s2.512-1.2 2.512-3.136c0-1.936-.944-3.152-2.512-3.152S79.66 6.298 79.66 8.234zm14.864-2.496c.496-1.088 1.52-1.728 2.704-1.728 1.856 0 2.768 1.168 2.768 3.056v5.184h-1.344V7.354c0-1.504-.544-2.256-1.744-2.256s-2.112.864-2.112 2.72v4.432h-1.344V7.354c0-1.504-.528-2.256-1.744-2.256s-2.128.864-2.128 2.72v4.432h-1.328V4.202h1.28v1.472c.384-1.024 1.376-1.664 2.544-1.664 1.36 0 2.096.656 2.448 1.728zm14.836 4.144c-.368 1.712-1.76 2.56-3.328 2.56-2.272 0-3.872-1.584-3.872-4.176 0-2.624 1.648-4.256 3.792-4.256 2.384 0 3.456 1.904 3.456 3.968v.528h-5.952c.064 1.856 1.04 2.88 2.576 2.88 1.088 0 1.744-.528 2.08-1.504h1.248zm-3.408-4.8c-1.264 0-2.224.816-2.448 2.464h4.608c-.032-1.392-.72-2.464-2.16-2.464zm10.17-.992v1.216a3.238 3.238 0 00-.688-.064c-1.28 0-2.448 1.008-2.448 3.04v3.968h-1.328V4.202h1.28v1.904c.352-1.328 1.376-2.08 2.56-2.08.208 0 .432.016.624.064zM.752 28.874H2.08c.176 1.84 1.68 2.464 3.376 2.464 1.632 0 2.832-.784 2.832-2.16 0-.96-.528-1.584-2.08-1.872l-2.176-.432c-1.536-.288-2.912-.992-2.912-2.96 0-1.872 1.616-3.28 3.984-3.28 2.448 0 4.064 1.056 4.288 3.12H8.064c-.192-1.28-1.312-2.016-2.944-2.016-1.664 0-2.656.928-2.656 2.128 0 1.136.64 1.536 2.032 1.808l2.24.464c1.76.352 2.88 1.168 2.88 2.976 0 1.952-1.728 3.328-4.144 3.328-2.48 0-4.56-1.072-4.72-3.568zm16.131 3.376a7.032 7.032 0 01-.144-1.36c-.352.944-1.456 1.536-2.8 1.536-1.408 0-2.608-.816-2.608-2.304 0-1.552 1.152-2.224 2.784-2.416l2.592-.336v-.464c0-1.28-.784-1.824-1.888-1.824-1.072 0-1.744.56-1.84 1.488H11.7c.16-1.632 1.44-2.56 3.152-2.56 1.952 0 3.168.928 3.168 2.864v3.696c0 .592.032 1.152.192 1.68h-1.328zm-2.672-.832c1.248 0 2.496-.784 2.496-2.336v-.72l-2.192.24c-1.008.144-1.84.4-1.84 1.488 0 .752.528 1.328 1.536 1.328zm10.316-.352v1.088a4.908 4.908 0 01-1.408.224c-1.472 0-2.224-.704-2.224-2.192V25.21h-1.184v-1.008h1.184v-2.048h1.312v2.048h2.112v1.008h-2.128v4.912c0 .848.432 1.136 1.168 1.136.304 0 .656-.032 1.168-.192zm2.067-8.544v-1.616h1.504v1.616h-1.504zm.096 9.728v-8.048h1.328v8.048H26.69zm3.483-2.384h1.28c.096 1.104 1.12 1.568 2.208 1.568 1.105 0 1.904-.512 1.904-1.376 0-.592-.383-.976-1.407-1.168l-1.425-.288c-1.295-.24-2.24-.768-2.24-2.176 0-1.36 1.216-2.416 2.993-2.416 1.856 0 2.992.8 3.152 2.32h-1.232c-.096-.816-.816-1.296-1.92-1.296-1.072 0-1.76.528-1.76 1.312 0 .688.48.976 1.407 1.152l1.6.304c1.313.256 2.08.896 2.08 2.192 0 1.408-1.328 2.448-3.136 2.448-1.92 0-3.36-.848-3.503-2.576zm9.146-4.656h-1.168v-1.008h1.168v-1.504c0-1.504.96-2.272 2.337-2.272.288 0 .656.032.895.08v1.056a6.054 6.054 0 00-.816-.048c-.575 0-1.103.288-1.103 1.2v1.488h1.727v1.008h-1.727v7.04h-1.313v-7.04zm9.69 7.04a7.032 7.032 0 01-.145-1.36c-.352.944-1.456 1.536-2.8 1.536-1.408 0-2.608-.816-2.608-2.304 0-1.552 1.152-2.224 2.784-2.416l2.592-.336v-.464c0-1.28-.784-1.824-1.888-1.824-1.072 0-1.744.56-1.84 1.488h-1.28c.16-1.632 1.44-2.56 3.152-2.56 1.952 0 3.168.928 3.168 2.864v3.696c0 .592.032 1.152.192 1.68h-1.328zm-2.673-.832c1.248 0 2.496-.784 2.496-2.336v-.72l-2.192.24c-1.008.144-1.84.4-1.84 1.488 0 .752.528 1.328 1.536 1.328zm5.98-3.184c0-2.576 1.552-4.224 3.792-4.224 1.792 0 2.976 1.024 3.232 2.736h-1.264c-.224-1.072-.88-1.664-1.968-1.664-1.584 0-2.48 1.264-2.48 3.152 0 1.888.896 3.136 2.48 3.136 1.088 0 1.744-.592 1.968-1.664h1.264c-.256 1.728-1.44 2.736-3.232 2.736-2.24 0-3.792-1.632-3.792-4.208zm12.961 2.832v1.088a4.908 4.908 0 01-1.408.224c-1.472 0-2.224-.704-2.224-2.192V25.21h-1.184v-1.008h1.184v-2.048h1.312v2.048h2.112v1.008h-2.128v4.912c0 .848.432 1.136 1.168 1.136.304 0 .656-.032 1.168-.192zm2.067-8.544v-1.616h1.504v1.616h-1.504zm.096 9.728v-8.048h1.328v8.048H67.44zm11.228-4.016c0 2.592-1.6 4.208-3.825 4.208-2.224 0-3.824-1.616-3.824-4.208s1.6-4.224 3.825-4.224c2.224 0 3.824 1.632 3.824 4.224zm-6.337 0c0 1.936.944 3.136 2.513 3.136 1.568 0 2.512-1.2 2.512-3.136 0-1.936-.944-3.152-2.512-3.152-1.569 0-2.512 1.216-2.512 3.152zm9.873-4.032v1.472c.384-.992 1.392-1.664 2.624-1.664 1.808 0 2.88 1.136 2.88 3.056v5.184H86.38v-4.896c0-1.488-.656-2.256-1.92-2.256-1.232 0-2.208.784-2.208 2.72v4.432h-1.328v-8.048h1.28zm11.064 4.672h1.328c.176 1.84 1.68 2.464 3.376 2.464 1.632 0 2.832-.784 2.832-2.16 0-.96-.528-1.584-2.08-1.872l-2.176-.432c-1.536-.288-2.912-.992-2.912-2.96 0-1.872 1.616-3.28 3.984-3.28 2.448 0 4.064 1.056 4.288 3.12h-1.328c-.192-1.28-1.312-2.016-2.944-2.016-1.664 0-2.656.928-2.656 2.128 0 1.136.64 1.536 2.032 1.808l2.24.464c1.76.352 2.88 1.168 2.88 2.976 0 1.952-1.728 3.328-4.144 3.328-2.48 0-4.56-1.072-4.72-3.568zm10.611-.64c0-2.576 1.552-4.224 3.792-4.224 1.792 0 2.976 1.024 3.232 2.736h-1.264c-.224-1.072-.88-1.664-1.968-1.664-1.584 0-2.48 1.264-2.48 3.152 0 1.888.896 3.136 2.48 3.136 1.088 0 1.744-.592 1.968-1.664h1.264c-.256 1.728-1.44 2.736-3.232 2.736-2.24 0-3.792-1.632-3.792-4.208zm16.273 0c0 2.592-1.6 4.208-3.824 4.208-2.224 0-3.824-1.616-3.824-4.208s1.6-4.224 3.824-4.224c2.224 0 3.824 1.632 3.824 4.224zm-6.336 0c0 1.936.944 3.136 2.512 3.136s2.512-1.2 2.512-3.136c0-1.936-.944-3.152-2.512-3.152s-2.512 1.216-2.512 3.152zm13.056-4.144v1.216a3.238 3.238 0 00-.688-.064c-1.28 0-2.448 1.008-2.448 3.04v3.968h-1.328v-8.048h1.28v1.904c.352-1.328 1.376-2.08 2.56-2.08.208 0 .432.016.624.064zm8.144 5.792c-.368 1.712-1.76 2.56-3.328 2.56-2.272 0-3.872-1.584-3.872-4.176 0-2.624 1.648-4.256 3.792-4.256 2.384 0 3.456 1.904 3.456 3.968v.528h-5.952c.064 1.856 1.04 2.88 2.576 2.88 1.088 0 1.744-.528 2.08-1.504h1.248zm-3.408-4.8c-1.264 0-2.224.816-2.448 2.464h4.608c-.032-1.392-.72-2.464-2.16-2.464zm10.503 2.144c0 2.4 1.008 4.752 2.576 6.752h-1.296c-1.616-1.984-2.608-4.272-2.608-6.752 0-2.464.992-4.768 2.608-6.752h1.296c-1.472 2-2.576 4.352-2.576 6.752zm5.722-.704c0 2.848 1.36 4.752 3.712 4.752 1.92 0 2.752-1.072 3.008-2.352h1.344c-.368 2.08-1.856 3.52-4.352 3.52-2.944 0-5.12-2.32-5.12-5.92 0-3.584 2.176-5.888 5.12-5.888 2.496 0 3.984 1.44 4.352 3.52h-1.344c-.256-1.28-1.088-2.352-3.008-2.352-2.352 0-3.712 1.872-3.712 4.72zm9.513 2.352h1.328c.176 1.84 1.68 2.464 3.376 2.464 1.632 0 2.832-.784 2.832-2.16 0-.96-.528-1.584-2.08-1.872l-2.176-.432c-1.536-.288-2.912-.992-2.912-2.96 0-1.872 1.616-3.28 3.984-3.28 2.448 0 4.064 1.056 4.288 3.12h-1.328c-.192-1.28-1.312-2.016-2.944-2.016-1.664 0-2.656.928-2.656 2.128 0 1.136.64 1.536 2.032 1.808l2.24.464c1.76.352 2.88 1.168 2.88 2.976 0 1.952-1.728 3.328-4.144 3.328-2.48 0-4.56-1.072-4.72-3.568zm19.38 3.376l-1.264-3.184h-5.472l-1.264 3.184h-1.376l4.624-11.424h1.552l4.64 11.424h-1.44zm-4.016-10.048l-2.272 5.728h4.576l-2.256-5.728h-.048zm9.686 10.048V21.978h-4.256v-1.152h9.904v1.152h-4.272V32.25h-1.376zm7.236 1.728c1.568-2 2.576-4.352 2.576-6.752 0-2.4-1.104-4.752-2.576-6.752h1.296c1.616 1.984 2.608 4.288 2.608 6.752 0 2.48-.992 4.768-2.608 6.752h-1.296z" fill="#000"/></svg>