<svg width="126" height="71" viewBox="0 0 126 71" fill="none" xmlns="http://www.w3.org/2000/svg"><path d="M40.584.706v43.968h15.264v4.8H40.584V69.25H34.92V49.474H.84v-4.896L33.768.706h6.816zM34.92 7.33L6.984 44.674H34.92V7.33zm26.494 61.92v-8.352h8.256v8.352h-8.256zm40.623-40.224c-7.872 0-13.152 3.936-15.936 8.544h-5.184L84.66.706h37.248v5.28H88.885L86.293 31.33c3.072-4.128 9.312-7.392 15.648-7.392 14.4 0 23.136 10.464 23.136 23.232 0 12.96-8.64 23.232-23.04 23.232-12.96 0-22.848-8.064-23.904-21.312h5.664c.768 9.6 7.68 16.224 18.336 16.224 11.904 0 17.376-8.736 17.376-18.24 0-9.408-5.568-18.048-17.472-18.048z" fill="#000"/></svg>